<?xml version="1.0" encoding="utf-8"?>
<!-- Generator: Adobe Illustrator 23.0.5, SVG Export Plug-In . SVG Version: 6.00 Build 0)  -->
<svg version="1.1" id="Layer_1" xmlns="http://www.w3.org/2000/svg" xmlns:xlink="http://www.w3.org/1999/xlink" x="0px" y="0px"
	 viewBox="0 0 64 64" style="enable-background:new 0 0 64 64;" xml:space="preserve">
<style type="text/css">
	.st0{fill:none;stroke:#EC0000;stroke-width:4;stroke-linejoin:round;stroke-miterlimit:10;}
	.st1{fill:#FFFFFF;stroke:#EC0000;stroke-width:4;stroke-linejoin:round;stroke-miterlimit:10;}
</style>
<path class="st0" d="M15.2,34.8v25.1h37V32.8H40.3V60"/>
<path class="st0" d="M62.9,59.9V4.1H15.2v12.2"/>
<path class="st1" d="M25.5,14.6c-3,0-3.4,2.2-7.3,2.2s-4.6-2.2-7.3-2.2C5.3,14.6,1,19.4,1,25.3S5.3,36,10.8,36
	c2.9,0,4.3-2.2,7.3-2.2s4.3,2.2,7.3,2.2c5.4,0,9.8-4.8,9.8-10.7S30.9,14.6,25.5,14.6z M10.4,30c-2.9,0-5.1-2-5.1-4.5
	c0-2.3,2.2-4.5,5.1-4.5c2.8,0,5,2.2,5,4.5C15.4,28,13.2,30,10.4,30z M26,30c-2.8,0-5-2-5-4.5c0-2.3,2.2-4.5,5-4.5
	c2.9,0,5.1,2.2,5.1,4.5C31.2,28,28.8,30,26,30z"/>
</svg>
