<?xml version="1.0" encoding="utf-8"?>
<!-- Generator: Adobe Illustrator 23.0.5, SVG Export Plug-In . SVG Version: 6.00 Build 0)  -->
<svg version="1.1" id="Layer_1" xmlns="http://www.w3.org/2000/svg" xmlns:xlink="http://www.w3.org/1999/xlink" x="0px" y="0px"
	 viewBox="0 0 64 64" style="enable-background:new 0 0 64 64;" xml:space="preserve">
<style type="text/css">
	.st0{fill:none;stroke:#EC0000;stroke-width:4;stroke-linejoin:round;stroke-miterlimit:10;}
</style>
<path class="st0" d="M29.5,2.2c-3.5,0-3.9,2.3-8.4,2.3S16,2.2,12.7,2.2C6.4,2.2,1.4,7.3,1.4,13.5s5,11.3,11.3,11.3
	c3.3,0,5-2.3,8.4-2.3c3.5,0,5,2.3,8.4,2.3c6.2,0,11.3-5.1,11.3-11.3S35.6,2.2,29.5,2.2z M12.2,18.3c-3.3,0-5.9-2.1-5.9-4.8
	c0-2.5,2.6-4.8,5.9-4.8c3.2,0,5.7,2.3,5.7,4.8C17.9,16.3,15.4,18.3,12.2,18.3z M30.1,18.3c-3.2,0-5.7-2.1-5.7-4.8
	c0-2.5,2.6-4.8,5.7-4.8c3.3,0,5.9,2.3,5.9,4.8C35.9,16.3,33.2,18.3,30.1,18.3z"/>
<path class="st0" d="M64.2,0.8L-1.1,63.5"/>
<path class="st0" d="M61.5,61V35H32.9v26H55V48.4h-7V61"/>
</svg>
