<!DOCTYPE svg PUBLIC "-//W3C//DTD SVG 20010904//EN" "http://www.w3.org/TR/2001/REC-SVG-20010904/DTD/svg10.dtd">
<svg version="1.0" xmlns="http://www.w3.org/2000/svg" width="512px" height="512px" viewBox="0 0 5120 5120" preserveAspectRatio="xMidYMid meet">
<g id="layer1" fill="#ed1c24" stroke="none">
 <path d="M4085 5110 c3 -5 0 -10 -8 -10 -8 0 -18 -7 -21 -16 -3 -8 -10 -13 -15 -9 -6 3 -15 -4 -21 -15 -6 -11 -15 -18 -20 -15 -5 3 -14 -4 -20 -15 -6 -11 -15 -18 -20 -15 -5 3 -14 -4 -20 -15 -6 -11 -15 -18 -20 -15 -5 3 -14 -4 -20 -15 -6 -11 -15 -18 -20 -15 -5 3 -14 -4 -20 -15 -6 -11 -15 -18 -20 -15 -5 3 -14 -4 -20 -15 -6 -11 -15 -18 -20 -15 -5 3 -14 -4 -20 -15 -6 -11 -15 -18 -20 -15 -5 3 -14 -4 -20 -15 -6 -11 -15 -18 -20 -15 -5 3 -14 -4 -20 -15 -6 -11 -15 -19 -20 -17 -5 1 -15 -5 -22 -14 -17 -22 -248 -193 -270 -202 -10 -3 -18 -11 -18 -17 0 -5 -7 -10 -15 -10 -9 0 -18 -7 -21 -15 -4 -8 -13 -15 -20 -15 -8 0 -17 -7 -20 -15 -4 -8 -13 -15 -20 -15 -8 0 -17 -7 -20 -15 -4 -8 -13 -15 -20 -15 -8 0 -17 -7 -20 -15 -4 -8 -13 -15 -20 -15 -8 0 -17 -6 -20 -14 -3 -8 -15 -16 -26 -20 -17 -4 -19 -8 -10 -19 7 -8 9 -16 6 -20 -3 -3 4 -10 15 -17 12 -6 19 -15 16 -20 -3 -5 4 -14 15 -20 11 -6 18 -15 15 -20 -3 -5 4 -14 15 -20 11 -6 18 -15 15 -20 -3 -5 4 -14 15 -20 11 -6 18 -15 15 -20 -3 -5 4 -14 15 -20 11 -6 18 -15 15 -20 -3 -5 4 -14 15 -20 11 -6 18 -15 15 -20 -3 -5 4 -14 15 -20 11 -6 19 -14 18 -18 -1 -4 12 -23 30 -42 18 -19 32 -40 32 -46 0 -6 7 -18 16 -25 14 -11 18 -10 31 6 8 11 18 19 23 18 5 -2 14 6 20 17 6 11 15 18 20 15 5 -3 14 4 20 15 6 11 15 18 20 15 5 -3 14 4 20 15 6 11 15 18 20 15 5 -3 14 4 20 15 6 11 15 18 20 15 5 -3 16 5 24 17 9 12 16 18 16 13 1 -6 10 1 20 14 11 13 20 19 20 15 1 -5 10 2 20 15 11 13 20 19 20 15 1 -5 10 2 20 15 11 13 20 19 20 15 1 -5 10 2 20 15 11 13 20 19 20 15 1 -5 10 2 20 15 11 13 20 19 20 15 1 -5 9 1 19 13 10 12 21 20 24 17 3 -3 11 3 18 14 7 12 19 17 30 15 11 -3 16 -9 13 -14 -3 -5 2 -12 10 -15 9 -3 13 -10 10 -15 -3 -5 2 -12 10 -15 9 -3 13 -10 10 -15 -3 -5 2 -12 10 -15 9 -3 13 -10 10 -15 -3 -5 2 -12 10 -15 9 -3 13 -10 10 -15 -3 -5 2 -12 10 -15 9 -3 13 -10 10 -15 -3 -5 2 -12 10 -15 9 -3 13 -10 10 -15 -3 -5 2 -12 10 -15 9 -3 13 -10 10 -15 -3 -5 2 -12 10 -15 9 -3 13 -10 10 -15 -3 -5 2 -12 10 -15 9 -3 13 -10 10 -15 -3 -5 2 -12 10 -15 9 -3 13 -10 10 -15 -3 -5 2 -12 10 -15 9 -3 13 -10 10 -15 -3 -5 2 -12 10 -15 9 -3 13 -10 10 -15 -3 -5 2 -12 10 -15 9 -3 13 -10 10 -15 -3 -5 2 -12 10 -15 9 -3 13 -10 10 -15 -3 -5 2 -12 10 -15 9 -3 13 -10 10 -15 -3 -5 2 -12 10 -15 9 -3 13 -10 10 -15 -3 -5 2 -12 10 -15 9 -3 13 -10 10 -15 -3 -5 2 -12 10 -15 9 -3 13 -10 10 -15 -3 -5 2 -12 10 -15 9 -3 13 -10 10 -15 -3 -5 2 -12 10 -15 9 -3 13 -10 10 -15 -3 -5 2 -12 10 -15 9 -3 13 -10 10 -15 -3 -5 2 -12 10 -15 9 -3 13 -10 10 -15 -3 -5 2 -12 10 -15 9 -3 13 -10 10 -15 -3 -5 2 -12 10 -15 9 -3 13 -10 10 -15 -3 -5 2 -12 10 -15 9 -3 14 -10 11 -14 -3 -5 3 -13 12 -19 10 -6 15 -11 10 -11 -9 0 147 -235 163 -245 5 -3 13 1 16 9 3 9 10 13 15 10 5 -3 12 2 15 10 3 9 10 13 15 10 5 -3 12 2 15 10 3 9 10 13 15 10 5 -3 12 2 15 10 3 9 10 13 15 10 5 -3 12 2 15 10 3 9 10 13 15 10 5 -3 12 2 15 10 3 9 10 13 15 10 5 -3 12 2 15 10 3 9 10 13 15 10 5 -3 12 2 15 10 3 9 10 13 15 10 5 -3 12 2 15 10 3 9 10 13 15 10 5 -3 12 2 15 10 3 9 10 13 15 10 5 -3 12 2 15 10 3 9 10 13 15 10 5 -3 12 2 15 10 3 9 10 14 14 11 5 -3 13 2 18 11 5 9 13 14 18 12 5 -1 13 10 18 25 8 22 7 30 -4 37 -8 6 -10 10 -5 10 6 0 1 7 -9 15 -11 8 -17 15 -13 15 4 0 -38 66 -93 148 -322 474 -618 921 -613 926 3 3 -2 8 -11 12 -9 3 -13 10 -10 15 3 5 -2 12 -10 15 -9 3 -13 10 -10 15 3 5 -2 12 -10 15 -9 3 -13 10 -10 15 3 5 -2 12 -10 15 -9 3 -13 10 -10 15 3 5 -2 12 -10 15 -9 3 -13 10 -10 15 3 5 -2 12 -10 15 -9 3 -13 10 -10 15 3 5 -2 12 -10 15 -9 3 -13 10 -10 15 3 5 -2 12 -10 15 -9 3 -13 10 -10 15 3 5 -2 12 -10 15 -9 3 -13 10 -10 15 3 5 -2 12 -10 15 -9 3 -14 10 -11 14 3 5 -1 12 -9 17 -14 8 -16 12 -16 33 0 6 -12 10 -26 10 -14 0 -23 -4 -19 -10z"/>
 <path d="M2183 3 c20 -2 54 -2 75 0 20 2 3 4 -38 4 -41 0 -58 -2 -37 -4z"/>
 <path d="M2348 3 c23 -2 59 -2 80 0 20 2 1 4 -43 4 -44 0 -61 -2 -37 -4z"/>
 </g>
<g id="layer2" fill="#000000" stroke="none">
 <path d="M3736 4850 c-191 -144 -344 -265 -341 -270 5 -8 651 466 705 516 12 12 12 14 -1 14 -9 0 -172 -117 -363 -260z"/>
 <path d="M4117 5094 c-9 -9 732 -1116 743 -1109 8 5 -723 1115 -733 1115 -2 0 -6 -3 -10 -6z"/>
 <path d="M1675 4894 c-835 -55 -1379 -190 -1587 -394 -60 -59 -67 -70 -72 -115 -12 -91 9 -265 44 -370 185 -556 764 -1107 1421 -1353 57 -21 134 -47 171 -57 l66 -17 -71 -57 c-281 -224 -505 -595 -588 -976 -26 -120 -36 -341 -20 -453 69 -476 384 -867 833 -1035 94 -36 150 -46 295 -56 182 -12 389 3 501 35 436 127 791 513 881 961 50 249 33 478 -56 743 -97 292 -301 593 -519 769 l-82 66 112 36 c335 109 628 272 900 502 107 91 159 142 256 253 l89 101 -165 246 c-90 136 -169 247 -174 247 -6 0 -124 -85 -262 -189 -139 -104 -256 -188 -259 -185 -4 2 -109 139 -234 305 -125 165 -232 298 -238 296 -9 -3 -500 -1172 -512 -1222 -4 -15 18 -47 86 -123 50 -57 89 -105 87 -107 -2 -2 -31 3 -63 13 -86 24 -336 24 -424 -1 -35 -9 -65 -16 -67 -14 -2 1 39 51 92 110 l94 107 -270 652 -270 653 315 315 315 315 224 -224 225 -224 218 163 c264 198 317 241 306 250 -9 9 -200 26 -438 40 -236 13 -919 10 -1160 -6z"/>
 <path d="M3361 4566 c-7 -8 -8 -17 -3 -20 6 -3 15 1 21 8 7 8 8 17 3 20 -6 3 -15 -1 -21 -8z"/>
 <path d="M3321 4536 c-7 -8 -8 -17 -3 -20 6 -3 15 1 21 8 7 8 8 17 3 20 -6 3 -15 -1 -21 -8z"/>
 <path d="M3281 4506 c-7 -8 -8 -17 -3 -20 6 -3 15 1 21 8 7 8 8 17 3 20 -6 3 -15 -1 -21 -8z"/>
 <path d="M3241 4476 c-7 -8 -8 -17 -3 -20 6 -3 15 1 21 8 7 8 8 17 3 20 -6 3 -15 -1 -21 -8z"/>
 <path d="M3201 4446 c-7 -8 -8 -17 -3 -20 6 -3 15 1 21 8 7 8 8 17 3 20 -6 3 -15 -1 -21 -8z"/>
 <path d="M3152 4407 l-21 -22 145 -193 c80 -106 149 -190 154 -187 8 5 -111 170 -274 384 -8 11 -8 13 0 8 7 -4 17 0 23 7 20 24 -5 27 -27 3z"/>
 <path d="M3951 4377 c-14 -18 -2 -30 15 -16 10 8 74 -81 284 -396 149 -223 275 -403 280 -400 5 3 -112 188 -261 411 -149 223 -273 403 -276 400 -4 -3 -12 -1 -18 4 -9 7 -16 6 -24 -3z"/>
 <path d="M3911 4346 c-7 -8 -8 -17 -3 -20 6 -3 15 1 21 8 7 8 8 17 3 20 -6 3 -15 -1 -21 -8z"/>
 <path d="M3871 4316 c-7 -8 -8 -17 -3 -20 6 -3 15 1 21 8 7 8 8 17 3 20 -6 3 -15 -1 -21 -8z"/>
 <path d="M3831 4286 c-7 -8 -8 -17 -3 -20 6 -3 15 1 21 8 7 8 8 17 3 20 -6 3 -15 -1 -21 -8z"/>
 <path d="M3791 4256 c-7 -8 -8 -17 -3 -20 6 -3 15 1 21 8 7 8 8 17 3 20 -6 3 -15 -1 -21 -8z"/>
 <path d="M3751 4226 c-7 -8 -8 -17 -3 -20 6 -3 15 1 21 8 7 8 8 17 3 20 -6 3 -15 -1 -21 -8z"/>
 <path d="M3711 4196 c-7 -8 -8 -17 -3 -20 6 -3 15 1 21 8 7 8 8 17 3 20 -6 3 -15 -1 -21 -8z"/>
 <path d="M3671 4166 c-7 -8 -8 -17 -3 -20 6 -3 15 1 21 8 7 8 8 17 3 20 -6 3 -15 -1 -21 -8z"/>
 <path d="M3547 4074 c-53 -41 -95 -79 -92 -85 4 -5 51 25 106 67 55 41 97 79 94 85 -8 11 5 19 -108 -67z"/>
 <path d="M5048 3694 c-4 -4 1 -19 12 -34 11 -16 20 -32 20 -37 0 -4 -91 -68 -201 -141 -110 -73 -197 -137 -194 -142 3 -5 98 52 210 127 158 105 205 141 205 157 0 25 -42 81 -52 70z"/>
 </g>
<g id="layer3" fill="#ffffff" stroke="none">
 <path d="M0 2560 l0 -2560 1088 1 c598 0 1080 3 1072 6 -8 2 -24 8 -35 12 -11 5 -49 14 -85 21 -95 17 -202 56 -314 113 -310 158 -537 437 -630 775 -38 139 -50 244 -43 399 10 221 56 399 162 620 112 233 277 446 450 578 55 42 72 61 65 70 -5 7 -40 20 -77 30 -176 47 -419 155 -608 270 -300 182 -587 450 -763 715 -139 209 -252 495 -252 640 0 21 -5 42 -10 45 -13 8 -13 50 -1 73 5 9 15 32 21 50 43 114 318 252 650 326 384 85 972 146 1417 146 l168 0 -312 -312 -313 -313 270 -653 271 -653 -78 -87 c-42 -48 -88 -99 -101 -114 -38 -41 -21 -48 60 -25 106 30 361 30 463 -1 39 -11 73 -17 78 -13 4 4 -38 59 -93 122 -74 84 -99 119 -95 134 7 31 491 1196 497 1198 3 1 106 -131 228 -293 122 -162 226 -299 231 -304 5 -5 117 72 263 182 141 106 259 192 263 192 5 0 79 -107 165 -237 l157 -236 -92 -105 c-285 -328 -716 -602 -1164 -742 -57 -17 -105 -35 -108 -40 -2 -4 12 -19 33 -33 231 -152 467 -484 575 -807 89 -265 106 -494 56 -743 -76 -381 -336 -710 -690 -876 -85 -40 -228 -86 -303 -98 -23 -3 -45 -9 -51 -13 -5 -4 -19 -10 -30 -13 -11 -2 584 -5 1323 -6 l1342 -1 0 2560 0 2560 -506 0 c-451 0 -506 -2 -500 -15 3 -9 224 -344 491 -746 267 -402 485 -734 485 -738 0 -4 -92 -69 -204 -144 l-204 -136 -346 520 c-190 285 -351 519 -356 519 -6 0 -128 -88 -271 -196 -143 -107 -262 -194 -264 -192 -1 2 -69 90 -149 197 -119 158 -144 197 -134 207 7 7 220 169 473 359 253 191 462 351 463 356 2 5 -800 9 -2047 9 l-2051 0 0 -2560z m3010 2310 c80 -6 167 -14 194 -18 l49 -7 -252 -189 -252 -190 -212 213 -212 213 270 -6 c149 -3 335 -10 415 -16z"/>
 </g>

</svg>