<?xml version="1.0" encoding="utf-8"?>
<!-- Generator: Adobe Illustrator 23.0.5, SVG Export Plug-In . SVG Version: 6.00 Build 0)  -->
<svg version="1.1" id="Layer_1" xmlns="http://www.w3.org/2000/svg" xmlns:xlink="http://www.w3.org/1999/xlink" x="0px" y="0px"
	 viewBox="0 0 64 64" style="enable-background:new 0 0 64 64;" xml:space="preserve">
<style type="text/css">
	.st0{fill:#EC0000;}
	.st1{fill:none;stroke:#EC0000;stroke-width:2.713;stroke-linejoin:round;stroke-miterlimit:10;}
	.st2{fill:none;stroke:#EC0000;stroke-width:3;stroke-linejoin:round;stroke-miterlimit:10;}
	.st3{fill:none;stroke:#EC0000;stroke-width:2.8863;stroke-linejoin:round;stroke-miterlimit:10;}
	.st4{fill:none;stroke:#EC0000;stroke-width:2.5501;stroke-linejoin:round;stroke-miterlimit:10;}
	.st5{fill:none;stroke:#EC0000;stroke-width:2;stroke-linejoin:round;stroke-miterlimit:10;}
</style>
<path class="st0" d="M57.3,26c0,2-1,3.3-2.1,3.3S53.1,28,53.1,26s1.1-3.3,2.1-3.3C56.4,22.8,57.3,24,57.3,26z"/>
<path class="st1" d="M52.6,38.9c0,8.7-6.5,15.8-14.4,15.8c-7.8,0.1-14.1-7.1-14.1-15.8s6.4-15.6,14-15.6
	C46.1,23.4,52.6,30.2,52.6,38.9z"/>
<path class="st2" d="M14.5,23c0,34.7,0,34.7,0,34.7c0,1.4,1,2.8,1.8,2.8c36.8,0,36.8,0,36.8,0"/>
<path class="st3" d="M62.5,60.9c0-40.4,0-40.4,0-40.4c0-1.2-0.6-2.5-1.6-2.5c-8.4,0-8.4,0-8.4,0c-0.8,0-2.7-6.5-3.6-6.5
	c-16.5,0-16.5,0-16.5,0c-0.1,0-0.2,0.2-0.5,0.4"/>
<path class="st4" d="M45.6,38.7c0,4.2-3.2,7.5-7.1,7.5c-4.1,0-7.2-3.3-7.2-7.5c0-4,3.2-7.4,7.2-7.4C42.3,31.3,45.6,34.7,45.6,38.7z"
	/>
<path class="st2" d="M23.9,3.4c-2.6,0-3,2.2-6.4,2.2s-4-2.2-6.4-2.2C6.3,3.4,2.4,8.2,2.4,14S6.3,24.6,11,24.6c2.5,0,3.7-2.2,6.4-2.2
	s3.7,2.2,6.4,2.2c4.7,0,8.6-4.8,8.6-10.7S28.5,3.4,23.9,3.4z"/>
<path class="st5" d="M19.3,14c0,2.7,2,4.9,4.5,4.9c2.6,0,4.7-2.2,4.7-4.9c0-2.5-2-4.9-4.7-4.9C21.3,9.1,19.3,11.5,19.3,14z"/>
<path class="st5" d="M6.9,14c0,2.5,1.9,4.5,4.5,4.5c2.4,0,4.3-2,4.3-4.5c0-2.3-1.9-4.5-4.3-4.5C8.9,9.5,6.9,11.7,6.9,14z"/>
</svg>
