<?xml version="1.0" encoding="utf-8"?>
<!-- Generator: Adobe Illustrator 23.0.5, SVG Export Plug-In . SVG Version: 6.00 Build 0)  -->
<svg version="1.1" id="Layer_1" xmlns="http://www.w3.org/2000/svg" xmlns:xlink="http://www.w3.org/1999/xlink" x="0px" y="0px"
	 viewBox="0 0 64 64" style="enable-background:new 0 0 64 64;" xml:space="preserve">
<style type="text/css">
	.st0{fill:#EC0000;}
	.st1{fill:none;stroke:#EC0000;stroke-width:3;stroke-linejoin:round;stroke-miterlimit:10;}
</style>
<path class="st0" d="M58.2,26.1c0,1.9-1,3.1-2.3,3.1c-1.1,0-2.3-1.2-2.3-3.1s1.1-3.1,2.3-3.1C57.2,23,58.2,24.2,58.2,26.1z"/>
<path class="st1" d="M50.9,37.9c0,9.8-6,17.9-13.3,17.9c-7.2,0-13-8.1-13-17.9s6-17.5,13-17.5C44.9,20.4,50.9,28.1,50.9,37.9z"/>
<path class="st1" d="M13.5,33.4c0,24.7,0,24.7,0,24.7c0,1.2,1,2.6,1.9,2.6c37.9,0,37.9,0,37.9,0"/>
<path class="st1" d="M62,61.8c0-41.5,0-41.5,0-41.5c0-1.2-0.8-2.6-1.8-2.6c-9.4,0-9.4,0-9.4,0c-0.3,0-3.1-6.7-4.1-6.7
	c-18.6,0-18.6,0-18.6,0c-0.6,0-1.9,2.1-3.3,4.6"/>
<path class="st1" d="M44.8,38.2c0,5.1-3.1,9.3-6.8,9.3c-3.8,0-6.9-4.1-6.9-9.3c0-5,3.1-9.1,6.9-9.1C41.7,29.1,44.8,33.3,44.8,38.2z"
	/>
<path class="st1" d="M22.8,8.6c1.3,2.6,2.2,5.7,2.2,9.1c0,8.6-5.1,15.6-11.5,15.6C7.3,33.3,2,26.2,2,17.6C2,9.2,7.3,2.2,13.5,2.2
	c2,0,3.8,0.9,5.6,1.9L9,17.6c8.4,0,8.4,0,8.4,0C7.5,31,7.5,31,7.5,31"/>
</svg>
