<svg xmlns="http://www.w3.org/2000/svg" width="25.023" height="23.571" viewBox="0 0 25.023 23.571">
  <g id="iconProteccionMascotasBlanco" transform="translate(-527.25 -651.497)">
    <path id="Trazado_93" data-name="Trazado 93" d="M167,661.146h-18.47A2.526,2.526,0,0,1,146,658.62V647.44a2.526,2.526,0,0,1,2.526-2.526H167a2.526,2.526,0,0,1,2.526,2.526V658.62A2.526,2.526,0,0,1,167,661.146Z" transform="translate(382 13.172)" fill="none" stroke="#fff" stroke-linecap="round" stroke-miterlimit="10" stroke-width="1.5"/>
    <path id="Trazado_94" data-name="Trazado 94" d="M158.3,638.85a5.6,5.6,0,0,1,11.207,0" transform="translate(375.854 19)" fill="none" stroke="#fff" stroke-linecap="round" stroke-miterlimit="10" stroke-width="1.5"/>
    <path id="Trazado_95" data-name="Trazado 95" d="M166.526,664.534c.72,0,1.181.494,2.127-.164a1.275,1.275,0,0,0,.523-1.261c-.035-.643-.593-.918-1.08-1.521a4.4,4.4,0,0,1-.523-1.03,1.279,1.279,0,0,0-1.226-.67,1.219,1.219,0,0,0-1.162.695,3.271,3.271,0,0,1-.434.834c-.275.333-1,.891-1.055,1.564a1.511,1.511,0,0,0,.6,1.482C164.913,664.837,165.332,664.542,166.526,664.534Z" transform="translate(373.164 5.693)" fill="none" stroke="#fff" stroke-linecap="round" stroke-miterlimit="10" stroke-width="1"/>
    <path id="Trazado_96" data-name="Trazado 96" d="M165.512,655.808c.48-.057.8-.715.708-1.469s-.552-1.319-1.032-1.262-.8.714-.708,1.468S165.031,655.865,165.512,655.808Z" transform="translate(372.777 9.096)" fill="none" stroke="#fff" stroke-linecap="round" stroke-miterlimit="10" stroke-width="1"/>
    <path id="Trazado_97" data-name="Trazado 97" d="M161.666,660.616c.449-.181.6-.861.331-1.52s-.845-1.045-1.294-.864-.6.862-.331,1.52S161.218,660.8,161.666,660.616Z" transform="translate(374.887 6.542)" fill="none" stroke="#fff" stroke-linecap="round" stroke-miterlimit="10" stroke-width="1"/>
    <path id="Trazado_98" data-name="Trazado 98" d="M171.877,654.606c.118-.736-.174-1.4-.652-1.472s-.96.458-1.079,1.195.174,1.4.652,1.472S171.759,655.342,171.877,654.606Z" transform="translate(369.951 9.07)" fill="none" stroke="#fff" stroke-linecap="round" stroke-miterlimit="10" stroke-width="1"/>
    <path id="Trazado_99" data-name="Trazado 99" d="M175.907,659.8c.276-.657.139-1.342-.308-1.529s-1.031.193-1.308.85-.138,1.342.308,1.529S175.631,660.453,175.907,659.8Z" transform="translate(367.939 6.526)" fill="none" stroke="#fff" stroke-linecap="round" stroke-miterlimit="10" stroke-width="1"/>
  </g>
</svg>
