<svg xmlns="http://www.w3.org/2000/svg" xmlns:xlink="http://www.w3.org/1999/xlink" width="25" height="19" viewBox="0 0 25 19">
  <defs>
    <clipPath id="clip-path">
      <rect id="Rectángulo_22" data-name="Rectángulo 22" width="25" height="19" transform="translate(0 0)" fill="#fff" stroke="#707070" stroke-linecap="round" stroke-width="1"/>
    </clipPath>
  </defs>
  <g id="iconNotebookRojo" transform="translate(-428 -568)">
    <g id="Grupo_5" data-name="Grupo 5" transform="translate(428 568)" clip-path="url(#clip-path)">
      <path id="Trazado_86" data-name="Trazado 86" d="M70.19,582.1a.564.564,0,0,1-.577.579h-22.4a.553.553,0,0,1-.494-.579v-.916a.553.553,0,0,1,.494-.579h22.4a.565.565,0,0,1,.577.579Z" transform="translate(-46.349 -564.377)" fill="none" stroke="#e90b18" stroke-linecap="round" stroke-linejoin="round" stroke-miterlimit="10" stroke-width="1"/>
      <path id="Trazado_87" data-name="Trazado 87" d="M70.009,550.309a.564.564,0,0,0-.577-.579h-18.3a.564.564,0,0,0-.577.579v13.032a.564.564,0,0,0,.577.579h18.3a.564.564,0,0,0,.577-.579Z" transform="translate(-48.216 -549.355)" fill="none" stroke="#e90b18" stroke-linecap="round" stroke-linejoin="round" stroke-miterlimit="10" stroke-width="1"/>
      <path id="Trazado_88" data-name="Trazado 88" d="M66.4,563.848H53.431V552.641h16.5v11.621" transform="translate(-49.615 -550.771)" fill="none" stroke="#e90b18" stroke-linecap="round" stroke-linejoin="round" stroke-miterlimit="10" stroke-width="1"/>
    </g>
  </g>
</svg>
