<svg width="64" height="64" viewBox="0 0 64 64" fill="none" xmlns="http://www.w3.org/2000/svg">
<path d="M38.75 36.0106C38.75 34.018 38.75 34.2109 38.75 33.0556C38.75 31.9003 38.1757 30.2362 35.8358 30.0349C33.4958 29.8335 32.9806 30.5701 31.875 30.5807" stroke="#EC0000" stroke-width="1.5" stroke-miterlimit="10" stroke-linecap="round" stroke-linejoin="round"/>
<path d="M25 36.0106C25 34.018 25 34.2109 25 33.0556C25 31.9003 25.5743 30.2362 27.9142 30.0349C30.2542 29.8335 30.7694 30.5701 31.875 30.5807" stroke="#EC0000" stroke-width="1.5" stroke-miterlimit="10" stroke-linecap="round" stroke-linejoin="round"/>
<path d="M29.1605 22.2334C29.3168 23.2492 29.4836 24.3382 29.6244 25.2411C29.8016 26.4036 30.7294 27.25 31.8188 27.25C32.8717 27.25 33.7839 26.4487 33.9976 25.3314L34.571 22.3406C34.8993 20.6195 33.6901 19.0057 32.0638 19H31.6937C30.1091 18.9944 28.8998 20.5405 29.1605 22.2334Z" stroke="#EC0000" stroke-width="1.5" stroke-miterlimit="10" stroke-linecap="round" stroke-linejoin="round"/>
<path d="M26.5 43.25C26.5 43.0558 26.5 39.872 26.5 39.704C26.5 38.3549 25.8084 36.402 23.004 36.1658C20.1995 35.9296 19.5842 36.7958 18.25 36.8063" stroke="#EC0000" stroke-width="1.5" stroke-miterlimit="10" stroke-linecap="round" stroke-linejoin="round"/>
<path d="M10 44.375C10 42.5486 10 40.9397 10 39.8308C10 38.4339 10.6916 36.4119 13.496 36.1672C16.3005 35.9226 16.9158 36.8195 18.25 36.8304" stroke="#EC0000" stroke-width="1.5" stroke-miterlimit="10" stroke-linecap="round" stroke-linejoin="round"/>
<path d="M54 44C54 41.7362 54 40.5364 54 39.2261C54 37.9157 53.3084 36.0191 50.504 35.7896C47.6995 35.5602 47.0842 36.4015 45.75 36.4117" stroke="#EC0000" stroke-width="1.5" stroke-miterlimit="10" stroke-linecap="round" stroke-linejoin="round"/>
<path d="M36.125 43.25C36.125 42.3111 36.125 39.4862 36.125 38.8573C36.125 37.6859 36.9318 35.9905 40.2037 35.7854C43.4756 35.5803 44.1935 36.3323 45.75 36.3415" stroke="#EC0000" stroke-width="1.5" stroke-miterlimit="10" stroke-linecap="round" stroke-linejoin="round"/>
<path d="M41.6695 25.7753C41.8644 26.956 42.0751 28.2289 42.2489 29.2797C42.4701 30.6338 43.6341 31.625 44.993 31.625C46.3097 31.625 47.4474 30.688 47.716 29.3826L48.4323 25.8944C48.8432 23.8903 47.3315 22.0054 45.3037 22H44.8455C42.8546 22 41.343 23.7983 41.6695 25.7753Z" stroke="#EC0000" stroke-width="1.5" stroke-miterlimit="10" stroke-linecap="round" stroke-linejoin="round"/>
<path d="M14.1695 26.1503C14.3644 27.331 14.5751 28.6039 14.7489 29.6547C14.9701 31.0088 16.1341 32 17.493 32C18.8097 32 19.9474 31.063 20.216 29.7576L20.9323 26.2694C21.3432 24.2653 19.8315 22.3804 17.8037 22.375H17.3455C15.3546 22.375 13.843 24.1733 14.1695 26.1503Z" stroke="#EC0000" stroke-width="1.5" stroke-miterlimit="10" stroke-linecap="round" stroke-linejoin="round"/>
</svg>
