<svg xmlns="http://www.w3.org/2000/svg" width="52.966" height="27" viewBox="0 0 52.966 27">
  <g id="iconPropiedadHorizontal" transform="translate(-264.521 -415.895)">
    <path id="Trazado_423" data-name="Trazado 423" d="M278.149,428.658l9.592-9.159a1.844,1.844,0,0,1,2.522,0l9.478,9.049a1.663,1.663,0,0,1,.522,1.2v10.077a1.743,1.743,0,0,1-1.783,1.7h-19.07a1.743,1.743,0,0,1-1.783-1.7v-9.967A1.66,1.66,0,0,1,278.149,428.658Z" transform="translate(2.059 0.358)" fill="none" stroke="#292929" stroke-linecap="round" stroke-linejoin="round" stroke-width="2"/>
    <path id="Rectángulo_475" data-name="Rectángulo 475" d="M1.45,0H7.867a1.45,1.45,0,0,1,1.45,1.45v9.815a0,0,0,0,1,0,0H0a0,0,0,0,1,0,0V1.45A1.45,1.45,0,0,1,1.45,0Z" transform="translate(286.345 430.631)" fill="none" stroke="#292929" stroke-linecap="round" stroke-linejoin="round" stroke-width="2"/>
    <path id="Trazado_424" data-name="Trazado 424" d="M298.278,429.632a1.659,1.659,0,0,0-.522-1.2l-8.466-8.083h17.161a2.09,2.09,0,0,1,1.882,1.181l4.111,8.509H298.278Z" transform="translate(4.043 0.587)" fill="none" stroke="#292929" stroke-linecap="round" stroke-linejoin="round" stroke-width="2"/>
    <path id="Trazado_425" data-name="Trazado 425" d="M279.416,438.19v-9.563H267.1v9.565a1.7,1.7,0,0,0,1.7,1.7h12.4A1.743,1.743,0,0,1,279.416,438.19Z" transform="translate(0.269 1.995)" fill="none" stroke="#292929" stroke-linecap="round" stroke-linejoin="round" stroke-width="2"/>
    <path id="Trazado_426" data-name="Trazado 426" d="M297.231,438.19v-9.563h12.315v9.565a1.7,1.7,0,0,1-1.7,1.7h-12.4A1.743,1.743,0,0,0,297.231,438.19Z" transform="translate(5.09 1.995)" fill="none" stroke="#292929" stroke-linecap="round" stroke-linejoin="round" stroke-width="2"/>
    <line id="Línea_603" data-name="Línea 603" x2="3.559" transform="translate(289.224 425.778)" fill="none" stroke="#292929" stroke-linecap="round" stroke-linejoin="round" stroke-width="2"/>
    <rect id="Rectángulo_476" data-name="Rectángulo 476" width="3.471" height="7.433" rx="0.459" transform="translate(276.214 416.895)" fill="none" stroke="#292929" stroke-linecap="round" stroke-linejoin="round" stroke-width="2"/>
    <path id="Trazado_427" data-name="Trazado 427" d="M279.685,420.346V423.2a.536.536,0,0,1-.537.537h-2.4a.537.537,0,0,1-.537-.537v-2.859h-4.7a2.088,2.088,0,0,0-1.88,1.181l-4.111,8.509h14.164v-.4a1.66,1.66,0,0,1,.523-1.2l8.464-8.083Z" transform="translate(0 0.587)" fill="none" stroke="#292929" stroke-linecap="round" stroke-linejoin="round" stroke-width="2"/>
    <rect id="Rectángulo_477" data-name="Rectángulo 477" width="5.148" height="4.574" rx="1.335" transform="translate(270.974 433.968)" fill="none" stroke="#292929" stroke-linecap="round" stroke-linejoin="round" stroke-width="2"/>
    <rect id="Rectángulo_478" data-name="Rectángulo 478" width="5.148" height="4.574" rx="1.335" transform="translate(305.885 433.968)" fill="none" stroke="#292929" stroke-linecap="round" stroke-linejoin="round" stroke-width="2"/>
  </g>
</svg>
