<svg xmlns="http://www.w3.org/2000/svg" width="18.455" height="9.769" viewBox="0 0 18.455 9.769">
  <path id="iconRoboRojo" d="M60.071,358.53c-1.486,0-1.71.825-3.643.825s-2.232-.825-3.643-.825c-2.676,0-4.834,1.879-4.834,4.135s2.158,4.135,4.834,4.135c1.411,0,2.158-.825,3.643-.825s2.158.825,3.643.825c2.676,0,4.834-1.879,4.834-4.135S62.747,358.53,60.071,358.53Zm-7.436,5.935c-1.411,0-2.527-.751-2.527-1.729,0-.9,1.116-1.729,2.527-1.729,1.34,0,2.452.825,2.452,1.729C55.091,363.714,53.975,364.465,52.635,364.465Zm7.66,0c-1.34,0-2.452-.751-2.452-1.729,0-.9,1.116-1.729,2.452-1.729,1.411,0,2.527.825,2.527,1.729C62.822,363.714,61.706,364.465,60.295,364.465Z" transform="translate(-47.2 -357.78)" fill="none" stroke="#dc0018" stroke-linecap="round" stroke-linejoin="round" stroke-miterlimit="10" stroke-width="1.5"/>
</svg>
