<svg xmlns="http://www.w3.org/2000/svg" width="21.571" height="25" viewBox="0 0 21.571 25">
  <g id="iconGastosVeterinarios" transform="translate(-10.5 -7.5)">
    <path id="Trazado_493" data-name="Trazado 493" d="M23.054,29.429h-11.6A.449.449,0,0,1,11,28.983V14.446A.449.449,0,0,1,11.451,14H23.406a.449.449,0,0,1,.451.446V27.689" transform="translate(0 -3)" fill="rgba(0,0,0,0)" stroke="#e90b18" stroke-linecap="round" stroke-linejoin="round" stroke-miterlimit="10" stroke-width="1"/>
    <path id="Trazado_494" data-name="Trazado 494" d="M35.455,38.241A7.5,7.5,0,1,1,37.143,33.5a7.605,7.605,0,0,1-.056.923" transform="translate(-5.571 -9)" fill="#fff" stroke="#e90b18" stroke-linecap="round" stroke-width="1"/>
    <path id="Trazado_495" data-name="Trazado 495" d="M35.455,38.241A7.5,7.5,0,1,1,37.143,33.5a7.605,7.605,0,0,1-.056.923" transform="translate(-5.571 -9)" fill="rgba(0,0,0,0)" stroke="#e90b18" stroke-linecap="round" stroke-miterlimit="10" stroke-width="1"/>
    <path id="Trazado_496" data-name="Trazado 496" d="M32.656,39.148l-.228,1.323A6.055,6.055,0,0,0,34.564,41a2.884,2.884,0,0,0,2.9-1.97c.541-1.587-1.139-2.528-2.762-3.145-.484-.206-.455-1.088-.028-1.411l-.028,4.556s1.11-.588.171-1.058c-1.737-.853-2.392-1.911-2.392-2.969a2.307,2.307,0,0,1,2.363-2.146,6.889,6.889,0,0,1,2.278.353l-.114,1.176" transform="translate(-10.714 -12.429)" fill="rgba(0,0,0,0)" stroke="#e90b18" stroke-linecap="round" stroke-linejoin="round" stroke-miterlimit="10" stroke-width="1"/>
    <path id="Trazado_497" data-name="Trazado 497" d="M37.571,30.286v1.286" transform="translate(-13.286 -11.143)" fill="rgba(0,0,0,0)" stroke="#e90b18" stroke-linecap="round" stroke-miterlimit="10" stroke-width="1"/>
    <path id="Trazado_498" data-name="Trazado 498" d="M36.714,49.143v1.714" transform="translate(-12.857 -20.571)" fill="rgba(0,0,0,0)" stroke="#e90b18" stroke-linecap="round" stroke-miterlimit="10" stroke-width="1"/>
    <path id="Trazado_499" data-name="Trazado 499" d="M18.714,12.256V9.732h1.065S19.688,8,21.21,8s1.643,1.673,1.643,1.673h1v2.612Z" transform="translate(-3.857)" fill="#fff" stroke="#e90b18" stroke-linecap="round" stroke-linejoin="round" stroke-miterlimit="10" stroke-width="1"/>
    <path id="Trazado_500" data-name="Trazado 500" d="M13.571,27.457h1.845L16.5,23.429l1.786,6" transform="translate(-1.286 -7.714)" fill="#fff" stroke="#e90b18" stroke-linecap="round" stroke-width="1"/>
    <path id="Trazado_501" data-name="Trazado 501" d="M13.571,27.457h1.845L16.5,23.429l1.786,6" transform="translate(-1.286 -7.714)" fill="rgba(0,0,0,0)" stroke="#e90b18" stroke-linecap="round" stroke-linejoin="round" stroke-miterlimit="10" stroke-width="1"/>
  </g>
</svg>
