<svg xmlns="http://www.w3.org/2000/svg" width="21.5" height="17.75" viewBox="0 0 21.5 17.75"><defs><style>.a{fill:#003f8f;}</style></defs><g transform="translate(0 0)"><path class="a" d="M17,15H3a3,3,0,0,1-3-3V3A3,3,0,0,1,3,0H17a3,3,0,0,1,3,3v9A3,3,0,0,1,17,15ZM3,1.5A1.5,1.5,0,0,0,1.5,3v9A1.5,1.5,0,0,0,3,13.5H17A1.5,1.5,0,0,0,18.5,12V3A1.5,1.5,0,0,0,17,1.5Z" transform="translate(0.75)"/><path class="a" d="M.75,0h20a.75.75,0,0,1,0,1.5H.75A.75.75,0,0,1,.75,0Z" transform="translate(0 16.25)"/></g></svg>