<svg width="64" height="64" viewBox="0 0 64 64" fill="none" xmlns="http://www.w3.org/2000/svg">
<path d="M36.5 47.5C33.9896 50.0406 33.0946 51.7495 33.0757 51.776C32.9434 51.9612 32.7279 52.0708 32.4973 52.0708C32.2704 52.0708 32.0549 51.9612 31.9188 51.776C31.8886 51.7381 28.9623 47.7306 23.4273 43.1824C16.1268 37.171 13.1211 33.9839 11.9491 30.9933C9.40087 24.4792 12.1608 16.8913 18.1116 14.0784C23.3593 11.5945 29.3328 13.5302 32.5011 18.5623C35.6693 13.5302 41.6466 11.5983 46.8905 14.0784C52.8375 16.8913 55.6013 24.4792 53.0493 30.9933C52.3196 32.8572 50.8754 34.8005 48.1192 37.4584" stroke="#EC0000" stroke-width="1.5" stroke-miterlimit="10" stroke-linecap="round" stroke-linejoin="round"/>
<path d="M42.554 50.0935C46.6977 50.0935 50.0587 46.7363 50.0587 42.5888C50.0587 38.4451 46.7014 35.0841 42.554 35.0841C38.4103 35.0841 35.0493 38.4451 35.0493 42.5888C35.053 46.7325 38.4103 50.0935 42.554 50.0935Z" stroke="#EC0000" stroke-width="1.5" stroke-miterlimit="10"/>
<path d="M42.554 39.3185V45.8591" stroke="#EC0000" stroke-width="1.5" stroke-miterlimit="10" stroke-linecap="round" stroke-linejoin="round"/>
<path d="M45.8243 42.5888H39.2837" stroke="#EC0000" stroke-width="1.5" stroke-miterlimit="10" stroke-linecap="round" stroke-linejoin="round"/>
</svg>
