<svg xmlns="http://www.w3.org/2000/svg" width="25.626" height="24.049" viewBox="0 0 25.626 24.049">
  <g id="iconTamanio" transform="translate(-460.631 -470.986)">
    <path id="Trazado_779" data-name="Trazado 779" d="M483.931,475.63a3.9,3.9,0,0,0-3.9-3.894H465.275a3.894,3.894,0,0,0-3.894,3.894v14.761a3.894,3.894,0,0,0,3.894,3.894h14.761a3.9,3.9,0,0,0,3.9-3.894V486.88" transform="translate(0 0)" fill="none" stroke="#e90b18" stroke-linecap="round" stroke-linejoin="round" stroke-width="1.5"/>
    <g id="Grupo_150" data-name="Grupo 150" transform="translate(467.096 477.601)">
      <path id="Trazado_780" data-name="Trazado 780" d="M469.576,481.412a1.255,1.255,0,0,1,1.265-1.266h.279a1.3,1.3,0,0,1,1.15.658l3.056,4.979,3.073-5a1.238,1.238,0,0,1,1.133-.641h.279a1.255,1.255,0,0,1,1.265,1.266v9.135a1.257,1.257,0,1,1-2.513,0v-5.734l-2.218,3.417a1.183,1.183,0,0,1-2.1,0l-2.186-3.368v5.717a1.234,1.234,0,0,1-1.248,1.233,1.221,1.221,0,0,1-1.232-1.233Z" transform="translate(-469.576 -480.146)" fill="#e90b18"/>
    </g>
    <g id="Grupo_151" data-name="Grupo 151" transform="translate(480.837 477.647)">
      <path id="Trazado_781" data-name="Trazado 781" d="M489.687,485.938l2.035-1.667c.891-.726,1.238-1.125,1.238-1.718a.878.878,0,0,0-.961-.93,1.512,1.512,0,0,0-1.166.624.72.72,0,0,1-.532.224.711.711,0,0,1-.716-.716.786.786,0,0,1,.183-.49,2.819,2.819,0,0,1,2.332-1.054,2.207,2.207,0,0,1,2.465,2.209v.02c0,1.2-.614,1.79-1.882,2.772l-1.166.9h2.5a.685.685,0,0,1,.686.685.677.677,0,0,1-.686.675h-3.886a.755.755,0,0,1-.849-.746A.992.992,0,0,1,489.687,485.938Z" transform="translate(-489.278 -480.211)" fill="#e90b18"/>
    </g>
    <path id="Trazado_782" data-name="Trazado 782" d="M493.715,493.451" transform="translate(-9.784 -6.571)" fill="#e90b18" stroke="#e90b18" stroke-width="1"/>
  </g>
</svg>
