<svg xmlns="http://www.w3.org/2000/svg" xmlns:xlink="http://www.w3.org/1999/xlink" width="26" height="20" viewBox="0 0 26 20">
  <defs>
    <clipPath id="clip-path">
      <rect id="Rectángulo_28" data-name="Rectángulo 28" width="26" height="20" transform="translate(0 0)" fill="none" stroke="#e90b18" stroke-linecap="round" stroke-width="1"/>
    </clipPath>
  </defs>
  <g id="iconFotografiaRojo" transform="translate(-630 -655)">
    <g id="Grupo_6" data-name="Grupo 6" transform="translate(630 655)" clip-path="url(#clip-path)">
      <path id="Trazado_105" data-name="Trazado 105" d="M288.468,646.541a1.115,1.115,0,0,1-1.159,1.16,1.16,1.16,0,0,1,0-2.32A1.115,1.115,0,0,1,288.468,646.541Z" transform="translate(-265.528 -640.31)" fill="none" stroke="#e90b18" stroke-linecap="round" stroke-width="1"/>
      <path id="Trazado_106" data-name="Trazado 106" d="M272.437,650.16a6.6,6.6,0,1,1-13.2,0,6.6,6.6,0,0,1,13.2,0Z" transform="translate(-253.161 -639.487)" fill="none" stroke="#e90b18" stroke-linecap="round" stroke-linejoin="round" stroke-miterlimit="10" stroke-width="1"/>
      <path id="Trazado_107" data-name="Trazado 107" d="M254.121,639.462h-3.084V637.34h3.084Z" transform="translate(-249.395 -636.616)" fill="none" stroke="#e90b18" stroke-linecap="round" stroke-width="1"/>
      <path id="Trazado_108" data-name="Trazado 108" d="M254.121,639.462h-3.084V637.34h3.084Z" transform="translate(-249.395 -636.616)" fill="none" stroke="#e90b18" stroke-linecap="round" stroke-linejoin="round" stroke-miterlimit="10" stroke-width="1"/>
      <path id="Trazado_109" data-name="Trazado 109" d="M273.287,656.011V640.453a.956.956,0,0,0-.869-.968H267.7c-.579-.872-1.545-2.513-2.021-2.513h-9.349c-.386,0-1.635,1.545-2.311,2.513h-4.146a1.038,1.038,0,0,0-.966.968v14.2a1.043,1.043,0,0,0,.966.968h19.083" transform="translate(-248.416 -636.447)" fill="none" stroke="#e90b18" stroke-linecap="round" stroke-linejoin="round" stroke-miterlimit="10" stroke-width="1"/>
      <path id="Trazado_110" data-name="Trazado 110" d="M272.138,653.046a3.422,3.422,0,1,1-3.374-3.384A3.446,3.446,0,0,1,272.138,653.046Z" transform="translate(-255.946 -642.277)" fill="none" stroke="#e90b18" stroke-linecap="round" stroke-linejoin="round" stroke-miterlimit="10" stroke-width="1"/>
    </g>
  </g>
</svg>
