<svg id="iconResumen" xmlns="http://www.w3.org/2000/svg" width="18" height="21" viewBox="0 0 18 21">
  <g id="Group" transform="translate(0 0)">
    <path id="Shape" d="M15,21H3a3,3,0,0,1-3-3V5A3,3,0,0,1,3,2H7a2,2,0,1,1,4,0h4a3,3,0,0,1,3,3V18A3,3,0,0,1,15,21ZM3,3.5A1.5,1.5,0,0,0,1.5,5V18A1.5,1.5,0,0,0,3,19.5H15A1.5,1.5,0,0,0,16.5,18V5A1.5,1.5,0,0,0,15,3.5H13V5a1,1,0,0,1-1,1H6A1,1,0,0,1,5,5V3.5Zm3.5,0v1h5v-1H11A1.5,1.5,0,0,1,9.5,2a.5.5,0,0,0-1,0A1.493,1.493,0,0,1,7.144,3.493L7,3.5Z" fill="#e90b18"/>
    <path id="Vector_391_Stroke_" data-name="Vector 391 (Stroke)" d="M.75,0h8a.75.75,0,0,1,0,1.5h-8A.75.75,0,0,1,.75,0Z" transform="translate(4.25 9.25)" fill="#e90b18"/>
    <path id="Vector_392_Stroke_" data-name="Vector 392 (Stroke)" d="M.75,0h4a.75.75,0,0,1,0,1.5h-4A.75.75,0,0,1,.75,0Z" transform="translate(4.25 13.25)" fill="#e90b18"/>
  </g>
</svg>
