<svg id="iconComparar" xmlns="http://www.w3.org/2000/svg" width="20" height="20" viewBox="0 0 20 20">
  <g id="Group">
    <path id="Combined_Shape" data-name="Combined Shape" d="M13,20H3a3,3,0,0,1-3-3V7A3,3,0,0,1,3,4H4V3A3,3,0,0,1,7,0H17a3,3,0,0,1,3,3V13a3,3,0,0,1-3,3H16v1A3,3,0,0,1,13,20ZM3,5.5A1.5,1.5,0,0,0,1.5,7V17A1.5,1.5,0,0,0,3,18.5H13A1.5,1.5,0,0,0,14.5,17V16H7a3,3,0,0,1-3-3V5.5Zm4-4A1.5,1.5,0,0,0,5.5,3V13A1.5,1.5,0,0,0,7,14.5H17A1.5,1.5,0,0,0,18.5,13V3A1.5,1.5,0,0,0,17,1.5Z"/>
  </g>
</svg>
