<svg xmlns="http://www.w3.org/2000/svg" width="21.911" height="19.813" viewBox="0 0 21.911 19.813">
  <g id="iconAsistencia24" transform="translate(0.707)">
    <path id="Trazado_636" data-name="Trazado 636" d="M70.2,757.429a.473.473,0,0,1-.436-.441.711.711,0,0,1,.436-.546.473.473,0,0,1,.436.441v.11A.472.472,0,0,1,70.2,757.429Zm-.326-1.973c-.215,0-.326-.11-.436-.33s.11-.441.326-.546.436.11.546.33l-.436.11.436-.11a.6.6,0,0,1-.326.546ZM69.11,753.7c-.215,0-.326-.11-.436-.33a.4.4,0,0,1,.215-.546.479.479,0,0,1,.546.11v.11a.4.4,0,0,1-.215.546Zm-15.769-.22-.326-.22-.436-.22a.519.519,0,0,1,.651-.22C53.452,752.937,53.452,753.267,53.341,753.483Zm.761-1.422a.4.4,0,0,1-.326-.11.492.492,0,0,1,0-.546v-.11a.683.683,0,0,1,.651,0,.414.414,0,0,1,0,.656A.39.39,0,0,1,54.1,752.061Zm13.81,0a.4.4,0,0,1-.326-.11v-.11a.378.378,0,0,1,.11-.546c.11-.22.436-.11.546,0l-.326.33.326-.33c.215.22.11.44,0,.656A.409.409,0,0,1,67.913,752.061Zm-12.4-1.317a.4.4,0,0,1-.326-.11c-.11-.22-.11-.546.11-.656.215-.22.436-.11.651.11a.475.475,0,0,1-.11.546A.39.39,0,0,1,55.515,750.744Zm10.985,0c-.11,0-.215,0-.215-.11h-.11c-.11-.22-.215-.441,0-.656.11-.11.436-.22.546,0l-.215.33.215-.33c.215.11.326.33.11.546C66.826,750.634,66.606,750.744,66.5,750.744Zm-9.242-.986a.57.57,0,0,1-.436-.22.527.527,0,0,1,.215-.656c.215-.11.546,0,.546.22a.527.527,0,0,1-.215.656Zm7.609,0c-.11,0-.215,0-.215-.11-.215,0-.326-.33-.215-.546a.414.414,0,1,1,.761.326A.355.355,0,0,1,64.867,749.757Zm-5.761-.656c-.215,0-.436-.11-.436-.33-.11-.22.11-.44.326-.546a.5.5,0,0,1,.546.441c0,.22-.11.44-.326.44Zm3.8,0H62.8a.4.4,0,0,1-.215-.546c0-.22.215-.33.436-.33.215.11.436.33.326.546C63.345,748.991,63.129,749.1,62.909,749.1Zm-1.848-.22c-.326,0-.436-.11-.436-.441A.4.4,0,0,1,61.06,748a.473.473,0,0,1,.436.441A.4.4,0,0,1,61.06,748.881Z" transform="translate(-49.429 -748)" fill="#e90b18"/>
    <path id="Trazado_637" data-name="Trazado 637" d="M68.715,772.436a9.27,9.27,0,0,1-17.727-4.056" transform="translate(-48.599 -758.621)" fill="none" stroke="#e90b18" stroke-linecap="round" stroke-linejoin="round" stroke-miterlimit="10" stroke-width="1"/>
    <path id="Trazado_638" data-name="Trazado 638" d="M46,769.754l2.61-2.524,2.5,2.744" transform="translate(-46 -758.021)" fill="none" stroke="#e90b18" stroke-linecap="round" stroke-linejoin="round" stroke-miterlimit="10" stroke-width="1"/>
    <path id="Trazado_639" data-name="Trazado 639" d="M60.76,767.759v-.986c.761-.546,2.72-2.3,2.72-3.4a.957.957,0,0,0-.977-.876,2.29,2.29,0,0,0-1.413.546l-.11-1.1a5.085,5.085,0,0,1,1.848-.441,1.636,1.636,0,0,1,1.848,1.753c0,1.317-1.3,2.629-2.284,3.505h2.394v.986H60.76Z" transform="translate(-53.692 -755.041)" fill="#e90b18"/>
    <path id="Trazado_640" data-name="Trazado 640" d="M70.75,765.686l2.174-3.946h1.523V765.8h.872v.876h-.872v1.207H73.36v-1.207H70.75Zm2.61.11v-2.629L71.837,765.8Z" transform="translate(-58.898 -755.16)" fill="#e90b18"/>
    <path id="Trazado_641" data-name="Trazado 641" d="M70.75,765.686l2.174-3.946h1.523V765.8h.872v.876h-.872v1.207H73.36v-1.207H70.75v-.986Zm2.61.11v-2.629L71.837,765.8Z" transform="translate(-58.898 -755.16)" fill="none"/>
  </g>
</svg>
