<svg xmlns="http://www.w3.org/2000/svg" width="24.646" height="27.01" viewBox="0 0 24.646 27.01">
  <g id="iconDepto" transform="translate(-119.895 -415.102)">
    <g id="Grupo_69" data-name="Grupo 69" transform="translate(120.895 416.112)">
      <path id="Trazado_421" data-name="Trazado 421" d="M134.84,416.167,121.8,420.094a1.276,1.276,0,0,0-.908,1.221v18.515a1.281,1.281,0,0,0,1.281,1.28h14.309V417.388A1.276,1.276,0,0,0,134.84,416.167Z" transform="translate(-120.895 -416.112)" fill="none" stroke="#292929" stroke-linecap="round" stroke-linejoin="round" stroke-width="2"/>
      <path id="Rectángulo_472" data-name="Rectángulo 472" d="M0,0H5.6A1.454,1.454,0,0,1,7.057,1.454V15.922A1.447,1.447,0,0,1,5.61,17.369H0a0,0,0,0,1,0,0V0A0,0,0,0,1,0,0Z" transform="translate(15.589 7.631)" fill="none" stroke="#292929" stroke-linecap="round" stroke-linejoin="round" stroke-width="2"/>
      <line id="Línea_600" data-name="Línea 600" x2="6.014" transform="translate(4.788 7.225)" fill="none" stroke="#292929" stroke-linecap="round" stroke-linejoin="round" stroke-width="2"/>
      <line id="Línea_601" data-name="Línea 601" x2="6.014" transform="translate(4.788 13.16)" fill="none" stroke="#292929" stroke-linecap="round" stroke-linejoin="round" stroke-width="2"/>
      <line id="Línea_602" data-name="Línea 602" x2="6.014" transform="translate(4.788 19.095)" fill="none" stroke="#292929" stroke-linecap="round" stroke-linejoin="round" stroke-width="2"/>
    </g>
  </g>
</svg>
