<svg width="64" height="64" viewBox="0 0 64 64" fill="none" xmlns="http://www.w3.org/2000/svg">
<path d="M35.2674 50C36.2817 47.7636 37.5 46.2532 37.5 44.2606C37.5 42.268 37.5 40.4609 37.5 39.3056C37.5 38.1503 36.9257 36.4862 34.5858 36.2849C32.2458 36.0835 31.7306 36.8201 30.625 36.8307" stroke="black" stroke-width="1.5" stroke-miterlimit="10" stroke-linecap="round" stroke-linejoin="round"/>
<path d="M25.9826 50C24.9683 47.7636 23.75 46.2532 23.75 44.2606C23.75 42.268 23.75 40.4609 23.75 39.3056C23.75 38.1503 24.3243 36.4862 26.6642 36.2849C29.0042 36.0835 29.5194 36.8201 30.625 36.8307" stroke="black" stroke-width="1.5" stroke-miterlimit="10" stroke-linecap="round" stroke-linejoin="round"/>
<path d="M26.5 36.25C26.5 36.0558 26.5 35.872 26.5 35.704C26.5 34.3549 25.8084 32.402 23.004 32.1658C20.1995 31.9296 19.5842 32.7958 18.25 32.8063" stroke="black" stroke-width="1.5" stroke-miterlimit="10" stroke-linecap="round" stroke-linejoin="round"/>
<path d="M10 40.375C10 38.5486 10 36.9397 10 35.8308C10 34.4339 10.6916 32.4119 13.496 32.1672C16.3005 31.9226 16.9158 32.8195 18.25 32.8304" stroke="black" stroke-width="1.5" stroke-miterlimit="10" stroke-linecap="round" stroke-linejoin="round"/>
<path d="M54 39C54 36.7362 54 35.5364 54 34.2261C54 32.9157 53.3084 31.0191 50.504 30.7896C47.6995 30.5602 47.0842 31.4015 45.75 31.4117" stroke="black" stroke-width="1.5" stroke-miterlimit="10" stroke-linecap="round" stroke-linejoin="round"/>
<path d="M36.125 36.25C36.125 35.3111 36.125 34.4862 36.125 33.8573C36.125 32.6859 36.9318 30.9905 40.2037 30.7854C43.4756 30.5803 44.1935 31.3323 45.75 31.3415" stroke="black" stroke-width="1.5" stroke-miterlimit="10" stroke-linecap="round" stroke-linejoin="round"/>
<path d="M27.9105 28.4834C28.0668 29.4992 28.2336 30.5882 28.3744 31.4911C28.5516 32.6536 29.4794 33.5 30.5688 33.5C31.6217 33.5 32.5339 32.6987 32.7476 31.5814L33.321 28.5906C33.6493 26.8695 32.4401 25.2557 30.8138 25.25H30.4437C28.8591 25.2444 27.6498 26.7905 27.9105 28.4834Z" stroke="black" stroke-width="1.5" stroke-miterlimit="10" stroke-linecap="round" stroke-linejoin="round"/>
<path d="M41.6695 20.7753C41.8644 21.956 42.0751 23.2289 42.2489 24.2797C42.4701 25.6338 43.6341 26.625 44.993 26.625C46.3097 26.625 47.4474 25.688 47.716 24.3826L48.4323 20.8944C48.8432 18.8903 47.3315 17.0054 45.3037 17H44.8455C42.8546 17 41.343 18.7983 41.6695 20.7753Z" stroke="black" stroke-width="1.5" stroke-miterlimit="10" stroke-linecap="round" stroke-linejoin="round"/>
<path d="M14.1695 22.1503C14.3644 23.331 14.5751 24.6039 14.7489 25.6547C14.9701 27.0088 16.1341 28 17.493 28C18.8097 28 19.9474 27.063 20.216 25.7576L20.9323 22.2694C21.3432 20.2653 19.8315 18.3804 17.8037 18.375H17.3455C15.3546 18.375 13.843 20.1733 14.1695 22.1503Z" stroke="black" stroke-width="1.5" stroke-miterlimit="10" stroke-linecap="round" stroke-linejoin="round"/>
</svg>
