<svg id="iconCostoTotal" xmlns="http://www.w3.org/2000/svg" width="17.204" height="20.606" viewBox="0 0 17.204 20.606">
  <g id="Grupo_66" data-name="Grupo 66">
    <g id="Regular_1.5px_shield" data-name="Regular 1.5px/shield">
      <path id="Combined_Shape" data-name="Combined Shape" d="M8.6,20.606a2.188,2.188,0,0,1-1.013-.249C5.307,19.176,0,15.836,0,10.337V5A2.989,2.989,0,0,1,1.96,2.154L7.7.154a2.748,2.748,0,0,1,1.813,0l5.735,2A2.989,2.989,0,0,1,17.2,5v5.337c0,5.5-5.307,8.839-7.589,10.02A2.188,2.188,0,0,1,8.6,20.606ZM8.6,1.5a1.374,1.374,0,0,0-.453.077l-5.735,2A1.5,1.5,0,0,0,1.434,5v5.337A7.962,7.962,0,0,0,3.95,15.9a17.088,17.088,0,0,0,4.274,3.11.807.807,0,0,0,.755,0,17.088,17.088,0,0,0,4.274-3.11,7.962,7.962,0,0,0,2.516-5.566V5a1.5,1.5,0,0,0-.98-1.424l-5.735-2A1.374,1.374,0,0,0,8.6,1.5Z" transform="translate(0 0)" fill="#e90b18"/>
    </g>
    <g id="Regular_1.5px_dollar" data-name="Regular 1.5px/dollar" transform="translate(5.974 5.553)">
      <path id="Union" d="M2.92.331V.884H3.8a1.568,1.568,0,0,1,1.46,1.657v.442a.294.294,0,1,1-.584,0V2.541A.941.941,0,0,0,3.8,1.547H1.46a.941.941,0,0,0-.876.994v.052a1.433,1.433,0,0,0,.865,1.362l2.543.962A2.094,2.094,0,0,1,5.257,6.908v.052A1.568,1.568,0,0,1,3.8,8.616H2.92v.552a.314.314,0,0,1-.292.331.314.314,0,0,1-.292-.331V8.616H1.46A1.568,1.568,0,0,1,0,6.959V6.517a.314.314,0,0,1,.292-.331.314.314,0,0,1,.292.331v.442a.941.941,0,0,0,.876.994H3.8a.941.941,0,0,0,.876-.994V6.908a1.433,1.433,0,0,0-.865-1.362L1.265,4.584A2.094,2.094,0,0,1,0,2.592V2.541A1.568,1.568,0,0,1,1.46.884h.876V.331A.314.314,0,0,1,2.628,0,.314.314,0,0,1,2.92.331Z" fill="#e90b18" stroke="#e90b18" stroke-width="0.5"/>
    </g>
  </g>
</svg>
