<svg width="64" height="64" viewBox="0 0 64 64" fill="none" xmlns="http://www.w3.org/2000/svg">
<path d="M26.2043 50C27.5158 47.1085 29.0909 45.1557 29.0909 42.5794C29.0909 40.0031 29.0909 37.6666 29.0909 36.1729C29.0909 34.6791 28.3484 32.5276 25.323 32.2673C22.2976 32.0069 21.6315 32.9593 20.202 32.973" stroke="#EC0000" stroke-width="1.5" stroke-miterlimit="10" stroke-linecap="round" stroke-linejoin="round"/>
<path d="M14.1997 50C12.8883 47.1085 11.3131 45.1557 11.3131 42.5794C11.3131 40.0031 11.3131 37.6666 11.3131 36.1729C11.3131 34.6791 12.0556 32.5276 15.081 32.2673C18.1064 32.0069 18.7726 32.9593 20.202 32.973" stroke="#EC0000" stroke-width="1.5" stroke-miterlimit="10" stroke-linecap="round" stroke-linejoin="round"/>
<path d="M16.6923 22.1806C16.8945 23.4939 17.1102 24.902 17.2921 26.0693C17.5213 27.5723 18.7209 28.6667 20.1294 28.6667C21.4907 28.6667 22.6701 27.6306 22.9464 26.1861L23.6877 22.3192C24.1123 20.094 22.5488 18.0073 20.4461 18H19.9676C17.9189 17.9927 16.3554 19.9918 16.6923 22.1806Z" stroke="#EC0000" stroke-width="1.5" stroke-miterlimit="10" stroke-linecap="round" stroke-linejoin="round"/>
<path d="M49.8002 50C51.1117 47.1085 52.6869 45.1557 52.6869 42.5794C52.6869 40.0031 52.6869 37.6666 52.6869 36.1729C52.6869 34.6791 51.9444 32.5276 48.919 32.2673C45.8936 32.0069 45.2274 32.9593 43.798 32.973" stroke="#EC0000" stroke-width="1.5" stroke-miterlimit="10" stroke-linecap="round" stroke-linejoin="round"/>
<path d="M37.7957 50C36.4842 47.1085 34.9091 45.1557 34.9091 42.5794C34.9091 40.0031 34.9091 37.6666 34.9091 36.1729C34.9091 34.6791 35.6515 32.5276 38.6769 32.2673C41.7024 32.0069 42.3685 32.9593 43.7979 32.973" stroke="#EC0000" stroke-width="1.5" stroke-miterlimit="10" stroke-linecap="round" stroke-linejoin="round"/>
<path d="M40.2883 22.1806C40.4905 23.4939 40.7061 24.902 40.8881 26.0693C41.1172 27.5723 42.3168 28.6667 43.7253 28.6667C45.0867 28.6667 46.266 27.6306 46.5423 26.1861L47.2837 22.3192C47.7082 20.094 46.1447 18.0073 44.0421 18H43.5636C41.5148 17.9927 39.9513 19.9918 40.2883 22.1806Z" stroke="#EC0000" stroke-width="1.5" stroke-miterlimit="10" stroke-linecap="round" stroke-linejoin="round"/>
</svg>
