<svg width="64" height="64" viewBox="0 0 64 64" fill="none" xmlns="http://www.w3.org/2000/svg">
<path d="M48.0795 29.418C49.2892 27.5852 50 25.3857 50 23.0183C50 16.6491 44.8887 11.5018 38.5978 11.5018C36.0875 11.5018 33.7738 12.3266 31.8835 13.7165C29.9932 12.3113 27.6795 11.4865 25.1692 11.4865C18.8632 11.4865 13.767 16.6491 13.767 23.003C13.767 25.8134 14.765 28.3947 16.4285 30.3956C17.5022 31.9688 19.1203 34.8097 19.453 38.2158C20.4359 48.0369 22.5077 52.894 24.5492 52.2067C28.0878 51 27.9366 36.9633 31.8986 36.8717C35.8606 36.9481 35.6943 51 39.248 52.2067C41.2895 52.894 43.3613 48.0369 44.3443 38.2158C44.6921 34.7181 46.3858 31.8008 47.4594 30.2581C47.656 29.9984 47.8526 29.7388 48.0341 29.4791C48.0341 29.4639 48.0643 29.4333 48.0795 29.418Z" stroke="#EC0000" stroke-width="1.5" stroke-miterlimit="10" stroke-linecap="round" stroke-linejoin="round"/>
<path d="M44.4652 17.7946C45.7355 19.3525 46.4765 21.1701 46.4765 23.1099C46.4765 24.6831 45.9926 26.1647 45.1457 27.4935" stroke="#EC0000" stroke-width="1.5" stroke-miterlimit="10" stroke-linecap="round" stroke-linejoin="round"/>
<path d="M42.7413 15.4424C42.7413 15.7937 42.454 16.0839 42.1062 16.0839C41.7584 16.0839 41.4711 15.7937 41.4711 15.4424C41.4711 15.0911 41.7584 14.8009 42.1062 14.8009C42.454 14.8009 42.7413 15.0911 42.7413 15.4424Z" fill="#EC0000" stroke="#EC0000" stroke-miterlimit="10"/>
<path d="M23.0067 16.5574V18.9249" stroke="#EC0000" stroke-width="1.5" stroke-miterlimit="10" stroke-linecap="round" stroke-linejoin="round"/>
<path d="M23.0067 22.1629V24.5304" stroke="#EC0000" stroke-width="1.5" stroke-miterlimit="10" stroke-linecap="round" stroke-linejoin="round"/>
<path d="M26.9385 20.5439H24.5945" stroke="#EC0000" stroke-width="1.5" stroke-miterlimit="10" stroke-linecap="round" stroke-linejoin="round"/>
<path d="M21.4037 20.5439H19.0598" stroke="#EC0000" stroke-width="1.5" stroke-miterlimit="10" stroke-linecap="round" stroke-linejoin="round"/>
</svg>
