<svg xmlns="http://www.w3.org/2000/svg" width="13.039" height="21.263" viewBox="0 0 13.039 21.263">
  <g id="iconAsistenciaTelefono" transform="translate(0.586 0.501)">
    <path id="Trazado_776" data-name="Trazado 776" d="M165.976,843.817a1.122,1.122,0,0,0,1.617-.141l1.969-2.336a1.222,1.222,0,0,0-.211-1.631l-2.811-2.336a1.128,1.128,0,0,0-1.617.141l-.493.71s-1.264-.639-2.458-3.614A11.213,11.213,0,0,1,160.99,830l.912.141a1.119,1.119,0,0,0,1.264-.992l.423-3.755a1.232,1.232,0,0,0-1.053-1.274l-3.022-.282a1.174,1.174,0,0,0-1.269,1.057s-1.123,5.809.705,10.415A20.848,20.848,0,0,0,165.976,843.817Z" transform="translate(-157.904 -823.834)" fill="none" stroke="#e90b18" stroke-linecap="round" stroke-linejoin="round" stroke-miterlimit="10" stroke-width="1"/>
  </g>
</svg>
