<svg xmlns="http://www.w3.org/2000/svg" width="31.001" height="26.662" viewBox="0 0 31.001 26.662">
  <g id="iconConfirmacionAzul" transform="translate(-524.042 -581.212)">
    <path id="Trazado_397" data-name="Trazado 397" d="M899.871,834.94l-1.5,4.177a21.394,21.394,0,0,0,4.365.984l1.5-4.177A21.387,21.387,0,0,1,899.871,834.94Z" transform="translate(-363.97 -245.562)" fill="#1d4190"/>
    <path id="Trazado_398" data-name="Trazado 398" d="M1176.073,882.268l-1.5,4.177a21.393,21.393,0,0,1,4.365.984l1.5-4.177A21.389,21.389,0,0,0,1176.073,882.268Z" transform="translate(-631.283 -291.367)" fill="#1d4190"/>
    <path id="Trazado_399" data-name="Trazado 399" d="M533.814,582.592l.283-.786a.444.444,0,1,0-.835-.3l-9.193,25.774a.444.444,0,0,0,.836.3L529,595.96c6.019,5.388,15.4,1.437,21.229,7.356l4.815-13.367C549.216,584.029,539.833,587.981,533.814,582.592Zm17.362,15.472a11.257,11.257,0,0,0-3.526-2l-1.354,3.76a21.394,21.394,0,0,0-4.365-.984l1.354-3.759c-1.5-.2-3.026-.335-4.525-.539l-1.354,3.759a21.391,21.391,0,0,1-4.365-.984l1.354-3.76a11.256,11.256,0,0,1-3.526-2l1.5-4.177a11.256,11.256,0,0,0,3.526,2l1.354-3.759a21.387,21.387,0,0,0,4.365.984l-1.354,3.76c1.5.2,3.026.335,4.525.539l1.354-3.76a21.392,21.392,0,0,1,4.365.984l-1.354,3.76a11.255,11.255,0,0,1,3.526,2Z" transform="translate(0)" fill="#1d4190"/>
  </g>
</svg>
