<svg xmlns="http://www.w3.org/2000/svg" width="14" height="19.75" viewBox="0 0 14 19.75"><defs><style>.a{fill:#e90b18;}</style></defs><g transform="translate(0 0)"><path class="a" d="M.75,0h4a.75.75,0,0,1,0,1.5h-4A.75.75,0,0,1,.75,0Z" transform="translate(4.25 18.25)"/><path class="a" d="M8,17H6a3,3,0,0,1-3-3V12.745a7,7,0,1,1,8,0V14A3,3,0,0,1,8,17ZM7,1.5A5.5,5.5,0,0,0,3.858,11.515a1.5,1.5,0,0,1,.642,1.23V14A1.5,1.5,0,0,0,6,15.5H8A1.5,1.5,0,0,0,9.5,14V12.745a1.5,1.5,0,0,1,.642-1.23A5.5,5.5,0,0,0,7,1.5Z"/></g></svg>