<svg xmlns="http://www.w3.org/2000/svg" width="21.915" height="20.694" viewBox="0 0 21.915 20.694">
  <g id="iconAsistenciaAmbulancia" transform="translate(0.5 0.5)">
    <g id="iconAsistenciaUrgencias" transform="translate(-1508 -10031)">
      <path id="Trazado_642" data-name="Trazado 642" d="M165.8,780.72h5.1" transform="translate(1350.215 9266.367)" fill="none" stroke="#e90b18" stroke-linecap="round" stroke-linejoin="round" stroke-miterlimit="10" stroke-width="1"/>
      <path id="Trazado_643" data-name="Trazado 643" d="M167.42,766.685h1.627a.89.89,0,0,0,.868-.983V754.538a.627.627,0,0,0-.649-.658H156.042a1.036,1.036,0,0,0-.973.658l-1.407,4.594a.828.828,0,0,1-.868.658h-2.924a.962.962,0,0,0-.868.983V765.7a.959.959,0,0,0,.868.983h1.842" transform="translate(1359 9280.402)" fill="none" stroke="#e90b18" stroke-linecap="round" stroke-linejoin="round" stroke-miterlimit="10" stroke-width="1"/>
      <path id="Trazado_644" data-name="Trazado 644" d="M160.09,779.554a2.71,2.71,0,1,1-2.71-2.734A2.7,2.7,0,0,1,160.09,779.554Z" transform="translate(1356.035 9268.406)" fill="none" stroke="#e90b18" stroke-linecap="round" stroke-linejoin="round" stroke-miterlimit="10" stroke-width="1"/>
      <path id="Trazado_645" data-name="Trazado 645" d="M181.67,779.554a2.71,2.71,0,1,1-2.71-2.734A2.7,2.7,0,0,1,181.67,779.554Z" transform="translate(1344.75 9268.406)" fill="none" stroke="#e90b18" stroke-linecap="round" stroke-linejoin="round" stroke-miterlimit="10" stroke-width="1"/>
      <path id="Trazado_646" data-name="Trazado 646" d="M167.84,748.861A1.837,1.837,0,0,1,169.682,747a1.908,1.908,0,0,1,1.842,1.861v1.422H167.84Z" transform="translate(1349.148 9284)" fill="none" stroke="#e90b18" stroke-linecap="round" stroke-linejoin="round" stroke-miterlimit="10" stroke-width="1"/>
      <path id="Trazado_647" data-name="Trazado 647" d="M181.93,758.93v4.155" transform="translate(1341.78 9277.762)" fill="none" stroke="#e90b18" stroke-linecap="round" stroke-linejoin="round" stroke-miterlimit="10" stroke-width="1"/>
      <path id="Trazado_648" data-name="Trazado 648" d="M181.732,763.28H177.61" transform="translate(1344.039 9275.486)" fill="none" stroke="#e90b18" stroke-linecap="round" stroke-linejoin="round" stroke-miterlimit="10" stroke-width="1"/>
    </g>
  </g>
</svg>
