<?xml version="1.0" encoding="utf-8"?>
<!-- Generator: Adobe Illustrator 23.0.5, SVG Export Plug-In . SVG Version: 6.00 Build 0)  -->
<svg version="1.1" id="Layer_1" xmlns="http://www.w3.org/2000/svg" xmlns:xlink="http://www.w3.org/1999/xlink" x="0px" y="0px"
	 viewBox="0 0 64 64" style="enable-background:new 0 0 64 64;" xml:space="preserve">
<style type="text/css">
	.st0{fill:none;stroke:#EC0000;stroke-width:3;stroke-linejoin:round;stroke-miterlimit:10;}
</style>
<path class="st0" d="M28.5,4.6c-3.2,0-3.7,2.3-7.9,2.3s-4.8-2.3-7.9-2.3C7,4.6,2.3,9.7,2.3,15.9S7,27.3,12.7,27.3
	c3.1,0,4.7-2.3,7.9-2.3s4.7,2.3,7.9,2.3c5.8,0,10.4-5.2,10.4-11.4S34.3,4.6,28.5,4.6z M12.4,20.9c-3.1,0-5.5-2.1-5.5-4.8
	c0-2.5,2.4-4.8,5.5-4.8c2.9,0,5.3,2.3,5.3,4.8C17.7,18.8,15.3,20.9,12.4,20.9z M29,20.9c-2.9,0-5.3-2.1-5.3-4.8
	c0-2.5,2.4-4.8,5.3-4.8c3.1,0,5.5,2.3,5.5,4.8C34.4,18.8,32,20.9,29,20.9z"/>
<path class="st0" d="M65.2-0.2L-0.2,65.1"/>
<path class="st0" d="M38.2,32H57l5.9,7.7L47.6,60.9L32.1,39.6L38.2,32z"/>
<path class="st0" d="M44.3,33l-2.9,8.8l6.2,20.1l6.7-20l-2.8-8.7"/>
</svg>
