<svg id="iconCostoDiario" xmlns="http://www.w3.org/2000/svg" width="19.5" height="19.5" viewBox="0 0 19.5 19.5">
  <path id="Shape" d="M16.75,19.5h-14A2.752,2.752,0,0,1,.005,16.917L0,16.75v-14A2.752,2.752,0,0,1,2.582.005L2.75,0h12A2.752,2.752,0,0,1,17.5,2.582l0,.168V4.1a2.755,2.755,0,0,1,1.994,2.46l.006.187v10a2.752,2.752,0,0,1-2.583,2.745ZM1.5,5.2V16.75a1.246,1.246,0,0,0,1.122,1.244L2.75,18h14a1.246,1.246,0,0,0,1.244-1.122L18,16.75v-2H14.5a3,3,0,0,1-.176-5.995L14.5,8.75H18v-2a1.246,1.246,0,0,0-1.122-1.244L16.75,5.5h-14a2.735,2.735,0,0,1-1.058-.211Zm13,5.05a1.5,1.5,0,0,0-.144,2.993l.144.006H18v-3ZM2.75,1.5a1.25,1.25,0,0,0-.128,2.493L2.75,4H16V2.75a1.246,1.246,0,0,0-1.122-1.244L14.75,1.5Z" transform="translate(0 0)" fill="#e90b18"/>
</svg>
