<svg xmlns="http://www.w3.org/2000/svg" width="22.044" height="19" viewBox="0 0 22.044 19">
  <g id="iconTodoRiesgo" transform="translate(-525.5 -565.5)">
    <path id="Trazado_100" data-name="Trazado 100" d="M161.638,562.747H147.962a.376.376,0,0,1-.375-.376V551.036a.376.376,0,0,1,.375-.375h17.059a.375.375,0,0,1,.375.375v12.132" transform="translate(379.988 16.946)" fill="none" stroke="#e90b18" stroke-linecap="round" stroke-miterlimit="10" stroke-width="1"/>
    <path id="Trazado_101" data-name="Trazado 101" d="M164.353,547H144.691a.69.69,0,0,0-.691.691v13.822a.69.69,0,0,0,.691.691H152.2v1.458l-4.4.278V565h13.373v-1.094l-4.308-.215V562.2h7.5a.69.69,0,0,0,.691-.691V547.691A.69.69,0,0,0,164.353,547Z" transform="translate(382 19)" fill="none" stroke="#e90b18" stroke-linecap="round" stroke-linejoin="round" stroke-miterlimit="10" stroke-width="1"/>
  </g>
</svg>
