<svg width="64" height="64" viewBox="0 0 64 64" fill="none" xmlns="http://www.w3.org/2000/svg">
<path d="M51.0994 55H13.9006C11.0897 55 8.81714 52.7001 8.81714 49.8554V27.0528C8.81714 24.2081 11.0897 21.9082 13.9006 21.9082H51.0994C53.9103 21.9082 56.1829 24.2081 56.1829 27.0528V49.8403C56.1829 52.6849 53.9103 55 51.0994 55Z" stroke="#EC0000" stroke-width="1.5" stroke-miterlimit="10"/>
<path d="M38.4506 36.0104H34.8922V32.4092C34.8922 32.0612 34.6082 31.7737 34.2643 31.7737H30.7208C30.3769 31.7737 30.0929 32.0612 30.0929 32.4092V35.7381C30.0929 35.8894 29.9732 36.0104 29.8237 36.0104H26.5344C26.1906 36.0104 25.9065 36.2979 25.9065 36.6459V40.232C25.9065 40.58 26.1906 40.8675 26.5344 40.8675H29.8237C29.9732 40.8675 30.0929 40.9886 30.0929 41.1399V44.4687C30.0929 44.8167 30.3769 45.1042 30.7208 45.1042H34.2643C34.6082 45.1042 34.8922 44.8167 34.8922 44.4687V41.1399C34.8922 40.9886 35.0118 40.8675 35.1614 40.8675H38.4506C38.7945 40.8675 39.0786 40.58 39.0786 40.232V36.6459C39.0786 36.2828 38.7945 36.0104 38.4506 36.0104Z" stroke="#EC0000" stroke-width="1.5" stroke-miterlimit="10" stroke-linecap="round" stroke-linejoin="round"/>
<path d="M21.2118 21.424C21.2118 15.1143 26.2653 10 32.5 10C38.7347 10 43.7883 15.1143 43.7883 21.424" stroke="#EC0000" stroke-width="1.5" stroke-miterlimit="10"/>
</svg>
