<svg xmlns="http://www.w3.org/2000/svg" width="21.653" height="24.191" viewBox="0 0 21.653 24.191">
  <g id="iconUsuarioEmision" transform="translate(-155.908 -468.114)">
    <path id="Trazado_444" data-name="Trazado 444" d="M174.855,471.328a2.78,2.78,0,0,1,1.956,2.655v7.355s-.751,6.08-10.06,10.217h-.033c-9.309-4.137-10.06-10.217-10.06-10.217v-7.355a2.778,2.778,0,0,1,1.953-2.654l7.714-2.4a1.325,1.325,0,0,1,.786,0Z" fill="none" stroke="#e90b18" stroke-linecap="round" stroke-linejoin="round" stroke-width="1.5"/>
    <circle id="Elipse_163" data-name="Elipse 163" cx="3.048" cy="3.048" r="3.048" transform="translate(163.686 474.607)" fill="none" stroke="#e90b18" stroke-linecap="round" stroke-linejoin="round" stroke-width="1.5"/>
    <path id="Trazado_445" data-name="Trazado 445" d="M166.734,483.626a12.106,12.106,0,0,0-7.513,2.609,20.552,20.552,0,0,0,7.5,5.32h.033a20.552,20.552,0,0,0,7.5-5.32A12.106,12.106,0,0,0,166.734,483.626Z" fill="none" stroke="#e90b18" stroke-linecap="round" stroke-linejoin="round" stroke-width="1.5"/>
  </g>
</svg>
