<svg xmlns="http://www.w3.org/2000/svg" width="23.47" height="20.21" viewBox="0 0 23.47 20.21">
  <g id="iconFallecimiento" transform="translate(-9.5 71.5)">
    <path id="Trazado_502" data-name="Trazado 502" d="M11.182,22.036l2.649-.03L15.5,15.2,18.175,25.68l2.058-5.9L21.307,22.8h9.105l.167.03a7.967,7.967,0,0,0,1.891-4.447c0-3.536-2.226-6.382-5.693-6.382-3.157,0-4.4,2.393-5.525,3.846C20.09,14.4,18.938,12,15.693,12,12.226,12,10,14.856,10,18.387,10,24.454,21.247,31.21,21.247,31.21a54.534,54.534,0,0,0,6.51-5.269" transform="translate(0 -83)" fill="none" stroke="#e90b18" stroke-linecap="round" stroke-linejoin="round" stroke-miterlimit="10" stroke-width="1"/>
  </g>
</svg>
