<svg id="iconPuntos" xmlns="http://www.w3.org/2000/svg" width="22" height="19.75" viewBox="0 0 22 19.75">
  <path id="Shape" d="M15,19.75H7a.75.75,0,0,1-.1-1.493L7,18.25h3.25V14.961a7.018,7.018,0,0,1-5.882-4.713L4.29,10H4A4,4,0,0,1,0,6.2L0,6V4A2.007,2.007,0,0,1,1.85,2.005L2,2H4A2.008,2.008,0,0,1,5.851.005L6,0H16a2.007,2.007,0,0,1,1.994,1.85L18,2h2a2.006,2.006,0,0,1,1.994,1.851L22,4V6a4,4,0,0,1-3.8,4L18,10h-.29a7.016,7.016,0,0,1-5.7,4.927l-.264.033V18.25H15a.75.75,0,0,1,.1,1.493ZM6,1.5a.5.5,0,0,0-.5.5V8a5.5,5.5,0,0,0,11,0V2a.5.5,0,0,0-.5-.5Zm12,2v5a2.5,2.5,0,0,0,2.495-2.335L20.5,6V4a.5.5,0,0,0-.41-.491L20,3.5ZM2,3.5a.5.5,0,0,0-.491.41L1.5,4V6A2.506,2.506,0,0,0,3.836,8.5L4,8.5v-5Z" transform="translate(0 0)" fill="#292929"/>
</svg>
