<svg xmlns="http://www.w3.org/2000/svg" width="21" height="21" viewBox="0 0 21 21">
  <g id="iconImprimirGray" transform="translate(0.5 0.5)">
    <path id="Combined_Shape" data-name="Combined Shape" d="M12,20H8a3,3,0,0,1-3-3H3a3,3,0,0,1-3-3V8A3,3,0,0,1,3,5H5V3A3,3,0,0,1,8,0h4a3,3,0,0,1,3,3V5h2a3,3,0,0,1,3,3v6a3,3,0,0,1-3,3H15A3,3,0,0,1,12,20ZM6.5,13.5V17A1.5,1.5,0,0,0,8,18.5h4A1.5,1.5,0,0,0,13.5,17V13.5ZM5,12H15a.75.75,0,0,1,0,1.5v2h2A1.5,1.5,0,0,0,18.5,14V8A1.5,1.5,0,0,0,17,6.5H3A1.5,1.5,0,0,0,1.5,8v6A1.5,1.5,0,0,0,3,15.5H5v-2A.75.75,0,1,1,5,12ZM8,1.5A1.5,1.5,0,0,0,6.5,3V5h7V3A1.5,1.5,0,0,0,12,1.5ZM16,10a1,1,0,1,1,1-1A1,1,0,0,1,16,10Z" fill="#292929" stroke="rgba(0,0,0,0)" stroke-width="1"/>
  </g>
</svg>
