<svg xmlns="http://www.w3.org/2000/svg" width="37.184" height="22" viewBox="0 0 37.184 22">
  <g id="iconAmbientes" transform="translate(-498.817 -419.945)">
    <path id="Trazado_765" data-name="Trazado 765" d="M517.409,436.39h10.58v-4.617a3.506,3.506,0,1,1,3.506,3.506v5.9H503.323v-5.9a3.506,3.506,0,1,1,3.505-3.506v4.617Z" transform="translate(0 -2.581)" fill="none" stroke="#e90b18" stroke-linecap="round" stroke-linejoin="round" stroke-width="2"/>
    <path id="Trazado_766" data-name="Trazado 766" d="M510.052,429.192v4.617h21.16v-4.617a3.488,3.488,0,0,1,1.092-2.533v-4.183a1.531,1.531,0,0,0-1.531-1.531h-20.29a1.523,1.523,0,0,0-1.522,1.522v4.192A3.49,3.49,0,0,1,510.052,429.192Z" transform="translate(-3.223)" fill="none" stroke="#e90b18" stroke-linecap="round" stroke-linejoin="round" stroke-width="2"/>
    <line id="Línea_625" data-name="Línea 625" y2="2.347" transform="translate(505.703 438.598)" fill="none" stroke="#e90b18" stroke-linecap="round" stroke-linejoin="round" stroke-width="2"/>
    <line id="Línea_626" data-name="Línea 626" y2="2.347" transform="translate(529.158 438.598)" fill="none" stroke="#e90b18" stroke-linecap="round" stroke-linejoin="round" stroke-width="2"/>
  </g>
</svg>
