<svg xmlns="http://www.w3.org/2000/svg" width="24.198" height="20.064" viewBox="0 0 24.198 20.064">
  <g id="iconResponsabilidadCivilRojo" transform="translate(-531.25 -448.169)">
    <path id="Trazado_58" data-name="Trazado 58" d="M151.8,439.676l-1.616-1.583a.6.6,0,0,1,0-.861l5.771-5.654a.632.632,0,0,1,.879,0l1.617,1.584a.6.6,0,0,1,0,.861l-5.771,5.653A.636.636,0,0,1,151.8,439.676Z" transform="translate(382 18.357)" fill="none" stroke="#dc0018" stroke-linecap="round" stroke-linejoin="round" stroke-miterlimit="10" stroke-width="1.5"/>
    <path id="Trazado_59" data-name="Trazado 59" d="M182.79,438.011l1.524-1.67a.6.6,0,0,0-.049-.859l-6.09-5.328a.631.631,0,0,0-.877.048l-1.523,1.67a.6.6,0,0,0,.049.859l6.09,5.325A.63.63,0,0,0,182.79,438.011Z" transform="translate(370.227 19)" fill="none" stroke="#dc0018" stroke-linecap="round" stroke-linejoin="round" stroke-miterlimit="10" stroke-width="1.5"/>
    <path id="Trazado_60" data-name="Trazado 60" d="M170.466,434.557l-6.074,6.357s1.643,2.356,5.43-1.305c0,0,5.124,4.607,5.727,5.068,1.075.854-.137,2.777-1.6,1.519-.657-.59-1.122-1.013-1.122-1.013s1.426,1.258,1.6,1.428c.8.684-.517,2.661-1.752,1.5-1.164-1.171-1.479-1.437-1.479-1.437s.47.5,1.129,1.159c.63.629-.558,2.637-1.987,1.2l-1.193-1.2s.279.331,1.073,1.127-.8,1.886-1.636,1.14a2.773,2.773,0,0,1-.62-.449" transform="translate(375.386 16.906)" fill="none" stroke="#dc0018" stroke-linecap="round" stroke-linejoin="round" stroke-miterlimit="10" stroke-width="1.5"/>
    <path id="Trazado_61" data-name="Trazado 61" d="M156.438,453a1.063,1.063,0,0,1-.008-1.521L158,449.93a1.118,1.118,0,0,1,1.553-.008,1.063,1.063,0,0,1,.007,1.522l-1.565,1.547A1.118,1.118,0,0,1,156.438,453Z" transform="translate(379.19 9.987)" fill="none" stroke="#dc0018" stroke-linecap="round" stroke-linejoin="round" stroke-miterlimit="10" stroke-width="1.5"/>
    <path id="Trazado_62" data-name="Trazado 62" d="M158.976,456.127a1.063,1.063,0,0,1-.008-1.521l1.8-1.786a1.117,1.117,0,0,1,1.553-.007,1.063,1.063,0,0,1,.007,1.521l-1.8,1.786A1.119,1.119,0,0,1,158.976,456.127Z" transform="translate(378.024 8.659)" fill="none" stroke="#dc0018" stroke-linecap="round" stroke-linejoin="round" stroke-miterlimit="10" stroke-width="1.5"/>
    <path id="Trazado_63" data-name="Trazado 63" d="M162.856,458.387a1.062,1.062,0,0,1-.008-1.521l1.266-1.253a1.117,1.117,0,0,1,1.553-.007,1.063,1.063,0,0,1,.008,1.521l-1.267,1.253A1.119,1.119,0,0,1,162.856,458.387Z" transform="translate(376.241 7.375)" fill="none" stroke="#dc0018" stroke-linecap="round" stroke-linejoin="round" stroke-miterlimit="10" stroke-width="1.5"/>
    <path id="Trazado_64" data-name="Trazado 64" d="M166.133,461.247a1.062,1.062,0,0,1-.008-1.521l.732-.725a1.117,1.117,0,0,1,1.553-.007,1.063,1.063,0,0,1,.007,1.521l-.732.725A1.119,1.119,0,0,1,166.133,461.247Z" transform="translate(374.735 5.818)" fill="none" stroke="#dc0018" stroke-linecap="round" stroke-linejoin="round" stroke-miterlimit="10" stroke-width="1.5"/>
    <path id="Trazado_65" data-name="Trazado 65" d="M165.316,435.9c1.338.885,3.048,1.74,5.034-.269" transform="translate(374.961 16.412)" fill="none" stroke="#dc0018" stroke-linecap="round" stroke-linejoin="round" stroke-miterlimit="10" stroke-width="1.5"/>
    <path id="Trazado_66" data-name="Trazado 66" d="M154.955,446.714l2.082,2.246" transform="translate(379.723 11.319)" fill="none" stroke="#dc0018" stroke-linecap="round" stroke-linejoin="round" stroke-miterlimit="10" stroke-width="1.5"/>
    <path id="Trazado_67" data-name="Trazado 67" d="M185.189,445.067l-2.722,3.244" transform="translate(367.079 12.076)" fill="none" stroke="#dc0018" stroke-linecap="round" stroke-linejoin="round" stroke-miterlimit="10" stroke-width="1.5"/>
  </g>
</svg>
