<svg width="64" height="64" viewBox="0 0 64 64" fill="none" xmlns="http://www.w3.org/2000/svg">
<path d="M31.527 51.0561C31.2998 51.0561 31.0841 50.9465 30.9478 50.7613C30.9175 50.7235 27.9877 46.7174 22.4461 42.171C15.1329 36.1619 12.1236 32.976 10.9502 29.9865C8.39894 23.4748 11.1622 15.8898 17.1202 13.078C22.3742 10.595 28.3549 12.53 31.527 17.5602C34.699 12.53 40.6835 10.5988 45.9337 13.078C51.8879 15.8898 54.655 23.4748 52.0999 29.9865C50.9265 32.976 47.921 36.1619 40.604 42.1672C35.051 46.7288 32.1326 50.7197 32.1023 50.7575C31.9698 50.9465 31.7541 51.0561 31.527 51.0561Z" stroke="#E20E19" stroke-width="1.5" stroke-miterlimit="10" stroke-linecap="round" stroke-linejoin="round"/>
</svg>
