<svg xmlns="http://www.w3.org/2000/svg" width="19.561" height="21.505" viewBox="0 0 19.561 21.505">
  <g id="iconBanio" transform="translate(-10.41 -8.41)">
    <path id="Trazado_503" data-name="Trazado 503" d="M20.526,22.959a.864.864,0,0,1-.866-.875.877.877,0,0,1,.866-.924.909.909,0,0,1,.866.924A.9.9,0,0,1,20.526,22.959Z" transform="translate(-4.785 -6.699)" fill="none" stroke="#e90b18" stroke-linecap="round" stroke-linejoin="round" stroke-miterlimit="10" stroke-width="1"/>
    <path id="Trazado_504" data-name="Trazado 504" d="M11.825,21.819a.908.908,0,0,1-.915-.875.891.891,0,1,1,1.781,0A.9.9,0,0,1,11.825,21.819Z" transform="translate(0 -6.076)" fill="none" stroke="#e90b18" stroke-linecap="round" stroke-linejoin="round" stroke-miterlimit="10" stroke-width="1"/>
    <path id="Trazado_505" data-name="Trazado 505" d="M15.483,12.944a1.292,1.292,0,0,1-1.323-1.337,1.319,1.319,0,0,1,1.323-1.337,1.355,1.355,0,0,1,1.323,1.337A1.322,1.322,0,0,1,15.483,12.944Z" transform="translate(-1.777 -0.744)" fill="none" stroke="#e90b18" stroke-linecap="round" stroke-linejoin="round" stroke-miterlimit="10" stroke-width="1"/>
    <path id="Trazado_506" data-name="Trazado 506" d="M37.025,36.24H31.632a2.423,2.423,0,0,1-2.442-2.465V23.805a2.412,2.412,0,0,1,2.442-2.415h5.392a2.444,2.444,0,0,1,2.442,2.415v9.969A2.454,2.454,0,0,1,37.025,36.24Z" transform="translate(-9.996 -6.825)" fill="none" stroke="#e90b18" stroke-linecap="round" stroke-linejoin="round" stroke-miterlimit="10" stroke-width="1"/>
    <path id="Trazado_507" data-name="Trazado 507" d="M29.2,47.24H39.473" transform="translate(-10.002 -20.961)" fill="none" stroke="#e90b18" stroke-linecap="round" stroke-linejoin="round" stroke-miterlimit="10" stroke-width="1"/>
    <path id="Trazado_508" data-name="Trazado 508" d="M29.76,24.79h9.512" transform="translate(-10.308 -8.684)" fill="none" stroke="#e90b18" stroke-linecap="round" stroke-linejoin="round" stroke-miterlimit="10" stroke-width="1"/>
    <path id="Trazado_509" data-name="Trazado 509" d="M33.8,18.913V16.96H40v1.953" transform="translate(-12.517 -4.402)" fill="none" stroke="#e90b18" stroke-linecap="round" stroke-linejoin="round" stroke-miterlimit="10" stroke-width="1"/>
    <path id="Trazado_510" data-name="Trazado 510" d="M37.73,12.25V8.91h2.388v3.34" transform="translate(-14.667)" fill="none" stroke="#e90b18" stroke-linecap="round" stroke-linejoin="round" stroke-miterlimit="10" stroke-width="1"/>
    <path id="Trazado_511" data-name="Trazado 511" d="M31.284,10H27.776a.8.8,0,0,0-.557.258L26,11.491a8.345,8.345,0,0,0,.965.974l.816-.875a.75.75,0,0,1,.553-.2h2.95" transform="translate(-8.252 -0.596)" fill="none" stroke="#e90b18" stroke-linecap="round" stroke-linejoin="round" stroke-miterlimit="10" stroke-width="1"/>
  </g>
</svg>
