<svg xmlns="http://www.w3.org/2000/svg" width="11.977" height="21.5" viewBox="0 0 11.977 21.5">
  <g id="iconRoboVacaciones" transform="translate(-376.809 -935.2)">
    <path id="Trazado_825" data-name="Trazado 825" d="M167.432,190.778H156.95V181.06a1.369,1.369,0,0,1,1.39-1.4h7.7a1.369,1.369,0,0,1,1.39,1.4v6.45" transform="translate(220.609 763.488)" fill="none" stroke="#dc0018" stroke-linejoin="round" stroke-miterlimit="10" stroke-width="1.5"/>
    <path id="Trazado_826" data-name="Trazado 826" d="M163.4,171.962v-5.515c0-1.307.93-1.5,2.134-1.5,1.3,0,2.227.186,2.227,1.5v5.515" transform="translate(217.315 771)" fill="none" stroke="#dc0018" stroke-linejoin="round" stroke-miterlimit="10" stroke-width="1.5"/>
    <path id="Trazado_827" data-name="Trazado 827" d="M161.371,202.38v.935a.8.8,0,0,1-.744.749.82.82,0,0,1-.837-.749v-.935" transform="translate(219.158 751.887)" fill="none" stroke="#dc0018" stroke-linejoin="round" stroke-miterlimit="10" stroke-width="1.5"/>
    <path id="Trazado_828" data-name="Trazado 828" d="M173.881,202.38v.935a.824.824,0,0,1-.837.749.8.8,0,0,1-.744-.749v-.935" transform="translate(212.77 751.887)" fill="none" stroke="#dc0018" stroke-linejoin="round" stroke-miterlimit="10" stroke-width="1.5"/>
    <path id="Trazado_829" data-name="Trazado 829" d="M163.4,174.88h4.36" transform="translate(217.315 765.929)" fill="none" stroke="#dc0018" stroke-linejoin="round" stroke-miterlimit="10" stroke-width="1.5"/>
  </g>
</svg>
