<svg width="64" height="64" viewBox="0 0 64 64" fill="none" xmlns="http://www.w3.org/2000/svg">
<path d="M23.5576 28.2459H14.0509C11.8232 28.2459 10 26.4379 10 24.229V13.5898C10 11.3808 11.8232 9.57285 14.0509 9.57285H23.5576C25.7853 9.57285 27.6085 11.3808 27.6085 13.5898V24.229C27.6108 26.4402 25.7876 28.2459 23.5576 28.2459Z" stroke="#EC0000" stroke-width="1.5" stroke-miterlimit="10" stroke-linecap="round" stroke-linejoin="round"/>
<path d="M19.3611 33.6812H36.0292C37.5543 33.6812 38.8022 32.4438 38.8022 30.9315C38.8022 29.4191 37.5543 28.1817 36.0292 28.1817H19.3611C17.836 28.1817 16.5881 29.4191 16.5881 30.9315C16.5881 32.4438 17.836 33.6812 19.3611 33.6812Z" stroke="#EC0000" stroke-width="1.5" stroke-miterlimit="10" stroke-linecap="round" stroke-linejoin="round"/>
<path d="M22.0671 20.1456H20.4449V18.537C20.4449 18.0627 20.0544 17.6754 19.576 17.6754H18.0902C17.6118 17.6754 17.2213 18.0627 17.2213 18.537V20.1456H15.5991C15.1208 20.1456 14.7302 20.5329 14.7302 21.0072V22.4806C14.7302 22.9549 15.1208 23.3422 15.5991 23.3422H17.2213V24.9508C17.2213 25.4251 17.6118 25.8124 18.0902 25.8124H19.576C20.0544 25.8124 20.4449 25.4251 20.4449 24.9508V23.3422H22.0671C22.5455 23.3422 22.936 22.9549 22.936 22.4806V21.0072C22.936 20.5329 22.5455 20.1456 22.0671 20.1456Z" stroke="#EC0000" stroke-width="1.5" stroke-miterlimit="10" stroke-linecap="round" stroke-linejoin="round"/>
<path d="M10 15.4046H27.6108" stroke="#EC0000" stroke-width="1.5" stroke-miterlimit="10" stroke-linecap="round" stroke-linejoin="round"/>
<path d="M11.0491 39.4305C10.3767 40.787 10 42.3086 10 43.9149C10 45.7549 11.2409 47.3223 12.9324 47.8333" stroke="#EC0000" stroke-width="1.5" stroke-miterlimit="10" stroke-linecap="round" stroke-linejoin="round"/>
<path d="M29.2354 47.5399C30.7443 46.7975 31.7888 45.2508 31.7888 43.4772V37.2811C31.7888 35.3013 30.1551 33.6835 28.1608 33.6835H20.3202C17.2676 33.6835 14.5131 35.0149 12.6205 37.123" stroke="#EC0000" stroke-width="1.5" stroke-miterlimit="10" stroke-linecap="round" stroke-linejoin="round"/>
<path d="M45.7069 55.4271C49.3684 55.4271 52.3367 52.4838 52.3367 48.8529C52.3367 45.2221 49.3684 42.2788 45.7069 42.2788C42.0454 42.2788 39.0771 45.2221 39.0771 48.8529C39.0771 52.4838 42.0454 55.4271 45.7069 55.4271Z" stroke="#EC0000" stroke-width="1.5" stroke-miterlimit="10" stroke-linecap="round" stroke-linejoin="round"/>
<path d="M45.7069 51.6095C47.2422 51.6095 48.4869 50.3754 48.4869 48.8529C48.4869 47.3305 47.2422 46.0963 45.7069 46.0963C44.1716 46.0963 42.927 47.3305 42.927 48.8529C42.927 50.3754 44.1716 51.6095 45.7069 51.6095Z" stroke="#EC0000" stroke-width="1.5" stroke-miterlimit="10" stroke-linecap="round" stroke-linejoin="round"/>
<path d="M19.5623 55.4271C23.2238 55.4271 26.192 52.4838 26.192 48.8529C26.192 45.2221 23.2238 42.2788 19.5623 42.2788C15.9007 42.2788 12.9325 45.2221 12.9325 48.8529C12.9325 52.4838 15.9007 55.4271 19.5623 55.4271Z" stroke="#EC0000" stroke-width="1.5" stroke-miterlimit="10" stroke-linecap="round" stroke-linejoin="round"/>
<path d="M19.5623 51.6095C21.0976 51.6095 22.3422 50.3754 22.3422 48.8529C22.3422 47.3305 21.0976 46.0963 19.5623 46.0963C18.027 46.0963 16.7823 47.3305 16.7823 48.8529C16.7823 50.3754 18.027 51.6095 19.5623 51.6095Z" stroke="#EC0000" stroke-width="1.5" stroke-miterlimit="10" stroke-linecap="round" stroke-linejoin="round"/>
<path d="M33.039 23.2505H38.0651C38.6867 23.2505 39.1927 22.751 39.1927 22.1323V18.1383C39.1927 17.5219 38.689 17.0201 38.0651 17.0201H33.039C31.8928 17.0201 30.9639 17.9412 30.9639 19.0778V21.1928C30.9662 22.3294 31.8928 23.2505 33.039 23.2505Z" stroke="#EC0000" stroke-width="1.5" stroke-miterlimit="10" stroke-linecap="round" stroke-linejoin="round"/>
<path d="M50.3956 26.674C51.5834 29.0869 52.7642 31.4677 53.4344 32.8769C55.7313 36.9511 53.6539 42.5652 50.9341 44.8085" stroke="#EC0000" stroke-width="1.5" stroke-miterlimit="10" stroke-linecap="round" stroke-linejoin="round"/>
<path d="M39.6803 17.8519C42.0581 17.8519 45.8664 17.1301 47.2367 20.1342C47.6457 21.0324 48.2419 22.2744 48.9144 23.6515" stroke="#EC0000" stroke-width="1.5" stroke-miterlimit="10" stroke-linecap="round" stroke-linejoin="round"/>
<path d="M26.0417 47.4574H39.2274" stroke="#EC0000" stroke-width="1.5" stroke-miterlimit="10" stroke-linecap="round" stroke-linejoin="round"/>
<path d="M39.1927 22.3546H42.2245C42.2245 22.3546 44.9813 30.1661 45.3927 31.36C45.804 32.5538 45.6676 33.8531 44.7526 34.7903C43.8375 35.7275 43.4585 36.0895 42.726 36.7403C41.9957 37.3911 39.8698 37.8929 38.3839 37.1322C36.8241 36.3347 36.526 35.7321 36.0292 33.6835" stroke="#EC0000" stroke-width="1.5" stroke-miterlimit="10" stroke-linecap="round" stroke-linejoin="round"/>
<path d="M47.7567 21.2501C48.7457 19.9348 50.5274 17.6708 51.6412 19.559C51.6412 19.559 55.0012 26.6144 55.5951 27.9297C56.1889 29.245 55.9602 30.1913 52.2813 30.5007" stroke="#EC0000" stroke-width="1.5" stroke-miterlimit="10" stroke-linecap="round" stroke-linejoin="round"/>
</svg>
