<svg width="64" height="64" viewBox="0 0 64 64" fill="none" xmlns="http://www.w3.org/2000/svg">
<path d="M38.565 50C39.9994 46.8374 41.7222 44.7015 41.7222 41.8837C41.7222 39.0659 41.7222 36.5103 41.7222 34.8766C41.7222 33.2428 40.9101 30.8896 37.6011 30.6048C34.292 30.3201 33.5634 31.3618 32 31.3767" stroke="black" stroke-width="1.5" stroke-miterlimit="10" stroke-linecap="round" stroke-linejoin="round"/>
<path d="M25.435 50C24.0006 46.8374 22.2778 44.7015 22.2778 41.8837C22.2778 39.0659 22.2778 36.5103 22.2778 34.8766C22.2778 33.2428 23.0899 30.8896 26.3989 30.6048C29.7079 30.3201 30.4365 31.3618 32 31.3767" stroke="black" stroke-width="1.5" stroke-miterlimit="10" stroke-linecap="round" stroke-linejoin="round"/>
<path d="M28.1612 19.5725C28.3824 21.0089 28.6182 22.549 28.8173 23.8258C29.0679 25.4697 30.3799 26.6667 31.9205 26.6667C33.4095 26.6667 34.6994 25.5335 35.0016 23.9535L35.8124 19.7241C36.2768 17.2903 34.5667 15.008 32.2669 15H31.7436C29.5028 14.992 27.7927 17.1785 28.1612 19.5725Z" stroke="black" stroke-width="1.5" stroke-miterlimit="10" stroke-linecap="round" stroke-linejoin="round"/>
</svg>
