<svg xmlns="http://www.w3.org/2000/svg" width="18.572" height="20.072" viewBox="0 0 18.572 20.072">
  <g id="iconAsistenciaSoporte" transform="translate(0.5 0.5)">
    <g id="Grupo_145" data-name="Grupo 145" transform="translate(-1614.278 -10034.275)">
      <path id="Trazado_649" data-name="Trazado 649" d="M281.732,751.721l-2.506,1.535.158.162.325.241-4.281,4.281,1.05,1.049,4.281-4.2.245.248.158.159,1.539-2.5Z" transform="translate(1349.648 9283.329)" fill="#e90b18"/>
      <path id="Trazado_650" data-name="Trazado 650" d="M272.393,764.721l-8.648-8.539a4.262,4.262,0,0,0,.3-1.576,4.358,4.358,0,0,0-4.385-4.331,4.468,4.468,0,0,0-1.593.3l2.81,2.775-2.327,2.3-2.876-2.84a4.278,4.278,0,0,0-.4,1.8,4.358,4.358,0,0,0,4.385,4.331,4.448,4.448,0,0,0,1.42-.236l8.7,8.595a1.057,1.057,0,0,0,1.476,0l1.131-1.117A1.026,1.026,0,0,0,272.393,764.721Z" transform="translate(1359 9284)" fill="none" stroke="#e90b18" stroke-miterlimit="10" stroke-width="1"/>
      <path id="Trazado_651" data-name="Trazado 651" d="M264.4,772.363l-.809-.8-.677-.669-1.569-1.55a.427.427,0,0,0-.6,0l-.46.454a.415.415,0,0,0,0,.589l.406.4-4.818,4.228a.672.672,0,0,0,.009.954l1.918,1.894a.69.69,0,0,0,.967.009l4.281-4.753.289.286a.427.427,0,0,0,.6,0l.459-.454A.415.415,0,0,0,264.4,772.363Z" transform="translate(1358.812 9275.206)" fill="none" stroke="#e90b18" stroke-miterlimit="10" stroke-width="1"/>
    </g>
  </g>
</svg>
