<svg xmlns="http://www.w3.org/2000/svg" width="27.049" height="26.5" viewBox="0 0 27.049 26.5">
  <g id="iconViviendaRed" transform="translate(-1406.975 -9434.25)">
    <path id="Trazado_566" data-name="Trazado 566" d="M74,168.014l-8.491-14.7a4.626,4.626,0,0,0-8.01,0L49,168.018" transform="translate(1359 9284)" fill="none" stroke="#e90b18" stroke-linecap="round" stroke-linejoin="round" stroke-miterlimit="10" stroke-width="1.5"/>
    <path id="Trazado_567" data-name="Trazado 567" d="M72.857,168.042V181.4a1.736,1.736,0,0,1-1.735,1.735H57.781a1.734,1.734,0,0,1-1.735-1.735V168.042" transform="translate(1356.05 9276.866)" fill="none" stroke="#e90b18" stroke-linejoin="round" stroke-miterlimit="10" stroke-width="1.5"/>
    <path id="Trazado_568" data-name="Trazado 568" d="M71.409,186.86H64.942v-9.187a.728.728,0,0,1,.729-.729H70.68a.728.728,0,0,1,.729.729Z" transform="translate(1352.327 9273.14)" fill="none" stroke="#e90b18" stroke-linecap="round" stroke-linejoin="round" stroke-miterlimit="10" stroke-width="1.5"/>
  </g>
</svg>
