<?xml version="1.0" encoding="utf-8"?>
<!-- Generator: Adobe Illustrator 23.0.5, SVG Export Plug-In . SVG Version: 6.00 Build 0)  -->
<svg version="1.1" id="Layer_1" xmlns="http://www.w3.org/2000/svg" xmlns:xlink="http://www.w3.org/1999/xlink" x="0px" y="0px"
	 viewBox="0 0 64 64" style="enable-background:new 0 0 64 64;" xml:space="preserve">
<style type="text/css">
	.st0{fill:none;stroke:#EC0000;stroke-width:2.5006;stroke-miterlimit:10;}
	.st1{fill:none;stroke:#EC0000;stroke-width:2.5006;stroke-linecap:round;stroke-linejoin:round;stroke-miterlimit:10;}
	.st2{fill:none;stroke:#EC0000;stroke-width:2.5006;stroke-linecap:round;stroke-miterlimit:10;}
	.st3{fill:#EC0000;}
</style>
<path class="st0" d="M10.9,47.5H8.8c-0.6,0-1.1-0.5-1.1-1.3V8.8c0-0.7,0.5-1.3,1.1-1.3h48.3c0.6,0,1.1,0.5,1.1,1.3v39.9"/>
<path class="st0" d="M47.4,47.5H28.7"/>
<path class="st1" d="M14,59.9v1.8h37.8v-3.6l-12.2-0.7v-4.9h21.2c1.1,0,2-1.1,2-2.3V4.6c0-1.3-0.9-2.3-2-2.3H5.2c-1.1,0-2,1.1-2,2.3
	v45.5c0,1.3,0.9,2.3,2,2.3h6.2"/>
<path class="st2" d="M26.5,59.9c6.6-18.9-6-36-6-36c-15.4,20.5-6.5,36-6.5,36"/>
<path class="st3" d="M23,59.9C25.9,47.6,20,36.5,20,36.5c-6.8,13.5-2.9,23.4-2.9,23.4"/>
</svg>
