<?xml version="1.0" encoding="utf-8"?>
<!-- Generator: Adobe Illustrator 15.0.0, SVG Export Plug-In . SVG Version: 6.00 Build 0)  -->
<!DOCTYPE svg PUBLIC "-//W3C//DTD SVG 1.1//EN" "http://www.w3.org/Graphics/SVG/1.1/DTD/svg11.dtd">
<svg version="1.1" id="Layer_1" xmlns="http://www.w3.org/2000/svg" xmlns:xlink="http://www.w3.org/1999/xlink" x="0px" y="0px"
	 width="83.917px" height="66.693px" viewBox="0 0 83.917 66.693" enable-background="new 0 0 83.917 66.693" xml:space="preserve">
<path fill="#FFFFFF" d="M36.936,35.032c0,7.493-6.072,13.566-13.565,13.566c-3.946,0-7.486-1.694-9.964-4.382
	c1.87-1.31,7.258-1.016,8.725-0.502c9.094,2.779,10.372-5.188,10.372-5.188h-0.827c-1.652,5.487-10.071,3.232-11.274,3.232
	c-1.203,0-2.028,0.3-2.028,0.3l11.348-15.181H15.593l-1.204,3.984l0.901,0.376c1.052-2.931,4.811-2.856,4.811-2.856h3.907
	l-11.46,14.808c-1.715-2.271-2.744-5.091-2.744-8.157c0-7.49,6.073-13.565,13.566-13.565C30.864,21.467,36.936,27.541,36.936,35.032
	L36.936,35.032z"/>
<path id="XMLID_45_" fill="#FFFFFF" d="M60.122,14.713c-0.111,0.986-0.064,2.043,0.22,2.897c0.382,1.151,0.909,1.981,2.856,4.512
	c2.054,2.673,2.71,3.64,3.2,5.025c0.398,1.133,0.407,1.787,0.235,2.814c1.8,0.343,4.749,1.299,6.725,2.484
	c1.833,1.127,3.166,2.588,3.654,4.007c0.288,0.839,0.275,2.141-0.03,2.953c-0.294,0.782-0.698,1.434-1.293,2.086
	c-2.367,2.592-7.051,4.453-12.695,5.045c-1.249,0.132-4.308,0.226-5.357,0.164c-7.539-0.438-13.602-3.043-15.328-6.584
	c-0.717-1.472-0.7-2.737,0.056-4.193c0.624-1.2,2.333-2.685,4.342-3.771c1.934-0.932,3.749-1.627,5.694-2.175
	c0.094,1.27,2.57,4.307,3.39,5.381c1.787,2.339,2.494,3.455,2.998,4.348c0.304,0.537,0.475,0.88,0.389,1.901
	c0,0,0.688-0.623,0.947-1.151c0.337-0.685,0.456-1.379,0.391-2.271c-0.079-1.076-0.261-1.733-0.774-2.786
	c-0.499-1.021-1.215-2.056-2.575-3.725c-1.921-2.358-2.633-3.652-2.927-5.335c-0.326-1.867,0.199-3.852,1.273-4.818
	c0.235-0.21,0.611-0.415,0.611-0.415s-0.033,0.481-0.033,1.028c0,1.156,0.131,1.759,0.577,2.639c0.55,1.095,1.313,2.117,3.652,4.9
	c2.068,2.462,2.71,3.713,2.71,5.277c0,0.366,0.002,0.754,0.002,0.754s0.547-0.418,0.799-0.8c0.803-1.21,0.93-3.101,0.318-4.774
	c-0.419-1.148-1.096-2.19-3.103-4.711c-2.042-2.567-2.899-4.624-2.899-6.336c0-1.713,0.374-3.349,1.971-4.37H60.122z"/>
</svg>
