<?xml version="1.0" encoding="utf-8"?>
<!-- Generator: Adobe Illustrator 15.0.0, SVG Export Plug-In . SVG Version: 6.00 Build 0)  -->
<!DOCTYPE svg PUBLIC "-//W3C//DTD SVG 1.1//EN" "http://www.w3.org/Graphics/SVG/1.1/DTD/svg11.dtd">
<svg version="1.1" id="Layer_1" xmlns="http://www.w3.org/2000/svg" xmlns:xlink="http://www.w3.org/1999/xlink" x="0px" y="0px"
	 width="66.668px" height="66.693px" viewBox="0 0 66.668 66.693" enable-background="new 0 0 66.668 66.693" xml:space="preserve">
<path id="XMLID_10_" fill="#FFFFFF" d="M29.152,23.57c-0.042-0.562-0.083-1.121-0.124-1.675c0-0.082,0-0.082,0.165-0.082
	C29.175,22.396,29.164,22.98,29.152,23.57z"/>
<path id="XMLID_8_" fill="#FFFFFF" d="M34.163,12.046c-0.127,1.123-0.074,2.327,0.249,3.299c0.435,1.312,1.036,2.255,3.252,5.137
	c2.338,3.042,3.086,4.144,3.643,5.722c0.454,1.289,0.464,2.033,0.269,3.204c2.048,0.391,5.405,1.478,7.655,2.827
	c2.087,1.283,3.604,2.946,4.161,4.563c0.328,0.955,0.315,2.437-0.034,3.361c-0.334,0.891-0.794,1.633-1.472,2.375
	c-2.694,2.951-8.027,5.07-14.453,5.744c-1.421,0.149-4.904,0.256-6.098,0.186c-8.583-0.498-15.484-3.465-17.449-7.494
	c-0.816-1.676-0.797-3.118,0.064-4.774c0.709-1.367,2.656-3.057,4.943-4.295c2.201-1.06,4.268-1.853,6.482-2.476
	c0.107,1.446,2.926,4.902,3.858,6.127c2.035,2.662,2.839,3.933,3.414,4.949c0.345,0.611,0.541,1.002,0.443,2.164
	c0,0,0.783-0.709,1.078-1.311c0.382-0.779,0.518-1.57,0.445-2.584c-0.089-1.226-0.296-1.974-0.881-3.172
	c-0.568-1.162-1.383-2.341-2.931-4.241c-2.188-2.686-2.998-4.159-3.332-6.075c-0.371-2.125,0.226-4.385,1.451-5.484
	c0.266-0.24,0.695-0.473,0.695-0.473s-0.037,0.547-0.037,1.17c0,1.316,0.15,2.002,0.655,3.005c0.627,1.245,1.496,2.41,4.157,5.577
	c2.355,2.805,3.087,4.229,3.087,6.008c0,0.418,0.002,0.857,0.002,0.857s0.622-0.476,0.91-0.91c0.914-1.377,1.058-3.528,0.363-5.435
	c-0.477-1.307-1.249-2.493-3.533-5.362c-2.324-2.922-3.3-5.264-3.3-7.213C31.92,15.07,32.343,13.208,34.163,12.046L34.163,12.046z"
	/>
</svg>
