<?xml version="1.0" encoding="utf-8"?>
<!-- Generator: Adobe Illustrator 15.0.0, SVG Export Plug-In . SVG Version: 6.00 Build 0)  -->
<!DOCTYPE svg PUBLIC "-//W3C//DTD SVG 1.1//EN" "http://www.w3.org/Graphics/SVG/1.1/DTD/svg11.dtd">
<svg version="1.1" id="Layer_1" xmlns="http://www.w3.org/2000/svg" xmlns:xlink="http://www.w3.org/1999/xlink" x="0px" y="0px"
	 width="79.945px" height="74.14px" viewBox="0 0 79.945 74.14" enable-background="new 0 0 79.945 74.14" xml:space="preserve">
<polygon fill="#FFFFFF" points="68.792,41.955 42.6,68.146 71.838,68.146 71.838,38.908 "/>
<polygon fill="#FFFFFF" points="73.8,41.828 73.8,3.587 72.015,3.587 7.279,3.587 7.279,70.108 45.52,70.108 "/>
<polygon fill="#E1001A" points="70.054,43.216 46.908,66.361 70.054,66.361 "/>
<polygon fill="#2A368A" points="72.015,41.671 72.015,5.372 9.063,5.372 9.063,68.323 45.363,68.323 "/>
<path fill="#FFFFFF" d="M17.448,50.552c0-0.423,0.163-0.982,0.489-1.679c0.363-0.779,0.72-1.168,1.07-1.168
	c0.157,0,0.265,0.067,0.323,0.202c0.031,0.074,0.046,0.17,0.046,0.29c0,0.34-0.148,0.874-0.443,1.601
	c-0.35,0.874-0.712,1.311-1.083,1.311c-0.123,0-0.221-0.051-0.293-0.154C17.484,50.853,17.448,50.718,17.448,50.552z M18.838,47.312
	c-0.575,0-1.148,0.37-1.721,1.11c-0.56,0.725-0.84,1.423-0.84,2.095c0,0.427,0.1,0.748,0.298,0.96
	c0.199,0.213,0.437,0.32,0.714,0.32c0.352,0,0.672-0.14,0.962-0.419c0.167-0.159,0.364-0.423,0.592-0.792
	c-0.031,0.149-0.054,0.273-0.072,0.372c-0.017,0.099-0.025,0.168-0.025,0.208c0,0.24,0.075,0.411,0.226,0.512
	c0.095,0.066,0.21,0.1,0.345,0.1c0.258,0,0.524-0.138,0.797-0.414c0.157-0.156,0.359-0.418,0.608-0.786l-0.207-0.152
	c-0.093,0.147-0.202,0.295-0.327,0.447s-0.223,0.227-0.294,0.227c-0.034,0-0.063-0.011-0.085-0.032
	c-0.023-0.021-0.035-0.055-0.035-0.101c0-0.052,0.069-0.337,0.207-0.854c0.138-0.518,0.248-0.925,0.331-1.221l1.048-3.822
	c-0.386,0.074-0.665,0.126-0.836,0.154c-0.171,0.028-0.415,0.056-0.73,0.083l-0.404,0.038v0.246h0.195
	c0.124,0,0.219,0.02,0.287,0.06s0.102,0.116,0.102,0.227c0,0.027-0.002,0.057-0.005,0.088c-0.003,0.031-0.009,0.062-0.019,0.092
	l-0.427,1.558c-0.086-0.089-0.166-0.155-0.24-0.198C19.16,47.347,19.01,47.312,18.838,47.312z M23.75,47.729
	c-0.041-0.075-0.113-0.112-0.218-0.112c-0.222,0-0.441,0.178-0.655,0.533c-0.214,0.355-0.405,0.854-0.572,1.494
	c0.546-0.123,0.934-0.358,1.162-0.708c0.229-0.35,0.343-0.661,0.343-0.934C23.81,47.896,23.79,47.805,23.75,47.729z M21.788,48.306
	c0.566-0.662,1.187-0.994,1.863-0.994c0.292,0,0.534,0.072,0.726,0.216c0.192,0.144,0.289,0.348,0.289,0.611
	c0,0.398-0.225,0.775-0.674,1.13c-0.449,0.354-1.032,0.582-1.749,0.679c-0.019,0.095-0.032,0.185-0.042,0.269
	c-0.009,0.083-0.014,0.15-0.014,0.203c0,0.194,0.028,0.347,0.083,0.458c0.099,0.206,0.288,0.31,0.569,0.31
	c0.229,0,0.455-0.117,0.68-0.352c0.12-0.124,0.25-0.294,0.389-0.514l0.275,0.163c-0.237,0.396-0.46,0.687-0.669,0.871
	c-0.332,0.294-0.721,0.442-1.167,0.442c-0.332,0-0.646-0.121-0.939-0.361c-0.294-0.241-0.441-0.608-0.441-1.102
	C20.967,49.623,21.241,48.947,21.788,48.306z M30.055,48.219c0,0.408-0.142,0.961-0.427,1.657c-0.398,0.832-0.756,1.246-1.071,1.243
	c-0.124,0-0.223-0.055-0.299-0.166c-0.076-0.11-0.113-0.241-0.113-0.392c0-0.38,0.159-0.928,0.478-1.644
	c0.361-0.808,0.714-1.211,1.057-1.211c0.161,0,0.271,0.071,0.329,0.212C30.04,47.996,30.055,48.096,30.055,48.219z M26.984,50.563
	c0,0.448,0.107,0.766,0.323,0.953c0.215,0.187,0.448,0.281,0.697,0.281c0.277,0,0.528-0.087,0.754-0.26
	c0.227-0.173,0.422-0.385,0.589-0.634c0.074-0.106,0.128-0.187,0.164-0.242c0.036-0.055,0.047-0.076,0.035-0.064
	c-0.079,0.31-0.118,0.505-0.118,0.585c0,0.209,0.067,0.366,0.202,0.474c0.135,0.108,0.274,0.161,0.418,0.161
	c0.236,0,0.47-0.106,0.701-0.318s0.475-0.506,0.729-0.881l-0.197-0.143c-0.049,0.065-0.111,0.145-0.184,0.239
	c-0.074,0.095-0.125,0.159-0.156,0.193c-0.064,0.077-0.123,0.137-0.175,0.179s-0.106,0.063-0.161,0.063
	c-0.031,0-0.058-0.01-0.083-0.032c-0.024-0.021-0.037-0.06-0.037-0.116c0-0.135,0.042-0.362,0.125-0.68
	c0.037-0.166,0.099-0.406,0.187-0.72l0.616-2.209l-0.987,0.074l-0.157,0.491c-0.053-0.202-0.113-0.347-0.18-0.432
	c-0.114-0.141-0.291-0.211-0.531-0.211c-0.591,0-1.172,0.373-1.745,1.119C27.261,49.159,26.984,49.87,26.984,50.563z M31.546,51.669
	l1.47-5.36c0.015-0.059,0.032-0.129,0.051-0.212c0.018-0.082,0.027-0.15,0.027-0.202c0-0.141-0.044-0.227-0.134-0.257
	c-0.089-0.031-0.241-0.043-0.456-0.037v-0.246c0.453-0.046,0.762-0.082,0.925-0.105c0.164-0.023,0.508-0.083,1.034-0.18
	l-1.005,3.856h0.021c-0.032,0.041-0.017,0.019,0.046-0.067c0.063-0.086,0.157-0.211,0.283-0.374c0.282-0.369,0.55-0.657,0.803-0.863
	c0.253-0.206,0.525-0.309,0.817-0.309c0.221,0,0.396,0.062,0.527,0.185c0.13,0.123,0.196,0.308,0.196,0.553
	c0,0.102-0.011,0.202-0.033,0.3c-0.021,0.098-0.077,0.284-0.166,0.559l-0.632,1.956c-0.009,0.04-0.014,0.068-0.014,0.083
	c0,0.049,0.015,0.088,0.046,0.118c0.031,0.029,0.066,0.043,0.106,0.043c0.083,0,0.208-0.102,0.375-0.304
	c0.083-0.108,0.197-0.27,0.342-0.484l0.207,0.143c-0.283,0.435-0.506,0.734-0.671,0.897c-0.273,0.271-0.565,0.407-0.875,0.407
	c-0.171,0-0.319-0.05-0.446-0.15c-0.127-0.1-0.19-0.258-0.19-0.473c0-0.139,0.031-0.33,0.092-0.571
	c0.061-0.242,0.138-0.512,0.23-0.811l0.459-1.411c0.006-0.021,0.012-0.043,0.017-0.067c0.004-0.023,0.007-0.046,0.007-0.066
	c0-0.09-0.025-0.147-0.074-0.176C34.882,48.015,34.832,48,34.78,48c-0.188,0-0.407,0.153-0.659,0.457
	c-0.251,0.304-0.453,0.597-0.603,0.88c-0.153,0.286-0.305,0.651-0.454,1.095c-0.082,0.256-0.206,0.669-0.37,1.236H31.546z
	 M37.868,50.864c0-0.484,0.12-1.092,0.359-1.823c0.31-0.963,0.694-1.444,1.151-1.444c0.195,0,0.33,0.077,0.401,0.231
	c0.037,0.083,0.056,0.199,0.056,0.347c0,0.555-0.132,1.213-0.396,1.976c-0.316,0.908-0.674,1.361-1.072,1.361
	c-0.214,0-0.36-0.088-0.438-0.264C37.888,51.156,37.868,51.028,37.868,50.864z M39.433,47.312c-0.726,0-1.368,0.345-1.925,1.034
	c-0.508,0.63-0.762,1.283-0.762,1.957c0,0.542,0.164,0.926,0.491,1.154c0.328,0.228,0.675,0.341,1.042,0.341
	c0.717,0,1.354-0.343,1.911-1.029c0.511-0.63,0.767-1.281,0.767-1.952c0-0.606-0.222-1.035-0.665-1.287
	C40.039,47.385,39.753,47.312,39.433,47.312z M41.112,51.669c0.261-0.903,0.474-1.68,0.639-2.33
	c0.191-0.699,0.286-1.116,0.286-1.249c0-0.117-0.038-0.192-0.115-0.226c-0.077-0.034-0.209-0.051-0.397-0.051v-0.246
	c0.402-0.025,0.741-0.057,1.018-0.098c0.179-0.025,0.483-0.078,0.914-0.158l-0.521,1.676l0.042,0.009
	c0.271-0.523,0.489-0.894,0.652-1.113c0.286-0.381,0.563-0.572,0.827-0.572c0.185,0,0.321,0.062,0.409,0.185
	c0.088,0.122,0.132,0.259,0.132,0.409c0,0.182-0.048,0.344-0.146,0.488c-0.097,0.145-0.232,0.216-0.406,0.216
	c-0.078,0-0.149-0.015-0.216-0.045s-0.123-0.076-0.169-0.136l-0.088-0.109c-0.016-0.018-0.032-0.033-0.049-0.045
	c-0.017-0.012-0.04-0.018-0.067-0.018c-0.12,0-0.278,0.163-0.473,0.489c-0.195,0.326-0.358,0.658-0.491,0.997
	c-0.092,0.234-0.206,0.567-0.341,0.999c-0.135,0.431-0.235,0.741-0.3,0.929H41.112z M44.598,51.669
	c0.261-0.903,0.474-1.68,0.639-2.33c0.19-0.699,0.286-1.116,0.286-1.249c0-0.117-0.038-0.192-0.115-0.226s-0.209-0.051-0.397-0.051
	v-0.246c0.402-0.025,0.741-0.057,1.017-0.098c0.179-0.025,0.484-0.078,0.914-0.158l-0.521,1.676l0.042,0.009
	c0.271-0.523,0.488-0.894,0.651-1.113c0.287-0.381,0.563-0.572,0.828-0.572c0.185,0,0.321,0.062,0.409,0.185
	c0.088,0.122,0.132,0.259,0.132,0.409c0,0.182-0.049,0.344-0.146,0.488c-0.097,0.145-0.232,0.216-0.406,0.216
	c-0.077,0-0.149-0.015-0.216-0.045s-0.122-0.076-0.169-0.136l-0.088-0.109c-0.015-0.018-0.032-0.033-0.048-0.045
	c-0.018-0.012-0.04-0.018-0.068-0.018c-0.121,0-0.278,0.163-0.473,0.489c-0.195,0.326-0.359,0.658-0.492,0.997
	c-0.092,0.234-0.206,0.567-0.341,0.999c-0.135,0.431-0.235,0.741-0.299,0.929H44.598z M49.372,50.864
	c0-0.484,0.12-1.092,0.359-1.823c0.311-0.963,0.694-1.444,1.151-1.444c0.196,0,0.33,0.077,0.401,0.231
	c0.038,0.083,0.056,0.199,0.056,0.347c0,0.555-0.132,1.213-0.396,1.976c-0.317,0.908-0.674,1.361-1.072,1.361
	c-0.215,0-0.361-0.088-0.438-0.264C49.392,51.156,49.372,51.028,49.372,50.864z M50.937,47.312c-0.726,0-1.368,0.345-1.925,1.034
	c-0.508,0.63-0.762,1.283-0.762,1.957c0,0.542,0.164,0.926,0.492,1.154c0.328,0.228,0.674,0.341,1.041,0.341
	c0.717,0,1.354-0.343,1.911-1.029c0.511-0.63,0.766-1.281,0.766-1.952c0-0.606-0.221-1.035-0.665-1.287
	C51.544,47.385,51.257,47.312,50.937,47.312z M17.544,59.396c0.211-0.255,0.317-0.5,0.317-0.733c0-0.216-0.06-0.65-0.18-1.302
	c-0.077-0.417-0.158-0.824-0.244-1.222c-0.157-0.701-0.272-1.117-0.348-1.246c-0.075-0.13-0.221-0.195-0.439-0.195v-0.246
	c0.292-0.028,0.598-0.071,0.92-0.129c0.322-0.059,0.466-0.084,0.432-0.078l0.064-0.009c0.073,0.219,0.186,0.655,0.337,1.306
	s0.27,1.241,0.355,1.77l0.037,0.222l0.18-0.311c0.148-0.25,0.294-0.549,0.436-0.894c0.142-0.345,0.214-0.578,0.214-0.698
	c0-0.059-0.016-0.115-0.046-0.168c-0.031-0.054-0.082-0.106-0.152-0.155l-0.074-0.051c-0.052-0.037-0.102-0.086-0.147-0.147
	c-0.071-0.102-0.106-0.21-0.106-0.323c0-0.136,0.052-0.262,0.154-0.377c0.103-0.116,0.233-0.173,0.39-0.173
	c0.139,0,0.271,0.051,0.397,0.152c0.126,0.102,0.189,0.266,0.189,0.494c0,0.375-0.177,0.939-0.53,1.692
	c-0.265,0.562-0.572,1.124-0.923,1.686c-0.491,0.776-0.936,1.35-1.333,1.723c-0.397,0.373-0.8,0.559-1.208,0.559
	c-0.175,0-0.32-0.06-0.435-0.178c-0.115-0.119-0.173-0.252-0.173-0.4c0-0.158,0.053-0.282,0.161-0.375
	c0.107-0.093,0.229-0.139,0.363-0.139c0.141,0,0.3,0.055,0.478,0.165c0.178,0.109,0.297,0.164,0.358,0.164
	C17.147,59.778,17.333,59.651,17.544,59.396z M22.737,57.148l0.251,0.018c0.046,0.469,0.164,0.797,0.354,0.987
	c0.19,0.188,0.378,0.283,0.562,0.283c0.16,0,0.287-0.051,0.382-0.153c0.095-0.102,0.143-0.223,0.143-0.361
	c0-0.127-0.042-0.266-0.127-0.417c-0.084-0.151-0.184-0.298-0.297-0.44l-0.351-0.437c-0.153-0.166-0.284-0.359-0.392-0.579
	c-0.108-0.221-0.162-0.441-0.162-0.663c0-0.313,0.119-0.582,0.355-0.809c0.236-0.226,0.558-0.34,0.963-0.34
	c0.166,0,0.34,0.035,0.525,0.106c0.184,0.07,0.306,0.105,0.364,0.105c0.074,0,0.128-0.017,0.166-0.052
	c0.037-0.034,0.071-0.084,0.102-0.15h0.271l-0.217,1.446l-0.25-0.022c-0.059-0.401-0.167-0.689-0.325-0.865
	c-0.159-0.176-0.325-0.264-0.5-0.264s-0.304,0.052-0.385,0.157c-0.082,0.104-0.123,0.22-0.123,0.345c0,0.11,0.03,0.219,0.09,0.324
	c0.06,0.106,0.176,0.268,0.348,0.486l0.46,0.589c0.101,0.129,0.191,0.285,0.271,0.467c0.08,0.183,0.12,0.365,0.12,0.546
	c0,0.381-0.137,0.687-0.411,0.918s-0.607,0.348-1.001,0.348c-0.167,0-0.344-0.035-0.533-0.106c-0.189-0.07-0.304-0.106-0.344-0.106
	c-0.077,0-0.135,0.021-0.175,0.064c-0.04,0.043-0.072,0.092-0.097,0.148h-0.25L22.737,57.148z M28.938,54.928
	c0,0.273-0.114,0.584-0.343,0.933s-0.616,0.585-1.162,0.708c0.167-0.641,0.357-1.139,0.572-1.494
	c0.214-0.355,0.433-0.533,0.655-0.533c0.105,0,0.177,0.038,0.218,0.113C28.917,54.729,28.938,54.82,28.938,54.928z M26.095,57.259
	c0,0.494,0.147,0.861,0.44,1.102c0.294,0.24,0.607,0.361,0.939,0.361c0.446,0,0.835-0.148,1.167-0.442
	c0.209-0.184,0.432-0.475,0.669-0.871l-0.275-0.162c-0.139,0.219-0.269,0.39-0.389,0.514c-0.225,0.234-0.452,0.352-0.68,0.352
	c-0.281,0-0.47-0.104-0.569-0.31c-0.056-0.111-0.083-0.264-0.083-0.458c0-0.052,0.005-0.12,0.014-0.203
	c0.009-0.084,0.023-0.173,0.042-0.269c0.717-0.098,1.3-0.325,1.749-0.68c0.449-0.355,0.674-0.732,0.674-1.13
	c0-0.263-0.096-0.467-0.289-0.611c-0.192-0.144-0.434-0.216-0.726-0.216c-0.676,0-1.298,0.331-1.863,0.993
	C26.369,55.871,26.095,56.547,26.095,57.259z M32.605,59.544c0,0.194-0.096,0.354-0.287,0.478c-0.191,0.123-0.458,0.185-0.797,0.185
	c-0.432,0-0.742-0.105-0.929-0.315c-0.113-0.123-0.17-0.259-0.17-0.407c0-0.238,0.123-0.447,0.368-0.626s0.368-0.245,0.368-0.2
	c0.046,0,0.188,0.04,0.425,0.119c0.237,0.079,0.41,0.14,0.517,0.183c0.156,0.064,0.28,0.14,0.37,0.227
	C32.56,59.274,32.605,59.393,32.605,59.544z M31.939,56.843c-0.124,0-0.225-0.044-0.305-0.133c-0.081-0.089-0.121-0.22-0.121-0.392
	c0-0.337,0.089-0.722,0.267-1.151c0.177-0.43,0.412-0.645,0.705-0.645c0.154,0,0.266,0.053,0.333,0.161
	c0.068,0.107,0.102,0.244,0.102,0.41c0,0.365-0.097,0.749-0.289,1.149C32.438,56.643,32.208,56.843,31.939,56.843z M30.827,58.525
	c-0.39,0.114-0.662,0.217-0.816,0.31c-0.277,0.169-0.416,0.39-0.416,0.661c0,0.419,0.26,0.712,0.779,0.878
	c0.301,0.099,0.656,0.148,1.065,0.148c0.624,0,1.146-0.132,1.567-0.398c0.42-0.264,0.631-0.597,0.631-0.998
	c0-0.357-0.159-0.638-0.476-0.841c-0.185-0.12-0.497-0.244-0.937-0.37l-0.503-0.144c-0.102-0.031-0.188-0.065-0.258-0.105
	c-0.151-0.08-0.227-0.171-0.227-0.273c0-0.056,0.027-0.122,0.081-0.199c0.054-0.077,0.105-0.116,0.155-0.116
	c0.197,0.033,0.366,0.049,0.508,0.049c0.649,0,1.153-0.162,1.512-0.485c0.358-0.323,0.538-0.711,0.538-1.165
	c0-0.074-0.004-0.139-0.014-0.198c-0.009-0.058-0.023-0.127-0.042-0.207h0.636v-0.533H33.56c0.055,0-0.036-0.051-0.274-0.152
	c-0.239-0.102-0.516-0.152-0.833-0.152c-0.609,0-1.1,0.176-1.472,0.529c-0.372,0.352-0.559,0.726-0.559,1.122
	c0,0.263,0.062,0.489,0.185,0.676s0.312,0.327,0.567,0.418c-0.345,0.185-0.58,0.341-0.708,0.469
	c-0.127,0.128-0.191,0.271-0.191,0.428c0,0.194,0.071,0.35,0.212,0.467C30.56,58.41,30.674,58.47,30.827,58.525z M34.907,57.611
	c0.027-0.139,0.058-0.267,0.092-0.384l0.494-1.799c0.024-0.08,0.042-0.149,0.053-0.208c0.011-0.059,0.016-0.117,0.016-0.176
	c0-0.121-0.04-0.2-0.118-0.239c-0.078-0.038-0.214-0.061-0.408-0.067v-0.246c0.645-0.059,1.129-0.116,1.451-0.172
	c0.322-0.056,0.497-0.083,0.525-0.083l-0.427,1.445l-0.45,1.457c-0.021,0.067-0.046,0.157-0.074,0.268
	c-0.043,0.167-0.064,0.29-0.064,0.37c0,0.077,0.019,0.134,0.057,0.171c0.039,0.037,0.093,0.055,0.162,0.055
	c0.15,0,0.348-0.147,0.593-0.442c0.245-0.294,0.475-0.687,0.688-1.177c0.138-0.318,0.261-0.642,0.37-0.971
	c0.069-0.218,0.172-0.571,0.311-1.06h1.111l-0.36,1.309c-0.014,0.049-0.078,0.282-0.191,0.698c-0.112,0.417-0.181,0.667-0.204,0.75
	c-0.045,0.164-0.086,0.316-0.119,0.457c-0.034,0.141-0.051,0.237-0.051,0.29c0,0.059,0.015,0.104,0.043,0.137
	c0.029,0.033,0.065,0.049,0.108,0.049c0.098,0,0.23-0.107,0.396-0.322c0.095-0.119,0.181-0.245,0.258-0.377l0.197,0.118
	c-0.181,0.342-0.407,0.634-0.68,0.876c-0.274,0.242-0.555,0.363-0.846,0.363c-0.255,0-0.433-0.071-0.533-0.213
	c-0.068-0.096-0.102-0.223-0.102-0.381c0-0.151,0.012-0.281,0.037-0.387c0.025-0.107,0.082-0.301,0.171-0.582L37.39,57.13
	c-0.382,0.555-0.667,0.925-0.854,1.11c-0.309,0.308-0.626,0.462-0.95,0.462c-0.158,0-0.297-0.04-0.418-0.12
	c-0.201-0.126-0.302-0.341-0.302-0.643C34.866,57.859,34.879,57.75,34.907,57.611z M39.535,58.594
	c0.261-0.903,0.473-1.68,0.639-2.33c0.19-0.7,0.286-1.116,0.286-1.249c0-0.117-0.038-0.192-0.115-0.226
	c-0.077-0.034-0.209-0.051-0.397-0.051v-0.246c0.402-0.024,0.741-0.057,1.017-0.098c0.179-0.024,0.484-0.077,0.914-0.158
	l-0.521,1.676l0.041,0.009c0.271-0.523,0.489-0.894,0.652-1.113c0.287-0.381,0.563-0.572,0.828-0.572
	c0.185,0,0.321,0.062,0.409,0.184s0.132,0.26,0.132,0.41c0,0.181-0.049,0.344-0.146,0.488c-0.097,0.144-0.232,0.216-0.406,0.216
	c-0.077,0-0.149-0.016-0.216-0.045c-0.066-0.03-0.123-0.076-0.169-0.136l-0.088-0.109c-0.016-0.018-0.032-0.033-0.049-0.045
	c-0.017-0.012-0.039-0.018-0.067-0.018c-0.121,0-0.278,0.163-0.473,0.489c-0.195,0.326-0.358,0.658-0.491,0.996
	c-0.092,0.234-0.206,0.567-0.341,0.999s-0.235,0.741-0.3,0.929H39.535z M44.309,57.789c0-0.484,0.12-1.092,0.359-1.823
	c0.311-0.962,0.694-1.444,1.151-1.444c0.195,0,0.33,0.077,0.401,0.231c0.037,0.084,0.056,0.199,0.056,0.348
	c0,0.555-0.132,1.213-0.396,1.976c-0.317,0.907-0.675,1.36-1.073,1.36c-0.214,0-0.36-0.088-0.438-0.264
	C44.33,58.081,44.309,57.952,44.309,57.789z M45.875,54.237c-0.726,0-1.368,0.345-1.925,1.033c-0.508,0.631-0.762,1.283-0.762,1.957
	c0,0.542,0.164,0.926,0.492,1.154c0.328,0.228,0.674,0.341,1.041,0.341c0.717,0,1.354-0.343,1.911-1.029
	c0.511-0.631,0.766-1.281,0.766-1.952c0-0.606-0.222-1.036-0.665-1.288C46.48,54.309,46.195,54.237,45.875,54.237z"/>
<g>
	<rect x="28.581" y="13.834" fill="#FFFFFF" width="7.388" height="0.88"/>
	<rect x="28.581" y="26.084" fill="#FFFFFF" width="15.143" height="0.88"/>
	<rect x="47.264" y="26.084" fill="#FFFFFF" width="6.594" height="0.88"/>
	<rect x="42.329" y="20.532" fill="#FFFFFF" width="7.387" height="0.879"/>
	<rect x="30.492" y="14.487" fill="#FFFFFF" width="2.908" height="11.985"/>
	<polygon fill="#FFFFFF" points="40.451,26.472 39.04,26.472 45.209,13.958 46.62,13.958 	"/>
	<polygon fill="#FFFFFF" points="52.79,26.472 50.41,26.472 45.241,15.351 45.209,13.958 46.973,13.958 	"/>
	<rect x="57.399" y="40.273" fill="#FFFFFF" width="6.594" height="0.88"/>
	<rect x="48.233" y="40.273" fill="#FFFFFF" width="5.448" height="0.88"/>
	<rect x="43.65" y="28.147" fill="#FFFFFF" width="5.448" height="0.879"/>
	<rect x="52.464" y="34.721" fill="#FFFFFF" width="7.387" height="0.879"/>
	<polygon fill="#FFFFFF" points="50.586,40.661 49.175,40.661 55.344,28.147 56.755,28.147 	"/>
	<polygon fill="#FFFFFF" points="62.925,40.661 60.544,40.661 55.375,29.54 55.344,28.147 57.108,28.147 	"/>
	<rect x="37.482" y="40.273" fill="#FFFFFF" width="6.594" height="0.88"/>
	<rect x="28.316" y="40.273" fill="#FFFFFF" width="5.448" height="0.88"/>
	<rect x="32.547" y="34.721" fill="#FFFFFF" width="7.387" height="0.879"/>
	<polygon fill="#FFFFFF" points="30.669,40.661 29.258,40.661 35.427,28.147 36.838,28.147 	"/>
	<polygon fill="#FFFFFF" points="43.008,40.661 40.627,40.661 35.458,29.54 35.427,28.147 37.191,28.147 	"/>
	<path fill="#FFFFFF" d="M43.183,44.274c0.617,0,1.762-0.352,1.762-1.85c0-1.499,0-13.837,0-13.837h2.556c0,0,0,6.698,0,9.959
		c0,3.26-1.008,6.717-5.238,6.717c-1.906,0-2.487-1.29-2.07-1.866c0.43-0.595,1.228-0.445,1.668,0.084
		C42.301,44.01,42.654,44.274,43.183,44.274z"/>
	<path fill="#FFFFFF" d="M31.122,28.651c0,0-1.65,0.413-3.186-0.064c-1.704-0.529-2.479-0.574-3.19-0.574
		c-3.877,0-7.914,2.018-7.914,6.601c0,3.701,3.263,6.601,8.626,6.601l3.825-0.063c0,0,0.525-1.363,1.087-2.413
		c-0.712,0.9-2.723,1.538-4.838,1.538c-3.338,0-6.301-1.818-6.301-5.521c0-4.005,3.15-5.806,5.513-5.806
		c1.8,0,4.538,0.15,5.569,2.545c0.156,0.362,0.793,0.585,0.793-0.032C31.108,30.847,31.122,28.651,31.122,28.651z"/>
</g>
</svg>
