<svg xmlns="http://www.w3.org/2000/svg" width="168.79" height="32.135" viewBox="0 0 168.79 32.135">
  <g id="logoZurichSantander" transform="translate(-14 -7)">
    <path id="Trazado_458" data-name="Trazado 458" d="M14.353,29.215l2.359-3.389H14.432v-.574h3.03v.586l-2.353,3.39H17.5V29.8H14.353Z" transform="translate(0.179 9.255)" fill="#5e5f62"/>
    <path id="Trazado_459" data-name="Trazado 459" d="M21.318,27.918c0,1.277-.645,1.962-1.766,1.962s-1.766-.685-1.766-1.962V25.253h.651v2.58c0,.873.273,1.472,1.115,1.472s1.114-.6,1.114-1.472v-2.58h.652v2.665Z" transform="translate(1.92 9.255)" fill="#5e5f62"/>
    <path id="Trazado_460" data-name="Trazado 460" d="M21.661,25.252h1.115c.9,0,1.766.144,1.766,1.231A1.06,1.06,0,0,1,23.6,27.52v.013c.2.078.3.176.443.456l.86,1.812h-.744l-.7-1.577c-.2-.444-.417-.444-.763-.444h-.391V29.8h-.652V25.252Zm.652,1.955h.554c.618,0,.984-.274.984-.711,0-.41-.313-.672-.912-.672h-.626v1.383Z" transform="translate(3.884 9.255)" fill="#5e5f62"/>
    <path id="Trazado_461" data-name="Trazado 461" d="M25.76,25.252h-.652V29.8h.652Z" transform="translate(5.632 9.255)" fill="#5e5f62"/>
    <path id="Trazado_462" data-name="Trazado 462" d="M30.312,26.029a1.823,1.823,0,0,0-.937-.254,1.779,1.779,0,0,0-.034,3.557,2.245,2.245,0,0,0,.992-.221l.039.631a2.843,2.843,0,0,1-1.036.164,2.242,2.242,0,0,1-2.4-2.372,2.268,2.268,0,0,1,2.4-2.334,2.5,2.5,0,0,1,1.023.2Z" transform="translate(6.559 9.228)" fill="#5e5f62"/>
    <path id="Trazado_463" data-name="Trazado 463" d="M30.538,25.252h.652v1.9h2.176v-1.9h.651V29.8h-.651V27.728H31.191V29.8h-.652Z" transform="translate(8.386 9.255)" fill="#5e5f62"/>
    <path id="Trazado_464" data-name="Trazado 464" d="M38.19,25.962a2.023,2.023,0,0,0-.854-.188c-.366,0-.8.13-.8.606,0,.873,1.955.671,1.955,2.17,0,.971-.749,1.355-1.661,1.355a3.043,3.043,0,0,1-.933-.189l.066-.605a2.751,2.751,0,0,0,.944.221.814.814,0,0,0,.893-.743c0-1.017-1.954-.737-1.954-2.151,0-.808.639-1.238,1.459-1.238a3.064,3.064,0,0,1,.972.162Z" transform="translate(11.08 9.228)" fill="#5e5f62"/>
    <path id="Trazado_465" data-name="Trazado 465" d="M40.587,25.253h.684L43.193,29.8h-.711l-.463-1.146H39.792L39.329,29.8h-.685Zm.319.612L40,28.119h1.811Z" transform="translate(12.496 9.255)" fill="#5e5f62"/>
    <path id="Trazado_466" data-name="Trazado 466" d="M42.878,25.252h.885l2.008,3.661h.014V25.252h.652V29.8H45.6l-2.06-3.741H43.53V29.8h-.652Z" transform="translate(14.642 9.255)" fill="#5e5f62"/>
    <path id="Trazado_467" data-name="Trazado 467" d="M47.863,25.825H46.449v-.573h3.479v.573H48.515V29.8h-.652Z" transform="translate(16.453 9.255)" fill="#5e5f62"/>
    <path id="Trazado_468" data-name="Trazado 468" d="M51.345,25.253h.684L53.951,29.8h-.711l-.463-1.146H50.55L50.088,29.8H49.4Zm.319.612-.906,2.255H52.57Z" transform="translate(17.951 9.255)" fill="#5e5f62"/>
    <path id="Trazado_469" data-name="Trazado 469" d="M53.636,25.252h.885l2.007,3.661h.014V25.252h.652V29.8H56.36L54.3,26.06h-.012V29.8h-.652Z" transform="translate(20.098 9.255)" fill="#5e5f62"/>
    <path id="Trazado_470" data-name="Trazado 470" d="M57.519,25.253h1.342a2.227,2.227,0,0,1,2.423,2.234A2.151,2.151,0,0,1,58.861,29.8H57.519Zm.652,3.975h.684A1.531,1.531,0,0,0,60.6,27.514a1.588,1.588,0,0,0-1.662-1.688h-.762v3.4Z" transform="translate(22.066 9.255)" fill="#5e5f62"/>
    <path id="Trazado_471" data-name="Trazado 471" d="M61.472,25.252h2.548v.573h-1.9v1.33h1.727v.573H62.124v1.5h1.9V29.8H61.472Z" transform="translate(24.071 9.255)" fill="#5e5f62"/>
    <path id="Trazado_472" data-name="Trazado 472" d="M64.611,25.252h1.115c.9,0,1.766.144,1.766,1.231a1.06,1.06,0,0,1-.938,1.037v.013c.2.078.3.176.443.456l.86,1.812h-.742l-.7-1.577c-.2-.444-.417-.444-.763-.444h-.391V29.8h-.652Zm.652,1.955h.554c.618,0,.983-.274.983-.711,0-.41-.312-.672-.912-.672h-.625v1.383Z" transform="translate(25.662 9.255)" fill="#5e5f62"/>
    <path id="Trazado_473" data-name="Trazado 473" d="M70.009,26.488a.569.569,0,1,1-.567.569A.572.572,0,0,1,70.009,26.488Z" transform="translate(28.112 9.881)" fill="#5e5f62"/>
    <path id="Trazado_474" data-name="Trazado 474" d="M72.66,29.248a1.793,1.793,0,0,0,1,.267.907.907,0,0,0,1.022-.932c0-.893-2.085-1-2.085-2.2a1.279,1.279,0,0,1,1.44-1.187,2.7,2.7,0,0,1,.893.15l-.073.411a1.839,1.839,0,0,0-.826-.169c-.469,0-.985.195-.985.782,0,.912,2.086.919,2.086,2.248a1.334,1.334,0,0,1-1.493,1.284,2.591,2.591,0,0,1-1.029-.195Z" transform="translate(29.714 9.228)" fill="#5e5f62"/>
    <path id="Trazado_475" data-name="Trazado 475" d="M75.668,25.252H77.9v.391h-1.78v1.623H77.8v.391H76.116v1.752h1.857V29.8H75.668Z" transform="translate(31.269 9.255)" fill="#5e5f62"/>
    <path id="Trazado_476" data-name="Trazado 476" d="M81.775,27.755H80.719v-.391h1.506v2.261a3.425,3.425,0,0,1-1.415.281,2.168,2.168,0,0,1-2.293-2.354A2.195,2.195,0,0,1,80.809,25.2a3.178,3.178,0,0,1,1.219.217l-.051.416a2.406,2.406,0,0,0-1.168-.241,1.786,1.786,0,0,0-1.843,1.961,1.767,1.767,0,0,0,1.843,1.962,2.326,2.326,0,0,0,.966-.162v-1.6Z" transform="translate(32.713 9.228)" fill="#5e5f62"/>
    <path id="Trazado_477" data-name="Trazado 477" d="M85.793,28.211a1.649,1.649,0,1,1-3.3,0V25.252h.45v2.959a1.2,1.2,0,1,0,2.4,0V25.252h.45Z" transform="translate(34.731 9.255)" fill="#5e5f62"/>
    <path id="Trazado_478" data-name="Trazado 478" d="M86.192,25.252h1.172c.808,0,1.337.346,1.337,1.179a1.071,1.071,0,0,1-1.01,1.049v.013c.365.046.442.242.586.548l.776,1.759h-.5L87.9,28.263c-.26-.587-.456-.606-.886-.606h-.371V29.8h-.45Zm.45,2.014h.476c.528,0,1.134-.2,1.134-.835,0-.743-.529-.787-1.147-.787h-.463Z" transform="translate(36.605 9.255)" fill="#5e5f62"/>
    <path id="Trazado_479" data-name="Trazado 479" d="M91.228,25.2a2.066,2.066,0,0,1,2,2.353c-.014,1.395-.691,2.353-2,2.353s-1.988-.958-2-2.353A2.065,2.065,0,0,1,91.228,25.2Zm-1.551,2.353c0,.965.482,1.962,1.551,1.962s1.551-1,1.551-1.962-.483-1.962-1.551-1.962S89.677,26.588,89.677,27.553Z" transform="translate(38.144 9.228)" fill="#5e5f62"/>
    <path id="Trazado_480" data-name="Trazado 480" d="M93.209,29.248a1.793,1.793,0,0,0,1,.267.907.907,0,0,0,1.022-.932c0-.893-2.085-1-2.085-2.2A1.279,1.279,0,0,1,94.59,25.2a2.7,2.7,0,0,1,.893.15l-.073.411a1.839,1.839,0,0,0-.826-.169c-.469,0-.985.195-.985.782,0,.912,2.086.919,2.086,2.248a1.334,1.334,0,0,1-1.493,1.284,2.594,2.594,0,0,1-1.029-.195Z" transform="translate(40.133 9.228)" fill="#5e5f62"/>
    <path id="Trazado_481" data-name="Trazado 481" d="M99.371,25.252h.508l1.8,4.549h-.47l-.488-1.218H98.433l-.49,1.218h-.436Zm.221.43L98.6,28.192h1.975Z" transform="translate(42.343 9.255)" fill="#5e5f62"/>
    <path id="Trazado_482" data-name="Trazado 482" d="M101.5,25.252h1.172c.808,0,1.337.346,1.337,1.179A1.072,1.072,0,0,1,103,27.48v.013c.365.046.443.242.588.548l.775,1.759h-.5l-.659-1.537c-.259-.587-.455-.606-.885-.606h-.372V29.8H101.5V25.252Zm.449,2.014h.476c.527,0,1.133-.2,1.133-.835,0-.743-.527-.787-1.147-.787h-.463Z" transform="translate(44.367 9.255)" fill="#5e5f62"/>
    <path id="Trazado_483" data-name="Trazado 483" d="M107.836,27.755H106.78v-.391h1.506v2.261a3.414,3.414,0,0,1-1.414.281,2.169,2.169,0,0,1-2.294-2.354,2.2,2.2,0,0,1,2.294-2.353,3.174,3.174,0,0,1,1.218.217l-.051.416a2.4,2.4,0,0,0-1.166-.241,1.785,1.785,0,0,0-1.843,1.961,1.766,1.766,0,0,0,1.843,1.962,2.325,2.325,0,0,0,.965-.162Z" transform="translate(45.928 9.228)" fill="#5e5f62"/>
    <path id="Trazado_484" data-name="Trazado 484" d="M108.578,25.252h2.229v.391h-1.78v1.623h1.688v.391h-1.688v1.752h1.857V29.8h-2.306Z" transform="translate(47.956 9.255)" fill="#5e5f62"/>
    <path id="Trazado_485" data-name="Trazado 485" d="M111.484,25.252h.567l2.313,4h.012v-4h.449V29.8h-.6l-2.274-3.924h-.014V29.8h-.449Z" transform="translate(49.43 9.255)" fill="#5e5f62"/>
    <path id="Trazado_486" data-name="Trazado 486" d="M116.2,25.644h-1.341v-.391H118v.391h-1.343V29.8H116.2Z" transform="translate(51.142 9.255)" fill="#5e5f62"/>
    <path id="Trazado_487" data-name="Trazado 487" d="M118.544,25.252H118.1V29.8h.449Z" transform="translate(52.782 9.255)" fill="#5e5f62"/>
    <path id="Trazado_488" data-name="Trazado 488" d="M119.837,25.252h.568l2.313,4h.012v-4h.449V29.8h-.606L120.3,25.877h-.012V29.8h-.451Z" transform="translate(53.665 9.255)" fill="#5e5f62"/>
    <path id="Trazado_489" data-name="Trazado 489" d="M125.092,25.252h.508l1.805,4.549h-.47l-.488-1.218h-2.294l-.49,1.218h-.436Zm.222.43-.992,2.509H126.3Z" transform="translate(55.384 9.255)" fill="#5e5f62"/>
    <path id="Trazado_490" data-name="Trazado 490" d="M22.783,7A8.88,8.88,0,0,0,14,15.973a9.038,9.038,0,0,0,1.8,5.438l7.3-9.8-.788,0-.777,0a11.818,11.818,0,0,0-2.181.173,2.3,2.3,0,0,0-.895.371,3.641,3.641,0,0,0-.894,1.089c-.026.051-.067.124-.118.232l-.429-.1.718-2.813h9.148l-7.269,9.924a9.586,9.586,0,0,1,1.045-.053c.3,0,.741.02,1.341.056l1.291.082c.464.027.857.038,1.157.038a4.853,4.853,0,0,0,1.529-.184,3.551,3.551,0,0,0,.939-.464,4.382,4.382,0,0,0,1.3-1.518c.028-.058.078-.148.132-.266l.389.1a5.973,5.973,0,0,1-.384,1.119,4.586,4.586,0,0,1-1.44,1.944,3.467,3.467,0,0,1-2.126.716l-.126,0a15.124,15.124,0,0,1-2.514-.275,18.68,18.68,0,0,0-2.959-.312,8.3,8.3,0,0,0-1.43.12,4.433,4.433,0,0,0-1.45.445,8.681,8.681,0,0,0,6.472,2.907,8.88,8.88,0,0,0,8.786-8.972A8.883,8.883,0,0,0,22.783,7Z" transform="translate(0 0)" fill="#154a8d"/>
    <path id="Trazado_491" data-name="Trazado 491" d="M81.719,7.858a1.221,1.221,0,1,0,1.2,1.219A1.208,1.208,0,0,0,81.719,7.858Zm0,2.3a1.081,1.081,0,1,1,1.062-1.08A1.07,1.07,0,0,1,81.719,10.158Zm.058-1.089v0a.343.343,0,0,0,.321-.341c0-.271-.169-.388-.428-.388h-.378V9.823h.147v-.7h.117a.277.277,0,0,1,.318.2l.213.5h.158L82,9.251A.266.266,0,0,0,81.776,9.069ZM81.439,9V8.466h.147c.2,0,.369.014.369.258,0,.206-.2.273-.366.273Zm-36,2.518a1.15,1.15,0,0,1,.127.3,3.1,3.1,0,0,1,.079.917v3.322a10.03,10.03,0,0,1-.073,1.486,1.79,1.79,0,0,1-.223.642,1.69,1.69,0,0,1-1.05.747,2.605,2.605,0,0,1-.61.07,1.972,1.972,0,0,1-1.669-.738,2.645,2.645,0,0,1-.313-1.595l0-.722V13.306c0-.513,0-.755.02-1.017a1.9,1.9,0,0,1,.063-.4,2.025,2.025,0,0,1,.342-.634c.02-.02.04-.044.072-.077H39.426a1.189,1.189,0,0,1,.308.351,1.264,1.264,0,0,1,.122.306,1.951,1.951,0,0,1,.058.4c0,.085,0,.266,0,.54l.006.507v2.5c0,.93,0,1.165.036,1.537a2.846,2.846,0,0,0,.6,1.611,3.646,3.646,0,0,0,3.017,1.269,5.04,5.04,0,0,0,1.72-.278,3.217,3.217,0,0,0,1.273-.87,2.893,2.893,0,0,0,.69-1.7,14.943,14.943,0,0,0,.06-1.56V13.291l-.005-.5v-.1a3.1,3.1,0,0,1,.072-.8,1.179,1.179,0,0,1,.148-.353,1.222,1.222,0,0,1,.333-.364H45.137A1.048,1.048,0,0,1,45.444,11.515Zm-9.381,7.172a8.316,8.316,0,0,1-1.346.126c-.18,0-.4,0-.685,0h-1.31l5.189-7.643H31.179l-.826,1.866a5.153,5.153,0,0,1,.627-.3,6.176,6.176,0,0,1,1.209-.352,7.821,7.821,0,0,1,1.205-.106c.239-.006.461-.012.666-.012h1L29.82,19.915h7.4l.855-1.991a6.758,6.758,0,0,1-.628.339A5.638,5.638,0,0,1,36.063,18.687Zm42.215-5.9a3.588,3.588,0,0,1,.095-.928,1.418,1.418,0,0,1,.135-.322,1.179,1.179,0,0,1,.336-.367H76.056a1.35,1.35,0,0,1,.31.354,1.519,1.519,0,0,1,.144.306,3.1,3.1,0,0,1,.091.92v2.123H72.763V13.284c0-.483,0-.8.025-1.037a1.566,1.566,0,0,1,.068-.379,1.859,1.859,0,0,1,.353-.6c.021-.023.054-.055.1-.1H70.562a1.936,1.936,0,0,1,.282.338,1.291,1.291,0,0,1,.15.294,2.707,2.707,0,0,1,.093.927l.01.554v4.788a7.4,7.4,0,0,1-.036.919,1.866,1.866,0,0,1-.087.347,1.236,1.236,0,0,1-.328.488.993.993,0,0,1-.1.086h2.711a1.549,1.549,0,0,1-.229-.286,1.962,1.962,0,0,1-.138-.271,2.071,2.071,0,0,1-.127-.768c0-.185,0-.356,0-.52V15.952H76.6v2.133a5.652,5.652,0,0,1-.039.886,1.368,1.368,0,0,1-.093.381,1.285,1.285,0,0,1-.306.457c-.026.021-.061.059-.119.107h2.734a1.433,1.433,0,0,1-.228-.269,1.34,1.34,0,0,1-.161-.288,2.007,2.007,0,0,1-.112-.79c-.005-.255-.005-.4-.005-.452l.005-4.811v-.514ZM68.2,18.652a3.631,3.631,0,0,1-1.493.324,2.882,2.882,0,0,1-2.2-.939,3.545,3.545,0,0,1-.855-2.421,3.7,3.7,0,0,1,.774-2.361,2.89,2.89,0,0,1,.776-.648,3.287,3.287,0,0,1,1.655-.417,3.94,3.94,0,0,1,1.537.316,2.666,2.666,0,0,1,.7.394V11.256a3.885,3.885,0,0,0-.518-.145,7.008,7.008,0,0,0-1.508-.152,6.015,6.015,0,0,0-2.436.463,4.825,4.825,0,0,0-1.178.713,4.5,4.5,0,0,0-1.63,3.572,4.291,4.291,0,0,0,1.564,3.435,4.934,4.934,0,0,0,3.2,1.011,7.611,7.611,0,0,0,2.4-.392l.142-.045V18.131c-.209.138-.275.185-.4.257A4.659,4.659,0,0,1,68.2,18.652ZM59.99,12.793a3.01,3.01,0,0,1,.09-.981,1.278,1.278,0,0,1,.122-.272,1.239,1.239,0,0,1,.322-.365H57.779a1.5,1.5,0,0,1,.318.346,1.288,1.288,0,0,1,.131.285,3.105,3.105,0,0,1,.089.941c0,.266,0,.442,0,.527v5.234a2.613,2.613,0,0,1-.135.846,1.2,1.2,0,0,1-.137.252,1.894,1.894,0,0,1-.261.308H60.5a1.036,1.036,0,0,1-.261-.308,1.123,1.123,0,0,1-.137-.266,2.344,2.344,0,0,1-.116-.765v-5.27Zm-3.577,6.518c-.3-.294-.573-.573-.97-1.011-.256-.282-.462-.524-.626-.712l-1.329-1.6a3.364,3.364,0,0,0,.378-.134,3.545,3.545,0,0,0,1.058-.624,2.093,2.093,0,0,0,.674-1,2.174,2.174,0,0,0,.106-.675,2.035,2.035,0,0,0-.58-1.432,2.772,2.772,0,0,0-1.389-.788,6.83,6.83,0,0,0-1.462-.153c-.258-.006-.524-.01-.795-.01H49.267a1.6,1.6,0,0,1,.286.329,1.361,1.361,0,0,1,.15.318,3.419,3.419,0,0,1,.083.933v5.737a2.542,2.542,0,0,1-.095.845,1.406,1.406,0,0,1-.147.277,2.119,2.119,0,0,1-.291.3h2.723a2.123,2.123,0,0,1-.236-.284,1.09,1.09,0,0,1-.147-.264,2.2,2.2,0,0,1-.11-.808c0-.131-.005-.279-.005-.437V16.154L53.068,18.1c.072.091.19.23.353.422.184.212.323.373.419.47a3.848,3.848,0,0,0,.881.717,1.785,1.785,0,0,0,.851.2c.138,0,.288,0,.446,0h1.072c-.14-.114-.2-.164-.312-.262S56.54,19.439,56.412,19.311Zm-3.268-4.285a2.715,2.715,0,0,1-1.078.353,2.763,2.763,0,0,1-.448.042,1.139,1.139,0,0,1-.139-.007V12.18c.111,0,.151,0,.224,0a4.36,4.36,0,0,1,1.152.143,1.586,1.586,0,0,1,.582.317,1.37,1.37,0,0,1,.441,1.075,1.462,1.462,0,0,1-.334.986A1.686,1.686,0,0,1,53.144,15.026Z" transform="translate(8.022 0.435)" fill="#202d5d"/>
    <path id="Trazado_492" data-name="Trazado 492" d="M84.4,13.292a3.108,3.108,0,0,0-.416-1.426l-2.255-3.9a3.15,3.15,0,0,1-.356-.945l-.095.163a3.121,3.121,0,0,0,0,3.123l1.8,3.123a3.126,3.126,0,0,1,0,3.123l-.095.164a3.116,3.116,0,0,0-.356-.944l-1.651-2.86-1.054-1.826a3.1,3.1,0,0,1-.356-.944l-.095.162a3.123,3.123,0,0,0-.005,3.115h0l1.809,3.132a3.125,3.125,0,0,1,0,3.126l-.094.162a3.091,3.091,0,0,0-.357-.944l-2.253-3.905a3.112,3.112,0,0,1-.416-1.7c-2.414.63-4.079,1.969-4.079,3.52,0,2.157,3.224,3.905,7.2,3.905s7.2-1.748,7.2-3.905C88.481,15.261,86.816,13.922,84.4,13.292Zm6.8,6.667a4.509,4.509,0,0,1,.258-1.366,6.293,6.293,0,0,0,2.474.528c1.258,0,1.962-.406,1.962-1.2s-.514-1.149-1.785-1.7l-.689-.3c-1.272-.553-2.137-1.271-2.137-2.7,0-1.54,1.068-2.529,3.259-2.529a7.392,7.392,0,0,1,2.474.393,5.183,5.183,0,0,1-.27,1.351,6.869,6.869,0,0,0-2.218-.391c-1.177,0-1.717.459-1.717,1.176s.527,1.109,1.473,1.515l.73.311c1.718.73,2.434,1.5,2.434,2.812,0,1.556-1.176,2.624-3.475,2.624A6.5,6.5,0,0,1,91.2,19.959ZM104.711,13.5v6.761h-1.366l-.083-.811a2.07,2.07,0,0,1-1.905.973c-1.785,0-2.975-1.3-2.975-3.569,0-2.382,1.272-3.734,3.773-3.734A7.571,7.571,0,0,1,104.711,13.5Zm-1.489,5.219V14.467a6.193,6.193,0,0,0-1.067-.081c-1.542,0-2.259.947-2.259,2.463,0,1.378.554,2.353,1.879,2.353A2.326,2.326,0,0,0,103.221,18.714Zm9.1-3v4.543h-1.487V15.97c0-1.068-.353-1.583-1.84-1.583a7.474,7.474,0,0,0-1.176.109v5.76h-1.487V13.5a12.614,12.614,0,0,1,2.7-.38C111.526,13.115,112.324,14.076,112.324,15.713Zm4.126,3.434a3.4,3.4,0,0,0,1.163-.2c-.042.4-.1.865-.176,1.257a3.4,3.4,0,0,1-1.258.216,2.075,2.075,0,0,1-2.366-2.312v-7.1a5.131,5.131,0,0,1,1.487-.218v2.557h2.353a11.049,11.049,0,0,1-.136,1.271H115.3v3.314C115.3,18.809,115.734,19.147,116.45,19.147Zm7.978-5.651v6.761h-1.365l-.081-.811a2.073,2.073,0,0,1-1.906.973c-1.786,0-2.976-1.3-2.976-3.569,0-2.382,1.272-3.734,3.774-3.734A7.559,7.559,0,0,1,124.428,13.5Zm-1.486,5.219V14.467a6.247,6.247,0,0,0-1.07-.081c-1.542,0-2.259.947-2.259,2.463,0,1.378.556,2.353,1.881,2.353A2.337,2.337,0,0,0,122.942,18.714Zm9.1-3v4.543h-1.489V15.97c0-1.068-.351-1.583-1.839-1.583a7.485,7.485,0,0,0-1.177.109v5.76h-1.487V13.5a12.624,12.624,0,0,1,2.705-.38C131.245,13.115,132.043,14.076,132.043,15.713Zm7.546-4.924v9.467h-1.365l-.081-.866a2.05,2.05,0,0,1-1.934,1.028c-1.784,0-2.976-1.3-2.976-3.569,0-2.382,1.272-3.734,3.774-3.734a5.841,5.841,0,0,1,1.109.109V10.992A4.543,4.543,0,0,1,139.589,10.789Zm-1.474,7.9V14.522a6,6,0,0,0-1.191-.135c-1.474,0-2.178.92-2.178,2.463,0,1.378.555,2.353,1.881,2.353A2.385,2.385,0,0,0,138.115,18.687Zm8.953-1.324H142.32a1.946,1.946,0,0,0,2.218,1.783,5.811,5.811,0,0,0,2.381-.513c-.056.392-.136.907-.231,1.352a5.124,5.124,0,0,1-2.191.432c-2.488,0-3.691-1.378-3.691-3.692,0-2.015.931-3.611,3.3-3.611a2.824,2.824,0,0,1,3.041,3.1A7.945,7.945,0,0,1,147.069,17.363Zm-4.774-1.246h3.355a1.548,1.548,0,0,0-1.625-1.757C142.97,14.361,142.415,14.968,142.294,16.118Zm9.981-2.948a5.53,5.53,0,0,1-.136,1.272,9.659,9.659,0,0,0-1.123-.055,7.55,7.55,0,0,0-1.094.081v5.788h-1.489V13.5a9.042,9.042,0,0,1,2.542-.38A12.237,12.237,0,0,1,152.276,13.17Z" transform="translate(30.465 0.008)" fill="#ee3936"/>
  </g>
</svg>
