<?xml version="1.0" encoding="utf-8"?>
<!-- Generator: Adobe Illustrator 15.0.0, SVG Export Plug-In . SVG Version: 6.00 Build 0)  -->
<!DOCTYPE svg PUBLIC "-//W3C//DTD SVG 1.1//EN" "http://www.w3.org/Graphics/SVG/1.1/DTD/svg11.dtd">
<svg version="1.1" id="Layer_1" xmlns="http://www.w3.org/2000/svg" xmlns:xlink="http://www.w3.org/1999/xlink" x="0px" y="0px"
	 width="384.168px" height="66.693px" viewBox="0 0 384.168 66.693" enable-background="new 0 0 384.168 66.693"
	 xml:space="preserve">
<path fill-rule="evenodd" clip-rule="evenodd" fill="#FFFFFF" d="M45.026,36.178c0,8.531-6.914,15.445-15.444,15.445
	c-4.492,0-8.522-1.929-11.344-4.988c2.129-1.492,8.263-1.158,9.933-0.573c10.353,3.165,11.807-5.905,11.807-5.905h-0.941
	c-1.881,6.247-11.465,3.68-12.835,3.68c-1.369,0-2.309,0.342-2.309,0.342l12.919-17.284H20.728l-1.37,4.536l1.026,0.428
	c1.198-3.337,5.477-3.252,5.477-3.252h4.448L17.263,45.465c-1.953-2.585-3.124-5.796-3.124-9.286
	c0-8.528,6.914-15.444,15.444-15.444S45.026,27.65,45.026,36.178L45.026,36.178z M57.538,29.224h4.03L50.369,44.786h15.198
	l2.162-4.188c-2.054,1.897-7.11,1.897-7.11,1.897h-4.186l11.028-15.721h-14.06l-1.709,3.871
	C53.826,29.224,57.538,29.224,57.538,29.224L57.538,29.224z M69.912,26.775c0,0,1.057,0.79,1.057,2.686v10.901
	c0,0,0.474,5.213,7.742,5.213c7.267,0,7.347-5.765,7.347-5.765V28.355c0,0,0.02-1.501,1.076-1.58H81.84c0,0,1.057,0,1.057,1.659
	v10.663c0,0-0.237,3.952-4.108,3.952c-3.87,0-4.345-3.635-4.345-3.635V29.302c0,0,0.021-2.527,0.84-2.527H69.912L69.912,26.775z
	 M106.249,44.786c-4.374,1.422-7.078-2.29-7.078-2.29l-3.951-5.214h-0.474v5.292c0.079,2.054,1.076,2.212,1.076,2.212h-5.924
	c1.232,0,1.531-2.212,1.531-2.212V29.382c0-1.816-1.058-2.606-1.058-2.606h6.874c0,0,6.43,0.079,6.43,5.056
	c0,4.028-4.663,5.056-4.663,5.056C104.622,44.077,106.249,44.786,106.249,44.786L106.249,44.786z M99.96,31.909
	c0-3.316-5.135-2.843-5.135-2.843v6.558C94.825,35.624,99.96,36.096,99.96,31.909L99.96,31.909z M108.067,26.775
	c0,0,1.057,0.079,1.057,2.845V42.18c0,0,0.019,2.605-1.295,2.605h5.372c0,0-0.917,0-0.917-2.844V29.62c0,0,0.018-2.845,1.155-2.845
	H108.067L108.067,26.775z M131.322,30.488V27.17c0,0-1.895-0.79-4.345-0.79c-3.633,0-10.822,1.5-10.822,9.953
	s8.215,9.323,9.638,9.323c1.421,0,4.187-0.555,5.371-1.266v-3.554c0,0-1.264,2.053-4.897,2.053c-3.635,0-6.478-3.158-6.478-6.713
	c0-3.556,2.843-7.189,6.873-7.189C129.663,28.987,131.322,30.488,131.322,30.488L131.322,30.488z M149.966,41.942V29.62
	c0,0,0.019-2.845,1.153-2.845h-5.37c0,0,1.057,0.079,1.057,2.845v4.66h-8.137v-4.66c0,0,0.019-2.845,1.153-2.845h-5.37
	c0,0,1.057,0.079,1.057,2.845V42.18c0,0,0.019,2.605-1.293,2.605h5.37c0,0-0.916,0-0.916-2.844V36.65h8.137v5.53
	c0,0,0.019,2.605-1.293,2.605h5.369C150.882,44.786,149.966,44.786,149.966,41.942L149.966,41.942z"/>
<path id="XMLID_105_" fill="#FFFFFF" d="M225.126,45.205c0-2.121,0-4.242,0-6.365c0.301-0.006,0.609-0.006,0.917-0.006
	c0.563,2.895,2.403,5.594,5.606,5.934c2.246-0.092,3.831-0.484,5.075-2.521c0-0.314,0.203-0.655,0.249-0.976
	c-0.046-1.5-0.066-1.88-0.885-3.163c-0.287-0.275-0.576-0.551-0.864-0.818c-3.969-2.667-8.946-3.327-9.941-8.573
	c0.118-3.399,1.244-4.971,4.303-6.569c0.321-0.06,1.61-0.255,1.821-0.452c2.783-0.203,5.238,0.243,7.819,1.088
	c0,1.906,0,3.818,0,5.73c-0.308,0-0.608,0-0.911,0c-0.569-3.033-2.01-4.859-5.074-5.436c-1.723,0.059-2.699,0.262-3.977,1.513
	c-1.473,2.409-0.367,4.263,1.684,5.697c1.82,0.97,3.641,1.938,5.463,2.907c3.293,2.424,4.172,4.362,3.319,8.417
	c-0.642,1.23-0.642,1.23-1.002,1.773c-1.618,1.697-3.53,2.634-5.849,2.843c-0.459-0.007-4.564,0.21-5.114-0.339
	C226.815,45.783,226.03,45.488,225.126,45.205z"/>
<path id="XMLID_99_" fill="#FFFFFF" d="M297.264,30.345c-0.743,0.059-1.617,0.35-2.096,0.35c-2.612,1.165-5.39,2.807-3.778,5.859
	c0.732,0,1.611-0.563,2.287-0.858c0-0.176-0.008-0.169-0.191-0.444c0-0.747-0.312-1.249,0.095-1.969
	c1.035-1.152,2.329-1.619,3.763-0.905c1.303,1.434,1.174,2.57,1.238,4.509c-3.425,1.232-10.482,2.537-7.732,7.764
	c1.055,1.205,2,1.421,3.525,1.493c1.617-0.196,2.992-1.312,4.303-2.175c0.145,0.811,0.447,1.658,1.175,2.143
	c1.558-0.584,3.118-1.154,4.684-1.73c0.013-0.348,0.034-0.701,0.048-1.047c-0.793,0.229-1.324,0.391-2.144,0.332
	c-0.38-0.471-0.427-0.623-0.493-1.238v-7.812c-0.294-2.063-1.524-3.581-3.587-4C298.116,30.372,297.709,30.31,297.264,30.345z
	 M298.534,37.982v4.953c-1.899,1.494-4.805,1.871-5.113-1.254C293.638,39.389,296.772,38.729,298.534,37.982z"/>
<path id="XMLID_96_" fill="#FFFFFF" d="M340.005,19.423c-1.953,0.157-4.115,1.463-5.922,2.223c-0.014,0.347-0.027,0.693-0.033,1.047
	c0.818-0.229,2.398-0.923,2.588,0.414h0.096v7.953h-0.096c-3.805-1.643-7.663-0.248-10.145,2.811
	c-0.223,0.373-0.715,0.949-0.715,1.382c-2.828,6.812,3.406,13.627,10.146,9.494c0.268-0.235,0.524-0.463,0.793-0.699
	c0.242,0.184,0.262,0.548,0.334,0.842c0.176,0.32,0.18,0.313,0.952,1.223c1.604-0.564,3.215-1.127,4.825-1.684
	c-0.025-0.36-0.043-0.709-0.063-1.063c-0.223,0.051-0.768,0.178-0.937,0.349c-1.337-0.065-1.646-0.147-1.73-1.556
	C340.067,34.574,340.03,27,340.005,19.423z M333.844,31.917c1.073,0.049,1.983,0.496,2.794,1.684v8.875
	c-0.406,0.519-0.805,0.851-1.35,1.19c-0.818,0.223-0.828,0.211-0.92,0.303c-1.736,0-2.312-0.076-3.811-0.953
	c-0.779-0.865-0.783-0.855-1.144-1.445c-1.401-3.24-1.14-7.657,2.318-9.367C332.498,32.009,333.2,31.888,333.844,31.917z"/>
<path id="XMLID_93_" fill="#FFFFFF" d="M352.483,30.409c-0.539-0.015-1.106,0.025-1.382,0.016l-0.079,0.096
	c-1.002,0-1.915,0.478-2.826,0.857c-1.08,0.739-1.788,1.419-2.588,2.461c-0.275,0.465-1,1.485-1,2.127
	c-0.085,0.092-0.084,0.369-0.174,0.461c-0.617,4.394,0.721,7.513,4.763,9.367c3.156,0.53,5.983,0.455,8.524-1.89
	c0.021-0.465,0.039-0.922,0.064-1.381c-2.135,1.219-3.804,1.844-6.318,1.143c-2.954-1.276-3.557-3.602-3.668-6.509
	c-0.025-0.046-0.041-0.05,10.398-0.096c0.053-3.156-1.383-5.404-4.461-6.366C353.532,30.489,353.022,30.424,352.483,30.409z
	 M351.69,31.87c0.517,0.027,1.047,0.191,1.603,0.508c1.048,0.963,1.304,1.87,1.35,3.239c-2.226,0.007-4.44,0.019-6.669,0.031
	c-0.262-0.923,0.777-2.251,1.224-2.905C350.003,32.149,350.827,31.824,351.69,31.87z"/>
<path id="XMLID_92_" fill="#FFFFFF" d="M280.159,32.559c-0.819-0.02-1.638-0.032-2.456-0.045c-0.007-0.295-0.013-0.583-0.013-0.871
	c2.324-1.219,3.955-2.489,5.187-4.854c0.216-0.02,0.433-0.039,0.647-0.053c0.027,1.441,0.06,2.882,0.093,4.322
	c1.729,0.014,3.457,0.027,5.187,0.047v0.137c-0.209,0.42-0.301,0.885-0.551,1.271c-1.545,0-3.09,0-4.636,0
	c-0.021,2.939-0.033,5.88-0.046,8.827c0.301,2.115,1.631,2.555,3.595,2.228c0.903-0.366,0.903-0.366,1.179-0.394
	c0.138,0.256,0.138,0.438,0.322,0.754c-0.99,0.635-1.979,1.271-2.961,1.912c-2.044,0.203-3.256,0.014-4.683-1.598
	c-0.459-0.826-0.616-1.422-0.8-2.338C280.198,38.788,280.179,35.671,280.159,32.559L280.159,32.559z"/>
<path id="XMLID_91_" fill="#FFFFFF" d="M258.782,45.75c2.666,0,5.332,0,8.004,0v0.091c-2.672,0-5.338,0-8.004,0V45.75z"/>
<path id="XMLID_90_" fill="#FFFFFF" d="M264.513,34.059c-0.02,3.183-0.033,6.366-0.046,9.555c0,0.95,1.604,1.362,2.319,1.362
	c0,0.256,0,0.512,0,0.773c-2.673,0-5.338,0-8.004,0c0-0.262,0-0.518,0-0.773c0.662,0,2.233-0.412,2.233-1.27
	c0-3.189,0-6.373,0-9.556c0-1.283-1.539-0.799-2.233-0.635c0.02-0.348,0.039-0.688,0.065-1.029c1.716-0.74,3.608-1.932,5.481-2.063
	c0.026,0.785,0.059,1.572,0.092,2.363c2.391-1.931,4.277-3.109,7.368-1.773c1.624,1.158,2.312,2.41,2.501,4.322
	c0,2.757,0,5.514,0,8.277c0.439,1.009,1.258,1.362,2.365,1.362c-0.02,0.27-0.033,0.545-0.046,0.819c-2.673,0-5.337,0-8.003,0
	c-0.021-0.274-0.033-0.55-0.047-0.819c0.996,0,1.657-0.393,2.279-1.093c0.008-2.843,0.013-5.686,0.02-8.527
	c-0.117-0.91-0.326-1.329-0.799-2.096c-0.654-0.367-2.396-1.258-3.091-0.563C265.979,32.946,265.318,33.476,264.513,34.059
	L264.513,34.059z"/>
<path id="XMLID_89_" fill="#FFFFFF" d="M307.855,43.614c0-3.155,0-6.313,0-9.463c0-1.447-1.611-0.635-2.272-0.635
	c0-0.334,0-0.668,0-1.002c1.741-0.747,3.699-1.959,5.593-2.09c0.026,0.785,0.059,1.572,0.092,2.363
	c1.886-1.604,3.077-2.396,5.612-2.298c0.433,0.099,0.865,0.196,1.304,0.296c1.964,1.244,2.646,2.377,2.954,4.551
	c0.012,2.79,0.025,5.58,0.046,8.37c0.339,0.975,1.354,1.27,2.317,1.27c-0.02,0.27-0.033,0.545-0.045,0.819c-2.673,0-5.338,0-8.004,0
	c-0.02-0.274-0.033-0.55-0.045-0.819c0.982,0,1.662-0.386,2.271-1.093c0-3.007,0-6.005,0-9.006
	c-0.131-0.117-0.451-1.113-0.543-1.277c-1.795-1.99-4.01-0.817-5.776,0.459c-0.021,3.216-0.034,6.431-0.047,9.647
	c0.433,0.93,1.33,1.27,2.319,1.27c0,0.256,0,0.512,0,0.773c-2.672,0.013-5.338,0.025-8.004,0.046
	c-0.02-0.274-0.033-0.55-0.045-0.819C306.519,44.976,307.626,44.591,307.855,43.614L307.855,43.614z"/>
<path id="XMLID_88_" fill="#FFFFFF" d="M371.756,30.654c0,1.212,0,2.423,0,3.635c-0.229,0.014-0.458,0.025-0.681,0.046
	c-0.825-2.306-3.242-1.598-4.637-0.099c-0.17,0.275-0.342,0.55-0.505,0.825c-0.019,2.849-0.032,5.698-0.046,8.553
	c0.57,1.14,1.729,1.362,2.961,1.362c0,0.256,0,0.512,0,0.773c-2.855,0.013-5.705,0.025-8.555,0.046
	c-0.018-0.274-0.031-0.55-0.045-0.819c0.818,0,1.774-0.366,2.188-1.093c0.006-3.269,0.014-6.536,0.02-9.804
	c-0.359-1.095-1.33-0.886-2.207-0.563c0.007-0.354,0.02-0.708,0.033-1.055c1.715-0.734,3.607-1.906,5.475-2.037
	c0.02,1.049,0.045,2.096,0.072,3.143C367.264,31.184,368.888,29.783,371.756,30.654L371.756,30.654z"/>
<path id="XMLID_87_" fill="#FFFFFF" d="M225.126,38.841c0,2.122,0,4.243,0,6.364h-0.092c0-2.121,0-4.242,0-6.364H225.126z"/>
<path id="XMLID_84_" fill="#FFFFFF" d="M257.655,43.391c-0.766,0.197-1.169,0.328-1.955,0.269c-0.439-0.543-0.396-0.792-0.396-1.5
	c0-2.547,0-5.094,0-7.642h-0.102c-0.647-3.053-2.716-4.113-5.669-4.074c-1.742,0.236-3.438,1.311-4.734,2.482
	c-0.964,1.33-0.832,2.292-0.111,3.654c0.739-0.046,1.62-0.584,2.37-0.885V35.52c-0.75-0.564-0.496-1.258-0.393-1.912
	c0.957-1.369,2.332-2.012,3.898-1.231c1.309,1.395,1.136,2.6,1.201,4.506c-2.541,0.91-5.268,1.564-7.428,3.229
	c-0.773,1.048-0.78,1.23-0.873,1.316c-0.072,1.559-0.134,2.495,0.953,3.688c2.613,2.082,4.976,0.471,7.412-1.14
	c0.145,0.818,0.457,1.649,1.178,2.142c1.564-0.584,3.131-1.16,4.695-1.736C257.683,44.047,257.669,43.719,257.655,43.391z
	 M251.556,42.98c-1.5,0.923-3.313,1.873-4.768,0.038c-0.484-1.768-0.314-2.586,1.252-3.542c1.178-0.506,2.766-1.002,3.516-1.5
	C251.556,39.639,251.556,41.309,251.556,42.98z"/>
<path id="XMLID_83_" fill="#FFFFFF" d="M298.536,42.933c0-1.656,0-3.308,0-4.957h0.092c0,1.649,0,3.301,0,4.957H298.536z"/>
<path id="XMLID_79_" fill="#FFFFFF" d="M336.646,42.475c0-2.96,0-5.914,0-8.867h0.092c0,2.953,0,5.907,0,8.867H336.646z"/>
<path id="XMLID_64_" fill="#FFFFFF" d="M283.571,41.342c0.013-2.947,0.025-5.888,0.046-8.827v0.045
	C283.597,35.487,283.584,38.415,283.571,41.342L283.571,41.342z"/>
<path id="XMLID_62_" fill="#FFFFFF" d="M283.817,33.28v-0.045c1.533,0,3.066,0,4.601,0C286.884,33.249,285.351,33.261,283.817,33.28
	z"/>
<path id="XMLID_59_" fill="#FFFFFF" d="M192.41,23.569c-0.041-0.561-0.082-1.121-0.123-1.676c0-0.082,0-0.082,0.165-0.082
	C192.434,22.395,192.422,22.979,192.41,23.569z"/>
<path id="XMLID_58_" fill="#FFFFFF" d="M196.337,17.184c-0.041-0.537-0.082-1.066-0.124-1.598c0-0.082,0-0.082,0.165-0.082
	C196.36,16.064,196.349,16.624,196.337,17.184z"/>
<path id="XMLID_45_" fill="#FFFFFF" d="M197.421,12.046c-0.127,1.123-0.074,2.326,0.25,3.299c0.434,1.31,1.035,2.254,3.252,5.135
	c2.338,3.043,3.086,4.145,3.643,5.722c0.453,1.29,0.463,2.034,0.268,3.204c2.049,0.391,5.406,1.479,7.656,2.828
	c2.087,1.283,3.604,2.947,4.16,4.562c0.328,0.955,0.314,2.436-0.034,3.362c-0.335,0.89-0.794,1.632-1.472,2.374
	c-2.694,2.951-8.027,5.07-14.453,5.744c-1.421,0.15-4.904,0.256-6.098,0.187c-8.583-0.499-15.485-3.465-17.45-7.495
	c-0.816-1.676-0.797-3.118,0.064-4.775c0.71-1.366,2.656-3.056,4.943-4.294c2.201-1.06,4.268-1.852,6.482-2.475
	c0.107,1.445,2.926,4.902,3.859,6.126c2.034,2.662,2.839,3.933,3.413,4.949c0.346,0.611,0.541,1.002,0.443,2.164
	c0,0,0.783-0.709,1.078-1.311c0.383-0.779,0.518-1.569,0.445-2.584c-0.09-1.225-0.297-1.973-0.882-3.171
	c-0.567-1.163-1.383-2.341-2.931-4.242c-2.188-2.684-2.998-4.158-3.332-6.074c-0.371-2.125,0.226-4.385,1.45-5.485
	c0.267-0.239,0.695-0.473,0.695-0.473s-0.037,0.548-0.037,1.171c0,1.316,0.15,2.002,0.656,3.004c0.626,1.246,1.495,2.41,4.157,5.578
	c2.355,2.804,3.087,4.228,3.087,6.008c0,0.417,0.002,0.857,0.002,0.857s0.622-0.475,0.91-0.91c0.913-1.378,1.058-3.529,0.362-5.434
	c-0.477-1.307-1.248-2.494-3.532-5.364c-2.324-2.922-3.3-5.263-3.3-7.213s0.424-3.812,2.244-4.974H197.421z"/>
</svg>
