<?xml version="1.0" encoding="utf-8"?>
<!-- Generator: Adobe Illustrator 22.0.1, SVG Export Plug-In . SVG Version: 6.00 Build 0)  -->
<svg version="1.1" id="Capa_1" xmlns="http://www.w3.org/2000/svg" xmlns:xlink="http://www.w3.org/1999/xlink" x="0px" y="0px"
	 viewBox="0 0 206.2 28.6" style="enable-background:new 0 0 206.2 28.6;padding-left:1.7em;" xml:space="preserve">
<style type="text/css">
	.st0{fill:#ffffff;}
</style>
<path class="st0" d="M21.8,13.1c0-1-0.4-2-0.9-2.9l-4.6-8c-0.4-0.6-0.6-1.3-0.8-1.9l-0.3,0.4c-1.1,2-1.1,4.5,0,6.4l3.7,6.4
	c1.1,2,1.1,4.5,0,6.4l-0.3,0.4c-0.1-0.6-0.4-1.3-0.8-1.9l-3.4-5.9l-2.2-3.7C12,8,11.7,7.4,11.6,6.7l-0.3,0.4c-1.1,1.9-1.1,4.5,0,6.4
	l0,0l3.7,6.4c1.1,2,1.1,4.5,0,6.4l-0.3,0.4c-0.1-0.6-0.4-1.3-0.8-1.9l-4.6-8c-0.6-1-0.9-2.3-0.9-3.4c-5,1.3-8.3,4.1-8.3,7.3
	c0,4.5,6.6,8,14.8,8s14.8-3.6,14.8-8C30.1,17.1,26.7,14.4,21.8,13.1z M43.7,16.7l-1.5-0.6c-1.9-0.8-3.1-1.7-3.1-3.1
	c0-1.4,1.1-2.4,3.6-2.4c1.3,0,3.1,0.3,4.6,0.8c0.3-0.8,0.5-1.7,0.5-2.8c-1.5-0.5-3.3-0.8-5.1-0.8c-4.5,0-6.6,2-6.6,5.2
	c0,2.9,1.8,4.3,4.3,5.5l1.4,0.6c2.6,1.1,3.7,1.9,3.7,3.4c0,1.7-1.4,2.4-4,2.4c-1.5,0-3.6-0.4-5.1-1c-0.3,0.9-0.5,1.7-0.5,2.8
	c1.5,0.8,3.4,1,5.6,1c4.7,0,7.2-2.2,7.2-5.4C48.6,19.8,47.2,18.1,43.7,16.7z M50.5,20.4c0,4.6,2.4,7.3,6.1,7.3c1.9,0,3.1-0.8,4-2
	l0.1,1.7h2.8V13.5c-1.7-0.5-3.2-0.8-5.2-0.8C53.1,12.7,50.5,15.6,50.5,20.4z M60.5,24.2c-0.8,0.6-1.8,1-2.9,1c-2.7,0-3.8-2-3.8-4.9
	c0-3.1,1.4-5,4.6-5c0.9,0,1.5,0,2.2,0.1L60.5,24.2L60.5,24.2z M72.4,12.7c-1.4,0-3.6,0.3-5.5,0.8v13.8H70V15.6
	c0.8-0.1,1.7-0.3,2.4-0.3c3.1,0,3.7,1,3.7,3.2v8.8h3.1v-9.2C79,14.7,77.5,12.7,72.4,12.7z M89.8,15.8c0.1-0.8,0.3-1.7,0.3-2.6h-4.9
	V8c-0.9,0-2,0.1-3.1,0.4V23c0,3.3,1.9,4.7,4.9,4.7c0.9,0,1.8-0.1,2.6-0.4c0.1-0.8,0.3-1.8,0.4-2.6c-0.6,0.3-1.5,0.4-2.4,0.4
	c-1.4,0-2.3-0.6-2.3-2.4v-6.8h4.6V15.8z M90.9,20.4c0,4.6,2.4,7.3,6.1,7.3c1.9,0,3.1-0.8,4-2l0.1,1.7h2.8V13.5
	c-1.7-0.5-3.2-0.8-5.2-0.8C93.5,12.7,90.9,15.6,90.9,20.4z M100.9,24.2c-0.8,0.6-1.8,1-2.9,1c-2.7,0-3.8-2-3.8-4.9
	c0-3.1,1.4-5,4.6-5c0.9,0,1.5,0,2.2,0.1L100.9,24.2L100.9,24.2z M112.7,12.7c-1.4,0-3.6,0.3-5.5,0.8v13.8h3.1V15.6
	c0.8-0.1,1.7-0.3,2.4-0.3c3.1,0,3.7,1,3.7,3.2v8.8h3.1v-9.2C119.4,14.7,117.9,12.7,112.7,12.7z M131.9,13c-0.8-0.1-1.4-0.3-2.3-0.3
	c-5.1,0-7.7,2.8-7.7,7.7c0,4.6,2.4,7.3,6.1,7.3c2,0,3.2-0.8,4-2l0.1,1.8h2.8V8c-1,0-2,0.1-3.1,0.4L131.9,13L131.9,13z M131.9,24.1
	c-0.8,0.6-1.8,1-3.1,1c-2.7,0-3.8-2-3.8-4.9c0-3.2,1.4-5,4.5-5c0.8,0,1.7,0.1,2.4,0.3V24.1z M144.2,12.7c-4.9,0-6.8,3.3-6.8,7.4
	c0,4.7,2.4,7.5,7.5,7.5c1.7,0,3.1-0.3,4.5-0.9c0.3-0.9,0.4-1.9,0.5-2.8c-1.5,0.6-3.2,1-4.9,1c-2.7,0-4.1-1.1-4.6-3.7h9.7
	c0.1-0.8,0.1-1.5,0.1-2.3C150.3,15.6,148.5,12.7,144.2,12.7z M140.5,18.9c0.3-2.3,1.4-3.6,3.6-3.6c2,0,3.3,1.3,3.3,3.6H140.5z
	 M153,13.5v13.8h3.1V15.6c0.8-0.1,1.5-0.1,2.3-0.1c0.9,0,1.5,0,2.3,0.1c0.1-0.6,0.3-1.7,0.3-2.6c-0.6-0.1-1.7-0.1-2.7-0.1
	C156.4,12.7,154.3,13.1,153,13.5z"/>
</svg>
