<?xml version="1.0" encoding="utf-8"?>
<!-- Generator: Adobe Illustrator 15.0.0, SVG Export Plug-In . SVG Version: 6.00 Build 0)  -->
<!DOCTYPE svg PUBLIC "-//W3C//DTD SVG 1.1//EN" "http://www.w3.org/Graphics/SVG/1.1/DTD/svg11.dtd">
<svg version="1.1" id="Layer_1" xmlns="http://www.w3.org/2000/svg" xmlns:xlink="http://www.w3.org/1999/xlink" x="0px" y="0px"
	 width="214.945px" height="60.64px" viewBox="0 0 214.945 60.64" enable-background="new 0 0 214.945 60.64" xml:space="preserve">
<path fill-rule="evenodd" clip-rule="evenodd" fill="#D51D1B" d="M17.343,16.517c6.574,0,11.904,5.33,11.904,11.905
	s-5.33,11.904-11.904,11.904c-6.575,0-11.905-5.33-11.905-11.904S10.768,16.517,17.343,16.517 M17.343,17.651
	c-5.949,0-10.771,4.822-10.771,10.771c0,5.948,4.822,10.771,10.771,10.771c5.948,0,10.77-4.822,10.77-10.771
	C28.113,22.473,23.291,17.651,17.343,17.651"/>
<path fill-rule="evenodd" clip-rule="evenodd" fill="#D51D1B" d="M17.927,30.729v3.648H16.76v-3.648
	c-0.559,0-1.287-0.003-1.563-0.012l-3.873,0.009c-0.328,0.017-0.665-0.058-0.969-0.234c-0.588-0.339-0.904-0.967-0.879-1.597
	c0.001-0.094,0.011-0.175,0.022-0.24c0.138-0.771,0.41-1.532,0.822-2.247c0.415-0.719,0.941-1.337,1.545-1.844
	c0.404-0.299,0.972-0.449,1.494-0.358c0.147-0.497,0.494-0.909,0.944-1.144c0.085-0.049,0.166-0.083,0.231-0.107
	c0.878-0.317,1.824-0.49,2.808-0.49c0.989,0,1.939,0.174,2.821,0.496c0.508,0.22,0.96,0.682,1.149,1.232
	c0.499-0.114,1.015-0.003,1.421,0.305c0.603,0.507,1.216,1.192,1.631,1.911c0.413,0.715,0.685,1.475,0.822,2.247
	c0.011,0.065,0.022,0.146,0.022,0.24c0.026,0.63-0.291,1.258-0.88,1.597c-0.303,0.176-0.64,0.25-0.968,0.234l-3.873-0.009
	C19.212,30.727,18.485,30.729,17.927,30.729 M22.05,25.444c-0.185-0.14-0.442-0.165-0.656-0.041
	c-0.112,0.064-0.194,0.161-0.245,0.271l-1.962,3.418c-0.06,0.09-0.067,0.211-0.01,0.311c0.059,0.103,0.171,0.156,0.281,0.146
	l3.94,0.01c0.117,0.01,0.237-0.014,0.346-0.077c0.206-0.12,0.313-0.342,0.295-0.564c0.001-0.016,0-0.034-0.004-0.058
	c-0.113-0.641-0.339-1.272-0.684-1.868c-0.346-0.599-0.783-1.113-1.283-1.534C22.062,25.454,22.056,25.449,22.05,25.444
	 M12.636,25.444c-0.006,0.004-0.013,0.01-0.02,0.014c-0.501,0.42-0.938,0.935-1.284,1.534c-0.344,0.596-0.569,1.228-0.684,1.868
	c-0.004,0.024-0.005,0.042-0.004,0.058c-0.019,0.222,0.09,0.444,0.295,0.564c0.11,0.063,0.229,0.087,0.347,0.077l3.939-0.01
	c0.111,0.01,0.223-0.043,0.282-0.146c0.057-0.1,0.051-0.221-0.01-0.311l-1.962-3.418c-0.049-0.109-0.132-0.206-0.244-0.271
	C13.078,25.28,12.82,25.305,12.636,25.444 M19.792,24.07c-0.008-0.004-0.018-0.008-0.028-0.011
	c-0.755-0.275-1.571-0.425-2.422-0.425c-0.846,0-1.658,0.149-2.411,0.421c-0.027,0.01-0.047,0.021-0.063,0.032
	c-0.248,0.117-0.419,0.368-0.419,0.66c0,0.155,0.048,0.298,0.13,0.417l2.434,4.189c0.058,0.123,0.183,0.209,0.329,0.209
	c0.143,0,0.265-0.082,0.325-0.201l2.434-4.191c0.087-0.12,0.138-0.268,0.138-0.427C20.24,24.44,20.055,24.18,19.792,24.07"/>
<polygon fill-rule="evenodd" clip-rule="evenodd" fill="#D51D1B" points="48.705,16.566 54.538,28.511 60.372,16.566 69.193,16.567 
	69.193,40.455 60.372,40.455 60.372,28.511 54.538,40.455 48.705,28.511 48.705,40.454 39.884,40.454 39.884,16.566 "/>
<path fill-rule="evenodd" clip-rule="evenodd" fill="#D51D1B" d="M86.677,20.144l-3.581,12.471h7.163L86.677,20.144z M72.023,40.456
	l6.861-23.889h15.587l6.86,23.889h-8.82l-1.126-3.921H81.97l-1.125,3.921H72.023z"/>
<path fill-rule="evenodd" clip-rule="evenodd" fill="#D51D1B" d="M115.026,19.313c1.988,0,3.92,1.064,3.92,3.228
	c0,2.165-1.704,3.92-3.92,3.92h-1.914v-7.148H115.026z M120.652,16.578h-16.508v23.878h8.819v-9.95h7.689
	c3.846,0,6.963-3.118,6.963-6.964C127.615,19.695,124.498,16.578,120.652,16.578"/>
<polygon fill-rule="evenodd" clip-rule="evenodd" fill="#D51D1B" points="130.674,16.566 154.125,16.566 154.125,20.487 
	139.494,20.487 139.494,26.562 154.125,26.562 154.125,30.482 139.494,30.482 139.494,40.455 130.674,40.455 "/>
<polygon fill-rule="evenodd" clip-rule="evenodd" fill="#D51D1B" points="192.813,36.535 207.445,36.535 207.445,40.455 
	183.992,40.455 183.992,16.566 207.445,16.566 207.445,20.486 192.813,20.486 192.813,26.561 207.445,26.561 207.445,30.482 
	192.813,30.482 "/>
<path fill-rule="evenodd" clip-rule="evenodd" fill="#D51D1B" d="M168.091,19.316c1.938,0,3.92,1.063,3.92,3.228
	c0,2.165-1.754,3.919-3.92,3.919h-1.912v-7.147H168.091z M180.68,34.288v0.197C180.68,34.419,180.682,34.354,180.68,34.288
	 M180.68,34.484c0-0.065,0.002-0.131,0-0.197c-0.104-3.206-2.738-5.772-5.97-5.772c3.297,0,5.97-2.674,5.97-5.971
	c0-3.297-2.673-5.97-5.97-5.97h-7.702h-9.797v11.941v11.939h8.968v-9.89h1.912c2.162,0,3.92,1.755,3.92,3.919
	c0,0.064-0.002,0.128-0.005,0.192v5.778h2.704h5.97V34.484z"/>
</svg>
