<?xml version="1.0" encoding="utf-8"?>
<!-- Generator: Adobe Illustrator 16.0.3, SVG Export Plug-In . SVG Version: 6.00 Build 0)  -->
<!DOCTYPE svg PUBLIC "-//W3C//DTD SVG 1.1//EN" "http://www.w3.org/Graphics/SVG/1.1/DTD/svg11.dtd">
<svg version="1.1" id="Layer_2" xmlns="http://www.w3.org/2000/svg" xmlns:xlink="http://www.w3.org/1999/xlink" x="0px" y="0px"
	 width="593.5px" height="532.846px" viewBox="0 19.5 593.5 532.846" enable-background="new 0 19.5 593.5 532.846"
	 xml:space="preserve">
<title>marcas</title>
<path fill="#930D7A" d="M309.228,435.81l5.646-13.405l5.615-13.405l5.616,13.405l4.287,9.662h24.396
	c-3.292-19.096-21.439-31.904-40.534-28.612c-17.003,2.932-29.351,17.791-29.12,35.043c-0.052,1.255,0.039,2.511,0.272,3.744h46.345
	l-5.646,12.317l-5.616,12.077l-5.615-12.317l-4.831-9.662h-24.153c2.766,16.841,17.322,29.2,34.39,29.195
	c19.457-0.1,35.164-15.928,35.113-35.386v-2.687h-46.164V435.81L309.228,435.81z"/>
<path fill="#930D7A" d="M426.586,402.839h-8.304l-9.902,30.012h7.487l1.872-6.038h9.39l1.872,6.038h7.761L426.586,402.839
	L426.586,402.839z M419.34,421.316l3.02-9.934l3.02,9.934H419.34z"/>
<path fill="#930D7A" d="M562.451,421.739h2.688l8.303,10.989h9.058l-10.175-12.861c1.674-0.701,3.08-1.917,4.016-3.473
	c1.158-1.635,1.724-3.615,1.602-5.615c0.099-1.418-0.272-2.829-1.058-4.017c-0.683-1.086-1.601-2.005-2.688-2.687
	c-1.091-0.603-2.259-1.049-3.472-1.329c-1.417-0.232-2.854-0.323-4.288-0.271h-12.078v30.013h7.458v-10.749h0.543H562.451z
	 M562.451,408.334h4.561c0.543,0,1.057,0.271,1.6,0.271c0.564,0.302,1.027,0.765,1.329,1.328c0.339,0.566,0.525,1.211,0.543,1.872
	c0.059,0.727-0.034,1.455-0.271,2.145c-0.207,0.55-0.589,1.016-1.087,1.328c-0.473,0.534-1.158,0.834-1.872,0.814
	c-0.875,0.237-1.781,0.329-2.688,0.271h-2.145v-7.91l0,0L562.451,408.334z"/>
<path fill="#930D7A" d="M531.081,433.394c4.033,0.24,7.964-1.331,10.72-4.286c2.735-3.191,4.084-7.345,3.743-11.533
	c0.168-4.168-1.159-8.259-3.743-11.534c-2.827-2.849-6.707-4.4-10.72-4.287c-4.032-0.239-7.963,1.333-10.718,4.287
	c-2.736,3.19-4.084,7.344-3.744,11.534c-0.214,4.091,1.123,8.111,3.744,11.262C523.01,431.97,526.987,433.662,531.081,433.394z
	 M525.043,413.315c0.192-1.215,0.75-2.343,1.602-3.23c0.646-0.698,1.363-1.325,2.144-1.872c1.528-0.724,3.302-0.724,4.83,0
	c0.871,0.638,1.68,1.355,2.416,2.146c0.648,0.979,1.101,2.077,1.328,3.229c0.347,1.495,0.528,3.023,0.544,4.56
	c-0.001,1.535-0.184,3.065-0.544,4.56c-0.326,1.054-0.771,2.066-1.328,3.019c-0.583,0.762-1.312,1.397-2.144,1.872
	c-0.857,0.338-1.768,0.521-2.688,0.544c-0.829-0.05-1.645-0.232-2.415-0.544c-0.869-0.535-1.679-1.164-2.416-1.872
	c-0.591-0.975-1.125-1.981-1.6-3.019c-0.347-1.496-0.528-3.024-0.544-4.56C524.5,416.274,524.771,414.675,525.043,413.315
	L525.043,413.315z"/>
<path fill="#930D7A" d="M393.646,415.43c-1.058-0.271-2.145-0.544-3.021-0.814c-0.977-0.317-1.992-0.5-3.019-0.544
	c-1.174-0.12-2.286-0.582-3.2-1.328c-0.532-0.477-0.83-1.159-0.815-1.872c0.017-0.493,0.208-0.965,0.544-1.328
	c0.316-0.486,0.782-0.857,1.328-1.057c0.486-0.299,1.032-0.483,1.601-0.544c0.544,0,1.057-0.271,1.872-0.271
	c1.671-0.036,3.327,0.326,4.831,1.057c1.51,0.479,2.885,1.308,4.016,2.415h0.543v-6.701c-1.551-0.636-3.173-1.08-4.831-1.328
	c-1.765-0.313-3.551-0.495-5.344-0.544c-3.169-0.142-6.291,0.808-8.846,2.688c-3.776,2.743-4.614,8.027-1.872,11.805
	c1.346,1.557,3.12,2.681,5.103,3.23c1.021,0.463,2.113,0.739,3.23,0.814l3.229,0.815c0.784,0.188,1.518,0.55,2.145,1.057
	c0.534,0.474,0.834,1.158,0.814,1.872c0.032,0.583-0.163,1.157-0.544,1.601c-0.314,0.487-0.781,0.858-1.328,1.058
	c-0.543,0.271-1.057,0.271-1.601,0.543c-0.54,0.045-1.075,0.136-1.601,0.271c-1.835,0.012-3.651-0.349-5.344-1.058
	c-1.793-0.681-3.435-1.706-4.831-3.019h-0.814v7.246c1.566,0.652,3.183,1.188,4.831,1.6c1.974,0.487,4.01,0.67,6.038,0.544
	c3.352,0.26,6.684-0.693,9.39-2.688c2.279-1.697,3.578-4.406,3.473-7.246c0.093-1.838-0.475-3.647-1.601-5.104
	c-1.074-1.475-2.568-2.59-4.287-3.2l0,0L393.646,415.43z"/>
<polygon fill="#930D7A" points="454.453,411.957 465.986,432.851 473.203,432.851 473.203,402.839 466.258,402.839 466.258,419.988 
	456.597,402.839 447.479,402.839 447.479,432.851 454.453,432.851 "/>
<path fill="#930D7A" d="M497.326,433.394c1.164,0.063,2.332-0.026,3.473-0.271c0.814-0.271,1.601-0.271,2.688-0.543
	c0.73-0.229,1.446-0.501,2.144-0.815c0.645-0.225,1.271-0.497,1.872-0.814v-7.246h-0.814c-0.389,0.415-0.836,0.771-1.328,1.057
	c-0.577,0.505-1.205,0.95-1.872,1.328c-0.688,0.405-1.403,0.759-2.144,1.058c-0.972,0.343-1.99,0.524-3.021,0.544
	c-1.026-0.044-2.042-0.228-3.019-0.544c-1.03-0.268-1.962-0.821-2.688-1.601c-0.784-0.897-1.416-1.918-1.872-3.02
	c-0.576-1.544-0.854-3.185-0.813-4.831c-0.041-1.56,0.235-3.109,0.813-4.56c0.394-1.194,1.03-2.296,1.872-3.229
	c1.433-1.584,3.481-2.467,5.616-2.416c0.917,0.051,1.822,0.232,2.687,0.544c0.851,0.239,1.663,0.596,2.416,1.057
	c0.544,0.544,1.328,1.058,1.872,1.602c0.543,0.543,1.058,0.813,1.328,1.057h0.937V404.5c-0.602-0.322-1.228-0.596-1.871-0.815
	c-0.731-0.228-1.447-0.5-2.146-0.814c-0.863-0.311-1.77-0.493-2.687-0.543c-1.146-0.214-2.31-0.306-3.474-0.272
	c-4.032-0.238-7.963,1.333-10.718,4.288c-2.734,3.1-4.173,7.131-4.016,11.263c-0.253,4.226,1.192,8.378,4.016,11.532
	C489.4,432.008,493.304,433.554,497.326,433.394z"/>
<path fill="#930D7A" d="M393.646,456.431c-0.979-0.366-1.989-0.641-3.021-0.814c-0.977-0.317-1.992-0.5-3.019-0.543
	c-1.174-0.121-2.286-0.583-3.2-1.329c-0.482-0.478-0.745-1.133-0.725-1.813c0.015-0.492,0.208-0.965,0.543-1.328
	c0.314-0.487,0.781-0.858,1.328-1.057c0.485-0.299,1.032-0.484,1.601-0.544h1.872c1.674-0.026,3.329,0.347,4.831,1.087
	c1.509,0.48,2.884,1.309,4.016,2.416h0.543v-6.975c-1.551-0.637-3.173-1.082-4.831-1.328c-1.766-0.313-3.552-0.495-5.344-0.544
	c-3.169-0.142-6.291,0.808-8.847,2.688c-3.623,2.77-4.397,7.911-1.751,11.624c1.35,1.544,3.124,2.657,5.103,3.2l3.23,0.815
	l3.229,0.813c0.785,0.188,1.519,0.55,2.146,1.059c0.534,0.473,0.833,1.156,0.813,1.87c0.029,0.584-0.165,1.155-0.543,1.602
	c-0.314,0.488-0.782,0.859-1.329,1.057c-0.543,0.271-1.057,0.271-1.6,0.544h-1.602c-1.834,0.012-3.65-0.349-5.344-1.058
	c-1.794-0.677-3.437-1.702-4.831-3.019h-0.814v6.975c1.567,0.652,3.184,1.188,4.831,1.6c1.974,0.487,4.01,0.67,6.039,0.544
	c3.351,0.261,6.684-0.693,9.39-2.688c2.279-1.697,3.577-4.406,3.472-7.246c0.091-1.837-0.477-3.646-1.6-5.104
	c-1.27-1.131-2.718-2.038-4.288-2.688l0,0L393.646,456.431z"/>
<path fill="#930D7A" d="M576.099,456.431c-0.979-0.366-1.989-0.641-3.021-0.814c-0.971-0.341-1.99-0.524-3.02-0.543
	c-1.175-0.121-2.286-0.583-3.2-1.329c-0.535-0.473-0.833-1.158-0.815-1.871c0.017-0.494,0.209-0.966,0.544-1.329
	c0.315-0.488,0.782-0.858,1.328-1.057c0.485-0.3,1.033-0.485,1.602-0.543h1.872c1.674-0.027,3.328,0.346,4.83,1.087
	c1.51,0.479,2.886,1.306,4.016,2.415h0.544v-6.976c-1.551-0.636-3.173-1.082-4.831-1.328c-1.766-0.313-3.552-0.494-5.344-0.544
	c-3.17-0.143-6.292,0.807-8.848,2.688c-3.774,2.743-4.612,8.028-1.871,11.805c1.349,1.547,3.123,2.66,5.103,3.201l3.229,0.814
	l3.201,0.814c0.784,0.188,1.518,0.548,2.145,1.057c0.535,0.474,0.833,1.158,0.813,1.872c0.032,0.584-0.162,1.157-0.543,1.602
	c-0.314,0.487-0.782,0.858-1.328,1.057c-0.544,0.271-1.057,0.271-1.601,0.543h-1.602c-1.834,0.013-3.65-0.348-5.344-1.057
	c-1.794-0.678-3.436-1.703-4.831-3.019h-0.813v6.974c1.566,0.654,3.183,1.188,4.83,1.601c1.974,0.486,4.01,0.669,6.039,0.543
	c3.351,0.261,6.684-0.692,9.39-2.687c2.279-1.697,3.577-4.407,3.472-7.246c0.092-1.837-0.477-3.646-1.6-5.103
	c-1.266-1.135-2.716-2.043-4.287-2.688l0,0L576.099,456.431z"/>
<path fill="#930D7A" d="M539.656,443.297c-4.033-0.239-7.963,1.332-10.719,4.287c-2.736,3.191-4.084,7.344-3.743,11.534
	c-0.212,4.091,1.125,8.11,3.743,11.262c2.827,2.849,6.707,4.4,10.719,4.287c4.033,0.239,7.963-1.333,10.718-4.287
	c2.736-3.19,4.084-7.344,3.744-11.534c0.168-4.168-1.159-8.259-3.744-11.533C547.516,444.541,543.633,443.086,539.656,443.297
	L539.656,443.297L539.656,443.297z M545.694,463.405c-0.25,1.133-0.803,2.176-1.6,3.019c-0.584,0.76-1.313,1.396-2.145,1.872
	c-1.625,0.724-3.479,0.724-5.103,0c-0.891-0.39-1.639-1.043-2.146-1.872c-0.592-0.974-1.126-1.981-1.6-3.019
	c-0.708-2.979-0.708-6.08,0-9.059c0.19-1.215,0.75-2.342,1.6-3.229c0.646-0.699,1.365-1.326,2.146-1.872
	c0.771-0.312,1.586-0.494,2.415-0.544c0.828,0.052,1.645,0.234,2.415,0.544c0.941,0.302,1.718,0.979,2.144,1.872
	c0.642,1.02,1.178,2.103,1.601,3.229c0.348,1.495,0.528,3.023,0.544,4.56c0.246,1.494,0.205,3.021-0.12,4.499H545.694
	L545.694,463.405z"/>
<path fill="#930D7A" d="M517.435,457.789c1.165-1.643,1.729-3.636,1.601-5.646c0.1-1.419-0.271-2.83-1.058-4.016
	c-0.684-1.086-1.603-2.004-2.688-2.688c-1.09-0.604-2.259-1.051-3.473-1.328c-1.416-0.234-2.854-0.326-4.287-0.271h-12.077v30.011
	h7.52v-10.989h2.687l8.304,10.989h9.059l-10.146-12.861C514.668,460.377,516.249,459.267,517.435,457.789L517.435,457.789
	L517.435,457.789z M510.731,455.104c-0.199,0.545-0.57,1.011-1.058,1.327c-0.473,0.535-1.157,0.833-1.871,0.815
	c-0.814,0-1.601,0.271-2.688,0.271h-2.144v-8.03h4.498c0.544,0,1.057,0.271,1.601,0.271c0.564,0.302,1.027,0.765,1.328,1.329
	c0.339,0.567,0.525,1.212,0.544,1.871c0.195,0.667,0.119,1.383-0.212,1.993L510.731,455.104L510.731,455.104z"/>
<path fill="#930D7A" d="M443.463,463.134h6.039v6.038h-2.416c-2.63,0.112-5.209-0.748-7.246-2.415
	c-1.989-2.066-2.973-4.903-2.687-7.76c-0.016-1.469,0.262-2.927,0.813-4.287c0.388-1.136,1.026-2.169,1.872-3.02
	c0.9-0.781,1.921-1.413,3.021-1.872c1.096-0.46,2.288-0.646,3.472-0.543c1.097,0.048,2.182,0.229,3.231,0.543
	c0.912,0.307,1.81,0.658,2.687,1.057c0.685,0.354,1.313,0.8,1.872,1.329c0.511,0.385,1.045,0.738,1.602,1.057h0.813v-6.975
	c-1.563-0.741-3.177-1.366-4.83-1.872c-1.956-0.595-3.995-0.87-6.039-0.815c-4.272-0.238-8.454,1.314-11.532,4.287
	c-2.817,3.067-4.354,7.099-4.287,11.264c-0.344,4.288,1.227,8.509,4.287,11.532c3.041,2.831,7.114,4.284,11.262,4.017
	c2.039-0.02,4.066-0.293,6.038-0.815c1.734-0.418,3.438-0.953,5.103-1.601v-14.733h-13.073v5.646l0,0L443.463,463.134
	L443.463,463.134z"/>
<path fill="#930D7A" d="M480.992,462.59c0.222,1.725-0.257,3.463-1.328,4.831c-0.961,1.021-2.354,1.515-3.744,1.328
	c-1.44,0.154-2.858-0.452-3.743-1.6c-0.816-1.374-1.187-2.968-1.058-4.561V443.84h-7.518v19.021
	c-0.231,3.192,0.949,6.328,3.229,8.574c5.633,3.927,13.116,3.927,18.749,0c2.281-2.246,3.462-5.382,3.231-8.574V443.84h-7.52v18.749
	h-0.271L480.992,462.59L480.992,462.59z"/>
<polygon fill="#930D7A" points="404.877,473.882 425.257,473.882 425.257,468.235 412.396,468.235 412.396,460.477 424.17,460.477 
	424.17,454.83 412.396,454.83 412.396,449.758 425.257,449.758 425.257,443.841 404.877,443.841 "/>
<path fill="#2EB220" d="M14,249.347v-53.531h21.526l37.892,52.897H54.487l-7.155-13.225l-7.246,13.979H14V249.347z M85.737,248.713
	h18.417l-40.065-53.411H46.275v13.345h9.934l29.498,40.065l0,0L85.737,248.713L85.737,248.713z M30.122,214.776v18.417h14.463
	l-14.402-18.417l0,0H30.122z"/>
<path fill="#616D60" d="M204.815,228.061h2.597v11.382c0.045,1.614-0.169,3.225-0.634,4.771c-0.535,1.149-1.396,2.115-2.476,2.778
	c-1.394,0.762-2.974,1.118-4.56,1.026c-1.573,0.065-3.139-0.256-4.559-0.936c-1.098-0.6-1.968-1.544-2.477-2.687
	c-0.557-1.599-0.803-3.29-0.725-4.981v-11.353h2.597v11.382c-0.069,1.253,0.073,2.509,0.423,3.714
	c0.316,0.8,0.904,1.463,1.661,1.872c0.91,0.54,1.962,0.793,3.019,0.725c1.482,0.156,2.959-0.34,4.046-1.359
	c1.012-1.451,1.453-3.225,1.238-4.981v-11.353l0,0H204.815z M251.916,245.875c1.845,0.039,3.616-0.721,4.86-2.083
	c1.388-1.692,2.06-3.859,1.872-6.039c0.069-1.425-0.21-2.845-0.815-4.136c-0.466-1.172-1.304-2.158-2.385-2.808
	c-1.058-0.667-2.282-1.022-3.532-1.026c-1.739,0.057-3.396,0.756-4.649,1.962c-1.55,1.718-2.306,4.008-2.084,6.31
	c-0.137,2.052,0.572,4.071,1.963,5.586c1.207,1.361,2.951,2.124,4.771,2.083l0,0L251.916,245.875L251.916,245.875z M251.916,227.759
	c1.741-0.037,3.46,0.391,4.981,1.238c1.437,0.858,2.592,2.117,3.321,3.623c0.768,1.655,1.16,3.459,1.147,5.284
	c0.043,1.867-0.383,3.714-1.238,5.375c-0.708,1.549-1.907,2.822-3.411,3.623c-1.459,0.804-3.106,1.2-4.771,1.147
	c-1.741,0.034-3.46-0.393-4.982-1.238c-1.442-0.903-2.596-2.203-3.32-3.744c-0.733-1.517-1.125-3.176-1.147-4.861
	c-0.177-2.814,0.793-5.58,2.687-7.668c1.729-1.871,4.188-2.896,6.733-2.808l0,0V227.759z M269.729,241.437l2.385-0.211
	c0.083,0.876,0.361,1.722,0.815,2.476c0.491,0.672,1.176,1.178,1.963,1.449c0.95,0.42,1.979,0.636,3.019,0.634
	c0.911-0.015,1.816-0.157,2.688-0.423c0.666-0.236,1.244-0.667,1.66-1.238c0.405-0.459,0.63-1.049,0.635-1.661
	c0.014-0.615-0.214-1.211-0.635-1.661c-0.47-0.533-1.074-0.929-1.751-1.147c-1.117-0.379-2.257-0.691-3.411-0.936
	c-1.302-0.336-2.582-0.75-3.835-1.238c-0.851-0.424-1.571-1.071-2.083-1.872c-0.5-0.727-0.754-1.595-0.725-2.476
	c0.032-0.98,0.313-1.936,0.815-2.778c0.611-0.886,1.473-1.569,2.476-1.962c1.157-0.436,2.386-0.651,3.623-0.634
	c1.315-0.04,2.624,0.207,3.834,0.725c1.072,0.389,1.985,1.121,2.597,2.083c0.603,0.893,0.929,1.943,0.937,3.02l-2.477,0.211
	c-0.026-1.148-0.517-2.238-1.358-3.02c-1.005-0.675-2.203-1.004-3.412-0.936c-1.192-0.072-2.38,0.212-3.411,0.815
	c-0.693,0.513-1.115,1.313-1.147,2.174c0.02,0.626,0.279,1.22,0.725,1.661c1.195,0.746,2.531,1.239,3.925,1.449
	c1.476,0.313,2.929,0.727,4.348,1.238c1.064,0.402,1.974,1.131,2.597,2.083c0.563,0.826,0.849,1.809,0.815,2.808
	c0.02,1.081-0.309,2.139-0.937,3.02c-0.64,0.957-1.541,1.711-2.596,2.174c-1.172,0.505-2.438,0.752-3.714,0.725
	c-1.553,0.065-3.104-0.181-4.56-0.725c-1.134-0.527-2.104-1.351-2.808-2.385c-0.701-1.042-1.06-2.277-1.026-3.533l0,0
	L269.729,241.437z M225.527,236.787h0.212c0.945,0.042,1.893-0.06,2.808-0.302c0.631-0.24,1.17-0.673,1.54-1.238
	c0.324-0.528,0.501-1.132,0.513-1.751c0.029-0.874-0.351-1.71-1.026-2.264c-0.91-0.705-2.054-1.04-3.2-0.936h-6.22v6.521h5.283
	L225.527,236.787z M225.527,228.091h0.815c1.367-0.041,2.732,0.132,4.046,0.513c0.898,0.388,1.657,1.041,2.174,1.872
	c0.523,0.921,0.804,1.96,0.815,3.019c0.064,1.316-0.429,2.599-1.359,3.533c-1.18,1.067-2.673,1.724-4.257,1.872
	c0.59,0.243,1.147,0.558,1.661,0.936c0.823,0.788,1.525,1.693,2.083,2.688l3.412,5.284h-3.141l-2.597-4.046
	c-0.603-0.932-1.258-1.829-1.962-2.687c-0.27-0.565-0.7-1.038-1.238-1.359c-0.157-0.076-0.3-0.178-0.423-0.302
	c-0.258-0.117-0.533-0.188-0.815-0.211c-0.48-0.068-0.968-0.068-1.449,0h-3.019v8.695h-2.597v-19.836h7.88L225.527,228.091z
	 M115.386,241.527l2.476-0.211c0.055,0.869,0.303,1.715,0.725,2.476c0.538,0.677,1.262,1.181,2.084,1.449
	c0.943,0.441,1.977,0.658,3.019,0.634c0.881-0.021,1.755-0.163,2.597-0.422c0.675-0.266,1.275-0.69,1.751-1.238
	c0.33-0.491,0.509-1.068,0.514-1.66c-0.005-0.592-0.184-1.169-0.514-1.661c-0.49-0.509-1.089-0.901-1.751-1.147
	c-1.16-0.375-2.339-0.687-3.532-0.936c-1.302-0.336-2.582-0.749-3.835-1.238c-0.851-0.424-1.57-1.071-2.083-1.872
	c-0.501-0.726-0.755-1.594-0.725-2.476c0.054-1.022,0.376-2.012,0.936-2.869c0.659-0.84,1.508-1.513,2.477-1.962
	c1.159-0.428,2.387-0.643,3.623-0.634c1.316-0.051,2.627,0.197,3.834,0.725c1.072,0.389,1.985,1.121,2.597,2.083
	c0.603,0.893,0.929,1.943,0.936,3.02l-2.476,0.211c0.027-1.16-0.472-2.271-1.358-3.02c-1.068-0.673-2.347-0.931-3.593-0.725
	c-1.193-0.072-2.381,0.212-3.412,0.815c-0.673,0.529-1.09,1.319-1.147,2.174c0.007,0.648,0.307,1.259,0.815,1.661
	c1.186,0.767,2.526,1.261,3.925,1.449c2.013,0.523,3.462,0.936,4.348,1.238c1.013,0.435,1.875,1.16,2.477,2.083
	c0.606,0.805,0.896,1.804,0.814,2.808c0.018,1.081-0.31,2.138-0.936,3.019c-0.592,0.954-1.454,1.71-2.476,2.174
	c-1.214,0.508-2.52,0.754-3.835,0.725c-1.513,0.064-3.023-0.182-4.438-0.725c-1.222-0.475-2.273-1.306-3.019-2.385
	c-0.667-1.058-1.022-2.282-1.026-3.533l0,0L115.386,241.527z M140.536,247.837v-19.776h14.19v2.385h-11.594v6.039h10.869v2.294
	h-10.869v6.733h12.077v2.265h-14.704L140.536,247.837z M173.748,240.168v-2.476h8.272v7.337c-1.173,0.977-2.499,1.752-3.925,2.294
	c-1.321,0.5-2.725,0.746-4.137,0.725c-1.837,0.032-3.652-0.394-5.283-1.238c-1.562-0.751-2.833-1.991-3.623-3.532
	c-0.767-1.656-1.158-3.46-1.147-5.284c0.013-1.851,0.403-3.679,1.147-5.374c0.721-1.581,1.97-2.862,3.532-3.623
	c1.584-0.854,3.363-1.281,5.163-1.238c1.315-0.04,2.624,0.207,3.834,0.725c1.059,0.35,1.992,1,2.688,1.872
	c0.676,0.981,1.195,2.061,1.54,3.201l-2.386,0.725c-0.234-0.858-0.623-1.667-1.147-2.385c-0.484-0.641-1.13-1.141-1.872-1.449
	c-0.857-0.329-1.768-0.503-2.687-0.513c-1.042-0.021-2.074,0.196-3.02,0.634c-0.808,0.295-1.525,0.794-2.083,1.449
	c-0.526,0.542-0.946,1.176-1.238,1.872c-0.509,1.287-0.755,2.663-0.725,4.046c-0.092,1.494,0.188,2.988,0.815,4.348
	c0.583,1.162,1.525,2.104,2.688,2.687c1.136,0.525,2.371,0.803,3.623,0.815c1.148,0.021,2.285-0.228,3.32-0.725
	c0.899-0.29,1.738-0.74,2.477-1.329v-3.623h-5.797L173.748,240.168z"/>
<path d="M153.67,206.443c-0.978-0.012-1.899,0.449-2.476,1.238c-0.454,0.67-0.705,1.456-0.725,2.265h6.31
	c-0.002-0.977-0.331-1.922-0.936-2.688C155.24,206.734,154.469,206.445,153.67,206.443L153.67,206.443L153.67,206.443z
	 M267.556,216.588c0.432-0.079,0.849-0.221,1.237-0.423c0.554-0.34,1.02-0.805,1.359-1.358c0.225-0.629,0.327-1.295,0.302-1.962
	v-1.027c-0.873,0.374-1.771,0.687-2.688,0.936h-0.211c-0.846,0.124-1.64,0.479-2.295,1.027c-0.386,0.256-0.622,0.684-0.634,1.146
	c-0.008,0.493,0.229,0.957,0.634,1.238c0.426,0.367,0.979,0.551,1.54,0.514h0.725l0,0L267.556,216.588z M267.556,209.553
	c0.21-0.037,0.424-0.037,0.634,0c0.781-0.224,1.548-0.497,2.295-0.814c0.079-0.587-0.073-1.182-0.423-1.661
	c-0.501-0.38-1.124-0.563-1.751-0.513c-0.239-0.044-0.485-0.044-0.725,0c-0.578,0.015-1.146,0.16-1.661,0.423
	c-0.467,0.418-0.819,0.948-1.026,1.54l-6.038-0.725c0.13-0.898,0.482-1.749,1.026-2.476c0.501-0.678,1.139-1.244,1.872-1.661
	c0.792-0.344,1.623-0.587,2.476-0.725c1.093-0.219,2.206-0.32,3.321-0.302l0,0c1.531-0.049,3.063,0.093,4.559,0.422
	c1.123,0.128,2.179,0.603,3.02,1.359c0.646,0.498,1.12,1.183,1.358,1.962c0.274,0.797,0.417,1.633,0.423,2.476v7.458
	c-0.004,0.63,0.067,1.258,0.211,1.872c0.167,0.599,0.379,1.185,0.635,1.751h-6.039c-0.193-0.331-0.365-0.673-0.513-1.027
	c-0.092-0.337-0.163-0.68-0.212-1.026c-0.721,0.719-1.558,1.312-2.476,1.751c-0.282,0.023-0.558,0.094-0.815,0.211
	c-1.037,0.313-2.117,0.455-3.2,0.423c-1.635,0.125-3.259-0.358-4.559-1.359c-0.995-0.852-1.56-2.102-1.54-3.412
	c-0.035-1.173,0.375-2.316,1.147-3.2c1.147-1.044,2.595-1.699,4.136-1.872c1.872-0.332,3.201-0.634,4.046-0.845l0,0L267.556,209.553
	z M279.633,196.601h6.491v23.309h-6.341v-23.309l0,0H279.633z M238.42,203.032h6.038v2.808c0.733-0.986,1.645-1.825,2.688-2.476
	c1.073-0.479,2.236-0.726,3.412-0.725c1.552-0.06,3.056,0.544,4.136,1.661c1.134,1.354,1.688,3.101,1.54,4.861v10.779h-6.341v-9.36
	c0.059-0.76-0.121-1.52-0.513-2.174c-0.399-0.502-1.021-0.773-1.661-0.725c-0.766-0.017-1.493,0.331-1.962,0.936
	c-0.557,0.97-0.81,2.085-0.725,3.2v8.062H238.6v-16.847l0,0H238.42L238.42,203.032z M196.15,215.562
	c0.761-0.081,1.462-0.448,1.963-1.026c0.642-0.868,0.933-1.946,0.814-3.02c0.115-1.073-0.175-2.15-0.814-3.019
	c-0.466-0.609-1.196-0.958-1.963-0.936l0,0c-0.766-0.017-1.493,0.331-1.962,0.936c-0.518,0.919-0.769,1.965-0.726,3.019
	c-0.098,1.071,0.191,2.143,0.815,3.02C194.685,215.177,195.392,215.564,196.15,215.562L196.15,215.562z M196.15,202.941
	c0.192,0.118,0.409,0.19,0.634,0.211c0.824,0.356,1.565,0.88,2.174,1.54V196.6h6.521v23.309h-6.038v-2.536
	c-0.593,0.863-1.379,1.576-2.295,2.083c-0.291,0.184-0.605,0.326-0.936,0.423c-0.704,0.215-1.438,0.317-2.174,0.302
	c-2.093,0.11-4.092-0.873-5.284-2.596c-1.192-1.885-1.802-4.081-1.751-6.311c-0.195-2.316,0.508-4.618,1.963-6.431
	c1.281-1.457,3.133-2.283,5.072-2.265c0.736-0.017,1.47,0.085,2.174,0.302l0,0L196.15,202.941z M208.469,196.631h6.432v4.438h-6.432
	V196.6l0,0V196.631z M208.469,203.062h6.432v16.878h-6.432v-16.908l0,0V203.062z M153.67,216.467
	c0.655-0.023,1.296-0.199,1.872-0.513c0.436-0.278,0.822-0.625,1.146-1.027l6.311,0.634c-1.879,3.298-5.564,5.135-9.329,4.649l0,0
	c-1.808,0.068-3.609-0.25-5.284-0.936c-1.267-0.707-2.313-1.752-3.019-3.019c-0.945-1.407-1.421-3.077-1.359-4.771
	c-0.071-2.412,0.871-4.744,2.597-6.431c1.886-1.729,4.391-2.622,6.944-2.476h0.302c1.854-0.016,3.688,0.376,5.375,1.147
	c1.367,0.7,2.462,1.837,3.109,3.23c0.82,1.669,1.215,3.516,1.147,5.375v0.725h-12.953c0.047,0.817,0.33,1.604,0.815,2.264
	c0.6,0.7,1.465,1.116,2.386,1.147l0,0h-0.06V216.467z M165.173,203.001h6.039v2.808c0.338-0.974,0.945-1.832,1.751-2.476
	c0.672-0.472,1.474-0.725,2.294-0.725c1.068,0.062,2.104,0.383,3.02,0.936l-1.962,4.559c-0.552-0.252-1.146-0.396-1.752-0.423
	c-0.794-0.048-1.549,0.347-1.962,1.027c-0.873,1.691-1.229,3.602-1.026,5.495v5.707h-6.521v-16.877l0,0L165.173,203.001z
	 M178.639,196.57h6.432v4.438h-6.432V196.6l0,0V196.57z M178.639,203.001h6.432v16.877h-6.432v-16.847l0,0V203.001z M115.597,196.57
	h9.421l3.743,14.19l3.623-14.19h9.33v23.309h-5.797v-17.602l-4.56,17.693h-5.253l-4.62-17.693v17.693h-6.038v-23.369l0,0
	L115.597,196.57z"/>
<path d="M234.525,205.598c-1.933-2.093-4.706-3.202-7.549-3.02c-2.606-0.171-5.164,0.772-7.034,2.597
	c-1.74,1.627-2.688,3.93-2.597,6.31c-0.055,2.549,1.058,4.983,3.019,6.612c1.884,1.485,4.248,2.227,6.643,2.083
	c2.583,0.16,5.121-0.733,7.035-2.476c1.745-1.646,2.683-3.974,2.566-6.371C236.687,209.224,235.938,207.167,234.525,205.598z
	 M229.241,214.807c-1.094,1.259-3,1.393-4.259,0.3c-0.107-0.093-0.207-0.193-0.3-0.3c-0.693-0.962-1.024-2.139-0.937-3.321
	c-0.102-1.184,0.231-2.364,0.937-3.321c0.934-1.259,2.711-1.522,3.97-0.588c0.225,0.166,0.423,0.364,0.589,0.588
	c0.705,0.911,1.039,2.054,0.936,3.201c0.113,1.218-0.207,2.437-0.905,3.442L229.241,214.807L229.241,214.807z"/>
<path fill="#D12A2A" d="M126.829,297.089c11.355,0,20.561,9.206,20.561,20.563c0,11.355-9.206,20.561-20.561,20.561
	s-20.561-9.205-20.561-20.561l0,0C106.268,306.295,115.474,297.089,126.829,297.089 M126.829,299.051
	c-10.272,0-18.599,8.327-18.599,18.601c0,10.271,8.327,18.598,18.599,18.598c10.271,0,18.599-8.326,18.599-18.598
	C145.428,307.378,137.101,299.051,126.829,299.051L126.829,299.051"/>
<path fill="#D12A2A" d="M127.855,321.635v6.312h-2.023v-6.312h-9.39c-1.665,0.102-3.095-1.168-3.195-2.832
	c-0.004-0.063-0.006-0.125-0.006-0.187c-0.013-0.142-0.013-0.282,0-0.423c0.249-1.359,0.729-2.667,1.419-3.865
	c0.693-1.203,1.593-2.276,2.657-3.17c0.737-0.622,1.701-0.906,2.657-0.785c0.258-0.846,0.845-1.554,1.631-1.962l0.392-0.181
	c3.141-1.139,6.581-1.139,9.722,0c0.924,0.403,1.643,1.166,1.993,2.112c0.851-0.189,1.743-0.004,2.446,0.514
	c1.114,0.941,2.063,2.064,2.808,3.32c0.67,1.201,1.129,2.508,1.359,3.865c0.011,0.141,0.011,0.281,0,0.422
	c0.003,1.668-1.347,3.021-3.014,3.025c-0.062,0-0.125-0.002-0.187-0.006h-9.269 M134.981,312.427c-0.337-0.229-0.78-0.229-1.117,0
	c-0.183,0.104-0.33,0.264-0.423,0.452l-3.381,6.039c-0.15,0.24-0.077,0.557,0.163,0.707c0.087,0.055,0.188,0.082,0.29,0.078h6.793
	c0.196,0.063,0.408,0.063,0.604,0c0.343-0.197,0.542-0.572,0.513-0.967l0,0c-0.142-1.248-0.521-2.457-1.117-3.563
	c-0.576-1.006-1.322-1.904-2.204-2.656l0,0 M118.858,312.518L118.858,312.518c-1.772,1.502-2.967,3.572-3.382,5.857l0,0
	c-0.029,0.394,0.17,0.77,0.513,0.966c0.196,0.064,0.408,0.064,0.604,0h6.793c0.088,0.063,0.194,0.093,0.302,0.091
	c0.104-0.166,0.104-0.377,0-0.544l-3.381-6.038c-0.089-0.191-0.237-0.352-0.423-0.452c-0.34-0.222-0.777-0.222-1.117,0
	 M131.116,310.012L131.116,310.012c-2.689-0.988-5.643-0.988-8.333,0l0,0c-0.443,0.209-0.725,0.656-0.725,1.146
	c0.002,0.262,0.087,0.515,0.242,0.725l4.197,7.246c0.166,0.309,0.55,0.425,0.858,0.259c0.11-0.059,0.2-0.148,0.259-0.259
	l4.196-7.246c0.405-0.571,0.27-1.363-0.301-1.768c-0.076-0.054-0.157-0.1-0.242-0.135"/>
<polygon fill="#D12A2A" points="25.866,344.793 33.716,360.855 41.565,344.793 53.431,344.793 53.431,376.947 41.565,376.947 
	41.565,360.855 33.716,376.947 25.866,360.855 25.866,376.947 14,376.947 14,344.793 "/>
<path fill="#D12A2A" d="M76.921,349.624L72.09,366.41h9.631L76.921,349.624z M57.266,376.797l9.239-32.004h20.984l9.208,32.004
	H84.832l-1.51-5.284H70.641l-1.51,5.284H57.266z"/>
<path fill="#D12A2A" d="M115.114,348.477c2.563-0.339,4.914,1.465,5.252,4.026c0.014,0.106,0.024,0.214,0.031,0.321
	c0.034,2.885-2.277,5.25-5.162,5.283c-0.041,0.001-0.081,0.001-0.122,0h-2.566v-9.632L115.114,348.477L115.114,348.477z
	 M122.693,344.793h-22.222v32.004h11.865v-13.255h10.356c5.177,0,9.375-4.197,9.375-9.374
	C132.067,348.99,127.87,344.793,122.693,344.793"/>
<polygon fill="#D12A2A" points="136.188,344.793 167.74,344.793 167.74,350.076 148.054,350.076 148.054,358.259 167.74,358.259 
	167.74,363.512 148.054,363.512 148.054,376.947 136.188,376.947 "/>
<polygon fill="#D12A2A" points="219.822,371.664 239.507,371.664 239.507,376.947 207.926,376.947 207.926,344.793 239.507,344.793 
	239.507,350.076 219.822,350.076 219.822,358.259 239.507,358.259 239.507,363.512 219.822,363.512 "/>
<path fill="#D12A2A" d="M186.55,348.477c2.581-0.322,4.935,1.508,5.258,4.089c0.011,0.087,0.019,0.173,0.025,0.26
	c0,2.918-2.365,5.283-5.283,5.283h-2.566v-9.632H186.55z M203.487,368.614v0.271C203.487,368.887,203.487,368.705,203.487,368.614
	 M203.487,368.887c0,0,0-0.182,0-0.271c-0.146-4.329-3.699-7.762-8.031-7.759c4.435,0.002,8.033-3.594,8.034-8.028
	c0.002-4.437-3.592-8.032-8.028-8.034c-0.002,0-0.004,0-0.006,0h-23.55v32.004h12.077v-13.193h2.566
	c2.918,0,5.283,2.365,5.283,5.283c0,0,0,0.182,0,0.271v7.639h11.685v-7.91L203.487,368.887L203.487,368.887z"/>
<polygon fill="#FFFFFF" points="525.348,290.201 467.288,348.261 532.111,348.261 532.111,283.468 "/>
<polygon fill="#FFFFFF" points="536.459,289.93 536.459,205.149 532.504,205.149 388.999,205.149 388.999,352.608 473.779,352.608 
	"/>
<polygon fill="#E5284C" points="528.155,293.009 476.858,344.306 528.155,344.306 "/>
<polygon fill="#1B1B9B" points="532.504,289.566 532.504,209.104 392.954,209.104 392.954,348.653 473.417,348.653 "/>
<path fill="#FFFFFF" d="M411.553,309.252c0.1-1.31,0.47-2.584,1.087-3.743c0.281-1.227,1.188-2.213,2.386-2.597
	c0.313-0.022,0.606,0.16,0.725,0.453c0.039,0.209,0.039,0.424,0,0.634c-0.118,1.224-0.445,2.418-0.966,3.532
	c-0.164,1.375-1.086,2.541-2.385,3.02c-0.255,0.003-0.492-0.122-0.636-0.332C411.587,309.93,411.513,309.589,411.553,309.252z
	 M414.572,302.066c-1.584,0.188-2.99,1.104-3.806,2.476c-1.125,1.298-1.783,2.935-1.872,4.65c-0.062,0.771,0.177,1.541,0.664,2.144
	c0.399,0.446,0.973,0.699,1.57,0.694c0.813-0.013,1.584-0.35,2.145-0.938c0.502-0.528,0.938-1.117,1.299-1.751l-0.151,0.815
	c-0.012,0.149-0.012,0.302,0,0.453c-0.044,0.445,0.151,0.882,0.514,1.146c0.225,0.147,0.487,0.221,0.756,0.212
	c0.689-0.053,1.332-0.378,1.78-0.905c0.503-0.543,0.958-1.129,1.358-1.752l-0.453-0.332c-0.221,0.348-0.463,0.681-0.725,0.996
	c-0.148,0.249-0.387,0.434-0.664,0.515h-0.182c-0.028-0.067-0.028-0.145,0-0.211c0.117-0.643,0.27-1.277,0.452-1.902l0.726-2.718
	l2.324-8.483l-1.842,0.332l-1.631,0.182h-0.905v0.544h0.241c0.208-0.055,0.427-0.055,0.635,0c0.158,0.118,0.239,0.315,0.211,0.513
	c0,0,0,0,0,0.212c0.01,0.069,0.01,0.141,0,0.211l-0.846,3.532c-0.159-0.175-0.342-0.327-0.543-0.452
	c-0.312-0.146-0.654-0.208-0.997-0.182H414.572L414.572,302.066z M425.472,303.003c-0.103-0.166-0.29-0.26-0.482-0.242
	c-0.653,0.118-1.2,0.563-1.449,1.179c-0.574,1.043-1.001,2.16-1.27,3.32c1.825-0.293,3.204-1.81,3.321-3.652
	c0.021-0.206-0.012-0.413-0.09-0.604H425.472z M421.124,304.271c0.975-1.322,2.495-2.133,4.136-2.204
	c0.572-0.019,1.134,0.151,1.602,0.482c0.424,0.319,0.661,0.828,0.634,1.358c-0.072,1.021-0.62,1.949-1.479,2.506
	c-1.138,0.848-2.482,1.369-3.895,1.51c0,0.211,0,0.423,0,0.604c-0.009,0.15-0.009,0.303,0,0.453
	c-0.021,0.352,0.043,0.702,0.181,1.025c0.236,0.475,0.742,0.75,1.27,0.694c0.59-0.042,1.136-0.326,1.51-0.784
	c0.328-0.354,0.621-0.738,0.875-1.147l0.604,0.362c-0.396,0.713-0.895,1.364-1.479,1.933c-0.712,0.64-1.641,0.984-2.597,0.967
	c-0.771-0.014-1.511-0.302-2.083-0.815c-0.778-0.583-1.229-1.504-1.208-2.476c0.084-1.681,0.781-3.271,1.963-4.469H421.124
	L421.124,304.271z M439.45,304.09c-0.085,1.274-0.402,2.522-0.937,3.684c-0.302,1.249-1.19,2.272-2.386,2.748
	c-0.27,0.007-0.522-0.133-0.664-0.362c-0.166-0.261-0.251-0.566-0.241-0.876c0.113-1.274,0.474-2.516,1.058-3.653
	c0.258-1.247,1.151-2.268,2.354-2.687c0.321-0.02,0.617,0.179,0.726,0.481c0.08,0.213,0.121,0.438,0.12,0.665H439.45L439.45,304.09z
	 M432.627,309.282c-0.081,0.776,0.186,1.55,0.725,2.112c0.416,0.397,0.966,0.623,1.54,0.636c0.603,0,1.188-0.202,1.66-0.574
	c0.507-0.388,0.945-0.857,1.299-1.389l0.362-0.543c0,0,0-0.183,0,0c-0.13,0.424-0.221,0.857-0.271,1.298
	c-0.026,0.403,0.143,0.797,0.453,1.057c0.261,0.228,0.592,0.354,0.937,0.362c0.582-0.03,1.131-0.278,1.539-0.694
	c0.617-0.59,1.164-1.248,1.631-1.963l-0.453-0.302l-0.393,0.514l-0.362,0.423l-0.393,0.394c-0.117,0.039-0.244,0.039-0.362,0
	c-0.058,0.022-0.123,0.022-0.181,0c-0.039-0.087-0.039-0.187,0-0.272c0.034-0.512,0.126-1.018,0.271-1.509
	c0-0.363,0.142-0.896,0.423-1.601l1.358-4.893l-2.204,0.151l-0.362,1.087c-0.067-0.344-0.202-0.672-0.393-0.966
	c-0.294-0.338-0.73-0.519-1.178-0.483c-1.604,0.176-3.034,1.092-3.864,2.477c-1.07,1.328-1.676,2.974-1.721,4.68L432.627,309.282
	L432.627,309.282z M442.802,311.758l3.261-11.865v-0.482c0.017-0.15,0.017-0.302,0-0.452c0.049-0.239-0.077-0.479-0.302-0.574
	c-0.34-0.059-0.687-0.059-1.025,0v-0.664l2.053-0.241l2.295-0.393l-2.054,8.635l0,0v-0.15l0.635-0.846
	c0.519-0.699,1.116-1.339,1.781-1.901c0.502-0.439,1.145-0.687,1.812-0.694c0.813-0.071,1.531,0.53,1.604,1.345
	c0.009,0.096,0.008,0.19-0.003,0.285c0.023,0.223,0.023,0.444,0,0.665c0,0.211-0.182,0.634-0.362,1.237l-1.389,4.348
	c-0.005,0.062-0.005,0.121,0,0.183c-0.035,0.087-0.035,0.185,0,0.271c0.076,0.033,0.165,0.033,0.241,0
	c0.342-0.119,0.631-0.354,0.814-0.664l0.755-1.057l0.453,0.302c-0.427,0.711-0.923,1.378-1.479,1.992
	c-0.495,0.551-1.191,0.877-1.933,0.906c-0.36,0.01-0.713-0.108-0.996-0.332c-0.304-0.264-0.462-0.657-0.423-1.058
	c0.021-0.43,0.091-0.854,0.212-1.269c0-0.543,0.302-1.117,0.513-1.813l1.026-3.019v-0.212l0,0c0.03-0.148-0.028-0.303-0.15-0.394
	c-0.108-0.027-0.224-0.027-0.332,0c-0.604,0.124-1.132,0.496-1.448,1.026c-0.51,0.606-0.954,1.266-1.329,1.963
	c-0.398,0.786-0.731,1.604-0.996,2.445c-0.181,0.574-0.453,1.479-0.815,2.718h-2.536L442.802,311.758z M456.813,309.977
	c0.053-1.381,0.316-2.744,0.783-4.045c0.104-1.499,1.127-2.774,2.566-3.2c0.372-0.032,0.723,0.174,0.876,0.514
	c0.05,0.249,0.05,0.506,0,0.755c-0.051,1.497-0.347,2.977-0.876,4.378c-0.136,1.386-1.068,2.565-2.385,3.021
	c-0.412,0.033-0.801-0.196-0.967-0.574c-0.061-0.289-0.061-0.587,0-0.876v0.028H456.813z M460.283,302.097
	c-1.701,0.053-3.278,0.902-4.257,2.295c-1.056,1.207-1.653,2.745-1.691,4.349c-0.077,0.98,0.328,1.938,1.087,2.565
	c0.669,0.482,1.471,0.746,2.295,0.755c1.69-0.062,3.255-0.91,4.228-2.295c1.051-1.196,1.647-2.726,1.69-4.316
	c0.09-1.151-0.483-2.253-1.479-2.838c-0.565-0.344-1.211-0.529-1.872-0.544L460.283,302.097L460.283,302.097z M463.997,311.758
	c0.583-2.013,1.057-3.732,1.419-5.162c0.286-0.906,0.498-1.836,0.634-2.777c0.039-0.205-0.059-0.412-0.241-0.514
	c-0.29-0.052-0.586-0.052-0.876,0V302.7l2.266-0.211l2.021-0.332l-1.177,3.563l0,0c0.423-0.857,0.907-1.686,1.449-2.476
	c0.384-0.687,1.063-1.153,1.842-1.27c0.354-0.024,0.697,0.136,0.905,0.424c0.198,0.261,0.305,0.578,0.302,0.905
	c0.007,0.389-0.109,0.77-0.332,1.087c-0.193,0.313-0.539,0.495-0.905,0.482c-0.158,0.035-0.323,0.035-0.482,0
	c-0.145-0.068-0.27-0.173-0.362-0.302l-0.211-0.241l0,0l0,0c-0.49,0.197-0.874,0.592-1.058,1.087
	c-0.421,0.704-0.785,1.441-1.087,2.204c-0.212,0.513-0.452,1.268-0.755,2.204c-0.303,0.936-0.514,1.63-0.665,2.053h-2.535
	L463.997,311.758z M471.727,311.758c0.583-2.013,1.058-3.732,1.42-5.162c0.283-0.907,0.495-1.837,0.634-2.777
	c0.039-0.205-0.06-0.412-0.241-0.514c-0.29-0.052-0.586-0.052-0.876,0V302.7l2.265-0.211l2.022-0.332l-1.178,3.563l0,0
	c0.424-0.857,0.907-1.686,1.448-2.476c0.386-0.687,1.065-1.153,1.843-1.27c0.354-0.02,0.693,0.141,0.905,0.424
	c0.196,0.262,0.303,0.578,0.303,0.905c0.005,0.389-0.111,0.769-0.332,1.087c-0.194,0.313-0.539,0.495-0.905,0.482
	c-0.16,0.034-0.324,0.034-0.483,0c-0.142-0.072-0.266-0.176-0.361-0.302l-0.183-0.241l0,0h-0.149
	c-0.49,0.197-0.874,0.592-1.058,1.087c-0.424,0.703-0.787,1.44-1.087,2.204c-0.212,0.513-0.453,1.268-0.755,2.204l-0.664,2.053
	h-2.566L471.727,311.758L471.727,311.758z M482.323,309.977c0.054-1.381,0.317-2.744,0.785-4.045c0.082-1.494,1.079-2.78,2.506-3.23
	c0.372-0.032,0.723,0.174,0.876,0.514c0.051,0.249,0.051,0.506,0,0.755c-0.051,1.497-0.348,2.978-0.876,4.378
	c-0.136,1.387-1.068,2.565-2.386,3.021c-0.41,0.034-0.8-0.196-0.966-0.574c-0.047-0.281-0.036-0.568,0.029-0.846L482.323,309.977z
	 M485.796,302.097c-1.701,0.053-3.278,0.902-4.257,2.295c-1.058,1.205-1.656,2.744-1.691,4.349c-0.078,0.98,0.328,1.938,1.087,2.565
	c0.668,0.484,1.471,0.748,2.296,0.755c1.69-0.057,3.258-0.906,4.227-2.295c1.051-1.196,1.648-2.726,1.691-4.316
	c0.09-1.151-0.484-2.253-1.479-2.838c-0.575-0.349-1.23-0.535-1.902-0.544L485.796,302.097z M411.764,328.877
	c0.414-0.446,0.659-1.021,0.694-1.63c-0.056-1.015-0.188-2.024-0.393-3.021c-0.182-0.936-0.362-1.812-0.543-2.717
	c-0.171-0.95-0.434-1.88-0.785-2.777c-0.221-0.309-0.591-0.472-0.966-0.423v-0.514l2.053-0.302l0.966-0.183l0,0
	c0.161,0.483,0.413,1.489,0.755,3.021c0.343,1.529,0.604,2.838,0.785,3.925v0.483l0.393-0.694c0.369-0.641,0.691-1.307,0.968-1.993
	c0.239-0.483,0.402-1.004,0.481-1.54c0.031-0.118,0.031-0.243,0-0.361c-0.085-0.134-0.198-0.246-0.332-0.332h-0.149
	c-0.13-0.093-0.24-0.204-0.333-0.332c-0.156-0.209-0.241-0.464-0.241-0.726c0.003-0.313,0.121-0.614,0.332-0.845
	c0.215-0.26,0.539-0.405,0.876-0.394c0.321,0.007,0.631,0.123,0.875,0.332c0.301,0.277,0.457,0.68,0.423,1.088
	c-0.144,1.313-0.544,2.585-1.178,3.742c-0.61,1.287-1.296,2.537-2.054,3.744c-0.851,1.384-1.863,2.661-3.02,3.806
	c-0.701,0.743-1.665,1.188-2.688,1.236c-0.362,0.011-0.714-0.132-0.967-0.393c-0.24-0.229-0.381-0.543-0.393-0.875
	c-0.016-0.322,0.119-0.634,0.361-0.847c0.227-0.197,0.517-0.306,0.815-0.302c0.379,0.021,0.745,0.146,1.057,0.362
	c0.234,0.174,0.501,0.297,0.785,0.362c0.595-0.071,1.12-0.418,1.419-0.937v0.033H411.764z M423.268,323.896h0.543
	c0.01,0.802,0.285,1.577,0.785,2.203c0.315,0.362,0.76,0.591,1.238,0.635c0.315,0.015,0.623-0.106,0.845-0.332
	c0.204-0.223,0.313-0.515,0.303-0.815c-0.007-0.33-0.101-0.653-0.271-0.936c-0.194-0.341-0.416-0.663-0.664-0.967l-0.785-0.967
	c-0.354-0.387-0.648-0.824-0.875-1.298c-0.235-0.458-0.359-0.965-0.361-1.479c-0.01-0.688,0.275-1.348,0.783-1.813
	c0.591-0.521,1.358-0.792,2.146-0.755c0.459,0.04,0.903,0.185,1.298,0.423c0.26,0.116,0.534,0.197,0.815,0.241
	c0.116,0.042,0.244,0.042,0.361,0c0.089-0.097,0.161-0.21,0.211-0.332h0.604l-0.483,3.2h-0.544c-0.052-0.699-0.304-1.37-0.725-1.933
	c-0.27-0.348-0.679-0.559-1.117-0.573c-0.317-0.026-0.63,0.096-0.845,0.332c-0.178,0.212-0.272,0.479-0.271,0.755
	c0.003,0.257,0.076,0.507,0.211,0.725c0.234,0.382,0.497,0.745,0.785,1.087l0.996,1.026c0.242,0.316,0.444,0.662,0.604,1.026
	c0.174,0.38,0.267,0.79,0.272,1.207c0.033,0.788-0.302,1.548-0.906,2.055c-0.627,0.516-1.422,0.785-2.233,0.755
	c-0.404-0.007-0.804-0.089-1.179-0.242l-0.754-0.241c-0.126-0.052-0.268-0.052-0.393,0c-0.09,0.099-0.161,0.21-0.212,0.332h-0.543
	L423.268,323.896z M437.005,318.975c-0.051,0.742-0.313,1.454-0.755,2.054c-0.615,0.841-1.537,1.404-2.566,1.569
	c0.269-1.159,0.694-2.277,1.27-3.32c0.248-0.615,0.796-1.062,1.449-1.179c0.193-0.024,0.386,0.07,0.481,0.241
	c0.091,0.188,0.132,0.396,0.121,0.604V318.975z M430.694,324.137c-0.068,0.921,0.288,1.821,0.967,2.446
	c0.575,0.511,1.313,0.8,2.083,0.815c0.956,0.016,1.883-0.33,2.597-0.968c0.584-0.567,1.083-1.22,1.479-1.933l-0.604-0.362
	c-0.252,0.411-0.545,0.796-0.875,1.147c-0.374,0.459-0.92,0.743-1.51,0.785c-0.526,0.056-1.031-0.222-1.27-0.694
	c-0.14-0.323-0.201-0.675-0.181-1.026c0,0,0-0.271,0-0.453c0-0.181,0-0.393,0-0.604c1.4-0.147,2.735-0.669,3.864-1.51
	c0.858-0.558,1.407-1.484,1.479-2.506c0.027-0.53-0.21-1.039-0.634-1.358c-0.467-0.331-1.028-0.501-1.601-0.483
	c-1.643,0.067-3.164,0.879-4.137,2.204c-1.065,1.255-1.646,2.853-1.631,4.498L430.694,324.137L430.694,324.137z M445.127,329.21
	c-0.009,0.439-0.25,0.842-0.635,1.057c-0.541,0.309-1.159,0.454-1.781,0.423c-0.752,0.07-1.498-0.183-2.053-0.694
	c-0.231-0.245-0.361-0.568-0.362-0.905c0.021-0.571,0.326-1.094,0.815-1.389c0.191-0.264,0.489-0.429,0.813-0.453l0.938,0.271
	l1.146,0.394c0.3,0.121,0.576,0.295,0.814,0.514c0.212,0.193,0.332,0.468,0.333,0.755L445.127,329.21z M443.647,323.171
	c-0.256,0.001-0.498-0.109-0.665-0.302c-0.199-0.246-0.297-0.561-0.271-0.876c0.032-0.887,0.237-1.758,0.604-2.566
	c0.172-0.756,0.8-1.323,1.568-1.419c0.289-0.016,0.564,0.122,0.726,0.362c0.154,0.275,0.229,0.59,0.212,0.906
	c-0.021,0.892-0.236,1.769-0.636,2.565c-0.188,0.725-0.798,1.261-1.538,1.358V323.171z M441.201,326.854
	c-0.628,0.161-1.236,0.395-1.813,0.694c-0.566,0.275-0.93,0.85-0.936,1.479c0.03,0.98,0.752,1.804,1.721,1.963
	c0.763,0.231,1.559,0.345,2.355,0.332c1.217,0.046,2.422-0.258,3.472-0.876c0.829-0.429,1.361-1.271,1.389-2.204
	c0.017-0.771-0.39-1.487-1.057-1.872c-0.654-0.364-1.354-0.639-2.083-0.814l-1.117-0.333l-0.573-0.24
	c-0.271-0.089-0.471-0.321-0.514-0.604c0.02-0.155,0.082-0.303,0.182-0.423c0.069-0.126,0.19-0.215,0.332-0.241
	c0.371,0.029,0.745,0.029,1.117,0c1.214,0.072,2.41-0.315,3.352-1.087c0.771-0.642,1.214-1.595,1.208-2.597
	c0.013-0.142,0.013-0.282,0-0.423v-0.453h1.419v-1.058h-2.324c0,0,0,0-0.604-0.332c-0.585-0.232-1.212-0.347-1.842-0.332
	c-1.2-0.056-2.373,0.368-3.261,1.179c-0.74,0.614-1.189,1.514-1.237,2.476c-0.015,0.534,0.133,1.062,0.422,1.51
	c0.308,0.444,0.753,0.774,1.27,0.937c-0.568,0.28-1.097,0.636-1.57,1.057c-0.261,0.243-0.413,0.58-0.423,0.938
	c-0.005,0.396,0.174,0.775,0.483,1.025C440.765,326.68,440.979,326.781,441.201,326.854z M450.26,324.832
	c0-0.303,0-0.574,0.211-0.846l1.087-3.985c0.009-0.151,0.009-0.302,0-0.453c0.013-0.131,0.013-0.262,0-0.393
	c0.024-0.211-0.084-0.415-0.271-0.514c-0.29-0.108-0.598-0.159-0.906-0.15v-0.515c1.43-0.119,2.506-0.251,3.23-0.393l1.178-0.181
	l-0.936,3.199l-0.877,3.23c0,0,0,0.332-0.149,0.604c-0.031,0.271-0.031,0.544,0,0.813c-0.053,0.126-0.053,0.268,0,0.393
	c0.115,0.048,0.246,0.048,0.361,0c0.551-0.139,1.026-0.483,1.328-0.966c0.632-0.79,1.149-1.664,1.54-2.597
	c0.303-0.694,0.573-1.419,0.814-2.144c0.242-0.726,0.393-1.27,0.694-2.355h2.477l-0.785,3.02l-0.423,1.54l-0.453,1.66
	c0,0.362-0.181,0.694-0.271,1.027c-0.021,0.21-0.021,0.423,0,0.634c-0.034,0.098-0.034,0.204,0,0.302
	c0.077,0.033,0.164,0.033,0.24,0c0.375-0.117,0.689-0.378,0.876-0.725c0.209-0.271,0.4-0.552,0.573-0.846l0.453,0.241
	c-0.383,0.729-0.895,1.385-1.51,1.933c-0.501,0.495-1.168,0.785-1.872,0.814c-0.505,0.195-1.079,0.063-1.449-0.332
	c-0.17-0.247-0.254-0.545-0.241-0.846c-0.03-0.28-0.03-0.563,0-0.845c0-0.242,0.182-0.665,0.394-1.299l0,0
	c-0.568,0.863-1.204,1.683-1.902,2.444c-0.537,0.614-1.299,0.984-2.113,1.027c-0.332,0.007-0.658-0.088-0.936-0.272
	c-0.464-0.315-0.719-0.859-0.665-1.419c0.073-0.262,0.175-0.515,0.303-0.755L450.26,324.832L450.26,324.832z M460.524,327.006
	c0.573-1.993,1.057-3.714,1.419-5.163c0.284-0.908,0.497-1.837,0.635-2.777c0.039-0.205-0.06-0.412-0.242-0.514
	c-0.289-0.052-0.586-0.052-0.875,0v-0.574c0.875,0,1.63,0,2.265-0.211l2.022-0.332l-1.27,3.715l0,0
	c0.425-0.859,0.908-1.688,1.449-2.478c0.386-0.685,1.065-1.153,1.842-1.268c0.35-0.027,0.688,0.12,0.906,0.393
	c0.194,0.262,0.3,0.579,0.303,0.905c0.003,0.388-0.113,0.768-0.332,1.087c-0.194,0.312-0.539,0.496-0.906,0.483
	c-0.159,0.032-0.323,0.032-0.482,0c-0.144-0.07-0.268-0.175-0.361-0.303l-0.213-0.241l0,0h-0.09
	c-0.489,0.196-0.874,0.593-1.057,1.088c-0.424,0.701-0.787,1.438-1.088,2.203c-0.211,0.514-0.452,1.269-0.754,2.204
	c-0.304,0.937-0.515,1.631-0.665,2.054h-2.536L460.524,327.006z M471.122,325.225c0.054-1.381,0.318-2.744,0.785-4.046
	c0.11-1.495,1.131-2.768,2.565-3.2c0.369-0.023,0.717,0.18,0.876,0.514c0.049,0.249,0.049,0.506,0,0.755
	c-0.052,1.497-0.348,2.976-0.876,4.378c-0.129,1.389-1.063,2.572-2.385,3.02c-0.412,0.034-0.801-0.195-0.967-0.573
	c-0.057-0.258-0.066-0.523-0.03-0.785L471.122,325.225z M474.595,317.344c-1.701,0.053-3.278,0.902-4.258,2.295
	c-1.055,1.207-1.652,2.745-1.689,4.349c-0.078,0.98,0.327,1.938,1.087,2.565c0.668,0.482,1.47,0.746,2.295,0.755
	c1.69-0.057,3.258-0.906,4.227-2.295c1.053-1.195,1.651-2.725,1.69-4.316c0.133-1.152-0.407-2.279-1.39-2.898
	c-0.617-0.3-1.308-0.426-1.991-0.362L474.595,317.344z"/>
<rect x="436.22" y="227.854" fill="#FFFFFF" width="16.396" height="1.962"/>
<rect x="436.22" y="255.027" fill="#FFFFFF" width="33.574" height="1.962"/>
<rect x="477.644" y="255.027" fill="#FFFFFF" width="14.613" height="1.962"/>
<rect x="466.684" y="242.708" fill="#FFFFFF" width="16.364" height="1.933"/>
<rect x="440.447" y="229.303" fill="#FFFFFF" width="6.461" height="26.569"/>
<polygon fill="#FFFFFF" points="462.518,255.872 459.407,255.872 473.085,228.155 476.194,228.155 "/>
<polygon fill="#FFFFFF" points="489.872,255.872 484.618,255.872 473.146,231.235 473.085,228.155 476.979,228.155 "/>
<rect x="500.107" y="286.486" fill="#FFFFFF" width="14.611" height="1.964"/>
<rect x="479.787" y="286.486" fill="#FFFFFF" width="12.077" height="1.964"/>
<rect x="469.612" y="259.586" fill="#FFFFFF" width="12.077" height="1.962"/>
<rect x="489.147" y="274.169" fill="#FFFFFF" width="16.395" height="1.962"/>
<polygon fill="#FFFFFF" points="484.98,287.333 481.871,287.333 495.548,259.586 498.658,259.586 "/>
<polygon fill="#FDFFFD" points="512.335,287.333 507.081,287.333 495.608,262.696 495.548,259.586 499.442,259.586 "/>
<rect x="455.936" y="286.486" fill="#FFFFFF" width="14.613" height="1.964"/>
<rect x="435.616" y="286.486" fill="#FAFCFA" width="12.077" height="1.964"/>
<rect x="445.006" y="274.169" fill="#FFFFFF" width="16.364" height="1.962"/>
<polygon fill="#FFFFFF" points="440.839,287.333 437.729,287.333 451.406,259.586 454.517,259.586 "/>
<polygon fill="#FFFFFF" points="468.193,287.333 462.91,287.333 451.467,262.696 451.406,259.586 455.302,259.586 "/>
<path fill="#FDFFFD" d="M468.586,295.334c2.102,0.057,3.849-1.601,3.905-3.7c0.004-0.136,0.001-0.271-0.011-0.405v-30.796h5.677
	v22.071c0,7.216-2.234,14.885-11.624,14.885c-4.229,0-5.525-2.868-4.59-4.137c0.792-0.989,2.235-1.148,3.226-0.356
	c0.19,0.152,0.355,0.335,0.488,0.538C466.252,294.518,467.353,295.232,468.586,295.334z"/>
<path fill="#FDFFFD" d="M441.866,260.703c-2.321,0.569-4.745,0.569-7.065,0c-2.267-0.82-4.654-1.249-7.064-1.268
	c-8.604,0-17.541,4.468-17.541,14.643c0,8.212,7.246,14.645,19.11,14.645h8.484c0.712-1.822,1.518-3.606,2.415-5.346
	c-3,2.477-6.839,3.698-10.718,3.412c-7.397,0-13.979-4.046-13.979-12.258c-0.285-6.814,5.008-12.569,11.822-12.854
	c0.085-0.004,0.17-0.006,0.255-0.008c3.985,0,10.054,0.332,12.349,5.646c0.332,0.815,1.751,1.298,1.751,0
	S441.866,260.703,441.866,260.703z"/>
<path fill="#1C0570" d="M499.305,70.601c0.035,16.675-13.453,30.221-30.129,30.256c-8.481,0.018-16.582-3.533-22.313-9.785
	c4.166-3.021,16.183-2.265,19.442-1.117c20.261,6.189,23.099-11.564,23.099-11.564h-1.843c-3.684,12.228-22.434,7.216-25.12,7.216
	c-1.535-0.021-3.063,0.204-4.528,0.664l25.452-33.846h-31.611l-2.688,8.756l2.022,0.845c2.355-6.521,10.719-6.371,10.719-6.371
	h8.695l-25.543,33.121c-10.005-13.34-7.302-32.265,6.038-42.27s32.265-7.301,42.27,6.039c3.919,5.226,6.038,11.583,6.038,18.116l0,0
	V70.601z M392.786,123.015h7.216l-20.078,27.898h27.174l3.864-7.518c-3.683,3.412-12.741,3.412-12.741,3.412h-7.336l19.775-28.26
	h-25.211l-3.021,6.944C385.639,123.859,389.188,123.011,392.786,123.015L392.786,123.015z M415.068,118.546
	c1.329,1.242,2.026,3.017,1.901,4.831v19.535c0,0,0.847,9.359,13.89,9.359s13.254-10.295,13.254-10.295v-20.41
	c-0.192-1.31,0.564-2.573,1.812-3.02h-9.479c0,0,1.901,0,1.901,3.02v19.112c-0.161,3.955-3.407,7.083-7.366,7.095
	c-3.875,0.118-7.225-2.686-7.79-6.521v-18.116c0,0,0-4.529,1.51-4.529h-9.631L415.068,118.546L415.068,118.546z M480.344,150.913
	c-4.669,1.403-9.72-0.232-12.68-4.106l-7.096-9.359h-0.996v9.479c0,3.684,1.932,3.956,1.932,3.956h-10.627
	c2.203,0,2.747-3.956,2.747-3.956v-23.641c0.124-1.788-0.576-3.534-1.902-4.74h12.319c0,0,11.533,0,11.533,9.058
	c0,7.216-8.363,9.058-8.363,9.058C477.325,149.645,480.344,150.913,480.344,150.913L480.344,150.913z M469.082,127.815
	c0-6.039-9.057-5.103-9.057-5.103v11.745c0,0,9.057,0.845,9.057-6.672l0,0V127.815z M483.363,118.546c0,0,1.901,0,1.901,5.103
	v22.524c0,0,0,4.68-2.323,4.68h9.631c0,0-1.631,0-1.631-5.103v-22.041c0,0,0-5.103,2.084-5.103h-9.662V118.546L483.363,118.546z
	 M525.059,125.219v-6.039c-2.489-0.933-5.129-1.414-7.789-1.419c-6.521,0-19.383,2.688-19.383,17.844
	c0,15.156,14.733,16.727,17.271,16.727c3.33-0.096,6.606-0.866,9.631-2.265v-6.25c-2.121,2.63-5.424,4.015-8.785,3.683
	c-6.492-0.244-11.629-5.58-11.625-12.077c-0.053-6.921,5.402-12.631,12.318-12.892C519.711,122.428,522.668,123.378,525.059,125.219
	L525.059,125.219z M558.572,145.719v-22.01c0,0,0-5.103,2.054-5.103h-9.632c0,0,1.902,0,1.902,5.103v8.363h-14.584v-8.363
	c0,0,0-5.103,2.055-5.103h-9.603c0,0,1.902,0,1.902,5.103v22.523c0,0,0,4.68-2.325,4.68h9.632c0,0-1.631,0-1.631-5.103v-9.48h14.463
	v9.903c0,0,0,4.68-2.324,4.68h9.632c0,0-1.661,0-1.661-5.103l0,0L558.572,145.719z"/>
<path id="path20" fill="#63C6BA" d="M196.276,443.566c-0.079,1.11-0.007,2.229,0.211,3.32c0.318,1.627,1.118,3.12,2.295,4.287
	c1.479,1.358,3.019,2.145,16.847,8.575c12.077,5.676,16.032,7.487,18.991,9.058l3.895,1.871l3.502,1.479
	c2.053,0.997,2.325,1.058,2.355,0.693c0.039-0.086,0.039-0.185,0-0.271l-8.394-5.253c-18.538-11.564-23.429-14.583-29.739-18.389
	l-7.065-4.257c-0.724-0.587-1.554-1.026-2.446-1.299c-0.166-0.078-0.364-0.008-0.442,0.157
	C196.283,443.55,196.279,443.559,196.276,443.566z"/>
<path id="path22" fill="#63C6BA" d="M194.435,456.791c0.051,1.188,0.296,2.361,0.725,3.472c0.411,0.951,1.018,1.807,1.781,2.506
	c1.021,1.057,2.271,1.861,3.653,2.355c0.362,0,4.378,1.207,9.058,2.415c20.048,5.254,32.396,8.515,37.348,9.873
	c2.445,0.664,2.778,0.725,2.808,0.393c0.034-0.077,0.034-0.165,0-0.241c-0.181-0.15-12.741-4.981-40.548-15.579l-12.53-4.801
	C194.887,456.519,194.525,456.459,194.435,456.791z"/>
<path id="path24" fill="#3830A5" d="M24.632,462.527c-4.288-0.045-8.443,1.479-11.685,4.287c-1.861,1.761-3.065,4.104-3.412,6.643
	c-0.14,1.426-0.14,2.861,0,4.287c0.294,2.431,1.426,4.684,3.2,6.371c1.989,1.89,4.401,3.275,7.035,4.045
	c0.694,0.212,3.563,1.026,6.401,1.752l5.585,1.509c1.556,0.481,2.851,1.57,3.593,3.021c0.423,0.817,0.612,1.737,0.543,2.656
	c0.007,0.788-0.179,1.565-0.543,2.266c-0.957,1.684-2.664,2.807-4.589,3.019c-3.705,0.316-7.425,0.406-11.141,0.272h-8.513
	c-0.221,1.318-0.221,2.666,0,3.984v3.955h8.726c4.088,0.132,8.179,0.052,12.258-0.242c7.608-0.996,12.439-5.223,13.164-11.503
	c0.124-1.518,0.124-3.042,0-4.559c-0.204-2.332-1.194-4.525-2.808-6.22c-1.621-1.629-3.625-2.821-5.827-3.474
	c-0.543-0.181-3.684-1.087-6.974-1.992l-6.552-1.842c-1.126-0.347-2.159-0.946-3.02-1.751c-0.898-1.063-1.314-2.453-1.147-3.835
	c0.105-1.988,1.506-3.671,3.442-4.137c1.238-0.361,1.208-0.361,7.94-0.422c2.663,0.258,5.35,0.114,7.971-0.423
	c2.516-0.531,4.481-2.496,5.012-5.013c0.162-0.733,0.253-1.482,0.272-2.233v-0.394h-8.876
	C29.826,462.438,25.357,462.497,24.632,462.527z"/>
<path id="path26" fill="#3830A5" d="M54.1,480.643c0,15.762,0,18.298,0,18.991c0.285,2.501,1.426,4.827,3.23,6.582
	c3.154,2.908,7.246,4.591,11.534,4.74c1.819,0.122,3.645,0.122,5.465,0c6.854-0.725,11.896-3.593,14.1-7.971
	c0.416-0.877,0.73-1.8,0.936-2.748l0.151-0.726v-14.823c0-13.919,0-14.886,0-15.609c-0.153-1.269-0.564-2.49-1.208-3.593
	c-0.528-0.715-1.17-1.338-1.902-1.842c-1.527-0.76-3.217-1.133-4.921-1.088h-0.453v16.938c0,18.599,0,17.512-0.423,18.688
	c-1.117,3.021-4.649,4.86-9.299,4.711c-1.648-0.005-3.275-0.364-4.771-1.058c-0.707-0.289-1.352-0.709-1.902-1.237
	c-0.902-0.912-1.521-2.065-1.781-3.321c0-0.394,0-2.053-0.181-13.769c0-8.905,0-13.587,0-14.13
	c-0.074-1.782-0.793-3.478-2.023-4.771c-1.319-1.266-3.064-1.986-4.891-2.022h-1.147H54.1v18.115V480.643z"/>
<path id="path28" fill="#3830A5" d="M116.447,462.527c-3.433,0.166-6.746,1.318-9.541,3.32c-0.992,0.806-1.893,1.717-2.687,2.717
	c-1.897,2.669-3.044,5.797-3.321,9.059c0,0.785,0,2.354,0,16.908v16.031h8.605v-15.881c0-17.422,0-16.003,0.422-17.633
	c0.72-2.987,3.052-5.318,6.039-6.038c1.583-0.365,3.208-0.507,4.831-0.423c1.583,0.085,3.168-0.058,4.71-0.423
	c2.569-0.615,4.441-2.829,4.619-5.465c0-0.271,0-0.876,0-1.39v-0.876h-6.371L116.447,462.527z"/>
<path id="path30" fill="#3830A5" d="M150.776,462.497c-1.716,0.119-3.416,0.412-5.072,0.876
	c-8.589,2.775-14.665,10.446-15.398,19.443c-0.289,2.222-0.38,4.465-0.271,6.702c0.071,2.108,0.364,4.203,0.875,6.25
	c0.807,3.884,2.69,7.462,5.435,10.325c2.964,2.959,6.877,4.776,11.05,5.133c1.718,0.143,3.445,0.143,5.163,0
	c2.004-0.232,3.954-0.806,5.767-1.689c2.144-1.088,3.997-2.672,5.405-4.62c0.271-0.393,0.302-0.393,0.362-0.241
	c0.073,0.238,0.133,0.48,0.181,0.726c0.269,1.521,1.112,2.885,2.355,3.805c1.601,0.896,3.419,1.336,5.253,1.268h0.875v-48.006
	h-21.98V462.497L150.776,462.497z M163.518,470.438c0,0,0,20.834,0,21.859c-0.244,3.7-2.126,7.1-5.133,9.271
	c-4.634,2.896-10.605,2.481-14.794-1.027c-2.415-2.593-3.855-5.943-4.076-9.479c-0.173-2.262-0.173-4.531,0-6.794
	c0.231-3.913,1.81-7.626,4.468-10.507c2.081-2.052,4.868-3.229,7.79-3.291h6.34C159.913,470.368,161.717,470.357,163.518,470.438z"
	/>
<path id="path32" fill="#63C6BA" d="M198.299,471.253c-0.122,0.353-0.122,0.734,0,1.087c0.866,2.276,2.559,4.143,4.74,5.225
	c0.587,0.282,1.205,0.495,1.842,0.634l19.021,1.236l23.912,1.57l5.344,0.302c0.056-0.082,0.056-0.188,0-0.271
	c0.018-0.132-0.075-0.254-0.207-0.271c-0.021-0.003-0.043-0.003-0.065,0l-10.658-1.901c-31.279-5.525-43.477-7.669-43.749-7.669
	L198.299,471.253z"/>
<path id="path34" fill="#63C6BA" d="M228.189,483.782h-17.331H209.5v0.271c0.53,1.582,1.598,2.93,3.019,3.805
	c0.89,0.628,1.934,1.004,3.02,1.087c0.664,0-0.906,0.271,25.15-3.411c3.534-0.282,7.044-0.808,10.507-1.57
	c0.022-0.079,0.022-0.163,0-0.241c-1.17-0.288-2.393-0.288-3.563,0L228.189,483.782z"/>
<path id="path36" fill="#63C6BA" d="M247.875,487.134l-12.56,3.261c-5.193,1.329-9.631,2.477-14.009,3.653l-1.842,0.483
	c-0.142,0.081-0.232,0.229-0.242,0.393c0.416,0.914,0.954,1.769,1.601,2.536c0.418,0.563,1.124,0.833,1.812,0.694
	c0.434,0.001,0.864-0.081,1.268-0.241c1.57-0.544,22.041-9.059,24.335-10.267c0.634-0.302,0.634-0.302,0.634-0.514
	c0-0.211,0-0.211-0.241-0.241C248.37,486.944,248.117,487.025,247.875,487.134z"/>
<path id="path38" fill="#63C6BA" d="M243.346,493.021c-4.348,2.656-11.715,7.064-14.221,8.545c-1.617,0.849-3.18,1.796-4.68,2.838
	c0.045,1.013,0.156,2.021,0.332,3.02c0.072,0.202,0.185,0.387,0.332,0.543c0.148,0.231,0.429,0.341,0.694,0.271
	c0.683-0.044,1.326-0.334,1.812-0.815c0.755-0.573,3.744-3.019,12.077-9.901c5.253-4.379,6.642-5.586,6.642-5.707
	c0.018-0.165-0.103-0.314-0.269-0.331c-0.001-0.001-0.002-0.001-0.003-0.001C246.063,491.481,244.705,492.176,243.346,493.021z"/>
<path id="path40" fill="#63C6BA" d="M237.912,503.257c-0.453,0.362-1.751,1.449-6.975,6.038l-5.103,4.348
	c-0.724,0.568-1.183,1.409-1.268,2.325c0,0.544-0.423,1.479-0.634,2.113c-0.423,1.269-0.453,1.479,0,1.51
	c0.377-0.077,0.7-0.32,0.875-0.664c1.419-1.479,9.058-9.873,12.288-13.496c0.682-0.533,1.222-1.229,1.57-2.021
	C238.545,502.925,238.334,502.925,237.912,503.257z"/>
<path id="path42" fill="#63C6BA" d="M218.86,511.861c-5.332,1.586-10.771,2.787-16.274,3.593c-4.612,0.815-9.271,1.341-13.949,1.57
	c-4.318,0.271-3.985,0.212-3.985,0.573c0.027,0.275,0.185,0.521,0.422,0.664c1.285,1.143,2.884,1.867,4.589,2.083
	c1.607,0.146,3.224,0.146,4.831,0c3.432-0.42,6.825-1.116,10.145-2.083c3.784-1.061,7.487-2.393,11.081-3.984
	c1.298-0.574,3.713-1.781,4.438-2.204c0.725-0.423,0.362-0.242,0.332-0.423c-0.03-0.183,0-0.212-0.181-0.241
	C219.816,511.524,219.332,511.676,218.86,511.861z"/>
<path id="path44" fill="#63C6BA" d="M220.339,514.729c-0.604,0.424-1.812,1.147-3.019,1.782c-7.251,3.536-14.966,6.026-22.916,7.396
	l-1.449,0.302c-0.03,0.089-0.03,0.184,0,0.271c0.198,0.457,0.602,0.794,1.087,0.905c4.116,1.224,8.541,0.867,12.409-0.996
	c4.852-1.85,9.346-4.525,13.285-7.909c0.626-0.435,1.11-1.043,1.389-1.752c0-0.212,0-0.241-0.181-0.241
	C220.725,514.518,220.518,514.601,220.339,514.729z"/>
<path id="path46" fill="#63C6BA" d="M219.524,519.953c-0.814,0.744-1.671,1.439-2.566,2.083c-2.526,1.735-5.266,3.136-8.152,4.167
	c-1.087,0.393-1.117,0.393-1.117,0.604c0,0.212,0,0.394,0.694,0.604c0.575,0.185,1.182,0.246,1.781,0.181
	c1.028,0.038,2.054-0.126,3.02-0.482c0.99-0.342,1.941-0.786,2.838-1.328c1.278-0.902,2.315-2.105,3.019-3.502
	c0.417-0.711,0.742-1.473,0.966-2.266c0-0.241,0-0.241-0.242-0.241C219.668,519.805,219.583,519.868,219.524,519.953z"/>
<g transform="translate(0.000000,81.000000) scale(0.100000,-0.100000)">
	<path fill="#4067A2" d="M495.83,286.596c0-17.407,14.741-17.407,40.195,0C552.104,297.314,550.762,300,526.65,300
		C509.228,300,495.83,294.638,495.83,286.596z"/>
	<path fill="#4067A2" d="M607.036,290.62c5.361-4.023,13.398-4.023,18.76,0c4.023,5.361,0,9.38-9.38,9.38
		S603.018,295.981,607.036,290.62z"/>
	<path fill="#4067A2" d="M649.912,286.596c4.014-6.694,28.14-13.394,50.908-12.056c41.538,1.338,41.538,1.338,9.38,12.056
		C661.973,301.343,640.527,301.343,649.912,286.596z"/>
	<path fill="#4067A2" d="M427.5,271.86c-13.398-8.037-9.37-12.056,18.755-12.056c38.857,0,46.895,6.699,18.765,17.412
		C454.297,281.24,438.223,278.559,427.5,271.86z"/>
	<path fill="#4067A2" d="M562.822,246.406c-16.079-10.718-12.061-13.398,17.417-13.398c21.436,0,34.834,5.361,29.478,13.398
		C598.999,262.49,588.276,262.49,562.822,246.406z"/>
	<path fill="#4067A2" d="M749.058,238.369c129.966-40.195,119.243-38.857,89.771-6.704c-20.098,21.44-40.19,28.14-87.09,26.802
		l-61.631-1.343L749.058,238.369z"/>
	<path fill="#4067A2" d="M348.452,219.614c0-25.459,2.681-25.459,50.913-8.042c26.792,10.723,58.955,22.773,69.673,25.454
		c10.713,4.019-12.061,8.037-49.58,8.037C356.494,246.406,348.452,243.725,348.452,219.614z"/>
	<path fill="#4067A2" d="M633.833,223.623c5.366-4.009,13.394-4.009,18.76,0c4.019,5.366,0,9.385-9.38,9.385
		S629.819,228.989,633.833,223.623z"/>
	<path fill="#4067A2" d="M691.45,220.957c-4.023-5.361,16.069-22.783,44.214-38.862c45.552-25.454,53.594-26.792,76.367-9.38
		c13.398,10.718,22.773,20.098,18.76,20.098c-4.019,0-34.839,9.385-69.678,20.098C726.284,222.295,694.121,226.308,691.45,220.957z"
		/>
	<path fill="#4067A2" d="M260.02,174.057c-28.135-24.121-64.307-65.649-77.705-89.77l-26.802-45.552l60.298,53.589
		c32.158,29.482,72.349,62.979,88.433,73.691c20.093,13.398,26.792,26.797,20.093,37.515
		C316.294,215.595,298.877,207.553,260.02,174.057z"/>
	<path fill="#4067A2" d="M422.139,199.512c-29.478-10.713-56.274-20.098-60.288-20.098c-4.019,0,4.014-6.699,17.412-14.741
		c17.427-10.713,32.163-6.694,62.974,14.741C503.872,223.623,499.849,227.651,422.139,199.512z"/>
	<path fill="#4067A2" d="M870.981,211.572c0-5.356,28.14-37.515,64.312-69.668l62.974-58.96l-71.006,49.58
		c-60.298,42.871-73.687,46.89-93.789,32.148c-12.065-9.37-24.121-18.755-26.797-20.093c-1.338,0,29.473-33.491,69.668-73.691
		c68.33-68.335,75.034-72.349,99.141-52.256c30.825,24.116,30.825,62.979-1.333,111.206
		C951.377,166.015,870.981,228.989,870.981,211.572z"/>
	<path fill="#4067A2" d="M465.02,174.057l-38.862-30.815l32.163-8.037c16.069-5.366,34.829-9.385,38.853-9.385
		c6.699,0,38.853,60.293,38.853,73.691C536.025,215.595,498.511,202.197,465.02,174.057z"/>
	<path fill="#4067A2" d="M659.292,176.733c10.718-17.417,33.501-32.153,49.57-34.829c44.214-6.699,33.496,17.412-21.436,42.871
		l-48.228,22.778L659.292,176.733z"/>
	<path fill="#4067A2" d="M545.41,166.015c-21.436-29.478-21.436-33.491-1.343-37.515c28.14-6.694,34.839,2.681,29.473,40.195
		l-4.019,30.815L545.41,166.015z"/>
	<path fill="#4067A2" d="M603.018,159.316c0-18.755,8.042-33.496,17.417-33.496c28.135,0,36.177,14.741,21.436,41.533
		C623.115,203.53,603.018,198.174,603.018,159.316z"/>
	<path fill="#4067A2" d="M1159.048,174.057c-37.51-26.797-16.084-56.279,58.95-81.733c73.691-24.111,83.071-37.51,42.876-60.288
		c-34.834-17.417-95.127-17.417-95.127,1.338c0,6.704-6.699,9.375-13.398,5.361c-30.811-18.76,6.699-36.182,62.974-29.482
		c61.631,6.699,107.188,36.182,92.446,60.293c-4.023,8.042-38.853,24.126-75.029,36.182c-37.515,12.051-66.992,26.797-66.992,33.491
		c0,16.084,30.811,37.515,66.992,44.214c29.473,5.366,29.473,5.366-8.042,8.037C1203.257,191.47,1172.446,184.775,1159.048,174.057z
		"/>
	<path fill="#4067A2" d="M306.914,143.242C262.7,113.769,187.671,42.749,187.671,29.355c0-5.361,18.755-18.765,40.195-30.815
		c21.44-12.056,40.195-14.741,40.195-8.042s26.797,41.538,58.95,77.715c54.932,60.288,57.617,66.992,34.839,80.386
		C344.434,160.659,331.035,159.316,306.914,143.242z"/>
	<path fill="#4067A2" d="M741.02,128.501c-17.417-2.681-30.82-6.694-30.82-9.38c0-1.343,17.422-36.177,38.857-76.372
		c20.098-40.195,40.2-81.724,44.219-91.104c5.361-16.079,17.412-14.741,68.325,5.356c34.839,13.398,62.974,28.14,62.974,33.496
		c0,9.385-100.483,108.53-133.979,129.966C779.878,127.163,757.1,131.181,741.02,128.501z"/>
	<path fill="#4067A2" d="M343.096,57.49C309.6,19.975,281.46-16.201,281.46-21.558s21.44-14.741,48.232-18.76
		c25.459-5.356,54.937-12.056,62.969-16.074c10.723-2.676,34.839,30.815,60.293,81.729c38.862,79.048,40.195,87.09,17.427,87.09
		c-14.746,0-34.844,2.681-45.557,8.037C412.759,124.482,381.943,101.709,343.096,57.49z"/>
	<path fill="#4067A2" d="M474.39,28.017C431.519-60.41,438.223-75.152,526.65-75.152h49.575v91.104
		c0,85.757-1.343,89.775-32.158,89.775C517.27,105.727,503.872,90.986,474.39,28.017z"/>
	<path fill="#4067A2" d="M603.018,18.633v-93.784h79.053c44.214,0,83.066,5.361,87.085,10.718
		c2.681,5.366-12.056,48.232-34.834,93.789c-38.857,77.71-44.214,83.071-85.752,83.071h-45.552V18.633z"/>
	<path fill="#4067A2" d="M1330.547,90.986c-9.38-25.459,6.694-57.612,40.19-77.71c16.079-10.723,30.82-9.38,50.913,2.676
		c24.121,14.741,30.82,14.741,40.195,1.343c8.042-13.398,16.079-12.051,37.52,6.699c28.13,25.459,28.13,25.459,28.13-22.773
		c0-54.932-18.75-73.691-49.57-46.895c-18.76,14.731-20.103,14.731-14.736-2.681c2.676-10.713,21.431-20.098,38.857-20.098
		c29.473,0,32.153,5.356,36.167,84.404c4.023,79.058,2.686,83.076-26.797,83.076c-16.069,0-48.228-18.76-72.344-41.538
		c-24.116-22.773-49.575-37.515-58.955-32.153c-10.718,6.699-10.718,13.398,1.343,28.135c8.037,9.375,12.061,28.14,6.699,38.853
		C1378.774,119.121,1341.269,117.778,1330.547,90.986z M1380.117,78.93c0-10.718-5.356-20.103-12.061-20.103
		c-17.417,0-29.473,21.44-18.75,32.158C1364.038,105.727,1380.117,99.028,1380.117,78.93z M1514.097,73.569
		c0-6.699-9.375-18.755-20.093-28.135c-16.079-13.398-20.098-13.398-20.098,2.681c0,10.713,4.019,24.111,9.38,28.13
		C1495.347,89.648,1514.097,88.31,1514.097,73.569z"/>
	<path fill="#4067A2" d="M1715.078,92.324c-14.736-17.417-20.103-17.417-28.14-4.014c-8.042,10.718-12.056,2.676-12.056-25.464
		c0-22.769,6.694-46.895,13.394-50.913c8.037-4.014,13.403,0,13.403,10.718c0,10.723,12.061,34.839,28.125,54.937
		C1757.954,113.769,1744.556,127.163,1715.078,92.324z"/>
	<path fill="#4067A2" d="M1898.628,101.709c-33.491-6.699-22.773-48.237,14.741-53.594c41.543-6.699,37.51-26.797-6.704-33.496
		c-30.811-4.028-28.13-5.366,12.065-8.037c61.631-1.338,77.71,20.098,28.13,41.533c-50.913,21.431-52.241,24.111-30.81,37.51
		C1940.166,100.371,1930.781,109.746,1898.628,101.709z"/>
	<path fill="#4067A2" d="M1799.482,89.648c-21.431-8.037-22.778-79.058-4.019-91.108c24.116-14.741,54.927,21.436,50.908,57.607
		C1842.358,90.986,1827.627,101.709,1799.482,89.648z M1832.978,49.453c-6.699-33.501-37.515-37.52-37.515-5.361
		c0,16.079,8.032,28.135,21.436,28.135C1828.965,72.226,1835.659,62.846,1832.978,49.453z"/>
	<path fill="#4067A2" d="M1577.075,76.245c-5.366-4.019-9.385-22.773-9.385-40.19c0-32.158,18.765-41.528,33.501-17.422
		c6.699,10.723,16.084,9.385,30.811-2.681c18.765-14.731,20.098-13.398,12.065,6.699c-5.366,13.403-9.385,34.839-9.385,46.895
		c0,17.422-6.699,14.741-28.125-10.718c-26.802-32.148-28.149-32.148-21.445-2.681C1591.807,86.968,1590.474,90.986,1577.075,76.245
		z"/>
	<path fill="#4067A2" d="M986.206,5.244c-21.431-22.783-22.773-30.82-8.037-66.997c17.417-41.538,56.274-73.691,72.349-57.612
		c21.44,21.436-5.356,152.739-30.811,150.059C1015.683,30.693,1000.952,18.633,986.206,5.244z"/>
	<path fill="#4067A2" d="M150.161-12.178c-33.501-66.987-32.163-88.433,5.352-125.947l37.52-37.51l16.074,40.19
		c34.839,87.09,33.501,93.784-6.694,123.267l-37.52,29.473L150.161-12.178z"/>
	<path fill="#4067A2" d="M868.301-60.41c-92.446-30.82-81.724-52.251,22.778-49.58c48.237,0,87.09,2.681,87.09,4.019
		c0,12.061-32.153,71.011-38.852,69.673C935.293-37.637,903.14-48.355,868.301-60.41z"/>
	<path fill="#4067A2" d="M254.663-49.697c0-2.676-9.38-34.839-20.098-69.668l-18.755-64.316l42.866-18.755
		c24.126-9.385,60.293-22.778,79.058-26.792c30.811-8.037,34.829-4.023,42.871,42.876c4.023,28.125,12.056,62.969,16.084,79.043
		c6.694,22.773,0,29.478-32.153,36.177c-21.44,4.023-54.937,12.065-75.034,17.422C270.742-49.697,254.663-47.017,254.663-49.697z"/>
	<path fill="#4067A2" d="M418.13-116.69c-6.704-17.412-16.084-53.589-21.44-80.386c-8.042-46.895-6.704-49.575,33.491-57.622
		c22.773-4.014,65.649-8.032,93.794-8.032h52.251v80.395c0,75.024-1.343,80.386-32.158,80.386c-17.417,0-49.575,4.019-73.686,8.037
		C435.537-87.207,427.5-89.893,418.13-116.69z"/>
	<path fill="#4067A2" d="M674.028-97.93l-71.011-5.361v-83.062v-83.071l25.459,41.528c16.074,25.459,53.594,54.941,93.784,73.696
		c65.654,30.815,92.446,68.33,45.557,62.969C754.414-92.569,711.543-95.254,674.028-97.93z"/>
	<path fill="#4067A2" d="M127.378-168.941c9.385-49.575,66.997-187.573,79.048-187.573c2.681,0,2.681,34.824-1.338,77.705
		c-5.356,61.645-14.736,84.414-46.899,116.572l-40.19,40.19L127.378-168.941z"/>
	<path fill="#4067A2" d="M808.008-142.144c-64.307-14.741-128.618-57.612-162.114-108.52
		c-25.459-36.177-30.82-57.622-25.459-108.535c2.681-34.829,14.741-77.705,28.135-96.47
		c81.733-124.6,384.536-133.979,487.695-14.731c72.358,81.724,73.691,172.842,1.343,254.565
		C1073.301-143.482,933.955-111.333,808.008-142.144z M970.127-209.136c53.594-20.093,91.113-89.77,83.076-154.077
		c-9.38-77.705-68.335-127.285-150.063-127.285c-52.251,0-68.335,6.699-107.188,45.557
		C675.371-324.351,808.008-146.162,970.127-209.136z"/>
	<path fill="#4067A2" d="M1317.143-138.125l-57.612-5.356v-207.671v-207.671l64.312,4.019l62.974,4.014l4.019,84.404l4.023,83.076
		h44.214c52.251,0,76.362-24.116,113.892-109.873c26.792-62.969,28.125-64.302,88.423-64.302c33.496,0,60.293,5.361,60.293,13.394
		c0,29.478-65.659,159.443-88.428,174.175c-21.445,12.065-21.445,16.084-6.694,22.783c37.51,14.736,81.719,69.673,81.719,101.821
		c0,32.158-24.111,61.631-75.024,87.085C1581.089-140.801,1401.557-128.745,1317.143-138.125z M1540.898-222.534
		c14.736-14.731,26.792-32.163,26.792-37.51c0-26.797-56.274-60.298-113.882-65.659l-60.288-8.032v69.673v68.325h60.288
		C1496.684-195.737,1522.134-203.779,1540.898-222.534z"/>
	<path fill="#4067A2" d="M1819.58-138.125l-50.908-5.356V-352.5v-209.009l159.443,6.704
		c180.879,8.037,253.218,33.491,275.996,96.465c16.084,46.895-1.333,75.029-65.654,107.188l-49.565,24.116l44.209,22.778
		c37.515,17.417,44.214,28.135,44.214,68.33c0,40.19-6.699,49.575-48.228,71.011C2078.164-140.801,1913.369-126.065,1819.58-138.125
		z M2037.969-209.136c60.293-33.496,1.348-93.784-91.108-93.784h-57.607v53.594v53.589h61.626
		C1984.375-195.737,2023.237-202.437,2037.969-209.136z M2054.048-394.028c52.261-45.557,0-96.47-100.488-96.47h-64.307v57.607
		c0,32.163,4.014,62.974,9.375,68.34C1913.369-349.819,2027.251-371.245,2054.048-394.028z"/>
	<path fill="#4067A2" d="M2619.458-140.801c-58.955-14.741-97.803-38.857-113.887-68.335
		c-36.177-66.987,4.019-112.554,140.688-159.443c85.747-28.13,108.521-41.528,111.201-64.312
		c6.694-42.876-41.538-61.621-129.966-53.594c-41.528,4.019-84.404,10.718-96.46,16.084c-16.084,5.361-24.126-1.333-30.825-28.13
		c-5.352-18.765-5.352-38.862-1.338-44.228c5.361-4.009,69.673-8.032,144.702-8.032c150.063,0,213.037,20.098,239.834,80.391
		c33.496,75.029-12.065,121.919-162.129,167.48c-87.085,25.459-115.22,58.95-75.02,88.418
		c20.093,16.084,46.89,18.765,115.215,13.403c84.419-8.037,89.775-6.694,96.475,21.44c5.361,16.079,6.694,32.153,4.014,34.834
		C2851.25-134.102,2656.972-130.088,2619.458-140.801z"/>
	<path fill="#4067A2" d="M2280.483-345.796l4.019-204.995l64.312-4.014l62.974-4.019v207.671v209.009h-66.997h-68.32
		L2280.483-345.796z"/>
	<path fill="#4067A2" d="M214.468-245.313c0-60.293,34.839-164.795,62.974-186.226c25.459-20.098,119.248-72.358,129.966-72.358
		c4.019,0-1.343,20.098-12.061,45.557c-10.718,25.449-21.44,79.043-22.783,120.586c-4.019,73.691-4.019,75.024-57.612,93.784
		c-29.478,10.718-64.302,22.769-76.367,28.135C218.486-207.793,214.468-213.154,214.468-245.313z"/>
	<path fill="#4067A2" d="M388.647-323.023c0-30.811,9.38-85.747,20.098-123.262c20.093-66.992,21.436-69.673,88.428-83.076
		c36.172-8.032,69.668-14.731,72.349-14.731c4.019,0,6.704,56.27,6.704,124.604v124.6l-93.794,13.394l-93.784,13.398V-323.023z"/>
	<path fill="#4067A2" d="M603.018-490.498c0-41.533,5.361-53.594,24.116-53.594c49.575,0,54.937,18.76,14.736,64.307l-38.853,42.881
		V-490.498z"/>
</g>
</svg>
