<svg id="Layer_2" data-name="Layer 2" xmlns="http://www.w3.org/2000/svg" viewBox="0 0 202.7 158.73"><defs><style>.cls-1{fill:#a7216e;}.cls-2{fill:#49a747;}.cls-3{fill:#848383;}.cls-4{fill:#1b181c;}.cls-5{fill:#d52027;}.cls-6{fill:#fff;}.cls-7{fill:#e01f26;}.cls-8{fill:#2a3889;}.cls-9{fill:#2c296e;}.cls-10,.cls-11{fill:#00abc4;}.cls-10{fill-opacity:0.99;}.cls-12{fill:#0055a0;}.cls-13{fill:#00abc3;fill-opacity:0.89;}</style></defs><title>marcas</title><path class="cls-1" d="M126.34,152.66l1.87-4.44,1.86-4.44,1.86,4.44,1.42,3.2h8.08a11.62,11.62,0,0,0-23.07,2.13,5.45,5.45,0,0,0,.09,1.24H133.8l-1.87,4.08-1.86,4-1.86-4.08-1.6-3.2h-8A11.54,11.54,0,0,0,130,165.26a11.69,11.69,0,0,0,11.63-11.72v-0.89H126.34Z" transform="translate(-14.16 -8.11)"/><path class="cls-1" d="M165.21,141.74h-2.75l-3.28,9.94h2.48l0.62-2h3.11l0.62,2h2.57l-3.37-9.94h0Zm-2.4,6.12,1-3.29,1,3.29h-2Z" transform="translate(-14.16 -8.11)"/><path class="cls-1" d="M210.21,148h0.89l2.75,3.64h3l-3.37-4.26a2.83,2.83,0,0,0,1.33-1.15,2.91,2.91,0,0,0,.53-1.86,2.14,2.14,0,0,0-.35-1.33,2.82,2.82,0,0,0-.89-0.89,4.46,4.46,0,0,0-1.15-.44,7.15,7.15,0,0,0-1.42-.09h-4v9.94H210V148h0.18Zm0-4.44h1.51c0.18,0,.35.09,0.53,0.09a1.07,1.07,0,0,1,.44.44,1.27,1.27,0,0,1,.18.62,1.75,1.75,0,0,1-.09.71,0.89,0.89,0,0,1-.36.44,0.8,0.8,0,0,1-.62.27,2.73,2.73,0,0,1-.89.09h-0.71V143.6h0Z" transform="translate(-14.16 -8.11)"/><path class="cls-1" d="M199.82,151.86a4.49,4.49,0,0,0,3.55-1.42,5.22,5.22,0,0,0,1.24-3.82,5.79,5.79,0,0,0-1.24-3.82,4.81,4.81,0,0,0-3.55-1.42,4.49,4.49,0,0,0-3.55,1.42,5.22,5.22,0,0,0-1.24,3.82,5.39,5.39,0,0,0,1.24,3.73A4.28,4.28,0,0,0,199.82,151.86Zm-2-6.65a2,2,0,0,1,.53-1.07,4.43,4.43,0,0,1,.71-0.62,1.87,1.87,0,0,1,1.6,0,5.67,5.67,0,0,1,.8.71,3,3,0,0,1,.44,1.07,7,7,0,0,1,.18,1.51,6.44,6.44,0,0,1-.18,1.51,4.79,4.79,0,0,1-.44,1,2.38,2.38,0,0,1-.71.62,2.6,2.6,0,0,1-.89.18,2.55,2.55,0,0,1-.8-0.18,4.77,4.77,0,0,1-.8-0.62,9.74,9.74,0,0,1-.53-1,7,7,0,0,1-.18-1.51c0.09-.62.18-1.15,0.27-1.6h0Z" transform="translate(-14.16 -8.11)"/><path class="cls-1" d="M154.3,145.91c-0.35-.09-0.71-0.18-1-0.27a3.75,3.75,0,0,0-1-.18,2,2,0,0,1-1.06-.44,0.81,0.81,0,0,1-.27-0.62,0.68,0.68,0,0,1,.18-0.44,0.89,0.89,0,0,1,.44-0.35,1.27,1.27,0,0,1,.53-0.18c0.18,0,.35-0.09.62-0.09a3.49,3.49,0,0,1,1.6.35,3.34,3.34,0,0,1,1.33.8h0.18v-2.22a6.94,6.94,0,0,0-1.6-.44,12,12,0,0,0-1.77-.18,4.6,4.6,0,0,0-2.93.89,2.8,2.8,0,0,0-.62,3.91,3.46,3.46,0,0,0,1.69,1.07,3.1,3.1,0,0,0,1.07.27l1.07,0.27a1.8,1.8,0,0,1,.71.35,0.8,0.8,0,0,1,.27.62,0.75,0.75,0,0,1-.18.53,0.88,0.88,0,0,1-.44.35c-0.18.09-.35,0.09-0.53,0.18a3.13,3.13,0,0,0-.53.09,4.51,4.51,0,0,1-1.77-.35,4.85,4.85,0,0,1-1.6-1h-0.27v2.4a11.22,11.22,0,0,0,1.6.53,6.63,6.63,0,0,0,2,.18,4.64,4.64,0,0,0,3.11-.89,2.86,2.86,0,0,0,1.15-2.4,2.55,2.55,0,0,0-.53-1.69,3,3,0,0,0-1.42-1.06h0Z" transform="translate(-14.16 -8.11)"/><polygon class="cls-1" points="160.28 136.65 164.1 143.57 166.49 143.57 166.49 133.63 164.19 133.63 164.19 139.31 160.99 133.63 157.97 133.63 157.97 143.57 160.28 143.57 160.28 136.65"/><path class="cls-1" d="M188.64,151.86a4.36,4.36,0,0,0,1.15-.09c0.27-.09.53-0.09,0.89-0.18a6.36,6.36,0,0,0,.71-0.27,4.47,4.47,0,0,0,.62-0.27v-2.4h-0.27a1.93,1.93,0,0,1-.44.35,3.76,3.76,0,0,1-.62.44,5.32,5.32,0,0,1-.71.35,3.18,3.18,0,0,1-1,.18,3.77,3.77,0,0,1-1-.18,1.85,1.85,0,0,1-.89-0.53,3.63,3.63,0,0,1-.62-1,4.29,4.29,0,0,1-.27-1.6,3.81,3.81,0,0,1,.27-1.51,3,3,0,0,1,.62-1.07,2.43,2.43,0,0,1,1.86-.8,3.14,3.14,0,0,1,.89.18,3.2,3.2,0,0,1,.8.35c0.18,0.18.44,0.35,0.62,0.53s0.35,0.27.44,0.35H192v-2.4a4.14,4.14,0,0,0-.62-0.27,6.16,6.16,0,0,1-.71-0.27,3.15,3.15,0,0,0-.89-0.18,5.43,5.43,0,0,0-1.15-.09,4.49,4.49,0,0,0-3.55,1.42,5.33,5.33,0,0,0-1.33,3.73,5.26,5.26,0,0,0,1.33,3.82A4.73,4.73,0,0,0,188.64,151.86Z" transform="translate(-14.16 -8.11)"/><path class="cls-1" d="M154.3,159.49a5.43,5.43,0,0,0-1-.27,3.75,3.75,0,0,0-1-.18,2,2,0,0,1-1.06-.44A0.81,0.81,0,0,1,151,158a0.68,0.68,0,0,1,.18-0.44,0.88,0.88,0,0,1,.44-0.35,1.26,1.26,0,0,1,.53-0.18h0.62a3.49,3.49,0,0,1,1.6.36,3.35,3.35,0,0,1,1.33.8h0.18v-2.31a6.89,6.89,0,0,0-1.6-.44,12,12,0,0,0-1.77-.18,4.6,4.6,0,0,0-2.93.89A2.8,2.8,0,0,0,149,160a3.46,3.46,0,0,0,1.69,1.06l1.07,0.27,1.07,0.27a1.79,1.79,0,0,1,.71.35,0.8,0.8,0,0,1,.27.62,0.76,0.76,0,0,1-.18.53,0.88,0.88,0,0,1-.44.35c-0.18.09-.35,0.09-0.53,0.18h-0.53a4.51,4.51,0,0,1-1.77-.35,4.8,4.8,0,0,1-1.6-1h-0.27v2.31a11.3,11.3,0,0,0,1.6.53,6.63,6.63,0,0,0,2,.18,4.64,4.64,0,0,0,3.11-.89,2.86,2.86,0,0,0,1.15-2.4,2.56,2.56,0,0,0-.53-1.69,5,5,0,0,0-1.42-.89h0Z" transform="translate(-14.16 -8.11)"/><path class="cls-1" d="M214.73,159.49a5.43,5.43,0,0,0-1-.27,3.19,3.19,0,0,0-1-.18,2,2,0,0,1-1.06-.44,0.8,0.8,0,0,1-.27-0.62,0.68,0.68,0,0,1,.18-0.44,0.88,0.88,0,0,1,.44-0.35,1.25,1.25,0,0,1,.53-0.18h0.62a3.49,3.49,0,0,1,1.6.36,3.34,3.34,0,0,1,1.33.8h0.18v-2.31a6.88,6.88,0,0,0-1.6-.44,12,12,0,0,0-1.77-.18,4.59,4.59,0,0,0-2.93.89,2.8,2.8,0,0,0-.62,3.91,3.45,3.45,0,0,0,1.69,1.06l1.07,0.27,1.06,0.27a1.78,1.78,0,0,1,.71.35,0.8,0.8,0,0,1,.27.62,0.75,0.75,0,0,1-.18.53,0.88,0.88,0,0,1-.44.35c-0.18.09-.35,0.09-0.53,0.18h-0.53a4.51,4.51,0,0,1-1.77-.35,4.81,4.81,0,0,1-1.6-1h-0.27v2.31a11.19,11.19,0,0,0,1.6.53,6.64,6.64,0,0,0,2,.18,4.64,4.64,0,0,0,3.11-.89,2.86,2.86,0,0,0,1.15-2.4,2.56,2.56,0,0,0-.53-1.69,4.94,4.94,0,0,0-1.42-.89h0Z" transform="translate(-14.16 -8.11)"/><path class="cls-1" d="M202.66,155.14a4.49,4.49,0,0,0-3.55,1.42,5.22,5.22,0,0,0-1.24,3.82,5.4,5.4,0,0,0,1.24,3.73,4.81,4.81,0,0,0,3.55,1.42,4.49,4.49,0,0,0,3.55-1.42,5.22,5.22,0,0,0,1.24-3.82,5.79,5.79,0,0,0-1.24-3.82,4.74,4.74,0,0,0-3.55-1.33h0Zm2,6.66a2.12,2.12,0,0,1-.53,1,2.4,2.4,0,0,1-.71.62,2.08,2.08,0,0,1-1.69,0,1.57,1.57,0,0,1-.71-0.62,9.67,9.67,0,0,1-.53-1,6.49,6.49,0,0,1,0-3,2,2,0,0,1,.53-1.07,4.43,4.43,0,0,1,.71-0.62,2.55,2.55,0,0,1,.8-0.18,2.59,2.59,0,0,1,.8.18,1.19,1.19,0,0,1,.71.62,5.92,5.92,0,0,1,.53,1.07,7,7,0,0,1,.18,1.51A3.94,3.94,0,0,1,204.71,161.8Z" transform="translate(-14.16 -8.11)"/><path class="cls-1" d="M195.3,159.94a2.91,2.91,0,0,0,.53-1.87,2.14,2.14,0,0,0-.35-1.33,2.84,2.84,0,0,0-.89-0.89,4.42,4.42,0,0,0-1.15-.44,7.07,7.07,0,0,0-1.42-.09h-4v9.94h2.49v-3.64h0.89l2.75,3.64h3L193.79,161a3.31,3.31,0,0,0,1.51-1.06h0Zm-2.22-.89a0.89,0.89,0,0,1-.35.44,0.8,0.8,0,0,1-.62.27c-0.27,0-.53.09-0.89,0.09h-0.71v-2.66H192c0.18,0,.35.09,0.53,0.09a1.07,1.07,0,0,1,.44.44,1.28,1.28,0,0,1,.18.62A0.87,0.87,0,0,1,193.08,159Z" transform="translate(-14.16 -8.11)"/><path class="cls-1" d="M170.8,161.71h2v2H172a3.55,3.55,0,0,1-2.4-.8,3.24,3.24,0,0,1-.89-2.57,3.67,3.67,0,0,1,.27-1.42,2.61,2.61,0,0,1,.62-1,3.7,3.7,0,0,1,1-.62,2.43,2.43,0,0,1,1.15-.18,4.44,4.44,0,0,1,1.07.18,9.43,9.43,0,0,1,.89.35,2.7,2.7,0,0,1,.62.44,5.07,5.07,0,0,0,.53.35h0.27v-2.31a11.77,11.77,0,0,0-1.6-.62,6.29,6.29,0,0,0-2-.27,5.09,5.09,0,0,0-3.82,1.42,5.39,5.39,0,0,0-1.42,3.73,4.83,4.83,0,0,0,1.42,3.82,5,5,0,0,0,3.73,1.33,8.09,8.09,0,0,0,2-.27,13.16,13.16,0,0,0,1.69-.53v-4.88H170.8v1.87h0Z" transform="translate(-14.16 -8.11)"/><path class="cls-1" d="M183.23,161.53a2.15,2.15,0,0,1-.44,1.6,1.44,1.44,0,0,1-1.24.44,1.38,1.38,0,0,1-1.24-.53,2.55,2.55,0,0,1-.35-1.51v-6.21h-2.49v6.3a3.62,3.62,0,0,0,1.07,2.84,5.43,5.43,0,0,0,6.21,0,3.62,3.62,0,0,0,1.07-2.84v-6.3h-2.49v6.21h-0.09Z" transform="translate(-14.16 -8.11)"/><polygon class="cls-1" points="143.86 157.16 150.61 157.16 150.61 155.29 146.35 155.29 146.35 152.72 150.25 152.72 150.25 150.85 146.35 150.85 146.35 149.17 150.61 149.17 150.61 147.21 143.86 147.21 143.86 157.16"/><path class="cls-2" d="M123.87,35.59V17.86H131l12.55,17.52h-6.27L134.91,31l-2.4,4.63h-8.64Zm23.76-.21h6.1L140.46,17.69h-5.9v4.42h3.29l9.77,13.27h0ZM129.21,24.14v6.1H134l-4.77-6.1h0Z" transform="translate(-14.16 -8.11)"/><path class="cls-3" d="M187.07,28.54h0.86v3.77a5,5,0,0,1-.21,1.58,2.14,2.14,0,0,1-.82.92,2.81,2.81,0,0,1-1.51.34,3.19,3.19,0,0,1-1.51-.31,1.89,1.89,0,0,1-.82-0.89,4.4,4.4,0,0,1-.24-1.65V28.54h0.86v3.77a3.68,3.68,0,0,0,.14,1.23,1.21,1.21,0,0,0,.55.62,1.74,1.74,0,0,0,1,.24,1.7,1.7,0,0,0,1.34-.45,2.38,2.38,0,0,0,.41-1.65V28.54h0Zm15.6,5.9a2.12,2.12,0,0,0,1.61-.69,2.78,2.78,0,0,0,.62-2,2.9,2.9,0,0,0-.27-1.37,1.91,1.91,0,0,0-.79-0.93,2.21,2.21,0,0,0-1.17-.34,2.33,2.33,0,0,0-1.54.65,2.73,2.73,0,0,0-.69,2.09,2.49,2.49,0,0,0,.65,1.85,2.05,2.05,0,0,0,1.58.69h0Zm0-6a3.25,3.25,0,0,1,1.65.41,2.84,2.84,0,0,1,1.1,1.2,4.09,4.09,0,0,1,.38,1.75,3.7,3.7,0,0,1-.41,1.78,2.57,2.57,0,0,1-1.13,1.2,3.07,3.07,0,0,1-1.58.38,3.27,3.27,0,0,1-1.65-.41,2.94,2.94,0,0,1-1.1-1.24,3.82,3.82,0,0,1-.38-1.61,3.46,3.46,0,0,1,.89-2.54,2.9,2.9,0,0,1,2.23-.93h0Zm5.9,4.53,0.79-.07a1.94,1.94,0,0,0,.27.82,1.35,1.35,0,0,0,.65.48,2.46,2.46,0,0,0,1,.21,3.23,3.23,0,0,0,.89-0.14,1.16,1.16,0,0,0,.55-0.41,0.84,0.84,0,0,0,.21-0.55,0.78,0.78,0,0,0-.21-0.55,1.31,1.31,0,0,0-.58-0.38,9.89,9.89,0,0,0-1.13-.31,11.23,11.23,0,0,1-1.27-.41,1.74,1.74,0,0,1-.69-0.62,1.37,1.37,0,0,1-.24-0.82,1.92,1.92,0,0,1,.27-0.92,1.79,1.79,0,0,1,.82-0.65,3.27,3.27,0,0,1,1.2-.21,3,3,0,0,1,1.27.24,1.71,1.71,0,0,1,.86.69,1.81,1.81,0,0,1,.31,1l-0.82.07a1.41,1.41,0,0,0-.45-1,1.84,1.84,0,0,0-1.13-.31,2,2,0,0,0-1.13.27,0.94,0.94,0,0,0-.38.72,0.81,0.81,0,0,0,.24.55,3.42,3.42,0,0,0,1.3.48,10.94,10.94,0,0,1,1.44.41,1.78,1.78,0,0,1,.86.69,1.56,1.56,0,0,1,.27.93,1.67,1.67,0,0,1-.31,1,2,2,0,0,1-.86.72,2.94,2.94,0,0,1-1.23.24,3.85,3.85,0,0,1-1.51-.24,2.29,2.29,0,0,1-.93-0.79,2,2,0,0,1-.34-1.17h0Zm-14.64-1.54H194a3.1,3.1,0,0,0,.93-0.1,1.06,1.06,0,0,0,.51-0.41,1.15,1.15,0,0,0,.17-0.58,0.93,0.93,0,0,0-.34-0.75,1.51,1.51,0,0,0-1.06-.31h-2.06v2.16h1.75Zm0-2.88h0.27a4.35,4.35,0,0,1,1.34.17,1.59,1.59,0,0,1,.72.62,2.07,2.07,0,0,1,.27,1,1.55,1.55,0,0,1-.45,1.17,2.44,2.44,0,0,1-1.41.62,2.61,2.61,0,0,1,.55.31,3.82,3.82,0,0,1,.69.89l1.13,1.75H196l-0.86-1.34a9.75,9.75,0,0,0-.65-0.89,1.05,1.05,0,0,0-.41-0.45,0.5,0.5,0,0,1-.14-0.1,0.82,0.82,0,0,0-.27-0.07,1.7,1.7,0,0,0-.48,0h-1v2.88h-0.86V28.54h2.61ZM157.45,33l0.82-.07a1.94,1.94,0,0,0,.24.82,1.46,1.46,0,0,0,.69.48,2.24,2.24,0,0,0,1,.21,3.18,3.18,0,0,0,.86-0.14,1.49,1.49,0,0,0,.58-0.41,1,1,0,0,0,.17-0.55,1,1,0,0,0-.17-0.55,1.56,1.56,0,0,0-.58-0.38,11.38,11.38,0,0,0-1.17-.31,11.16,11.16,0,0,1-1.27-.41,1.74,1.74,0,0,1-.69-0.62,1.36,1.36,0,0,1-.24-0.82A1.92,1.92,0,0,1,158,29.3a2.24,2.24,0,0,1,.82-0.65,3.39,3.39,0,0,1,1.2-.21,2.89,2.89,0,0,1,1.27.24,1.71,1.71,0,0,1,.86.69,1.81,1.81,0,0,1,.31,1l-0.82.07a1.27,1.27,0,0,0-.45-1A1.71,1.71,0,0,0,160,29.2a2,2,0,0,0-1.13.27,1,1,0,0,0-.38.72,0.71,0.71,0,0,0,.27.55,3.17,3.17,0,0,0,1.3.48q1,0.26,1.44.41a1.85,1.85,0,0,1,.82.69,1.36,1.36,0,0,1,.27.93,1.68,1.68,0,0,1-.31,1,1.88,1.88,0,0,1-.82.72,3.11,3.11,0,0,1-1.27.24,3.67,3.67,0,0,1-1.47-.24,2.17,2.17,0,0,1-1-.79,2.21,2.21,0,0,1-.34-1.17h0Zm8.33,2.09V28.54h4.7v0.79h-3.84v2h3.6v0.76h-3.6v2.23h4v0.75h-4.87Zm11-2.54V31.73h2.74v2.43a4.57,4.57,0,0,1-1.3.76,3.72,3.72,0,0,1-1.37.24,3.67,3.67,0,0,1-1.75-.41,2.63,2.63,0,0,1-1.2-1.17,4.11,4.11,0,0,1-.38-1.75,4.51,4.51,0,0,1,.38-1.78,2.48,2.48,0,0,1,1.17-1.2,3.43,3.43,0,0,1,1.71-.41,3,3,0,0,1,1.27.24,1.9,1.9,0,0,1,.89.62,3.81,3.81,0,0,1,.51,1.06l-0.79.24a2.43,2.43,0,0,0-.38-0.79,1.5,1.5,0,0,0-.62-0.48,2.57,2.57,0,0,0-.89-0.17,2.27,2.27,0,0,0-1,.21,1.65,1.65,0,0,0-.69.48,2,2,0,0,0-.41.62,3.44,3.44,0,0,0-.24,1.34,3,3,0,0,0,.27,1.44,2,2,0,0,0,.89.89,2.93,2.93,0,0,0,1.2.27,2.44,2.44,0,0,0,1.1-.24,2.59,2.59,0,0,0,.82-0.44v-1.2h-1.92Z" transform="translate(-14.16 -8.11)"/><path class="cls-4" d="M170.13,21.38a1,1,0,0,0-.82.41,1.4,1.4,0,0,0-.24.75h2.09a1.44,1.44,0,0,0-.31-0.89,1.1,1.1,0,0,0-.72-0.27h0Zm37.72,3.36a1.46,1.46,0,0,0,.41-0.14,1.37,1.37,0,0,0,.45-0.45,1.74,1.74,0,0,0,.1-0.65V23.16a6.82,6.82,0,0,1-.89.31h-0.07a1.53,1.53,0,0,0-.76.34,0.47,0.47,0,0,0-.21.38,0.49,0.49,0,0,0,.21.41,0.71,0.71,0,0,0,.51.17l0.24,0h0Zm0-2.33a0.61,0.61,0,0,1,.21,0,6.54,6.54,0,0,0,.76-0.27,0.76,0.76,0,0,0-.14-0.55,0.85,0.85,0,0,0-.58-0.17,0.66,0.66,0,0,0-.24,0,1.28,1.28,0,0,0-.55.14,1.23,1.23,0,0,0-.34.51l-2-.24a1.8,1.8,0,0,1,.34-0.82,2,2,0,0,1,.62-0.55,3.43,3.43,0,0,1,.82-0.24,5.16,5.16,0,0,1,1.1-.1h0a6.1,6.1,0,0,1,1.51.14,1.8,1.8,0,0,1,1,.45,1.3,1.3,0,0,1,.45.65,2.57,2.57,0,0,1,.14.82v2.47a2.63,2.63,0,0,0,.07.62,4.06,4.06,0,0,0,.21.58h-2a2.85,2.85,0,0,1-.17-0.34,2.76,2.76,0,0,1-.07-0.34,3,3,0,0,1-.82.58,0.81,0.81,0,0,0-.27.07,3.33,3.33,0,0,1-1.06.14,2.2,2.2,0,0,1-1.51-.45,1.46,1.46,0,0,1-.51-1.13,1.54,1.54,0,0,1,.38-1.06,2.44,2.44,0,0,1,1.37-.62c0.62-.11,1.06-0.21,1.34-0.28h0Zm4-4.29H214v7.72H211.9V18.12h0Zm-13.65,2.13h2v0.93a3.26,3.26,0,0,1,.89-0.82,2.77,2.77,0,0,1,1.13-.24,1.81,1.81,0,0,1,1.37.55,2.22,2.22,0,0,1,.51,1.61v3.57H202V22.75a1.22,1.22,0,0,0-.17-0.72,0.64,0.64,0,0,0-.55-0.24,0.8,0.8,0,0,0-.65.31,1.85,1.85,0,0,0-.24,1.06v2.67h-2.13V20.25h0Zm-14,4.15a1,1,0,0,0,.65-0.34,1.42,1.42,0,0,0,.27-1,1.43,1.43,0,0,0-.27-1,0.79,0.79,0,0,0-.65-0.31h0a0.8,0.8,0,0,0-.65.31,1.88,1.88,0,0,0-.24,1,1.49,1.49,0,0,0,.27,1,0.73,0.73,0,0,0,.62.34h0Zm0-4.18a0.49,0.49,0,0,0,.21.07,2.13,2.13,0,0,1,.72.51V18.12h2.16v7.72h-2V25a2.24,2.24,0,0,1-.76.69,1.24,1.24,0,0,1-.31.14,2.3,2.3,0,0,1-.72.1,2,2,0,0,1-1.75-.86,3.75,3.75,0,0,1-.58-2.09,3,3,0,0,1,.65-2.13,2.21,2.21,0,0,1,1.68-.75,2.27,2.27,0,0,1,.72.1h0Zm4.08-2.09h2.13v1.47h-2.13V18.12h0Zm0,2.13h2.13v5.59h-2.13V20.25h0ZM170.13,24.7a1.4,1.4,0,0,0,.62-0.17,1.58,1.58,0,0,0,.38-0.34l2.09,0.21a3.1,3.1,0,0,1-3.09,1.54h0a4.2,4.2,0,0,1-1.75-.31,2.59,2.59,0,0,1-1-1,2.66,2.66,0,0,1-.45-1.58,2.86,2.86,0,0,1,.86-2.13,3.14,3.14,0,0,1,2.3-.82h0.1a4.19,4.19,0,0,1,1.78.38A2.28,2.28,0,0,1,173,21.55a3.73,3.73,0,0,1,.38,1.78v0.24h-4.29a1.4,1.4,0,0,0,.27.75,1.09,1.09,0,0,0,.79.38h0Zm3.81-4.46h2v0.93a1.81,1.81,0,0,1,.58-0.82,1.32,1.32,0,0,1,.76-0.24,2.18,2.18,0,0,1,1,.31l-0.65,1.51a1.56,1.56,0,0,0-.58-0.14,0.71,0.71,0,0,0-.65.34,3.22,3.22,0,0,0-.34,1.82v1.89h-2.16V20.25h0Zm4.46-2.13h2.13v1.47H178.4V18.12h0Zm0,2.13h2.13v5.59H178.4V20.25h0Zm-20.88-2.13h3.12l1.24,4.7,1.2-4.7h3.09v7.72h-1.92V20l-1.51,5.86H161L159.47,20v5.86h-2V18.12h0Z" transform="translate(-14.16 -8.11)"/><path class="cls-4" d="M196.91,21.1a3.13,3.13,0,0,0-2.5-1,3.05,3.05,0,0,0-2.33.86,2.72,2.72,0,0,0-.86,2.09,2.77,2.77,0,0,0,1,2.19,3.24,3.24,0,0,0,2.2.69,3.17,3.17,0,0,0,2.33-.82A2.72,2.72,0,0,0,197.6,23,2.69,2.69,0,0,0,196.91,21.1Zm-1.75,3.05a1,1,0,0,1-1.51,0,1.67,1.67,0,0,1-.31-1.1,1.62,1.62,0,0,1,.31-1.1,0.94,0.94,0,0,1,1.51,0,1.51,1.51,0,0,1,.31,1.06A1.72,1.72,0,0,1,195.17,24.15Z" transform="translate(-14.16 -8.11)"/><path class="cls-5" d="M51.53,72.6a6.81,6.81,0,1,1-6.81,6.81,6.81,6.81,0,0,1,6.81-6.81m0,0.65a6.16,6.16,0,1,0,6.16,6.16,6.16,6.16,0,0,0-6.16-6.16" transform="translate(-14.16 -8.11)"/><path class="cls-5" d="M51.87,80.73v2.09H51.2V80.73H48.09a1,1,0,0,1-1.06-1,0.74,0.74,0,0,1,0-.14,4,4,0,0,1,.47-1.28,3.94,3.94,0,0,1,.88-1.05A1.14,1.14,0,0,1,49.26,77a1.09,1.09,0,0,1,.54-0.65l0.13-.06a4.73,4.73,0,0,1,3.22,0,1.23,1.23,0,0,1,.66.7,1,1,0,0,1,.81.17,4.34,4.34,0,0,1,.93,1.1A4,4,0,0,1,56,79.54a0.88,0.88,0,0,1,0,.14,1,1,0,0,1-1.06,1H51.87m2.36-3a0.33,0.33,0,0,0-.37,0,0.35,0.35,0,0,0-.14.15l-1.12,2a0.17,0.17,0,0,0,.15.26H55a0.32,0.32,0,0,0,.2,0,0.34,0.34,0,0,0,.17-0.32,0.21,0.21,0,0,0,0,0A3.26,3.26,0,0,0,55,78.59a3.33,3.33,0,0,0-.73-0.88h0m-5.38,0h0a3.32,3.32,0,0,0-1.12,1.94,0.13,0.13,0,0,0,0,0,0.34,0.34,0,0,0,.17.32,0.32,0.32,0,0,0,.2,0h2.25A0.17,0.17,0,0,0,50.49,80a0.17,0.17,0,0,0,0-.18l-1.12-2a0.33,0.33,0,0,0-.14-0.15,0.34,0.34,0,0,0-.37,0m4.09-.79h0a4,4,0,0,0-2.76,0l0,0a0.42,0.42,0,0,0-.24.38,0.41,0.41,0,0,0,.08.24l1.39,2.4a0.21,0.21,0,0,0,.37,0l1.39-2.4a0.42,0.42,0,0,0-.18-0.63" transform="translate(-14.16 -8.11)"/><polygon class="cls-5" points="3.93 80.29 6.53 85.61 9.13 80.29 13.06 80.29 13.06 90.94 9.13 90.94 9.13 85.61 6.53 90.94 3.93 85.61 3.93 90.94 0 90.94 0 80.29 3.93 80.29"/><path class="cls-5" d="M35,90l-1.6,5.56h3.19ZM28.49,99L31.55,88.4h6.95L41.55,99H37.62l-0.5-1.75h-4.2L32.42,99H28.49Z" transform="translate(-14.16 -8.11)"/><path class="cls-5" d="M47.65,89.62a1.55,1.55,0,0,1,1.75,1.44,1.73,1.73,0,0,1-1.75,1.75H46.8V89.62h0.85Zm2.51-1.22H42.8V99h3.93V94.61h3.43a3.1,3.1,0,1,0,0-6.21" transform="translate(-14.16 -8.11)"/><polygon class="cls-5" points="40.47 80.29 50.92 80.29 50.92 82.04 44.4 82.04 44.4 84.75 50.92 84.75 50.92 86.49 44.4 86.49 44.4 90.94 40.47 90.94 40.47 80.29"/><polygon class="cls-5" points="68.17 89.19 74.69 89.19 74.69 90.94 64.23 90.94 64.23 80.29 74.69 80.29 74.69 82.04 68.17 82.04 68.17 84.75 74.69 84.75 74.69 86.49 68.17 86.49 68.17 89.19"/><path class="cls-5" d="M71.31,89.62a1.56,1.56,0,0,1,1.75,1.44,1.75,1.75,0,0,1-1.75,1.75H70.46V89.62h0.85Zm5.61,6.67v0.09s0-.06,0-0.09m0,0.09s0-.06,0-0.09a2.66,2.66,0,0,0-2.66-2.57,2.66,2.66,0,1,0,0-5.32h-7.8V99h4V94.63h0.85a1.75,1.75,0,0,1,1.75,1.75s0,0.06,0,.09V99h3.87V96.38Z" transform="translate(-14.16 -8.11)"/><polygon class="cls-6" points="174 81.75 154.77 100.98 176.24 100.98 176.24 79.52 174 81.75"/><polygon class="cls-6" points="177.68 81.66 177.68 53.58 176.37 53.58 128.84 53.58 128.84 102.42 156.92 102.42 177.68 81.66"/><polygon class="cls-7" points="174.93 82.68 157.94 99.67 174.93 99.67 174.93 82.68"/><polygon class="cls-8" points="176.37 81.54 176.37 54.89 130.15 54.89 130.15 101.11 156.8 101.11 176.37 81.54"/><path class="cls-6" d="M150.47,96.17a3.14,3.14,0,0,1,.36-1.24,1.18,1.18,0,0,1,.79-0.86,0.24,0.24,0,0,1,.24.15,0.58,0.58,0,0,1,0,.21,3.58,3.58,0,0,1-.32,1.17,1.22,1.22,0,0,1-.79,1,0.25,0.25,0,0,1-.21-0.11A0.5,0.5,0,0,1,150.47,96.17Zm1-2.38a1.7,1.7,0,0,0-1.26.82,2.55,2.55,0,0,0-.62,1.54,1,1,0,0,0,.22.71,0.69,0.69,0,0,0,.52.23,1,1,0,0,0,.71-0.31,3,3,0,0,0,.43-0.58l-0.05.27a1,1,0,0,0,0,.15,0.42,0.42,0,0,0,.17.38,0.43,0.43,0,0,0,.25.07,0.86,0.86,0,0,0,.59-0.3,4.17,4.17,0,0,0,.45-0.58l-0.15-.11a3.39,3.39,0,0,1-.24.33,0.38,0.38,0,0,1-.22.17l-0.06,0a0.09,0.09,0,0,1,0-.07,6.15,6.15,0,0,1,.15-0.63l0.24-.9,0.77-2.81-0.61.11-0.54.06-0.3,0v0.18H152a0.42,0.42,0,0,1,.21,0,0.18,0.18,0,0,1,.07.17s0,0,0,.07a0.27,0.27,0,0,1,0,.07L152,94a0.85,0.85,0,0,0-.18-0.15A0.66,0.66,0,0,0,151.49,93.79Zm3.61,0.31a0.17,0.17,0,0,0-.16-0.08,0.64,0.64,0,0,0-.48.39,4.27,4.27,0,0,0-.42,1.1,1.31,1.31,0,0,0,1.1-1.21A0.42,0.42,0,0,0,155.09,94.1Zm-1.44.42a1.8,1.8,0,0,1,1.37-.73,0.87,0.87,0,0,1,.53.16,0.53,0.53,0,0,1,.21.45,1.08,1.08,0,0,1-.49.83,2.59,2.59,0,0,1-1.29.5c0,0.07,0,.14,0,0.2a1.33,1.33,0,0,0,0,.15,0.76,0.76,0,0,0,.06.34,0.42,0.42,0,0,0,.42.23,0.71,0.71,0,0,0,.5-0.26,2.46,2.46,0,0,0,.29-0.38l0.2,0.12a2.75,2.75,0,0,1-.49.64,1.25,1.25,0,0,1-.86.32,1.06,1.06,0,0,1-.69-0.27A1,1,0,0,1,153,96,2.27,2.27,0,0,1,153.65,94.52Zm6.07-.06a3.48,3.48,0,0,1-.31,1.22,1.31,1.31,0,0,1-.79.91,0.25,0.25,0,0,1-.22-0.12,0.51,0.51,0,0,1-.08-0.29,3.29,3.29,0,0,1,.35-1.21,1.2,1.2,0,0,1,.78-0.89,0.24,0.24,0,0,1,.24.16A0.62,0.62,0,0,1,159.72,94.46Zm-2.26,1.72a0.88,0.88,0,0,0,.24.7,0.76,0.76,0,0,0,.51.21,0.89,0.89,0,0,0,.55-0.19,1.91,1.91,0,0,0,.43-0.46l0.12-.18s0-.06,0,0a2.46,2.46,0,0,0-.09.43,0.42,0.42,0,0,0,.15.35,0.49,0.49,0,0,0,.31.12,0.77,0.77,0,0,0,.51-0.23,3.68,3.68,0,0,0,.54-0.65l-0.15-.1-0.13.17-0.12.14-0.13.13a0.19,0.19,0,0,1-.12,0,0.08,0.08,0,0,1-.06,0,0.11,0.11,0,0,1,0-.09,2.33,2.33,0,0,1,.09-0.5q0-.18.14-0.53l0.45-1.62-0.73.05-0.12.36a0.92,0.92,0,0,0-.13-0.32,0.47,0.47,0,0,0-.39-0.16,1.71,1.71,0,0,0-1.28.82A2.58,2.58,0,0,0,157.47,96.18ZM160.82,97l1.08-3.93,0-.16a0.75,0.75,0,0,0,0-.15,0.17,0.17,0,0,0-.1-0.19,1,1,0,0,0-.34,0V92.35l0.68-.08,0.76-.13L162.22,95h0l0-.05,0.21-.28a3.77,3.77,0,0,1,.59-0.63,0.93,0.93,0,0,1,.6-0.23,0.49,0.49,0,0,1,.53.54,1,1,0,0,1,0,.22c0,0.07-.06.21-0.12,0.41l-0.46,1.44a0.4,0.4,0,0,0,0,.06,0.12,0.12,0,0,0,0,.09,0.1,0.1,0,0,0,.08,0,0.51,0.51,0,0,0,.27-0.22l0.25-.35,0.15,0.1a4.21,4.21,0,0,1-.49.66,0.91,0.91,0,0,1-.64.3,0.51,0.51,0,0,1-.33-0.11,0.41,0.41,0,0,1-.14-0.35,1.8,1.8,0,0,1,.07-0.42c0-.18.1-0.37,0.17-0.6l0.34-1V94.51a0.25,0.25,0,0,0,0,0,0.13,0.13,0,0,0-.05-0.13,0.22,0.22,0,0,0-.11,0,0.73,0.73,0,0,0-.48.34,3.86,3.86,0,0,0-.44.65,5.31,5.31,0,0,0-.33.81c-0.06.19-.15,0.49-0.27,0.9h-0.84Zm4.64-.59a4.47,4.47,0,0,1,.26-1.34,1.19,1.19,0,0,1,.85-1.06,0.29,0.29,0,0,1,.29.17,0.64,0.64,0,0,1,0,.25,4.54,4.54,0,0,1-.29,1.45,1.18,1.18,0,0,1-.79,1,0.32,0.32,0,0,1-.32-0.19A0.71,0.71,0,0,1,165.46,96.4Zm1.15-2.61a1.79,1.79,0,0,0-1.41.76,2.27,2.27,0,0,0-.56,1.44,1,1,0,0,0,.36.85,1.32,1.32,0,0,0,.76.25,1.79,1.79,0,0,0,1.4-.76,2.26,2.26,0,0,0,.56-1.43,1,1,0,0,0-.49-0.94A1.25,1.25,0,0,0,166.61,93.79Zm1.23,3.2q0.29-1,.47-1.71a5.8,5.8,0,0,0,.21-0.92,0.16,0.16,0,0,0-.08-0.17,0.83,0.83,0,0,0-.29,0V94l0.75-.07,0.67-.11L169.18,95h0a6.66,6.66,0,0,1,.48-0.82,0.84,0.84,0,0,1,.61-0.42,0.34,0.34,0,0,1,.3.14,0.49,0.49,0,0,1,.1.3,0.61,0.61,0,0,1-.11.36,0.34,0.34,0,0,1-.3.16,0.38,0.38,0,0,1-.16,0,0.32,0.32,0,0,1-.12-0.1l-0.07-.08,0,0h0a0.62,0.62,0,0,0-.35.36,5,5,0,0,0-.36.73c-0.07.17-.15,0.42-0.25,0.73s-0.17.54-.22,0.68h-0.84Zm2.56,0q0.29-1,.47-1.71a5.93,5.93,0,0,0,.21-0.92A0.16,0.16,0,0,0,171,94.2a0.83,0.83,0,0,0-.29,0V94l0.75-.07,0.67-.11L171.74,95h0a6.66,6.66,0,0,1,.48-0.82,0.84,0.84,0,0,1,.61-0.42,0.35,0.35,0,0,1,.3.14,0.5,0.5,0,0,1,.1.3,0.62,0.62,0,0,1-.11.36,0.34,0.34,0,0,1-.3.16,0.39,0.39,0,0,1-.16,0,0.36,0.36,0,0,1-.12-0.1l-0.06-.08,0,0h-0.05a0.62,0.62,0,0,0-.35.36,4.86,4.86,0,0,0-.36.73c-0.07.17-.15,0.42-0.25,0.73l-0.22.68H170.4Zm3.51-.59a4.47,4.47,0,0,1,.26-1.34A1.19,1.19,0,0,1,175,94a0.29,0.29,0,0,1,.29.17,0.62,0.62,0,0,1,0,.25,4.54,4.54,0,0,1-.29,1.45,1.18,1.18,0,0,1-.79,1,0.32,0.32,0,0,1-.32-0.19A0.71,0.71,0,0,1,173.9,96.4Zm1.15-2.61a1.79,1.79,0,0,0-1.41.76,2.26,2.26,0,0,0-.56,1.44,1,1,0,0,0,.36.85,1.31,1.31,0,0,0,.76.25,1.78,1.78,0,0,0,1.4-.76,2.26,2.26,0,0,0,.56-1.43,1,1,0,0,0-.49-0.94A1.25,1.25,0,0,0,175.05,93.79Zm-24.52,8.87a0.87,0.87,0,0,0,.23-0.54,6.84,6.84,0,0,0-.13-1c-0.06-.31-0.12-0.6-0.18-0.9a4.87,4.87,0,0,0-.26-0.92,0.34,0.34,0,0,0-.32-0.14V99l0.68-.1,0.32-.06h0q0.08,0.24.25,1t0.26,1.3l0,0.16,0.13-.23a5.19,5.19,0,0,0,.32-0.66,1.71,1.71,0,0,0,.16-0.51,0.24,0.24,0,0,0,0-.12,0.36,0.36,0,0,0-.11-0.11l-0.05,0a0.48,0.48,0,0,1-.11-0.11,0.4,0.4,0,0,1-.08-0.24,0.42,0.42,0,0,1,.11-0.28,0.36,0.36,0,0,1,.29-0.13,0.46,0.46,0,0,1,.29.11,0.44,0.44,0,0,1,.14.36,3.34,3.34,0,0,1-.39,1.24,12.14,12.14,0,0,1-.68,1.24,6.74,6.74,0,0,1-1,1.26,1.31,1.31,0,0,1-.89.41,0.43,0.43,0,0,1-.32-0.13,0.42,0.42,0,0,1-.13-0.29,0.35,0.35,0,0,1,.12-0.28,0.4,0.4,0,0,1,.27-0.1,0.68,0.68,0,0,1,.35.12,0.7,0.7,0,0,0,.26.12A0.63,0.63,0,0,0,150.54,102.66Zm3.81-1.65h0.18a1.19,1.19,0,0,0,.26.73,0.62,0.62,0,0,0,.41.21,0.37,0.37,0,0,0,.28-0.11,0.38,0.38,0,0,0,.1-0.27,0.62,0.62,0,0,0-.09-0.31,2.35,2.35,0,0,0-.22-0.32l-0.26-.32a1.75,1.75,0,0,1-.29-0.43,1.08,1.08,0,0,1-.12-0.49,0.8,0.8,0,0,1,.26-0.6,1,1,0,0,1,.71-0.25A1,1,0,0,1,156,99a1.06,1.06,0,0,0,.27.08,0.18,0.18,0,0,0,.12,0,0.37,0.37,0,0,0,.07-0.11h0.2l-0.16,1.06-0.18,0a1.22,1.22,0,0,0-.24-0.64,0.49,0.49,0,0,0-.37-0.19,0.34,0.34,0,0,0-.28.11,0.39,0.39,0,0,0-.09.25,0.47,0.47,0,0,0,.07.24,3,3,0,0,0,.26.36L156,100.5a1.64,1.64,0,0,1,.2.34,1,1,0,0,1,.09.4,0.84,0.84,0,0,1-.3.68,1.1,1.1,0,0,1-.74.25,1.08,1.08,0,0,1-.39-0.08l-0.25-.08a0.17,0.17,0,0,0-.13,0,0.38,0.38,0,0,0-.07.11h-0.18Zm4.55-1.63a1.29,1.29,0,0,1-.25.68,1.31,1.31,0,0,1-.85.52,4.27,4.27,0,0,1,.42-1.1,0.64,0.64,0,0,1,.48-0.39,0.16,0.16,0,0,1,.16.08A0.41,0.41,0,0,1,158.9,99.38Zm-2.09,1.71a1,1,0,0,0,.32.81,1.07,1.07,0,0,0,.69.27,1.26,1.26,0,0,0,.86-0.32,2.78,2.78,0,0,0,.49-0.64l-0.2-.12a2.36,2.36,0,0,1-.29.38,0.71,0.71,0,0,1-.5.26,0.42,0.42,0,0,1-.42-0.23,0.74,0.74,0,0,1-.06-0.34s0-.09,0-0.15,0-.13,0-0.2a2.6,2.6,0,0,0,1.28-.5,1.08,1.08,0,0,0,.49-0.83,0.53,0.53,0,0,0-.21-0.45,0.87,0.87,0,0,0-.53-0.16,1.79,1.79,0,0,0-1.37.73A2.27,2.27,0,0,0,156.82,101.1Zm4.78,1.68a0.41,0.41,0,0,1-.21.35,1.08,1.08,0,0,1-.59.14,0.88,0.88,0,0,1-.68-0.23,0.44,0.44,0,0,1-.12-0.3,0.56,0.56,0,0,1,.27-0.46,0.37,0.37,0,0,1,.27-0.15l0.31,0.09,0.38,0.13a0.89,0.89,0,0,1,.27.17A0.34,0.34,0,0,1,161.6,102.77Zm-0.49-2a0.29,0.29,0,0,1-.22-0.1,0.41,0.41,0,0,1-.09-0.29,2.25,2.25,0,0,1,.2-0.85,0.61,0.61,0,0,1,.52-0.47,0.27,0.27,0,0,1,.24.12,0.55,0.55,0,0,1,.07.3,2,2,0,0,1-.21.85A0.61,0.61,0,0,1,161.1,100.79ZM160.29,102a2.79,2.79,0,0,0-.6.23,0.55,0.55,0,0,0-.31.49,0.68,0.68,0,0,0,.57.65,2.53,2.53,0,0,0,.78.11,2.11,2.11,0,0,0,1.15-.29,0.85,0.85,0,0,0,.46-0.73,0.7,0.7,0,0,0-.35-0.62,2.74,2.74,0,0,0-.69-0.27l-0.37-.11-0.19-.08a0.25,0.25,0,0,1-.17-0.2,0.27,0.27,0,0,1,.06-0.14,0.16,0.16,0,0,1,.11-0.08,2.31,2.31,0,0,0,.37,0,1.6,1.6,0,0,0,1.11-.36,1.11,1.11,0,0,0,.4-0.86,0.81,0.81,0,0,0,0-.14l0-.15h0.47V99.1h-0.77s0,0-.2-0.11a1.55,1.55,0,0,0-.61-0.11,1.5,1.5,0,0,0-1.08.39,1.14,1.14,0,0,0-.41.82,0.88,0.88,0,0,0,.14.5,0.8,0.8,0,0,0,.42.31,2.33,2.33,0,0,0-.52.35,0.44,0.44,0,0,0-.14.31,0.43,0.43,0,0,0,.16.34A0.9,0.9,0,0,0,160.29,102Zm3-.67c0-.1,0-0.19.07-0.28l0.36-1.32a1.42,1.42,0,0,0,0-.15,0.73,0.73,0,0,0,0-.13,0.17,0.17,0,0,0-.09-0.17,0.79,0.79,0,0,0-.3-0.05V99.06q0.71-.06,1.07-0.13l0.39-.06-0.31,1.06L164.19,101s0,0.11-.05.2a1.19,1.19,0,0,0,0,.27,0.17,0.17,0,0,0,0,.13,0.16,0.16,0,0,0,.12,0,0.73,0.73,0,0,0,.44-0.32,3.62,3.62,0,0,0,.51-0.86c0.1-.23.19-0.47,0.27-0.71s0.13-.42.23-0.78h0.82l-0.26,1-0.14.51-0.15.55c0,0.12-.06.23-0.09,0.34a1.13,1.13,0,0,0,0,.21,0.15,0.15,0,0,0,0,.1,0.1,0.1,0,0,0,.08,0,0.5,0.5,0,0,0,.29-0.24,2.63,2.63,0,0,0,.19-0.28l0.15,0.08a2.27,2.27,0,0,1-.5.64,0.94,0.94,0,0,1-.62.27A0.44,0.44,0,0,1,165,102a0.46,0.46,0,0,1-.08-0.28,1.26,1.26,0,0,1,0-.28c0-.08.06-0.22,0.13-0.43h0a6.46,6.46,0,0,1-.63.81,1,1,0,0,1-.7.34,0.54,0.54,0,0,1-.31-0.09,0.51,0.51,0,0,1-.22-0.47A1.25,1.25,0,0,1,163.29,101.35Zm3.4,0.72c0.19-.66.35-1.23,0.47-1.71a5.93,5.93,0,0,0,.21-0.92,0.16,0.16,0,0,0-.08-0.17,0.83,0.83,0,0,0-.29,0V99.06c0.29,0,.54,0,0.75-0.07l0.67-.11L168,100.11h0a6.6,6.6,0,0,1,.48-0.82,0.84,0.84,0,0,1,.61-0.42,0.35,0.35,0,0,1,.3.13,0.51,0.51,0,0,1,.1.3,0.63,0.63,0,0,1-.11.36,0.34,0.34,0,0,1-.3.16,0.39,0.39,0,0,1-.16,0,0.33,0.33,0,0,1-.12-0.1l-0.07-.08,0,0H168.7a0.62,0.62,0,0,0-.35.36,4.85,4.85,0,0,0-.36.73c-0.07.17-.15,0.42-0.25,0.73s-0.17.54-.22,0.68h-0.84Zm3.51-.59a4.49,4.49,0,0,1,.26-1.34,1.2,1.2,0,0,1,.85-1.06,0.3,0.3,0,0,1,.29.17,0.66,0.66,0,0,1,0,.25,4.55,4.55,0,0,1-.29,1.45,1.17,1.17,0,0,1-.79,1,0.32,0.32,0,0,1-.32-0.19A0.74,0.74,0,0,1,170.19,101.48Zm1.15-2.61a1.79,1.79,0,0,0-1.41.76,2.27,2.27,0,0,0-.56,1.44,1,1,0,0,0,.36.85,1.32,1.32,0,0,0,.76.25,1.78,1.78,0,0,0,1.4-.76,2.25,2.25,0,0,0,.56-1.43A1,1,0,0,0,172,99,1.25,1.25,0,0,0,171.34,98.88Z" transform="translate(-14.16 -8.11)"/><rect class="cls-6" x="144.48" y="61.1" width="5.43" height="0.65"/><rect class="cls-6" x="144.48" y="70.1" width="11.12" height="0.65"/><rect class="cls-6" x="158.2" y="70.1" width="4.84" height="0.65"/><rect class="cls-6" x="154.57" y="66.02" width="5.42" height="0.64"/><rect class="cls-6" x="145.88" y="61.58" width="2.14" height="8.8"/><polygon class="cls-6" points="153.19 70.38 152.16 70.38 156.69 61.2 157.72 61.2 153.19 70.38"/><polygon class="cls-6" points="162.25 70.38 160.51 70.38 156.71 62.22 156.69 61.2 157.98 61.2 162.25 70.38"/><rect class="cls-6" x="165.64" y="80.52" width="4.84" height="0.65"/><rect class="cls-6" x="158.91" y="80.52" width="4" height="0.65"/><rect class="cls-6" x="155.54" y="71.61" width="4" height="0.65"/><rect class="cls-6" x="162.01" y="76.44" width="5.43" height="0.65"/><polygon class="cls-6" points="160.63 80.8 159.6 80.8 164.13 71.61 165.16 71.61 160.63 80.8"/><polygon class="cls-6" points="169.69 80.8 167.95 80.8 164.15 72.64 164.13 71.61 165.42 71.61 169.69 80.8"/><rect class="cls-6" x="151.01" y="80.52" width="4.84" height="0.65"/><rect class="cls-6" x="144.28" y="80.52" width="4" height="0.65"/><rect class="cls-6" x="147.39" y="76.44" width="5.42" height="0.65"/><polygon class="cls-6" points="146.01 80.8 144.98 80.8 149.51 71.61 150.54 71.61 146.01 80.8"/><polygon class="cls-6" points="155.07 80.8 153.32 80.8 149.53 72.64 149.51 71.61 150.8 71.61 155.07 80.8"/><path class="cls-6" d="M169.36,91.56a1.26,1.26,0,0,0,1.29-1.36V80h1.88v7.31c0,2.39-.74,4.93-3.85,4.93-1.4,0-1.83-.95-1.52-1.37a0.76,0.76,0,0,1,1.23.06A1.22,1.22,0,0,0,169.36,91.56Z" transform="translate(-14.16 -8.11)"/><path class="cls-6" d="M160.51,80.09a4.91,4.91,0,0,1-2.34,0,7.05,7.05,0,0,0-2.34-.42c-2.85,0-5.81,1.48-5.81,4.85,0,2.72,2.4,4.85,6.33,4.85l2.81,0a18.66,18.66,0,0,1,.8-1.77,5,5,0,0,1-3.55,1.13c-2.45,0-4.63-1.34-4.63-4.06a4.09,4.09,0,0,1,4-4.26c1.32,0,3.33.11,4.09,1.87,0.11,0.27.58,0.43,0.58,0S160.51,80.09,160.51,80.09Z" transform="translate(-14.16 -8.11)"/><path class="cls-9" d="M63.28,18.12A10,10,0,0,1,45.91,24.9c1.38-1,5.36-.75,6.44-0.37C59.06,26.58,60,20.7,60,20.7H59.39c-1.22,4.05-7.43,2.39-8.32,2.39a4.79,4.79,0,0,0-1.5.22L58,12.1H47.53L46.64,15l0.67,0.28c0.78-2.16,3.55-2.11,3.55-2.11h2.88L45.28,24.14a10,10,0,1,1,18-6h0ZM28,35.48h2.39l-6.65,9.24h9l1.28-2.49c-1.22,1.13-4.22,1.13-4.22,1.13H27.37L33.92,34H25.57l-1,2.3A7.55,7.55,0,0,1,28,35.48h0ZM35.38,34a2,2,0,0,1,.63,1.6v6.47s0.28,3.1,4.6,3.1S45,41.76,45,41.76V35A0.92,0.92,0,0,1,45.6,34H42.46s0.63,0,.63,1v6.33a2.45,2.45,0,0,1-2.44,2.35,2.53,2.53,0,0,1-2.58-2.16v-6s0-1.5.5-1.5H35.38ZM57,44.72a3.88,3.88,0,0,1-4.2-1.36l-2.35-3.1H50.12V43.4c0,1.22.64,1.31,0.64,1.31H47.24c0.73,0,.91-1.31.91-1.31V35.57A1.94,1.94,0,0,0,47.52,34H51.6s3.82,0,3.82,3c0,2.39-2.77,3-2.77,3C56,44.3,57,44.72,57,44.72h0Zm-3.73-7.65c0-2-3-1.69-3-1.69v3.89s3,0.28,3-2.21h0ZM58,34s0.63,0,.63,1.69v7.46s0,1.55-.77,1.55h3.19s-0.54,0-.54-1.69V35.71s0-1.69.69-1.69H58Zm13.81,2.21v-2a7.4,7.4,0,0,0-2.58-.47c-2.16,0-6.42.89-6.42,5.91s4.88,5.54,5.72,5.54a8.16,8.16,0,0,0,3.19-.75V42.37a3.32,3.32,0,0,1-2.91,1.22,4,4,0,0,1-3.85-4,4.24,4.24,0,0,1,4.08-4.27,4.3,4.3,0,0,1,2.77.89h0ZM82.91,43V35.71s0-1.69.68-1.69H80.4s0.63,0,.63,1.69v2.77H76.2V35.71s0-1.69.68-1.69H73.7s0.63,0,.63,1.69v7.46s0,1.55-.77,1.55h3.19s-0.54,0-.54-1.69V39.89H81v3.28s0,1.55-.77,1.55h3.19s-0.55,0-.55-1.69h0Z" transform="translate(-14.16 -8.11)"/><g id="g6"><path id="path20" class="cls-10" d="M76.85,139a4.13,4.13,0,0,0,.07,1.1,2.74,2.74,0,0,0,.76,1.42c0.49,0.45,1,.71,5.58,2.84,4,1.88,5.31,2.48,6.29,3l1.29,0.62L92,148.47c0.68,0.33.77,0.35,0.78,0.23a0.11,0.11,0,0,0,0-.09L90,146.87c-6.14-3.83-7.76-4.83-9.85-6.09l-2.34-1.41a2.39,2.39,0,0,0-.81-0.43A0.11,0.11,0,0,0,76.85,139Z" transform="translate(-14.16 -8.11)"/><path id="path22" class="cls-11" d="M76.24,143.38a3.63,3.63,0,0,0,.24,1.15,2.44,2.44,0,0,0,.59.83,3.16,3.16,0,0,0,1.21.78c0.12,0,1.45.4,3,.8,6.64,1.74,10.73,2.82,12.37,3.27,0.81,0.22.92,0.24,0.93,0.13a0.1,0.1,0,0,0,0-.08c-0.06-.05-4.22-1.65-13.43-5.16l-4.15-1.59C76.39,143.29,76.27,143.27,76.24,143.38Z" transform="translate(-14.16 -8.11)"/><path id="path24" class="cls-12" d="M20,145.28a5.82,5.82,0,0,0-3.87,1.42A3.72,3.72,0,0,0,15,148.9a7.27,7.27,0,0,0,0,1.42,3.49,3.49,0,0,0,1.06,2.11,5.7,5.7,0,0,0,2.33,1.34c0.23,0.07,1.18.34,2.12,0.58l1.85,0.5a2,2,0,0,1,1.19,1,1.65,1.65,0,0,1,.18.88,1.59,1.59,0,0,1-.18.75,2,2,0,0,1-1.52,1,30.47,30.47,0,0,1-3.69.09l-2.82,0a4,4,0,0,0,0,1.32v1.31h2.89a39,39,0,0,0,4.06-.08c2.52-.33,4.12-1.73,4.36-3.81a9.24,9.24,0,0,0,0-1.51,3.42,3.42,0,0,0-.93-2.06,4.54,4.54,0,0,0-1.93-1.15c-0.18-.06-1.22-0.36-2.31-0.66l-2.17-.61a2.57,2.57,0,0,1-1-.58,1.66,1.66,0,0,1-.38-1.27,1.49,1.49,0,0,1,1.14-1.37c0.41-.12.4-0.12,2.63-0.14a8.86,8.86,0,0,0,2.64-.14,2.15,2.15,0,0,0,1.66-1.66,3.88,3.88,0,0,0,.09-0.74v-0.13H23.33C21.72,145.25,20.24,145.27,20,145.28Z" transform="translate(-14.16 -8.11)"/><path id="path26" class="cls-12" d="M29.76,151.28c0,5.22,0,6.06,0,6.29a3.61,3.61,0,0,0,1.07,2.18,5.94,5.94,0,0,0,3.82,1.57,13.51,13.51,0,0,0,1.81,0c2.27-.24,3.94-1.19,4.67-2.64a4.21,4.21,0,0,0,.31-0.91l0.05-.24v-4.91c0-4.61,0-4.93,0-5.17a3.1,3.1,0,0,0-.4-1.19,2.66,2.66,0,0,0-.63-0.61,3.46,3.46,0,0,0-1.63-.36H38.68v5.61c0,6.16,0,5.8-.14,6.19-0.37,1-1.54,1.61-3.08,1.56a3.78,3.78,0,0,1-1.58-.35,2,2,0,0,1-.63-0.41,2.2,2.2,0,0,1-.59-1.1c0-.13,0-0.68-0.06-4.56,0-2.95,0-4.5,0-4.68a2.44,2.44,0,0,0-.67-1.58,2.41,2.41,0,0,0-1.62-.67l-0.38,0H29.76v6Z" transform="translate(-14.16 -8.11)"/><path id="path28" class="cls-12" d="M50.41,145.28a5.92,5.92,0,0,0-3.16,1.1,5.82,5.82,0,0,0-.89.9,6.06,6.06,0,0,0-1.1,3c0,0.26,0,.78,0,5.6v5.31h2.85v-5.26c0-5.77,0-5.3.14-5.84a2.71,2.71,0,0,1,2-2,5.79,5.79,0,0,1,1.6-.14,5.48,5.48,0,0,0,1.56-.14A2,2,0,0,0,54.94,146c0-.09,0-0.29,0-0.46l0-.29H52.83Z" transform="translate(-14.16 -8.11)"/><path id="path30" class="cls-12" d="M61.78,145.27a8.39,8.39,0,0,0-1.68.29A7.4,7.4,0,0,0,55,152a12.53,12.53,0,0,0-.09,2.22,9.91,9.91,0,0,0,.29,2.07A7,7,0,0,0,57,159.71a5.89,5.89,0,0,0,3.66,1.7,10.38,10.38,0,0,0,1.71,0,5.91,5.91,0,0,0,1.91-.56,5,5,0,0,0,1.79-1.53c0.09-.13.1-0.13,0.12-0.08a2.31,2.31,0,0,1,.06.24,2,2,0,0,0,.78,1.26,3.31,3.31,0,0,0,1.74.42h0.29v-15.9H61.78ZM66,147.9s0,6.9,0,7.24a4.12,4.12,0,0,1-1.7,3.07,4.18,4.18,0,0,1-4.9-.34,5.07,5.07,0,0,1-1.35-3.14,14.76,14.76,0,0,1,0-2.25A5.62,5.62,0,0,1,59.53,149a3.79,3.79,0,0,1,2.58-1.09l2.1,0A17.92,17.92,0,0,1,66,147.9Z" transform="translate(-14.16 -8.11)"/><path id="path32" class="cls-11" d="M77.52,148.17a0.55,0.55,0,0,0,0,.36,3.2,3.2,0,0,0,1.57,1.73,2.72,2.72,0,0,0,.61.21L86,150.88l7.92,0.52,1.77,0.1a0.08,0.08,0,0,0,0-.09,0.08,0.08,0,0,0-.09-0.09l-3.53-.63c-10.36-1.83-14.4-2.54-14.49-2.54Z" transform="translate(-14.16 -8.11)"/><path id="path34" class="cls-11" d="M87.42,152.32l-5.74,0-0.45,0v0.09a2.36,2.36,0,0,0,1,1.26,2,2,0,0,0,1,.36c0.22,0-.3.09,8.33-1.13a25.58,25.58,0,0,0,3.48-.52,0.15,0.15,0,0,0,0-.08,2.47,2.47,0,0,0-1.18,0Z" transform="translate(-14.16 -8.11)"/><path id="path36" class="cls-11" d="M93.94,153.43l-4.16,1.08c-1.72.44-3.19,0.82-4.64,1.21l-0.61.16a0.16,0.16,0,0,0-.08.13,3.66,3.66,0,0,0,.53.84,0.6,0.6,0,0,0,.6.23A1.13,1.13,0,0,0,86,157c0.52-.18,7.3-3,8.06-3.4,0.21-.1.21-0.1,0.21-0.17s0-.07-0.08-0.08A1.17,1.17,0,0,0,93.94,153.43Z" transform="translate(-14.16 -8.11)"/><path id="path38" class="cls-13" d="M92.44,155.38c-1.44.88-3.88,2.34-4.71,2.83a14.69,14.69,0,0,0-1.55.94,7.79,7.79,0,0,0,.11,1,0.51,0.51,0,0,0,.11.18,0.21,0.21,0,0,0,.23.09,0.94,0.94,0,0,0,.6-0.27c0.25-.19,1.24-1,4-3.28,1.74-1.45,2.2-1.85,2.2-1.89a0.1,0.1,0,0,0-.09-0.11S92.89,155.1,92.44,155.38Z" transform="translate(-14.16 -8.11)"/><path id="path40" class="cls-11" d="M90.64,158.77c-0.15.12-.58,0.48-2.31,2l-1.69,1.44a1.11,1.11,0,0,0-.42.77c0,0.18-.14.49-0.21,0.7-0.14.42-.15,0.49,0,0.5a0.42,0.42,0,0,0,.29-0.22c0.47-.49,3-3.27,4.07-4.47a1.74,1.74,0,0,0,.52-0.67C90.85,158.66,90.78,158.66,90.64,158.77Z" transform="translate(-14.16 -8.11)"/><path id="path42" class="cls-11" d="M84.33,161.62a38.45,38.45,0,0,1-5.39,1.19,36.89,36.89,0,0,1-4.62.52c-1.43.09-1.32,0.07-1.32,0.19a0.29,0.29,0,0,0,.14.22,2.82,2.82,0,0,0,1.52.69,8.91,8.91,0,0,0,1.6,0,21.25,21.25,0,0,0,3.36-.69,27.08,27.08,0,0,0,3.67-1.32c0.43-.19,1.23-0.59,1.47-0.73s0.12-.08.11-0.14,0-.07-0.06-0.08A3.43,3.43,0,0,0,84.33,161.62Z" transform="translate(-14.16 -8.11)"/><path id="path44" class="cls-11" d="M84.82,162.57c-0.2.14-.6,0.38-1,0.59a28.27,28.27,0,0,1-7.59,2.45l-0.48.1a0.14,0.14,0,0,0,0,.09,0.52,0.52,0,0,0,.36.3,5.72,5.72,0,0,0,4.11-.33,14.89,14.89,0,0,0,4.4-2.62,1.27,1.27,0,0,0,.46-0.58c0-.07,0-0.08-0.06-0.08A0.44,0.44,0,0,0,84.82,162.57Z" transform="translate(-14.16 -8.11)"/><path id="path46" class="cls-11" d="M84.55,164.3a9.28,9.28,0,0,1-.85.69A11.74,11.74,0,0,1,81,166.37c-0.36.13-.37,0.13-0.37,0.2s0,0.13.23,0.2a1.42,1.42,0,0,0,.59.06,2.6,2.6,0,0,0,1-.16,4.9,4.9,0,0,0,.94-0.44,3.16,3.16,0,0,0,1-1.16,3.2,3.2,0,0,0,.32-0.75c0-.08,0-0.08-0.08-0.08A0.16,0.16,0,0,0,84.55,164.3Z" transform="translate(-14.16 -8.11)"/></g></svg>