<?xml version="1.0" encoding="utf-8"?>
<!-- Generator: Adobe Illustrator 15.0.0, SVG Export Plug-In . SVG Version: 6.00 Build 0)  -->
<!DOCTYPE svg PUBLIC "-//W3C//DTD SVG 1.1//EN" "http://www.w3.org/Graphics/SVG/1.1/DTD/svg11.dtd">
<svg version="1.1" id="Layer_1" xmlns="http://www.w3.org/2000/svg" xmlns:xlink="http://www.w3.org/1999/xlink" x="0px" y="0px"
	 width="214.945px" height="60.64px" viewBox="0 0 214.945 60.64" enable-background="new 0 0 214.945 60.64" xml:space="preserve">
<g>
	<path fill-rule="evenodd" clip-rule="evenodd" fill="#47A730" d="M5.969,50.308V10.715h16.006l28.029,39.133H35.989l-5.361-9.879
		l-5.36,10.339H5.969L5.969,50.308z M59.04,49.848h13.632L43.034,10.332H29.862v9.878h7.352L59.04,49.848L59.04,49.848z
		 M17.916,24.729v13.632h10.645L17.916,24.729L17.916,24.729z"/>
	<path fill-rule="evenodd" clip-rule="evenodd" fill="#838282" d="M147.133,34.57h1.915v8.424c0,1.455-0.154,2.604-0.459,3.522
		c-0.384,0.842-0.997,1.531-1.838,2.068c-0.842,0.536-1.992,0.766-3.37,0.766s-2.527-0.229-3.37-0.689
		c-0.842-0.459-1.455-1.149-1.838-1.991c-0.383-0.918-0.536-2.144-0.536-3.675V34.57h1.915v8.424c0,1.225,0.076,2.221,0.306,2.757
		c0.23,0.612,0.689,1.072,1.225,1.378c0.613,0.383,1.302,0.536,2.144,0.536c1.379,0,2.375-0.306,2.987-0.996
		c0.612-0.613,0.918-1.838,0.918-3.675V34.57L147.133,34.57z M181.978,47.742c1.455,0,2.681-0.536,3.599-1.532
		c0.92-0.995,1.379-2.45,1.379-4.365c0-1.148-0.154-2.221-0.613-3.063c-0.382-0.919-0.995-1.608-1.761-2.067
		c-0.766-0.46-1.608-0.766-2.604-0.766c-1.302,0.076-2.526,0.536-3.446,1.455c-0.995,0.918-1.531,2.45-1.531,4.67
		c0,1.762,0.459,3.141,1.454,4.136C179.374,47.207,180.523,47.742,181.978,47.742L181.978,47.742z M181.978,34.34
		c1.379,0,2.604,0.307,3.676,0.92c1.072,0.689,1.915,1.531,2.451,2.68c0.535,1.149,0.843,2.451,0.843,3.906
		c0,1.531-0.308,2.834-0.92,3.982c-0.536,1.148-1.379,2.068-2.528,2.681c-1.071,0.613-2.22,0.842-3.522,0.842
		c-1.378,0-2.604-0.307-3.676-0.919c-1.072-0.689-1.915-1.608-2.451-2.757c-0.536-1.148-0.841-2.373-0.841-3.6
		c0-2.45,0.689-4.365,1.991-5.667C178.302,35.029,179.91,34.34,181.978,34.34L181.978,34.34z M195.15,44.45l1.761-0.154
		c0.077,0.767,0.307,1.303,0.613,1.839c0.305,0.459,0.843,0.842,1.455,1.072c0.688,0.306,1.456,0.459,2.222,0.459
		c0.766,0,1.454-0.153,1.99-0.306c0.536-0.23,0.996-0.536,1.225-0.919c0.307-0.383,0.46-0.766,0.46-1.225
		c0-0.46-0.154-0.92-0.46-1.226c-0.229-0.307-0.689-0.613-1.302-0.842c-0.382-0.153-1.225-0.384-2.527-0.689
		c-1.379-0.384-2.297-0.689-2.833-0.919c-0.688-0.383-1.226-0.843-1.533-1.379c-0.382-0.536-0.535-1.149-0.535-1.838
		c0-0.688,0.229-1.378,0.612-2.067c0.383-0.612,0.995-1.072,1.838-1.455c0.766-0.306,1.686-0.46,2.681-0.46
		c1.072,0,1.991,0.154,2.833,0.537c0.842,0.306,1.456,0.842,1.915,1.531c0.459,0.689,0.689,1.455,0.689,2.298l-1.838,0.153
		c-0.077-0.919-0.459-1.685-0.996-2.144c-0.613-0.46-1.454-0.689-2.526-0.689c-1.149,0-1.992,0.229-2.527,0.612
		c-0.538,0.46-0.843,0.996-0.843,1.608c0,0.46,0.229,0.919,0.535,1.226c0.384,0.383,1.379,0.689,2.91,1.072
		c1.609,0.383,2.681,0.689,3.217,0.919c0.919,0.383,1.531,0.919,1.915,1.532c0.383,0.535,0.613,1.225,0.613,2.067
		c0,0.766-0.229,1.455-0.69,2.145c-0.459,0.689-1.072,1.225-1.915,1.608c-0.841,0.383-1.761,0.536-2.756,0.536
		c-1.379,0-2.451-0.153-3.37-0.536c-0.842-0.383-1.531-0.996-2.067-1.761S195.15,45.445,195.15,44.45L195.15,44.45z M162.45,41.003
		h0.229c0.918,0,1.608-0.077,2.067-0.23c0.536-0.229,0.918-0.536,1.148-0.918c0.231-0.383,0.383-0.843,0.383-1.302
		c0-0.689-0.229-1.226-0.766-1.686c-0.459-0.459-1.302-0.688-2.374-0.688h-0.688h-3.907v4.825H162.45L162.45,41.003z M162.45,34.57
		h0.611c1.302,0,2.299,0.153,2.987,0.383c0.689,0.307,1.225,0.766,1.608,1.379c0.382,0.688,0.612,1.455,0.612,2.221
		c0,1.072-0.305,1.915-0.995,2.604c-0.689,0.688-1.684,1.148-3.14,1.378c0.536,0.229,0.92,0.46,1.227,0.689
		c0.535,0.536,1.072,1.148,1.531,1.991l2.527,3.906h-2.374l-1.915-2.987c-0.612-0.919-1.071-1.532-1.455-1.991
		c-0.307-0.536-0.613-0.842-0.92-0.995c-0.152-0.077-0.229-0.153-0.305-0.23c-0.23-0.076-0.384-0.153-0.613-0.153
		c-0.229-0.076-0.536-0.076-1.072-0.076h-2.222v6.433h-1.914V34.57H162.45L162.45,34.57z M80.966,44.45l1.838-0.154
		c0.077,0.767,0.229,1.303,0.536,1.839c0.383,0.459,0.842,0.842,1.532,1.072c0.613,0.306,1.378,0.459,2.221,0.459
		c0.689,0,1.378-0.153,1.915-0.306c0.536-0.23,0.996-0.536,1.302-0.919c0.23-0.383,0.383-0.766,0.383-1.225
		c0-0.46-0.153-0.92-0.383-1.226c-0.306-0.307-0.689-0.613-1.302-0.842c-0.383-0.153-1.302-0.384-2.604-0.689
		c-1.378-0.384-2.298-0.689-2.834-0.919c-0.689-0.383-1.225-0.843-1.532-1.379c-0.383-0.536-0.536-1.149-0.536-1.838
		c0-0.688,0.23-1.378,0.612-2.067c0.459-0.612,1.072-1.072,1.838-1.455c0.842-0.306,1.685-0.46,2.68-0.46
		c1.072,0,2.068,0.154,2.833,0.537c0.842,0.306,1.455,0.842,1.915,1.531s0.689,1.455,0.689,2.298l-1.838,0.153
		c-0.076-0.919-0.382-1.685-0.995-2.144c-0.536-0.46-1.379-0.689-2.527-0.689c-1.149,0-1.991,0.229-2.527,0.612
		c-0.536,0.46-0.842,0.996-0.842,1.608c0,0.46,0.229,0.919,0.613,1.226c0.383,0.383,1.302,0.689,2.91,1.072
		c1.532,0.383,2.604,0.689,3.216,0.919c0.843,0.383,1.456,0.919,1.838,1.532c0.459,0.535,0.613,1.225,0.613,2.067
		c0,0.766-0.229,1.455-0.689,2.145c-0.383,0.689-1.072,1.225-1.838,1.608c-0.843,0.383-1.838,0.536-2.833,0.536
		c-1.302,0-2.451-0.153-3.293-0.536c-0.919-0.383-1.608-0.996-2.144-1.761C81.272,46.288,80.966,45.445,80.966,44.45L80.966,44.45z
		 M99.576,49.121V34.57h10.492v1.762h-8.577v4.441h8.041v1.686h-8.041v4.978h8.96v1.685H99.576L99.576,49.121z M124.235,43.454
		v-1.762h6.127v5.438c-0.919,0.767-1.915,1.302-2.911,1.685c-0.995,0.383-1.991,0.536-3.063,0.536c-1.456,0-2.757-0.307-3.906-0.919
		c-1.149-0.536-2.068-1.456-2.681-2.604c-0.536-1.148-0.842-2.451-0.842-3.905c0-1.379,0.306-2.757,0.842-3.983
		c0.613-1.225,1.456-2.144,2.604-2.68c1.072-0.613,2.375-0.92,3.829-0.92c1.072,0,1.991,0.154,2.833,0.537
		c0.842,0.306,1.532,0.766,1.991,1.378s0.843,1.455,1.149,2.374l-1.762,0.536c-0.229-0.766-0.536-1.378-0.842-1.761
		c-0.306-0.46-0.766-0.767-1.378-1.072c-0.612-0.23-1.302-0.383-1.991-0.383c-0.918,0-1.685,0.152-2.297,0.459
		c-0.613,0.229-1.149,0.612-1.532,1.072c-0.383,0.383-0.689,0.842-0.919,1.378c-0.383,0.919-0.536,1.914-0.536,2.986
		c0,1.303,0.153,2.374,0.613,3.217c0.459,0.919,1.148,1.531,1.991,1.991c0.843,0.383,1.762,0.612,2.68,0.612
		c0.843,0,1.685-0.153,2.451-0.536c0.843-0.306,1.378-0.612,1.838-0.995v-2.681H124.235L124.235,43.454z"/>
	<path fill-rule="evenodd" clip-rule="evenodd" fill="#1A171B" d="M109.302,18.564c-0.766,0-1.378,0.307-1.838,0.919
		c-0.307,0.383-0.46,0.919-0.536,1.685h2.374h2.297c-0.076-0.918-0.306-1.607-0.689-1.991
		C110.45,18.794,109.914,18.564,109.302,18.564L109.302,18.564z M193.542,26.07c0.383-0.077,0.612-0.153,0.918-0.307
		c0.459-0.306,0.768-0.612,0.997-0.996c0.152-0.383,0.229-0.842,0.229-1.455v-0.766c-0.613,0.306-1.302,0.459-1.991,0.689
		c-0.077,0-0.077,0-0.154,0c-0.843,0.229-1.455,0.459-1.686,0.766c-0.307,0.229-0.459,0.536-0.459,0.842
		c0,0.383,0.152,0.688,0.459,0.919c0.231,0.23,0.613,0.383,1.149,0.383C193.158,26.146,193.388,26.07,193.542,26.07L193.542,26.07z
		 M193.542,20.862c0.229-0.077,0.383-0.077,0.459-0.077c0.536-0.152,1.149-0.383,1.686-0.612c0-0.612-0.077-0.996-0.307-1.226
		c-0.229-0.229-0.69-0.383-1.302-0.383c-0.153,0-0.307,0-0.536,0.077c-0.459,0-0.92,0.153-1.225,0.306
		c-0.307,0.23-0.538,0.613-0.767,1.149l-4.517-0.536c0.152-0.766,0.383-1.379,0.766-1.838c0.307-0.459,0.766-0.843,1.377-1.226
		c0.46-0.229,1.072-0.383,1.839-0.535c0.689-0.154,1.532-0.23,2.45-0.23h0.077c1.377,0,2.526,0.076,3.369,0.306
		c0.843,0.154,1.608,0.459,2.145,0.996c0.459,0.307,0.766,0.843,0.996,1.456c0.229,0.689,0.307,1.302,0.307,1.838v5.514
		c0,0.612,0.077,1.072,0.152,1.378c0.077,0.307,0.229,0.767,0.459,1.302h-4.441c-0.229-0.383-0.307-0.612-0.382-0.766
		c-0.077-0.153-0.077-0.459-0.154-0.765c-0.612,0.612-1.225,0.996-1.838,1.301c-0.229,0-0.382,0.076-0.612,0.153
		c-0.69,0.229-1.455,0.307-2.374,0.307c-1.455,0-2.604-0.307-3.37-0.996s-1.149-1.531-1.149-2.527c0-0.996,0.307-1.761,0.843-2.374
		s1.532-1.072,3.063-1.378C191.934,21.245,192.929,21.016,193.542,20.862L193.542,20.862z M202.578,11.29h4.748v17.23h-4.748V11.29
		L202.578,11.29z M163.522,25.533c0.688,0,1.225-0.229,1.684-0.765c0.459-0.536,0.689-1.378,0.689-2.527
		c0-1.072-0.229-1.914-0.689-2.374c-0.459-0.536-0.995-0.842-1.684-0.842c-0.69,0-1.227,0.306-1.686,0.842
		c-0.459,0.536-0.689,1.302-0.689,2.451c0,1.072,0.229,1.914,0.689,2.45C162.296,25.304,162.832,25.533,163.522,25.533
		L163.522,25.533z M163.522,28.75c2.22,0,3.981-0.613,5.207-1.838c1.302-1.226,1.914-2.757,1.914-4.672
		c0-1.685-0.459-3.14-1.531-4.289c-1.225-1.455-3.14-2.221-5.589-2.221c-2.222,0-3.983,0.612-5.209,1.915
		c-1.302,1.226-1.914,2.757-1.914,4.672c0,1.991,0.766,3.676,2.22,4.901C159.845,28.291,161.53,28.75,163.522,28.75L163.522,28.75z
		 M172.099,16.037h4.442v2.068c0.688-0.842,1.302-1.455,1.99-1.838c0.69-0.306,1.532-0.536,2.528-0.536
		c1.302,0,2.373,0.46,3.063,1.225c0.766,0.766,1.147,1.991,1.147,3.6v7.964h-4.824v-6.892c0-0.766-0.152-1.302-0.383-1.608
		c-0.307-0.383-0.689-0.536-1.225-0.536c-0.613,0-1.072,0.23-1.455,0.689c-0.306,0.383-0.536,1.226-0.536,2.374v5.973h-4.748V16.037
		L172.099,16.037z M140.93,25.304c0.613-0.077,1.072-0.307,1.455-0.767c0.459-0.459,0.613-1.225,0.613-2.297
		c0-0.995-0.153-1.685-0.613-2.221c-0.383-0.459-0.842-0.689-1.455-0.689h-0.076c-0.613,0-1.072,0.23-1.455,0.689
		c-0.307,0.46-0.536,1.226-0.536,2.298c0,1.072,0.229,1.761,0.613,2.22c0.383,0.537,0.842,0.767,1.378,0.767
		C140.93,25.304,140.93,25.304,140.93,25.304L140.93,25.304z M140.93,15.961c0.153,0.076,0.307,0.152,0.459,0.152
		c0.613,0.307,1.148,0.613,1.608,1.149V11.29h4.825v17.23h-4.519v-1.838c-0.613,0.766-1.149,1.303-1.685,1.532
		c-0.23,0.152-0.46,0.229-0.689,0.306c-0.459,0.153-0.995,0.23-1.608,0.23c-1.684,0-2.986-0.613-3.905-1.915
		c-0.843-1.303-1.302-2.833-1.302-4.671c0-2.067,0.459-3.676,1.455-4.749c0.996-1.072,2.221-1.685,3.752-1.685
		C139.935,15.731,140.47,15.807,140.93,15.961L140.93,15.961z M150.043,11.29h4.749v3.293h-4.749V11.29L150.043,11.29z
		 M150.043,16.037h4.749V28.52h-4.749V16.037L150.043,16.037z M109.302,25.993c0.459,0,0.918-0.153,1.378-0.383
		c0.23-0.153,0.536-0.383,0.843-0.766l4.671,0.46c-1.55,2.756-3.876,3.446-6.892,3.446c-0.077,0-0.077,0-0.077,0
		c-1.608,0-2.91-0.23-3.906-0.689c-0.919-0.46-1.685-1.226-2.297-2.221c-0.689-0.996-0.996-2.145-0.996-3.523
		c0-1.991,0.689-3.523,1.915-4.749c1.225-1.226,2.987-1.838,5.131-1.838c0.077,0,0.153,0,0.23,0
		c1.685,0.076,2.986,0.306,3.982,0.842c1.072,0.536,1.838,1.302,2.375,2.374c0.536,0.996,0.842,2.298,0.842,3.982v0.536h-7.199
		h-2.374c0.076,0.766,0.306,1.302,0.613,1.685C108,25.687,108.536,25.917,109.302,25.993L109.302,25.993z M117.802,16.037h4.519
		v2.068c0.383-0.919,0.842-1.532,1.302-1.838c0.459-0.306,0.996-0.536,1.685-0.536s1.455,0.23,2.297,0.689l-1.455,3.37
		c-0.536-0.229-0.996-0.307-1.302-0.307c-0.613,0-1.148,0.23-1.455,0.767c-0.537,0.688-0.766,2.067-0.766,4.058v4.212h-4.825V16.037
		L117.802,16.037z M127.758,11.29h4.748v3.293h-4.748V11.29L127.758,11.29z M127.758,16.037h4.748V28.52h-4.748V16.037
		L127.758,16.037z M81.119,11.29h6.969l2.757,10.492l2.68-10.492h6.893v17.23h-4.289V15.424L92.76,28.52h-3.906l-3.369-13.096V28.52
		h-4.366V11.29L81.119,11.29z"/>
</g>
</svg>
