<?xml version="1.0" encoding="utf-8"?>
<!-- Generator: Adobe Illustrator 23.0.5, SVG Export Plug-In . SVG Version: 6.00 Build 0)  -->
<svg version="1.1" id="Layer_1" xmlns="http://www.w3.org/2000/svg" xmlns:xlink="http://www.w3.org/1999/xlink" x="0px" y="0px"
	 viewBox="0 0 64 64" style="enable-background:new 0 0 64 64;" xml:space="preserve">
<style type="text/css">
	.st0{fill:none;stroke:#EC0000;stroke-width:3;stroke-linejoin:round;stroke-miterlimit:10;}
</style>
<path class="st0" d="M64,57c0,1-0.6,1.6-1.4,1.6c-55,0-55,0-55,0c-0.6,0-1.3-0.8-1.3-1.6c0-2.8,0-2.8,0-2.8c0-1,0.6-1.6,1.3-1.6
	c55,0,55,0,55,0c0.8,0,1.4,0.8,1.4,1.6V57z"/>
<path class="st0" d="M11.1,40c0,5.8,0,5.8,0,5.8c0,1,0.6,1.6,1.4,1.6c44.9,0,44.9,0,44.9,0c0.8,0,1.4-0.8,1.4-1.6V6.9
	c0-1-0.6-1.6-1.4-1.6c-44.8,0-44.8,0-44.8,0c-0.8,0-1.4,0.8-1.4,1.6c0,2,0,3.8,0,5.5"/>
<path class="st0" d="M14.7,13.4V9.7h40.5v34.5"/>
<path class="st0" d="M46.7,43h-32v-2.8"/>
<path class="st0" d="M20.5,18.6c1.3,2.3,2.1,5,2.1,8.1c0,7.6-5,13.9-11.4,13.9C5.1,40.6,0,34.4,0,26.7c0-7.5,5.2-13.8,11.4-13.8
	c2,0,3.8,0.8,5.6,1.6C6.9,26.7,6.9,26.7,6.9,26.7c8.3,0,8.3,0,8.3,0C5.4,38.6,5.4,38.6,5.4,38.6"/>
</svg>
