<?xml version="1.0" encoding="utf-8"?>
<!-- Generator: Adobe Illustrator 23.0.5, SVG Export Plug-In . SVG Version: 6.00 Build 0)  -->
<svg version="1.1" id="Layer_1" xmlns="http://www.w3.org/2000/svg" xmlns:xlink="http://www.w3.org/1999/xlink" x="0px" y="0px"
	 viewBox="0 0 64 64" style="enable-background:new 0 0 64 64;" xml:space="preserve">
<style type="text/css">
	.st0{fill:none;stroke:#EC0000;stroke-width:3;stroke-linejoin:round;stroke-miterlimit:10;}
</style>
<path class="st0" d="M65.1,54.2c0,0.9-0.6,1.6-1.3,1.6c-52.3,0-52.3,0-52.3,0c-0.6,0-1.2-0.7-1.2-1.6c0-2.6,0-2.6,0-2.6
	c0-0.9,0.6-1.6,1.2-1.6c52.3,0,52.3,0,52.3,0c0.7,0,1.3,0.7,1.3,1.6V54.2z"/>
<path class="st0" d="M14.9,33.3c0,10.3,0,10.3,0,10.3c0,0.9,0.6,1.6,1.3,1.6c42.7,0,42.7,0,42.7,0c0.7,0,1.3-0.7,1.3-1.6V6.8
	c0-0.9-0.6-1.6-1.3-1.6c-42.7,0-42.7,0-42.7,0c-0.7,0-1.3,0.7-1.3,1.6c0,4.5,0,8.4,0,11.7"/>
<path class="st0" d="M18.3,18.4v-9h38.5v32.7"/>
<path class="st0" d="M48.7,41H18.3v-7.1"/>
<path class="st0" d="M23.4,16.8c-2.8,0-3.1,1.9-6.7,1.9s-4.2-1.9-6.7-1.9c-5,0-9,4.2-9,9.3s4,9.3,9,9.3c2.6,0,4-1.9,6.7-1.9
	s4,1.9,6.7,1.9c4.9,0,9-4.2,9-9.3S28.4,16.8,23.4,16.8z"/>
<path class="st0" d="M19.4,26.2c0,2.1,2,3.9,4.6,3.9s4.7-1.7,4.7-3.9c0-2.1-2-3.9-4.7-3.9C21.4,22.3,19.4,24.2,19.4,26.2z"/>
<path class="st0" d="M4.6,26.1c0,2.1,2,3.9,4.7,3.9c2.5,0,4.6-1.7,4.6-3.9c0-2.1-2-3.9-4.6-3.9C6.6,22.1,4.6,24,4.6,26.1z"/>
</svg>
