<?xml version="1.0" standalone="no"?>
<!DOCTYPE svg PUBLIC "-//W3C//DTD SVG 20010904//EN"
 "http://www.w3.org/TR/2001/REC-SVG-20010904/DTD/svg10.dtd">
<svg version="1.0" xmlns="http://www.w3.org/2000/svg"
 width="213.000000pt" height="81.000000pt" viewBox="0 0 213.000000 81.000000"
 preserveAspectRatio="xMidYMid meet">
<metadata>
Created by potrace 1.10, written by Peter Selinger 2001-2011
</metadata>
<g transform="translate(0.000000,81.000000) scale(0.100000,-0.100000)"
fill="#4067a2" stroke="none">
<path d="M310 770 c0 -13 11 -13 30 0 12 8 11 10 -7 10 -13 0 -23 -4 -23 -10z"/>
<path d="M393 773 c4 -3 10 -3 14 0 3 4 0 7 -7 7 -7 0 -10 -3 -7 -7z"/>
<path d="M425 770 c3 -5 21 -10 38 -9 31 1 31 1 7 9 -36 11 -52 11 -45 0z"/>
<path d="M259 759 c-10 -6 -7 -9 14 -9 29 0 35 5 14 13 -8 3 -20 1 -28 -4z"/>
<path d="M360 740 c-12 -8 -9 -10 13 -10 16 0 26 4 22 10 -8 12 -16 12 -35 0z"/>
<path d="M499 734 c97 -30 89 -29 67 -5 -15 16 -30 21 -65 20 l-46 -1 44 -14z"/>
<path d="M200 720 c0 -19 2 -19 38 -6 20 8 44 17 52 19 8 3 -9 6 -37 6 -47 1
-53 -1 -53 -19z"/>
<path d="M413 723 c4 -3 10 -3 14 0 3 4 0 7 -7 7 -7 0 -10 -3 -7 -7z"/>
<path d="M456 721 c-3 -4 12 -17 33 -29 34 -19 40 -20 57 -7 10 8 17 15 14 15
-3 0 -26 7 -52 15 -26 7 -50 10 -52 6z"/>
<path d="M134 686 c-21 -18 -48 -49 -58 -67 l-20 -34 45 40 c24 22 54 47 66
55 15 10 20 20 15 28 -6 9 -19 3 -48 -22z"/>
<path d="M255 705 c-22 -8 -42 -15 -45 -15 -3 0 3 -5 13 -11 13 -8 24 -5 47
11 46 33 43 36 -15 15z"/>
<path d="M590 714 c0 -4 21 -28 48 -52 l47 -44 -53 37 c-45 32 -55 35 -70 24
-9 -7 -18 -14 -20 -15 -1 0 22 -25 52 -55 51 -51 56 -54 74 -39 23 18 23 47
-1 83 -17 27 -77 74 -77 61z"/>
<path d="M287 686 l-29 -23 24 -6 c12 -4 26 -7 29 -7 5 0 29 45 29 55 0 12
-28 2 -53 -19z"/>
<path d="M432 688 c8 -13 25 -24 37 -26 33 -5 25 13 -16 32 l-36 17 15 -23z"/>
<path d="M347 680 c-16 -22 -16 -25 -1 -28 21 -5 26 2 22 30 l-3 23 -18 -25z"/>
<path d="M390 675 c0 -14 6 -25 13 -25 21 0 27 11 16 31 -14 27 -29 23 -29 -6z"/>
<path d="M805 686 c-28 -20 -12 -42 44 -61 55 -18 62 -28 32 -45 -26 -13 -71
-13 -71 1 0 5 -5 7 -10 4 -23 -14 5 -27 47 -22 46 5 80 27 69 45 -3 6 -29 18
-56 27 -28 9 -50 20 -50 25 0 12 23 28 50 33 22 4 22 4 -6 6 -16 0 -39 -5 -49
-13z"/>
<path d="M169 663 c-33 -22 -89 -75 -89 -85 0 -4 14 -14 30 -23 16 -9 30 -11
30 -6 0 5 20 31 44 58 41 45 43 50 26 60 -13 9 -23 8 -41 -4z"/>
<path d="M493 652 c-13 -2 -23 -5 -23 -7 0 -1 13 -27 29 -57 15 -30 30 -61 33
-68 4 -12 13 -11 51 4 26 10 47 21 47 25 0 7 -75 81 -100 97 -8 5 -25 8 -37 6z"/>
<path d="M196 599 c-25 -28 -46 -55 -46 -59 0 -4 16 -11 36 -14 19 -4 41 -9
47 -12 8 -2 26 23 45 61 29 59 30 65 13 65 -11 0 -26 2 -34 6 -9 3 -32 -14
-61 -47z"/>
<path d="M294 577 c-32 -66 -27 -77 39 -77 l37 0 0 68 c0 64 -1 67 -24 67 -20
0 -30 -11 -52 -58z"/>
<path d="M390 570 l0 -70 59 0 c33 0 62 4 65 8 2 4 -9 36 -26 70 -29 58 -33
62 -64 62 l-34 0 0 -70z"/>
<path d="M933 624 c-7 -19 5 -43 30 -58 12 -8 23 -7 38 2 18 11 23 11 30 1 6
-10 12 -9 28 5 21 19 21 19 21 -17 0 -41 -14 -55 -37 -35 -14 11 -15 11 -11
-2 2 -8 16 -15 29 -15 22 0 24 4 27 63 3 59 2 62 -20 62 -12 0 -36 -14 -54
-31 -18 -17 -37 -28 -44 -24 -8 5 -8 10 1 21 6 7 9 21 5 29 -7 20 -35 19 -43
-1z m37 -9 c0 -8 -4 -15 -9 -15 -13 0 -22 16 -14 24 11 11 23 6 23 -9z m100
-4 c0 -5 -7 -14 -15 -21 -12 -10 -15 -10 -15 2 0 8 3 18 7 21 9 10 23 9 23 -2z"/>
<path d="M1220 625 c-11 -13 -15 -13 -21 -3 -6 8 -9 2 -9 -19 0 -17 5 -35 10
-38 6 -3 10 0 10 8 0 8 9 26 21 41 21 27 11 37 -11 11z"/>
<path d="M1357 632 c-25 -5 -17 -36 11 -40 31 -5 28 -20 -5 -25 -23 -3 -21 -4
9 -6 46 -1 58 15 21 31 -38 16 -39 18 -23 28 18 11 11 18 -13 12z"/>
<path d="M1283 623 c-16 -6 -17 -59 -3 -68 18 -11 41 16 38 43 -3 26 -14 34
-35 25z m25 -30 c-5 -25 -28 -28 -28 -4 0 12 6 21 16 21 9 0 14 -7 12 -17z"/>
<path d="M1117 613 c-4 -3 -7 -17 -7 -30 0 -24 14 -31 25 -13 5 8 12 7 23 -2
14 -11 15 -10 9 5 -4 10 -7 26 -7 35 0 13 -5 11 -21 -8 -20 -24 -21 -24 -16
-2 5 23 4 26 -6 15z"/>
<path d="M676 560 c-16 -17 -17 -23 -6 -50 13 -31 42 -55 54 -43 16 16 -4 114
-23 112 -3 0 -14 -9 -25 -19z"/>
<path d="M52 547 c-25 -50 -24 -66 4 -94 l28 -28 12 30 c26 65 25 70 -5 92
l-28 22 -11 -22z"/>
<path d="M588 511 c-69 -23 -61 -39 17 -37 36 0 65 2 65 3 0 9 -24 53 -29 52
-3 -1 -27 -9 -53 -18z"/>
<path d="M130 519 c0 -2 -7 -26 -15 -52 l-14 -48 32 -14 c18 -7 45 -17 59 -20
23 -6 26 -3 32 32 3 21 9 47 12 59 5 17 0 22 -24 27 -16 3 -41 9 -56 13 -14 3
-26 5 -26 3z"/>
<path d="M252 469 c-5 -13 -12 -40 -16 -60 -6 -35 -5 -37 25 -43 17 -3 49 -6
70 -6 l39 0 0 60 c0 56 -1 60 -24 60 -13 0 -37 3 -55 6 -26 5 -32 3 -39 -17z"/>
<path d="M443 483 l-53 -4 0 -62 0 -62 19 31 c12 19 40 41 70 55 49 23 69 51
34 47 -10 -1 -42 -3 -70 -5z"/>
<path d="M35 430 c7 -37 50 -140 59 -140 2 0 2 26 -1 58 -4 46 -11 63 -35 87
l-30 30 7 -35z"/>
<path d="M543 450 c-48 -11 -96 -43 -121 -81 -19 -27 -23 -43 -19 -81 2 -26
11 -58 21 -72 61 -93 287 -100 364 -11 54 61 55 129 1 190 -48 54 -152 78
-246 55z m121 -50 c40 -15 68 -67 62 -115 -7 -58 -51 -95 -112 -95 -39 0 -51
5 -80 34 -90 90 9 223 130 176z"/>
<path d="M923 453 l-43 -4 0 -155 0 -155 48 3 47 3 3 63 3 62 33 0 c39 0 57
-18 85 -82 20 -47 21 -48 66 -48 25 0 45 4 45 10 0 22 -49 119 -66 130 -16 9
-16 12 -5 17 28 11 61 52 61 76 0 24 -18 46 -56 65 -24 13 -158 22 -221 15z
m167 -63 c11 -11 20 -24 20 -28 0 -20 -42 -45 -85 -49 l-45 -6 0 52 0 51 45 0
c32 0 51 -6 65 -20z"/>
<path d="M1298 453 l-38 -4 0 -156 0 -156 119 5 c135 6 189 25 206 72 12 35
-1 56 -49 80 l-37 18 33 17 c28 13 33 21 33 51 0 30 -5 37 -36 53 -38 18 -161
29 -231 20z m163 -53 c45 -25 1 -70 -68 -70 l-43 0 0 40 0 40 46 0 c25 0 54
-5 65 -10z m12 -138 c39 -34 0 -72 -75 -72 l-48 0 0 43 c0 24 3 47 7 51 11 11
96 -5 116 -22z"/>
<path d="M1895 451 c-44 -11 -73 -29 -85 -51 -27 -50 3 -84 105 -119 64 -21
81 -31 83 -48 5 -32 -31 -46 -97 -40 -31 3 -63 8 -72 12 -12 4 -18 -1 -23 -21
-4 -14 -4 -29 -1 -33 4 -3 52 -6 108 -6 112 0 159 15 179 60 25 56 -9 91 -121
125 -65 19 -86 44 -56 66 15 12 35 14 86 10 63 -6 67 -5 72 16 4 12 5 24 3 26
-8 8 -153 11 -181 3z"/>
<path d="M1642 298 l3 -153 48 -3 47 -3 0 155 0 156 -50 0 -51 0 3 -152z"/>
<path d="M100 373 c0 -45 26 -123 47 -139 19 -15 89 -54 97 -54 3 0 -1 15 -9
34 -8 19 -16 59 -17 90 -3 55 -3 56 -43 70 -22 8 -48 17 -57 21 -15 6 -18 2
-18 -22z"/>
<path d="M230 315 c0 -23 7 -64 15 -92 15 -50 16 -52 66 -62 27 -6 52 -11 54
-11 3 0 5 42 5 93 l0 93 -70 10 -70 10 0 -41z"/>
<path d="M390 190 c0 -31 4 -40 18 -40 37 0 41 14 11 48 l-29 32 0 -40z"/>
</g>
</svg>
