<?xml version="1.0" encoding="utf-8"?>
<!-- Generator: Adobe Illustrator 23.0.5, SVG Export Plug-In . SVG Version: 6.00 Build 0)  -->
<svg version="1.1" id="Capa_1" xmlns="http://www.w3.org/2000/svg" xmlns:xlink="http://www.w3.org/1999/xlink" x="0px" y="0px"
	 viewBox="0 0 64 64" style="enable-background:new 0 0 64 64;" xml:space="preserve">
<style type="text/css">
	.st0{fill:none;stroke:#EC0000;stroke-width:1.5;stroke-linejoin:round;stroke-miterlimit:10;}
	.st1{fill:#FFFFFF;stroke:#EC0000;stroke-width:1.5;stroke-miterlimit:10;}
	.st2{fill:none;stroke:#EC0000;stroke-width:1.5;stroke-linecap:round;stroke-linejoin:round;stroke-miterlimit:10;}
</style>
<path class="st0" d="M14.3,35.7l-3-2.9c-0.4-0.4-0.4-1.2,0-1.6L22,20.7c0.4-0.4,1.2-0.4,1.6,0l3,2.9c0.4,0.4,0.4,1.2,0,1.6L16,35.7
	C15.5,36.1,14.8,36.1,14.3,35.7z"/>
<path class="st0" d="M49.9,33.8l2.8-3.1c0.4-0.5,0.4-1.2-0.1-1.6l-11.3-9.9c-0.5-0.4-1.2-0.4-1.6,0.1l-2.8,3.1
	c-0.4,0.5-0.4,1.2,0.1,1.6l11.3,9.9C48.7,34.3,49.5,34.3,49.9,33.8z"/>
<path class="st0" d="M36.6,23.6L25.4,35.3c0,0,3,4.4,10-2.4c0,0,9.5,8.5,10.6,9.4c2,1.6-0.3,5.1-3,2.8C41.9,44,41,43.2,41,43.2
	s2.6,2.3,3,2.6c1.5,1.3-1,4.9-3.2,2.8C38.6,46.5,38,46,38,46s0.9,0.9,2.1,2.1c1.2,1.2-1,4.9-3.7,2.2c-2.6-2.7-2.2-2.2-2.2-2.2
	s0.5,0.6,2,2.1c1.5,1.5-1.5,3.5-3,2.1C32.5,52,32,51.5,32,51.5"/>
<path class="st0" d="M17.7,44.9c-0.8-0.8-0.8-2,0-2.8l2.9-2.9c0.8-0.8,2.1-0.8,2.9,0c0.8,0.8,0.8,2,0,2.8l-2.9,2.9
	C19.8,45.6,18.5,45.6,17.7,44.9z"/>
<path class="st0" d="M20.3,48.2c-0.8-0.8-0.8-2,0-2.8l3.3-3.3c0.8-0.8,2.1-0.8,2.9,0c0.8,0.8,0.8,2,0,2.8l-3.3,3.3
	C22.3,49,21,49,20.3,48.2z"/>
<path class="st0" d="M24.1,50c-0.8-0.8-0.8-2,0-2.8l2.3-2.3c0.8-0.8,2.1-0.8,2.9,0c0.8,0.8,0.8,2,0,2.8L27,50
	C26.2,50.8,24.9,50.8,24.1,50z"/>
<path class="st0" d="M27.4,52.4c-0.8-0.8-0.8-2,0-2.8l1.4-1.3c0.8-0.8,2.1-0.8,2.9,0c0.8,0.8,0.8,2,0,2.8l-1.4,1.3
	C29.5,53.2,28.2,53.2,27.4,52.4z"/>
<path class="st0" d="M26.3,25.1c2.5,1.6,5.6,3.2,9.3-0.5"/>
<path class="st0" d="M16,35.7l3.9,4.2"/>
<path class="st0" d="M48.5,34.1l-5,6"/>
<path class="st1" d="M50.5,33c4.1,0,7.5-3.4,7.5-7.5c0-4.1-3.4-7.5-7.5-7.5c-4.1,0-7.5,3.4-7.5,7.5C43,29.6,46.4,33,50.5,33z"/>
<path class="st2" d="M50.5,22.2v6.5"/>
<path class="st2" d="M53.8,25.5h-6.5"/>
</svg>
