<?xml version="1.0" encoding="utf-8"?>
<!-- Generator: Adobe Illustrator 15.0.0, SVG Export Plug-In . SVG Version: 6.00 Build 0)  -->
<!DOCTYPE svg PUBLIC "-//W3C//DTD SVG 1.1//EN" "http://www.w3.org/Graphics/SVG/1.1/DTD/svg11.dtd">
<svg version="1.1" id="Layer_1" xmlns="http://www.w3.org/2000/svg" xmlns:xlink="http://www.w3.org/1999/xlink" x="0px" y="0px"
	 width="181.945px" height="60.64px" viewBox="0 0 181.945 60.64" enable-background="new 0 0 181.945 60.64" xml:space="preserve">
<path fill="#A7206E" d="M22.696,31.156l2.998-7.137l2.998-7.137l2.998,7.137l2.284,5.139h12.99
	c-1.428-8.707-9.136-15.559-18.414-15.559c-10.277,0-18.699,8.565-18.699,18.985c0,0.714,0,1.427,0.143,1.999h24.695l-2.998,6.566
	l-2.998,6.423l-2.998-6.566l-2.569-5.139H10.278c1.427,8.85,9.136,15.559,18.271,15.559c10.278,0,18.699-8.422,18.699-18.842v-1.427
	H22.696L22.696,31.156z"/>
<path fill="#A7206E" d="M85.218,13.599h-4.425l-5.282,15.987h3.997l0.999-3.283h4.996l0.999,3.283h4.14L85.218,13.599L85.218,13.599
	z M81.364,23.448l1.57-5.282l1.57,5.282H81.364L81.364,23.448z"/>
<path fill="#A7206E" d="M157.589,23.733h1.427l4.425,5.853h4.854l-5.424-6.852c0.856-0.428,1.713-0.999,2.141-1.855
	c0.571-0.714,0.856-1.713,0.856-2.998c0-0.856-0.143-1.57-0.571-2.141c-0.286-0.571-0.856-0.999-1.428-1.427
	c-0.571-0.285-1.142-0.571-1.855-0.714c-0.714-0.143-1.427-0.143-2.284-0.143h-6.424v15.987h3.997v-5.71H157.589z M157.589,16.596
	h1.285h1.142c0.285,0,0.571,0.143,0.856,0.143c0.285,0.143,0.571,0.428,0.713,0.713c0.143,0.286,0.286,0.571,0.286,1
	s0,0.856-0.143,1.142c-0.143,0.285-0.286,0.571-0.571,0.713c-0.285,0.286-0.571,0.428-0.999,0.428
	c-0.428,0.143-0.856,0.143-1.427,0.143h-1.142V16.596z"/>
<path fill="#A7206E" d="M140.888,29.872c2.427,0,4.282-0.714,5.709-2.284c1.428-1.427,1.999-3.568,1.999-6.138
	s-0.714-4.568-1.999-6.138c-1.427-1.427-3.283-2.284-5.709-2.284c-2.426,0-4.282,0.714-5.709,2.284
	c-1.428,1.428-1.999,3.569-1.999,6.138s0.713,4.568,1.999,5.995C136.605,29.158,138.461,29.872,140.888,29.872z M137.605,19.166
	c0.143-0.714,0.428-1.285,0.856-1.713s0.713-0.713,1.142-0.999c0.428-0.143,0.856-0.286,1.285-0.286s0.856,0.143,1.285,0.286
	c0.428,0.286,0.856,0.714,1.285,1.142c0.286,0.428,0.571,0.999,0.714,1.713c0.143,0.714,0.285,1.427,0.285,2.427
	c0,0.999-0.143,1.855-0.285,2.427c-0.143,0.571-0.428,0.999-0.714,1.57c-0.286,0.428-0.714,0.714-1.142,0.999
	c-0.428,0.143-0.856,0.286-1.427,0.286c-0.428,0-0.856-0.143-1.285-0.286c-0.428-0.285-0.856-0.571-1.285-0.999
	c-0.285-0.428-0.571-0.999-0.856-1.57c-0.143-0.714-0.285-1.428-0.285-2.427C137.319,20.736,137.462,19.879,137.605,19.166
	L137.605,19.166z"/>
<path fill="#A7206E" d="M67.661,20.308c-0.571-0.143-1.142-0.285-1.57-0.428c-0.571-0.143-0.999-0.285-1.57-0.285
	c-0.856-0.143-1.427-0.428-1.713-0.714c-0.285-0.286-0.428-0.571-0.428-1c0-0.285,0.143-0.571,0.286-0.713
	c0.143-0.286,0.428-0.428,0.714-0.571c0.285-0.143,0.571-0.285,0.856-0.285c0.285,0,0.571-0.143,0.999-0.143
	c0.856,0,1.713,0.143,2.569,0.571c0.856,0.285,1.57,0.713,2.141,1.285h0.286v-3.569c-0.714-0.285-1.57-0.571-2.569-0.713
	c-1-0.143-1.856-0.286-2.855-0.286c-1.855,0-3.426,0.428-4.71,1.427c-1.285,0.856-1.856,2.141-1.856,3.569
	c0,1.142,0.286,1.999,0.857,2.712c0.571,0.714,1.427,1.285,2.712,1.713c0.428,0.143,0.999,0.428,1.713,0.428l1.713,0.428
	c0.428,0.143,0.856,0.286,1.142,0.571c0.285,0.285,0.428,0.571,0.428,0.999s-0.143,0.714-0.286,0.856
	c-0.143,0.286-0.428,0.428-0.714,0.571c-0.285,0.143-0.571,0.143-0.856,0.286c-0.428,0-0.713,0.143-0.856,0.143
	c-0.856,0-1.855-0.143-2.854-0.571c-1-0.428-1.856-0.856-2.57-1.57h-0.428v3.854c0.857,0.286,1.713,0.714,2.57,0.856
	c0.856,0.286,1.998,0.286,3.14,0.286c2.141,0,3.854-0.428,4.996-1.427c1.285-1,1.855-2.284,1.855-3.854
	c0-1.142-0.285-1.999-0.856-2.712C69.516,21.307,68.66,20.736,67.661,20.308L67.661,20.308z"/>
<polygon fill="#A7206E" points="100.063,18.452 106.201,29.586 110.055,29.586 110.055,13.599 106.344,13.599 106.344,22.734 
	101.205,13.599 96.352,13.599 96.352,29.586 100.063,29.586 "/>
<path fill="#A7206E" d="M122.902,29.872c0.714,0,1.428,0,1.856-0.143c0.428-0.143,0.856-0.143,1.427-0.285
	c0.428-0.143,0.856-0.286,1.142-0.428c0.428-0.143,0.713-0.286,0.999-0.428v-3.854h-0.428c-0.143,0.143-0.428,0.428-0.714,0.571
	c-0.285,0.286-0.571,0.428-0.999,0.714c-0.286,0.143-0.714,0.428-1.142,0.571s-0.999,0.286-1.57,0.286c-0.571,0-1-0.143-1.57-0.286
	s-0.999-0.428-1.427-0.856s-0.714-0.999-0.999-1.57c-0.286-0.714-0.428-1.57-0.428-2.57c0-0.999,0.143-1.713,0.428-2.426
	c0.285-0.714,0.571-1.285,0.999-1.713s0.856-0.713,1.427-0.999c0.428-0.143,0.999-0.286,1.57-0.286c0.428,0,0.999,0.143,1.427,0.286
	s0.856,0.286,1.285,0.571c0.286,0.286,0.714,0.571,0.999,0.856c0.286,0.286,0.571,0.429,0.714,0.571h0.428v-3.854
	c-0.286-0.143-0.571-0.286-0.999-0.428s-0.856-0.286-1.142-0.428c-0.428-0.143-0.999-0.286-1.427-0.286
	c-0.714-0.143-1.285-0.143-1.856-0.143c-2.426,0-4.282,0.714-5.709,2.284c-1.427,1.57-2.141,3.569-2.141,5.995
	c0,2.57,0.714,4.71,2.141,6.138C118.62,29.158,120.476,29.872,122.902,29.872z"/>
<path fill="#A7206E" d="M67.661,42.147c-0.571-0.143-1.142-0.428-1.57-0.428c-0.571-0.143-0.999-0.286-1.57-0.286
	c-0.856-0.143-1.427-0.428-1.713-0.713c-0.285-0.286-0.428-0.571-0.428-1c0-0.285,0.143-0.571,0.286-0.714
	c0.143-0.285,0.428-0.428,0.714-0.571c0.285-0.143,0.571-0.286,0.856-0.286h0.999c0.856,0,1.713,0.143,2.569,0.571
	c0.856,0.285,1.57,0.714,2.141,1.285h0.286v-3.711c-0.714-0.286-1.57-0.571-2.569-0.714c-1-0.143-1.856-0.286-2.855-0.286
	c-1.855,0-3.426,0.428-4.71,1.428c-1.285,0.856-1.856,2.141-1.856,3.569c0,1.142,0.286,1.998,0.857,2.712
	c0.571,0.714,1.427,1.285,2.712,1.713l1.713,0.428l1.713,0.428c0.428,0.143,0.856,0.286,1.142,0.571
	c0.285,0.285,0.428,0.571,0.428,0.999S66.661,47.857,66.519,48c-0.143,0.286-0.428,0.428-0.714,0.571
	c-0.285,0.143-0.571,0.143-0.856,0.286h-0.856c-0.856,0-1.855-0.143-2.854-0.571c-1-0.428-1.856-0.856-2.57-1.57h-0.428v3.711
	c0.857,0.285,1.713,0.713,2.57,0.856c0.856,0.285,1.998,0.285,3.14,0.285c2.141,0,3.854-0.428,4.996-1.427
	c1.285-0.999,1.855-2.284,1.855-3.854c0-1.142-0.285-1.999-0.856-2.712C69.516,43.147,68.66,42.576,67.661,42.147L67.661,42.147z"/>
<path fill="#A7206E" d="M164.869,42.147c-0.571-0.143-1.142-0.428-1.57-0.428c-0.428-0.143-0.999-0.286-1.57-0.286
	c-0.856-0.143-1.428-0.428-1.713-0.713c-0.286-0.286-0.428-0.571-0.428-1c0-0.285,0.143-0.571,0.285-0.714
	c0.143-0.285,0.428-0.428,0.714-0.571c0.285-0.143,0.571-0.286,0.856-0.286h0.999c0.856,0,1.713,0.143,2.569,0.571
	c0.856,0.285,1.57,0.714,2.141,1.285h0.286v-3.711c-0.714-0.286-1.57-0.571-2.569-0.714c-1-0.143-1.856-0.286-2.855-0.286
	c-1.855,0-3.426,0.428-4.71,1.428c-1.285,0.856-1.856,2.141-1.856,3.569c0,1.142,0.286,1.998,0.857,2.712
	c0.571,0.714,1.427,1.285,2.712,1.713l1.713,0.428l1.713,0.428c0.428,0.143,0.856,0.286,1.142,0.571
	c0.285,0.285,0.428,0.571,0.428,0.999s-0.143,0.714-0.286,0.856c-0.143,0.286-0.428,0.428-0.714,0.571
	c-0.285,0.143-0.571,0.143-0.856,0.286H161.3c-0.856,0-1.855-0.143-2.854-0.571c-1-0.428-1.856-0.856-2.57-1.57h-0.428v3.711
	c0.857,0.285,1.713,0.713,2.57,0.856c0.856,0.285,1.998,0.285,3.14,0.285c2.141,0,3.854-0.428,4.996-1.427
	c1.285-0.999,1.855-2.284,1.855-3.854c0-1.142-0.286-1.999-0.856-2.712C166.724,43.147,165.868,42.576,164.869,42.147
	L164.869,42.147z"/>
<path fill="#A7206E" d="M145.456,35.153c-2.427,0-4.282,0.714-5.709,2.284c-1.428,1.428-1.999,3.569-1.999,6.139
	c0,2.569,0.714,4.567,1.999,5.995c1.427,1.427,3.283,2.284,5.709,2.284c2.426,0,4.282-0.714,5.709-2.284
	c1.427-1.428,1.999-3.569,1.999-6.138s-0.714-4.568-1.999-6.138C149.738,35.867,147.882,35.153,145.456,35.153L145.456,35.153z
	 M148.738,45.859c-0.143,0.571-0.428,1.142-0.856,1.57c-0.285,0.428-0.713,0.713-1.142,0.999c-0.428,0.143-0.856,0.286-1.428,0.286
	c-0.428,0-0.856-0.143-1.285-0.286s-0.856-0.571-1.142-0.999c-0.286-0.428-0.571-1-0.856-1.57c-0.143-0.714-0.286-1.427-0.286-2.427
	c0-0.999,0.143-1.713,0.286-2.427c0.143-0.713,0.428-1.285,0.856-1.713s0.713-0.714,1.142-1c0.428-0.143,0.856-0.285,1.285-0.285
	s0.856,0.143,1.285,0.285c0.428,0.143,0.856,0.429,1.142,1c0.286,0.428,0.571,1,0.856,1.713c0.143,0.714,0.286,1.428,0.286,2.427
	C149.024,44.432,148.881,45.288,148.738,45.859z"/>
<path fill="#A7206E" d="M133.608,42.861c0.571-0.714,0.856-1.713,0.856-2.998c0-0.856-0.143-1.57-0.571-2.141
	c-0.285-0.571-0.856-0.999-1.427-1.427c-0.571-0.286-1.142-0.571-1.856-0.714c-0.713-0.143-1.427-0.143-2.284-0.143h-6.423v15.987
	h3.997v-5.853h1.428l4.425,5.853h4.854l-5.424-6.852C132.323,44.146,133.037,43.575,133.608,42.861L133.608,42.861z M130.039,41.434
	c-0.143,0.286-0.286,0.571-0.571,0.714c-0.286,0.286-0.571,0.428-1,0.428s-0.856,0.143-1.427,0.143h-1.142v-4.283h1.285h1.142
	c0.286,0,0.571,0.143,0.856,0.143c0.286,0.143,0.571,0.428,0.714,0.714c0.143,0.286,0.285,0.571,0.285,1
	C130.325,40.863,130.182,41.148,130.039,41.434z"/>
<path fill="#A7206E" d="M94.211,45.716h3.14v3.14H96.78h-0.571c-1.57,0-2.855-0.428-3.854-1.285
	c-0.999-0.856-1.427-2.284-1.427-4.14c0-0.856,0.143-1.57,0.428-2.284s0.571-1.142,0.999-1.57s1-0.714,1.57-1
	c0.571-0.286,1.142-0.286,1.856-0.286c0.571,0,1.142,0.143,1.713,0.286c0.571,0.143,0.999,0.428,1.427,0.571
	c0.285,0.143,0.713,0.428,0.999,0.713c0.428,0.286,0.571,0.429,0.856,0.571h0.428v-3.711c-0.856-0.428-1.713-0.714-2.569-1
	c-0.856-0.285-1.855-0.428-3.283-0.428c-2.57,0-4.568,0.714-6.139,2.284c-1.427,1.57-2.284,3.569-2.284,5.996
	c0,2.712,0.714,4.71,2.284,6.138c1.428,1.427,3.426,2.141,5.996,2.141c1.142,0,2.141-0.143,3.283-0.428
	c1.142-0.286,1.998-0.571,2.712-0.856v-7.851h-6.994V45.716L94.211,45.716z"/>
<path fill="#A7206E" d="M114.195,45.431c0,1.142-0.143,1.999-0.714,2.569c-0.428,0.571-1.142,0.714-1.999,0.714
	c-0.999,0-1.57-0.286-1.999-0.856c-0.428-0.571-0.571-1.428-0.571-2.427v-9.992h-3.997v10.135c0,1.999,0.571,3.569,1.713,4.568
	c1.142,0.999,2.854,1.57,4.996,1.57c2.141,0,3.854-0.571,4.996-1.57c1.142-0.999,1.713-2.569,1.713-4.568V35.438h-3.997v9.992
	H114.195z"/>
<polygon fill="#A7206E" points="73.656,51.426 84.504,51.426 84.504,48.428 77.652,48.428 77.652,44.289 83.933,44.289 
	83.933,41.291 77.652,41.291 77.652,38.579 84.504,38.579 84.504,35.438 73.656,35.438 "/>
</svg>
