<svg id="Layer_1" data-name="Layer 1" xmlns="http://www.w3.org/2000/svg" viewBox="0 0 319.76 170.28"><defs><style>.cls-1{fill:#ed1d23;}.cls-2{fill:#223e92;}.cls-3{fill:#fff;}</style></defs><title>zurich-santander</title><rect class="cls-1" y="80.78" width="319.76" height="89.5"/><path class="cls-2" d="M187,416.72a37.45,37.45,0,0,1-65,25.38c5.17-3.62,20.06-2.81,24.11-1.39,25.13,7.68,28.66-14.33,28.66-14.33h-2.28c-4.57,15.16-27.83,8.93-31.16,8.93a18,18,0,0,0-5.6.83l31.36-42H128l-3.33,11,2.49,1c2.91-8.1,13.29-7.89,13.29-7.89h10.8l-31.67,40.92A37.47,37.47,0,1,1,187,416.72h0Zm30.32-14H226L202,436h32.55l4.63-9c-4.4,4.06-15.23,4.06-15.23,4.06h-9l23.62-33.67H208.46l-3.66,8.29c4.57-3,12.52-3,12.52-3h0Zm26.5-5.25s2.26,1.69,2.26,5.75v23.35s1,11.17,16.58,11.17,15.74-12.35,15.74-12.35V400.82s0-3.21,2.3-3.38H269.37s2.26,0,2.26,3.55v22.84s-0.51,8.46-8.8,8.46-9.31-7.79-9.31-7.79V402.85s0-5.41,1.8-5.41H243.83ZM321.65,436c-9.37,3-15.16-4.9-15.16-4.9L298,419.94h-1v11.33c0.17,4.4,2.3,4.74,2.3,4.74H286.63c2.64,0,3.28-4.74,3.28-4.74V403a7,7,0,0,0-2.27-5.58h14.72s13.77,0.17,13.77,10.83c0,8.63-10,10.83-10,10.83,12,15.4,15.5,16.92,15.5,16.92h0Zm-13.47-27.58c0-7.1-11-6.09-11-6.09v14s11,1,11-8h0Zm17.36-11s2.26,0.17,2.26,6.09v26.9s0,5.58-2.77,5.58h11.51s-2,0-2-6.09V403.53s0-6.09,2.47-6.09H325.55Zm49.81,8v-7.11a26.69,26.69,0,0,0-9.31-1.69c-7.78,0-23.18,3.21-23.18,21.32s17.59,20,20.64,20,9-1.19,11.5-2.71v-7.61s-2.71,4.4-10.49,4.4-13.87-6.76-13.87-14.38,6.09-15.4,14.72-15.4a15.58,15.58,0,0,1,10,3.21h0Zm39.93,24.53V403.53s0-6.09,2.47-6.09h-11.5s2.26,0.17,2.26,6.09v10H391.09v-10s0-6.09,2.47-6.09h-11.5s2.26,0.17,2.26,6.09v26.9s0,5.58-2.77,5.58h11.5s-2,0-2-6.09V418.58h17.43v11.84s0,5.58-2.77,5.58h11.5s-2,0-2-6.09h0Z" transform="translate(-103 -379.23)"/><path id="_Path_" data-name="&lt;Path&gt;" class="cls-3" d="M191,520.89v-9.13h1.31c0.81,4.15,3.45,8,8,8.51,3.22-.13,5.5-0.69,7.28-3.62a11.35,11.35,0,0,1,.36-1.4c-0.06-2.15-.09-2.69-1.27-4.53l-1.24-1.17c-5.69-3.83-12.83-4.77-14.26-12.3,0.17-4.87,1.78-7.13,6.17-9.42a10.63,10.63,0,0,0,2.61-.65,28.26,28.26,0,0,1,11.21,1.56V497h-1.31c-0.82-4.35-2.88-7-7.28-7.8-2.47.08-3.87,0.38-5.7,2.17-2.11,3.45-.53,6.11,2.41,8.17l7.83,4.17c4.72,3.47,6,6.26,4.76,12.07a19.88,19.88,0,0,1-1.44,2.54,12.73,12.73,0,0,1-8.39,4.08c-0.66,0-6.55.3-7.33-.48A19.37,19.37,0,0,1,191,520.89Z" transform="translate(-103 -379.23)"/><path id="_Compound_Path_" data-name="&lt;Compound Path&gt;" class="cls-3" d="M294.42,499.59c-1.07.08-2.32,0.5-3,.5-3.75,1.67-7.73,4-5.42,8.4,1.05,0,2.31-.81,3.28-1.23a0.85,0.85,0,0,0-.27-0.64c0-1.07-.45-1.79.14-2.82,1.48-1.65,3.34-2.32,5.4-1.3,1.87,2.06,1.68,3.69,1.78,6.47-4.91,1.77-15,3.64-11.09,11.13,1.51,1.73,2.87,2,5.05,2.14,2.32-.28,4.29-1.88,6.17-3.12a4.45,4.45,0,0,0,1.68,3.07c2.24-.84,4.47-1.65,6.72-2.48,0-.5.05-1,0.07-1.5a7.88,7.88,0,0,1-3.08.48,2.55,2.55,0,0,1-.71-1.78v-11.2A6.37,6.37,0,0,0,296,500,2,2,0,0,0,294.42,499.59Zm1.82,11v7.1c-2.72,2.14-6.89,2.68-7.33-1.8C289.22,512.55,293.72,511.61,296.24,510.54Z" transform="translate(-103 -379.23)"/><path id="_Compound_Path_2" data-name="&lt;Compound Path&gt;" class="cls-3" d="M355.71,483.92c-2.8.23-5.9,2.1-8.49,3.19,0,0.5,0,1,0,1.5,1.17-.33,3.44-1.32,3.71.59H351v11.41h-0.14c-5.46-2.36-11-.36-14.55,4a5.2,5.2,0,0,0-1,2c-4.06,9.77,4.89,19.54,14.55,13.61l1.14-1a2,2,0,0,1,.48,1.21,9,9,0,0,0,1.37,1.75l6.92-2.41c0-.52-0.06-1-0.09-1.52a3.71,3.71,0,0,0-1.35.5c-1.92-.09-2.36-0.21-2.48-2.23Q355.78,500.21,355.71,483.92Zm-8.84,17.92a4.85,4.85,0,0,1,4,2.41V517a6.88,6.88,0,0,1-1.94,1.71,3,3,0,0,0-1.32.43,8.36,8.36,0,0,1-5.46-1.37,10.07,10.07,0,0,1-1.64-2.07c-2-4.65-1.63-11,3.32-13.43A10.68,10.68,0,0,1,346.88,501.84Z" transform="translate(-103 -379.23)"/><path id="_Compound_Path_3" data-name="&lt;Compound Path&gt;" class="cls-3" d="M373.61,499.68c-0.77,0-1.59,0-2,0l-0.11.14a10.84,10.84,0,0,0-4.05,1.23,14.89,14.89,0,0,0-3.71,3.53c-0.39.67-1.43,2.13-1.43,3.05-0.12.13-.12,0.53-0.25,0.66-0.88,6.3,1,10.78,6.83,13.43,4.53,0.76,8.58.65,12.22-2.71,0-.67.05-1.32,0.09-2-3.06,1.75-5.45,2.64-9.06,1.64-4.24-1.83-5.1-5.17-5.26-9.34,0-.06-0.06-0.07,14.91-0.14,0.08-4.53-2-7.75-6.4-9.13A3,3,0,0,0,373.61,499.68Zm-1.14,2.1a5.16,5.16,0,0,1,2.3.73,5.74,5.74,0,0,1,1.94,4.65l-9.56,0c-0.38-1.33,1.11-3.23,1.75-4.17A5.53,5.53,0,0,1,372.47,501.77Z" transform="translate(-103 -379.23)"/><path id="_Path_2" data-name="&lt;Path&gt;" class="cls-3" d="M269.89,502.76l-3.52-.06c0-.42,0-0.83,0-1.25,3.33-1.75,5.67-3.57,7.44-7l0.93-.07q0.06,3.1.13,6.2l7.44,0.07v0.2a18,18,0,0,1-.79,1.82h-6.65q0,6.32-.07,12.66c0.43,3,2.34,3.66,5.16,3.19a5,5,0,0,1,1.69-.56c0.2,0.37.2,0.63,0.46,1.08q-2.13,1.37-4.25,2.74c-2.93.29-4.67,0-6.72-2.29a10.16,10.16,0,0,1-1.15-3.35q-0.05-6.71-.09-13.4h0Z" transform="translate(-103 -379.23)"/><path id="_Path_3" data-name="&lt;Path&gt;" class="cls-3" d="M239.24,521.68h11.48v0.13H239.24v-0.13Z" transform="translate(-103 -379.23)"/><path id="_Path_4" data-name="&lt;Path&gt;" class="cls-3" d="M247.46,504.91q0,6.85-.07,13.7c0,1.36,2.3,2,3.33,2v1.11H239.24v-1.11c0.95,0,3.2-.59,3.2-1.82V505c0-1.84-2.21-1.15-3.2-.91,0-.5.06-1,0.09-1.48,2.46-1.06,5.18-2.77,7.86-3,0,1.13.08,2.25,0.13,3.39,3.43-2.77,6.13-4.46,10.56-2.54a7.79,7.79,0,0,1,3.59,6.2v11.87a3.27,3.27,0,0,0,3.39,2c0,0.39,0,.78-0.07,1.17H253.32c0-.39,0-0.79-0.07-1.17a4.06,4.06,0,0,0,3.27-1.57q0-6.11,0-12.23a6.41,6.41,0,0,0-1.15-3c-0.94-.52-3.44-1.8-4.43-0.81a10.05,10.05,0,0,0-3.52,2h0Z" transform="translate(-103 -379.23)"/><path id="_Path_5" data-name="&lt;Path&gt;" class="cls-3" d="M309.61,518.61V505c0-2.07-2.31-.91-3.26-0.91V502.7c2.5-1.07,5.3-2.81,8-3,0,1.13.08,2.25,0.13,3.39,2.71-2.3,4.41-3.44,8-3.3l1.87,0.42a7.93,7.93,0,0,1,4.24,6.53q0,6,.07,12c0.49,1.4,1.94,1.82,3.32,1.82,0,0.39,0,.78-0.06,1.17H320.51c0-.39,0-0.79-0.07-1.17A4,4,0,0,0,323.7,519V506.09a17.22,17.22,0,0,1-.78-1.83c-2.57-2.86-5.75-1.17-8.28.66q0,6.92-.07,13.83a3.38,3.38,0,0,0,3.33,1.82v1.11l-11.48.06c0-.39,0-0.79-0.06-1.17,1.34,0,2.93-.55,3.26-2h0Z" transform="translate(-103 -379.23)"/><path id="_Path_6" data-name="&lt;Path&gt;" class="cls-3" d="M401.24,500v5.21l-1,.06c-1.18-3.31-4.65-2.29-6.65-.14-0.25.39-.49,0.79-0.73,1.18q0,6.13-.06,12.26c0.82,1.64,2.48,2,4.24,2v1.11l-12.27.06c0-.39,0-0.79-0.06-1.17a3.67,3.67,0,0,0,3.14-1.57q0-7,0-14.06c-0.52-1.57-1.91-1.27-3.16-.81,0-.51,0-1,0-1.51,2.46-1.05,5.17-2.73,7.85-2.92,0,1.5.06,3,.1,4.51,2.06-3.42,4.39-5.43,8.5-4.18h0Z" transform="translate(-103 -379.23)"/><path id="_Path_7" data-name="&lt;Path&gt;" class="cls-3" d="M191,511.77v9.13h-0.13v-9.13H191Z" transform="translate(-103 -379.23)"/><path id="_Compound_Path_4" data-name="&lt;Compound Path&gt;" class="cls-3" d="M237.62,518.29a7.36,7.36,0,0,1-2.8.39,2.59,2.59,0,0,1-.57-2.15v-11h-0.14c-0.93-4.38-3.9-5.9-8.13-5.84a13.48,13.48,0,0,0-6.79,3.56c-1.38,1.91-1.19,3.29-.16,5.24a13,13,0,0,0,3.4-1.27V507c-1.08-.81-0.71-1.8-0.56-2.74,1.37-2,3.34-2.89,5.59-1.76,1.88,2,1.63,3.73,1.72,6.46-3.64,1.3-7.55,2.24-10.65,4.63-1.11,1.5-1.12,1.76-1.25,1.89-0.1,2.24-.19,3.58,1.37,5.29,3.75,3,7.13.68,10.63-1.64A4.49,4.49,0,0,0,231,522.2l6.73-2.49C237.66,519.23,237.64,518.76,237.62,518.29Zm-8.75-.59c-2.15,1.32-4.75,2.69-6.84.05-0.69-2.54-.45-3.71,1.79-5.08a43.06,43.06,0,0,0,5-2.15v7.18Z" transform="translate(-103 -379.23)"/><path id="_Path_8" data-name="&lt;Path&gt;" class="cls-3" d="M296.25,517.64v-7.11h0.13v7.11h-0.13Z" transform="translate(-103 -379.23)"/><path id="_Path_9" data-name="&lt;Path&gt;" class="cls-3" d="M350.9,517V504.26H351V517H350.9Z" transform="translate(-103 -379.23)"/><path id="_Path_10" data-name="&lt;Path&gt;" class="cls-3" d="M274.79,515.36q0-6.34.07-12.66v0.06q0,6.3-.07,12.59h0Z" transform="translate(-103 -379.23)"/><path id="_Path_11" data-name="&lt;Path&gt;" class="cls-3" d="M366.88,509.35c0-.06,0-0.06,14.93-0.13Z" transform="translate(-103 -379.23)"/><path id="_Path_12" data-name="&lt;Path&gt;" class="cls-3" d="M275.14,503.79v-0.06h6.6Z" transform="translate(-103 -379.23)"/><path id="_Path_13" data-name="&lt;Path&gt;" class="cls-3" d="M144.06,489.87l-0.18-2.4c0-.12,0-0.12.24-0.12C144.1,488.18,144.08,489,144.06,489.87Z" transform="translate(-103 -379.23)"/><path id="_Path_14" data-name="&lt;Path&gt;" class="cls-3" d="M149.69,480.71c-0.06-.77-0.12-1.53-0.18-2.29,0-.12,0-0.12.24-0.12C149.73,479.11,149.71,479.91,149.69,480.71Z" transform="translate(-103 -379.23)"/><path id="_Path_15" data-name="&lt;Path&gt;" class="cls-3" d="M151.25,473.34a11.49,11.49,0,0,0,.36,4.73c0.62,1.88,1.49,3.23,4.66,7.37,3.35,4.36,4.43,5.94,5.22,8.21a7.92,7.92,0,0,1,.39,4.59,38.55,38.55,0,0,1,11,4.05c3,1.84,5.17,4.23,6,6.54a8.16,8.16,0,0,1,0,4.82,10.16,10.16,0,0,1-2.11,3.41c-3.86,4.23-11.51,7.27-20.73,8.24a83.52,83.52,0,0,1-8.74.27c-12.31-.71-22.2-5-25-10.75a7,7,0,0,1,.09-6.85c1-2,3.81-4.38,7.09-6.16a56,56,0,0,1,9.3-3.55c0.15,2.07,4.2,7,5.53,8.79a59.84,59.84,0,0,1,4.9,7.1,4.34,4.34,0,0,1,.64,3.1,8.22,8.22,0,0,0,1.55-1.88,6.85,6.85,0,0,0,.64-3.71,10.8,10.8,0,0,0-1.26-4.55,32,32,0,0,0-4.2-6.08c-3.14-3.85-4.3-6-4.78-8.71-0.53-3,.32-6.29,2.08-7.86a6.25,6.25,0,0,1,1-.68s-0.05.78-.05,1.68a8.21,8.21,0,0,0,.94,4.31c0.9,1.79,2.15,3.46,6,8,3.38,4,4.43,6.06,4.43,8.62,0,0.6,0,1.23,0,1.23a7,7,0,0,0,1.3-1.3,9.06,9.06,0,0,0,.52-7.79c-0.68-1.87-1.79-3.58-5.07-7.69S148,483.27,148,480.48s0.61-5.47,3.22-7.13h0Z" transform="translate(-103 -379.23)"/></svg>